<svg width="436" height="382" viewBox="0 0 436 382" fill="none" xmlns="http://www.w3.org/2000/svg">
<path d="M333.962 233.849C333.962 233.849 361.857 183.702 380.296 182.296C398.734 180.89 424.141 176.161 431.296 214.935C438.45 253.708 414.439 294.968 403.75 305.546C393.061 316.124 359.02 349.697 340.108 360.572C321.197 371.448 302.758 377.595 302.758 377.595L298.976 263.737" fill="black"/>
<path d="M333.962 233.849C333.962 233.849 361.857 183.702 380.296 182.296C398.734 180.89 424.141 176.161 431.296 214.935C438.45 253.708 414.439 294.968 403.75 305.546C393.061 316.124 359.02 349.697 340.108 360.572C321.197 371.448 302.758 377.595 302.758 377.595L298.976 263.737" stroke="#575757" stroke-width="6" stroke-miterlimit="10"/>
<path d="M100.404 235.267C100.404 235.267 69.6721 181.362 52.6517 182.308C35.6312 183.254 3.95421 181.362 3.00863 238.104C2.06305 294.846 79.128 344.496 93.3117 344.968C107.495 345.441 125.934 344.968 125.934 344.968" fill="black"/>
<path d="M100.404 235.267C100.404 235.267 69.6721 181.362 52.6517 182.308C35.6312 183.254 3.95421 181.362 3.00863 238.104C2.06305 294.846 79.128 344.496 93.3117 344.968C107.495 345.441 125.934 344.968 125.934 344.968" stroke="#575757" stroke-width="6" stroke-miterlimit="10"/>
<path d="M359.913 15.6986C354.934 1.5869 341.588 1.83561 328.965 4.27646C308.907 8.15667 288.991 12.5684 269.192 17.5976C249.827 9.41823 228.645 6.01465 207.697 7.71218C200.255 8.31554 192.796 9.50712 185.575 11.4155C180.37 12.7915 173.124 16.736 167.494 17.1143C166.979 17.1493 166.478 17.154 165.993 17.1238C146.98 15.9644 129.389 7.79257 110.772 4.52896C96.469 2.02191 83.3378 4.92427 78.4415 20.0564C72.6366 38.001 72.3425 57.2621 74.1874 75.8744C75.0261 84.3355 76.1892 92.8629 78.0586 101.163C80.0831 110.153 83.7614 118.773 84.776 127.983C87.3934 151.748 93.4914 174.634 110.472 192.351C123.429 205.87 140.79 214.906 157.875 222.048C175.242 229.308 193.399 236.569 212.232 238.747C225.959 240.334 242.272 237.928 255.793 235.466C268.975 233.065 281.774 228.817 293.697 222.689C313.158 212.689 330.517 198.098 339.188 177.589C343.435 167.543 346.544 156.9 348.178 146.109C349.717 135.946 349.157 125.507 351.463 115.459C358.794 83.5175 371.386 48.2184 359.913 15.6986Z" fill="black" stroke="#575757" stroke-width="6" stroke-miterlimit="10"/>
<path d="M141.094 152.999C150.059 152.999 157.326 141.994 157.326 128.419C157.326 114.843 150.059 103.838 141.094 103.838C132.129 103.838 124.862 114.843 124.862 128.419C124.862 141.994 132.129 152.999 141.094 152.999Z" fill="#B0FF27"/>
<path d="M294.857 152.999C303.821 152.999 311.089 141.994 311.089 128.419C311.089 114.843 303.821 103.838 294.857 103.838C285.892 103.838 278.625 114.843 278.625 128.419C278.625 141.994 285.892 152.999 294.857 152.999Z" fill="#B0FF27"/>
<path d="M141.092 45.2327C141.312 56.2785 125.304 62.0945 118.716 68.6161C114.118 73.1687 110.332 77.8943 106.946 83.3614C103.154 89.482 94.1494 102.573 90.3255 89.1964C88.2547 81.9504 89.9539 72.8509 90.2565 65.4177C90.7661 52.8541 91.3997 22.3714 109.766 23.2585C119.843 23.7493 139.058 32.3873 140.926 43.4917C141.026 44.0866 141.081 44.6662 141.092 45.2327Z" fill="#575757"/>
<path d="M141.092 45.2327C141.312 56.2785 125.304 62.0945 118.716 68.6161C114.118 73.1687 110.332 77.8943 106.946 83.3614C103.154 89.482 94.1494 102.573 90.3255 89.1964C88.2547 81.9504 89.9539 72.8509 90.2565 65.4177C90.7661 52.8541 91.3997 22.3714 109.766 23.2585C119.843 23.7493 139.058 32.3873 140.926 43.4917C141.026 44.0866 141.081 44.6662 141.092 45.2327Z" fill="#575757"/>
<path d="M292.504 36.346C304.125 30.8619 330.126 12.6723 343.073 24.4028C350.342 30.9886 348.136 45.8626 347.191 54.3379C346.277 62.5542 345.358 79.816 338.134 85.581C331.336 90.998 324.647 81.8767 320.795 77.2834C310.702 65.2475 301.692 52.2111 292.128 39.7515" fill="#575757"/>
<path d="M222.793 135.407L210.651 136.153L230.156 154.246" stroke="#767676" stroke-width="3" stroke-miterlimit="10"/>
<path d="M223.25 135.379L206.104 155.723" stroke="#767676" stroke-width="3" stroke-miterlimit="10"/>
<path d="M57.4931 218.6C53.0449 215.246 44.6178 218.923 38.6706 226.812C32.7235 234.702 31.5083 243.816 35.9564 247.17C40.4046 250.524 48.8316 246.847 54.7788 238.958C60.726 231.069 61.9412 221.954 57.4931 218.6Z" fill="#575757"/>
<path d="M51.3544 209.395C56.2284 209.395 60.1795 205.302 60.1795 200.253C60.1795 195.204 56.2284 191.111 51.3544 191.111C46.4804 191.111 42.5293 195.204 42.5293 200.253C42.5293 205.302 46.4804 209.395 51.3544 209.395Z" fill="#575757"/>
<path d="M33.3029 204.65C29.1013 203.516 24.3534 207.571 22.6981 213.706C21.0429 219.842 23.1072 225.735 27.3088 226.869C31.5104 228.002 36.2583 223.948 37.9135 217.812C39.5687 211.677 37.5045 205.784 33.3029 204.65Z" fill="#575757"/>
<path d="M13.683 237.278C11.787 242.284 12.9391 247.361 16.2562 248.618C19.5734 249.874 23.7995 246.834 25.6954 241.828C27.5914 236.821 26.4393 231.744 23.1222 230.487C19.8051 229.231 15.579 232.271 13.683 237.278Z" fill="#575757"/>
<path d="M399.546 249.82C403.994 246.466 402.778 237.352 396.831 229.462C390.884 221.573 382.457 217.896 378.009 221.25C373.561 224.604 374.776 233.719 380.723 241.608C386.67 249.497 395.097 253.174 399.546 249.82Z" fill="#575757"/>
<path d="M384.155 212.029C389.029 212.029 392.98 207.936 392.98 202.886C392.98 197.837 389.029 193.744 384.155 193.744C379.281 193.744 375.33 197.837 375.33 202.886C375.33 207.936 379.281 212.029 384.155 212.029Z" fill="#575757"/>
<path d="M408.2 229.533C412.402 228.399 414.466 222.506 412.811 216.371C411.156 210.235 406.408 206.181 402.206 207.314C398.004 208.448 395.94 214.341 397.595 220.477C399.251 226.612 403.999 230.667 408.2 229.533Z" fill="#575757"/>
<path d="M409.766 244.452C411.662 249.459 415.888 252.499 419.205 251.242C422.522 249.986 423.674 244.909 421.778 239.902C419.882 234.895 415.656 231.855 412.339 233.112C409.022 234.368 407.87 239.446 409.766 244.452Z" fill="#575757"/>
<path fill-rule="evenodd" clip-rule="evenodd" d="M139.101 117.975C135.83 118.566 134.541 120.661 133.609 123.45C132.676 120.653 131.397 118.554 128.123 118.122C130.743 116.91 133.085 115.769 133.467 112.419C134.555 115.206 135.9 117.326 139.101 117.975Z" fill="black"/>
<path fill-rule="evenodd" clip-rule="evenodd" d="M146.583 111.513C143.311 112.104 142.022 114.199 141.09 116.988C140.158 114.191 138.878 112.092 135.606 111.66C138.226 110.448 140.567 109.307 140.949 105.957C142.037 108.744 143.382 110.865 146.583 111.513Z" fill="black"/>
<path fill-rule="evenodd" clip-rule="evenodd" d="M149.42 122.945C146.148 123.536 144.859 125.63 143.927 128.419C142.994 125.623 141.715 123.523 138.441 123.091C141.062 121.879 143.403 120.737 143.785 117.389C144.874 120.176 146.219 122.296 149.42 122.945Z" fill="black"/>
<path fill-rule="evenodd" clip-rule="evenodd" d="M298.646 117.975C301.917 118.566 303.206 120.661 304.139 123.45C305.071 120.653 306.35 118.554 309.624 118.122C307.004 116.91 304.662 115.769 304.28 112.419C303.192 115.206 301.847 117.326 298.646 117.975Z" fill="black"/>
<path fill-rule="evenodd" clip-rule="evenodd" d="M291.164 111.513C294.436 112.104 295.725 114.199 296.657 116.988C297.59 114.191 298.869 112.092 302.142 111.66C299.521 110.448 297.18 109.307 296.798 105.957C295.711 108.744 294.366 110.865 291.164 111.513Z" fill="black"/>
<path fill-rule="evenodd" clip-rule="evenodd" d="M288.328 122.945C291.599 123.536 292.888 125.63 293.821 128.419C294.753 125.623 296.032 123.523 299.306 123.091C296.686 121.879 294.344 120.737 293.962 117.389C292.873 120.176 291.529 122.296 288.328 122.945Z" fill="black"/>
</svg>
