<svg width="164" height="181" viewBox="0 0 164 181" fill="none" xmlns="http://www.w3.org/2000/svg">
<path d="M46.5693 149.93C47.6426 151.769 48.9518 155.29 51.3936 155.51C54.4623 155.787 53.6564 151.851 53.25 150.038C53.054 149.163 52.8592 148.287 52.6636 147.412C52.1212 144.985 51.5782 142.559 51.0355 140.132C49.9664 135.348 48.8963 130.564 47.8269 125.78C47.5937 124.738 47.3605 123.694 47.1273 122.652C47.1273 122.652 67.9717 115.256 67.3194 110.688C66.6671 106.119 70.5805 131.788 66.4496 142.448C62.3187 153.107 67.3194 151.149 69.9286 149.626C72.5377 148.103 77.5384 141.36 78.4082 128.09C78.7321 123.148 78.9435 118.135 78.4572 113.198C77.8851 107.386 75.08 101.076 79.9503 96.2905C87.6655 88.7108 109.354 86.7318 110.001 101.645C110.379 110.378 108.143 119.168 109.643 127.865C110.177 130.961 113.195 140.51 116.756 134.137C118.369 131.25 118.054 127.775 118.095 124.596C118.169 118.919 117.883 113.242 117.806 107.566C117.774 105.28 118.782 101.982 121.716 103.033C125.401 104.353 123.675 108.845 123.211 111.442C122.26 116.768 121.236 122.111 120.134 127.412C119.796 129.036 119.429 130.657 119.172 132.295C118.976 133.54 118.632 134.871 118.632 136.139C118.632 137.661 119.937 141.795 123.85 138.532C127.764 135.269 130.671 117.484 130.671 117.484C130.623 124.501 130.976 131.538 131.493 138.534C132.376 150.464 131.339 167.176 140.228 176.56C144.389 180.953 151.164 180.584 155.823 176.9C160.537 173.171 166.225 165.673 158.085 161.788C154.46 160.057 151.703 162.118 148.09 162.488C143.943 162.914 143.585 157.306 143.419 154.411C142.246 134.067 144.516 113.237 146.463 93.0667C147.44 82.9474 148.013 72.7772 147.803 62.6083C147.529 49.3748 145.825 36.574 136.828 26.2511C132.377 21.1444 126.839 15.8381 121.126 12.1555C117.062 9.5359 112.441 7.26451 107.841 5.75209C97.0336 2.19932 84.9653 -0.137003 73.7793 2.92306C62.0734 6.12506 52.7037 14.4624 45.3094 23.7829C40.9707 29.2517 36.9951 35.1418 33.4023 41.1268C27.9107 50.2754 23.3101 59.8974 18.3371 69.3278C11.7888 81.7449 -0.715134 101.219 8.37608 115.531C10.4288 118.763 14.4032 121.6 18.0185 122.833C21.6608 124.076 25.4992 124.626 29.3069 125.078C29.9364 125.152 37.0378 125.698 36.879 125.262C38.4298 129.51 39.9753 133.76 41.5307 138.007C43.031 142.101 44.3917 146.199 46.5693 149.93Z" fill="black" stroke="#5A5A5A" stroke-width="2" stroke-miterlimit="10"/>
<path d="M2.20169 98.5632C1.43396 101.01 1.06708 103.617 2.05268 106.068C3.36475 109.327 5.80427 111.948 7.95974 114.637C9.64883 116.743 11.4002 118.89 13.5407 120.542C15.5377 122.082 17.9224 123.017 20.3378 123.631C25.8075 125.02 31.5796 125.084 37.1442 124.414C45.5525 123.402 54.3577 122.702 61.3446 117.328C63.0996 115.979 64.8246 114.363 66.2182 112.627C67.0358 111.609 67.7954 110.564 68.4571 109.459C69.07 108.436 69.6003 107.362 70.0109 106.211C70.8468 103.879 71.3455 101.438 72.0271 99.0556C72.5907 97.0785 71.8722 95.4154 70.7538 93.778C68.6117 90.6406 66.5473 87.4467 64.4596 84.2718C64.1293 83.7696 63.8504 83.2342 63.5412 82.7173C62.2161 80.4916 61.9059 77.9778 61.4109 75.49C59.9269 68.05 55.9568 61.9404 51.0261 56.4102C50.4156 55.724 49.5301 55.2009 48.6727 54.8492C47.2357 54.2569 46.1357 54.6592 45.246 55.9282C43.2793 58.7347 41.6805 61.7459 41.1163 65.175C40.4415 69.2883 39.9201 73.4298 39.3826 77.5673C39.2795 78.3592 39.0867 78.7589 38.2048 78.8588C35.3733 79.1776 32.543 79.5417 29.7359 80.0211C28.7017 80.1992 28.2839 79.9339 28.0768 78.9391C26.9764 73.6334 24.5369 68.8684 21.9897 64.1814C20.6764 61.7606 19.1138 59.4494 16.8895 57.7144C14.9007 56.1635 13.2348 56.4794 11.7381 58.5217C10.4945 60.2165 10.0607 62.191 9.40716 64.1174C7.55467 69.5673 6.81107 75.1778 6.78954 80.9227C6.784 82.484 6.97448 84.1403 6.53908 85.5862C5.22538 89.9524 3.5679 94.2093 2.20169 98.5632ZM12.6813 83.3047C12.3242 83.2384 11.7848 82.7277 11.7776 82.4112C11.6941 79.2539 11.4573 76.0692 11.773 72.9472C11.9762 70.9378 12.6591 67.9241 14.086 66.4404C15.0804 65.4057 15.8116 65.9685 16.339 66.9899C17.6103 69.4577 18.2022 72.6799 18.6618 75.3997C19.0492 77.6994 19.0199 80.0217 19.138 82.343C19.2084 83.7223 18.8992 84.0832 17.607 83.9856C15.9574 83.861 14.3114 83.6094 12.6813 83.3047ZM49.1867 77.2406C48.0129 72.8173 46.9918 68.2585 47.2755 63.6531C47.3277 62.7897 47.6313 61.9283 48.599 61.7338C49.5719 61.5367 50.1107 62.2347 50.5428 63.0051C50.6002 63.1095 50.6615 63.2155 50.7101 63.3248C51.605 65.3385 52.5685 67.325 53.3701 69.3771C54.054 71.1303 54.5798 72.9468 55.1212 74.7516C55.6251 76.4392 55.3218 77.1052 53.6679 77.6874C52.7472 78.0094 51.743 78.0965 50.775 78.2754C49.9394 78.4274 49.4127 78.0949 49.1867 77.2406Z" fill="black"/>
<path d="M11.7773 82.4109C11.7845 82.7277 12.3242 83.238 12.681 83.3043C14.3111 83.6094 15.9571 83.8606 17.6067 83.9853C18.8989 84.0829 19.2081 83.7216 19.1377 82.3427C19.0196 80.0214 19.0489 77.6991 18.6615 75.3993C18.202 72.6796 17.61 69.4573 16.3387 66.9895C15.8113 65.9682 15.0801 65.4056 14.0857 66.44C12.6589 67.924 11.9759 70.9374 11.7727 72.9468C11.4567 76.0692 11.6938 79.2539 11.7773 82.4109Z" fill="#767676"/>
<path d="M47.2754 63.6531C46.9917 68.2582 48.0131 72.8173 49.1866 77.2406C49.4126 78.0949 49.9393 78.4277 50.7746 78.2754C51.7426 78.0965 52.7468 78.0097 53.6675 77.6874C55.3213 77.1052 55.6247 76.4392 55.1208 74.7516C54.5794 72.9472 54.0536 71.1303 53.3697 69.3771C52.568 67.325 51.6046 65.3385 50.7097 63.3248C50.6614 63.2152 50.5998 63.1095 50.5424 63.0051C50.1103 62.235 49.5714 61.5367 48.5986 61.7338C47.6309 61.9283 47.3276 62.7897 47.2754 63.6531Z" fill="#767676"/>
<path d="M68.4581 109.459C69.0709 108.436 69.6012 107.362 70.0119 106.211C70.8478 103.879 71.3464 101.438 72.0281 99.0556C72.5916 97.0785 71.8731 95.4154 70.7548 93.778C68.6127 90.6406 66.5482 87.4467 64.4606 84.2718C64.1302 83.7696 63.8514 83.2342 63.5422 82.7173C62.2171 80.4916 61.9069 77.9778 61.4118 75.49C59.9279 68.05 55.9578 61.9404 51.0271 56.4102C50.4166 55.724 49.5311 55.2009 48.6737 54.8492C47.2367 54.2569 46.1366 54.6592 45.2469 55.9282C43.2803 58.7347 41.6815 61.7459 41.1173 65.175C40.4425 69.2883 39.921 73.4298 39.3835 77.5673C39.2805 78.3592 39.0877 78.7589 38.2058 78.8588C35.3743 79.1776 32.544 79.5417 29.7369 80.0211C28.7027 80.1992 28.2849 79.9339 28.0778 78.9391C26.9774 73.6334 24.5379 68.8684 21.9907 64.1814C20.6773 61.7606 19.1148 59.4494 16.8905 57.7144C14.9017 56.1635 13.2358 56.4794 11.7391 58.5217C10.4955 60.2165 10.0617 62.191 9.40816 64.1174C7.55567 69.5673 6.81207 75.1778 6.79054 80.9227C6.785 82.484 6.97544 84.1403 6.54004 85.5862C5.22634 89.9527 3.5689 94.2097 2.2027 98.5635C1.43496 101.011 1.06804 103.617 2.05364 106.068C3.36571 109.327 5.80523 111.948 7.9607 114.638C9.64979 116.743 11.4012 118.89 13.5417 120.542C15.5386 122.082 17.9234 123.018 20.3388 123.631C25.8085 125.021 31.5806 125.084 37.1452 124.414C45.5535 123.403 54.3587 122.703 61.3456 117.328C63.1006 115.98 64.8255 114.363 66.2191 112.627C67.0365 111.609 67.7964 110.564 68.4581 109.459Z" stroke="#575757" stroke-width="2" stroke-miterlimit="10"/>
<path d="M37.4471 106.28L33.2917 106.86L40.4822 112.564" stroke="#767676" stroke-width="3" stroke-miterlimit="10"/>
<path d="M37.6031 106.258L32.2505 113.714" stroke="#767676" stroke-width="3" stroke-miterlimit="10"/>
<path d="M18.3663 107.819C22.7635 107.819 26.3281 104.253 26.3281 99.8537C26.3281 95.4544 22.7635 91.8881 18.3663 91.8881C13.9691 91.8881 10.4045 95.4544 10.4045 99.8537C10.4045 104.253 13.9691 107.819 18.3663 107.819Z" fill="#B0FF27"/>
<path d="M17.3531 102.896C18.4886 102.896 19.4091 101.975 19.4091 100.839C19.4091 99.7027 18.4886 98.7817 17.3531 98.7817C16.2176 98.7817 15.2971 99.7027 15.2971 100.839C15.2971 101.975 16.2176 102.896 17.3531 102.896Z" fill="black"/>
<path d="M51.2853 101.514C55.6824 101.514 59.247 97.9473 59.247 93.548C59.247 89.1486 55.6824 85.5823 51.2853 85.5823C46.8881 85.5823 43.3235 89.1486 43.3235 93.548C43.3235 97.9473 46.8881 101.514 51.2853 101.514Z" fill="#B0FF27"/>
<path d="M50.5038 96.59C51.7675 96.59 52.792 95.5651 52.792 94.3007C52.792 93.0363 51.7675 92.0114 50.5038 92.0114C49.24 92.0114 48.2156 93.0363 48.2156 94.3007C48.2156 95.5651 49.24 96.59 50.5038 96.59Z" fill="black"/>
</svg>
