<svg width="931" height="287" viewBox="0 0 931 287" fill="none" xmlns="http://www.w3.org/2000/svg">
<path fill-rule="evenodd" clip-rule="evenodd" d="M796.645 88.865C802.135 69.4227 820.556 62.1865 835.028 74.6238C835.474 73.5977 835.911 72.6668 836.289 71.7087C838.19 66.886 841.948 64.4283 846.605 65.7332C849.552 66.5595 850.283 65.4943 851.222 62.7008C852.214 59.7432 853.713 56.5289 855.867 54.5728C865.694 45.6474 877.132 41.5073 889.915 43.4855C903.679 45.6151 912.175 58.1076 910.342 70.6817C910.266 71.2046 910.414 71.7665 910.49 72.7407C911.739 72.5299 912.826 72.3301 913.919 72.1661C920.819 71.1281 925.618 75.178 926.24 82.7433C926.425 84.9893 926.728 86.5467 928.995 87.6468C931.902 89.0571 931.638 93.5228 928.267 94.8422C924.736 96.2245 920.655 96.999 916.949 96.5901C907.66 95.564 898.46 93.6155 889.201 92.2264C873.712 89.9022 858.398 92.1422 843.017 94.1273C828.735 95.9703 814.354 96.9964 799.992 97.9537C795.915 98.2257 791.707 97.2506 787.66 96.3214C786.208 95.9882 783.83 93.766 784.01 93C784.446 91.1331 785.952 88.4561 787.353 88.1977C790.195 87.6731 793.25 88.5343 796.645 88.865Z" fill="white"/>
<path fill-rule="evenodd" clip-rule="evenodd" d="M64.2904 25.8596C64.7375 25.0885 65.2991 24.3502 65.6259 23.5219C70.4147 11.3707 79.8237 4.71772 92.2381 1.85559C107.825 -1.7392 122.605 -0.564698 135.892 9.41758C142.317 14.2441 145.635 20.2732 144.991 28.3531C144.796 30.7977 144.96 33.2715 144.96 36.3316C147.426 36.0736 149.387 35.689 151.347 35.6965C157.305 35.719 163.325 35.4 169.2 36.1458C175.086 36.8935 178.573 40.4048 178.953 44.2866C179.369 48.5521 177.066 51.7032 170.97 54.0269C157.185 59.2821 142.79 60.7296 128.167 59.6808C109.934 58.374 91.7427 55.9837 73.4958 55.5231C61.9377 55.2295 50.3265 57.8008 38.7097 58.7164C29.4731 59.4453 20.1758 60.1423 10.9354 59.8637C3.31931 59.6348 -0.203131 55.4171 0.00903147 49.0099C0.237295 42.1102 5.50631 37.9282 12.5958 39.4564C15.4836 40.0793 16.7016 39.4761 17.9907 36.8269C22.8686 26.8043 32.5295 24.0322 42.5438 29.6448C44.6256 30.8099 45.8834 31.1664 47.6792 29.0257C53.7543 21.7826 55.91 21.4571 64.2904 25.8596Z" fill="white"/>
<path fill-rule="evenodd" clip-rule="evenodd" d="M815.794 253.619C818.361 253.193 820.793 252.904 823.144 252.341C824.034 252.128 825.171 251.423 825.461 250.703C828.683 242.67 834.685 237.978 844.394 238C854.264 238.023 863.793 243.959 867.01 252.2C867.949 254.608 868.197 257.452 867.851 259.995C867.489 262.667 865.143 265.084 867.162 268.073C867.377 268.392 865.191 270.852 863.948 270.982C861.088 271.28 858.008 271.146 855.219 270.493C842.108 267.421 829.265 268.516 816.532 272.058C805.291 275.185 793.938 275.778 782.316 274.034C779.426 273.601 776.304 274.559 773.282 274.648C771.489 274.701 769.189 274.831 768.031 273.951C767.055 273.209 766.658 270.652 767.343 269.631C768.23 268.312 770.346 267.477 772.117 266.871C775.219 265.807 778.461 265.076 782.268 264.035C780.314 259.293 780.257 254.783 783.757 250.811C786.846 247.307 791.041 245.438 795.794 244.438C804.957 242.51 811.152 245.438 815.794 253.619Z" fill="white"/>
<path fill-rule="evenodd" clip-rule="evenodd" d="M591.02 161.81C597.958 153.521 599.113 153.245 608.464 157.963C610.648 146.484 616.064 137.116 626.747 131.921C637.379 126.751 647.94 128.056 658.691 133.902C658.916 133.441 659.139 132.947 659.394 132.473C665.073 121.89 676.614 119.812 685.287 128.079C687.765 130.441 689.924 133.436 691.338 136.548C692.821 139.812 694.804 140.484 698.115 140.835C704.057 141.465 710.254 142.151 715.704 144.385C723.699 147.662 728.351 154.302 728.911 163.249C729.055 165.533 729.924 166.453 732.114 166.254C732.248 166.243 732.384 166.251 732.519 166.262C736.859 166.635 739.378 168.638 738.954 171.381C738.531 174.128 735.445 175.423 731.303 174.3C718.198 170.748 705.261 172.744 692.558 175.997C663.719 183.386 634.468 184.069 605.057 181.961C598.413 181.485 591.843 179.539 585.327 177.914C582.92 177.314 580.552 175.977 578.55 174.464C575.32 172.022 574.169 167.281 575.616 164.286C577.129 161.154 581.731 159.207 585.736 160.141C587.552 160.563 589.303 161.259 591.02 161.81Z" fill="white"/>
<path fill-rule="evenodd" clip-rule="evenodd" d="M290.834 178.154C292.988 176.572 294.582 175.32 296.255 174.189C308.265 166.081 322.918 170.263 329.243 183.279C330.409 185.681 333.07 187.34 334.956 189.418C335.776 190.32 337.002 191.477 336.91 192.407C336.811 193.407 335.543 194.684 334.494 195.096C333.162 195.619 331.467 195.732 330.048 195.438C309.958 191.29 290.139 194.409 270.247 197.24C263.381 198.216 256.321 198.182 249.369 197.972C247.543 197.917 245.789 195.472 244 194.124C245.97 192.953 247.818 191.435 249.938 190.692C253.197 189.55 256.74 189.191 259.963 187.972C261.191 187.508 262.565 185.647 262.683 184.317C263.388 176.407 267.209 171.012 274.993 169.258C282.379 167.593 287.958 170.434 290.834 178.154Z" fill="white"/>
<path fill-rule="evenodd" clip-rule="evenodd" d="M127.798 271.293C126.993 269.962 126.104 268.554 125.277 267.117C121.581 260.697 122.407 254.98 128.19 249.848C136.383 242.578 146.726 240.902 157.757 241.545C163.897 241.903 169.72 243.373 174.326 247.235C178.176 250.462 181.15 254.125 178.843 259.546C180.12 260.027 181.467 260.337 182.552 260.991C183.966 261.845 185.613 262.761 186.374 264.026C187.774 266.352 188.806 268.452 192.567 268.039C193.591 267.926 194.85 269.508 196.254 270.489C196.782 270.197 197.562 269.808 198.292 269.358C205.769 264.74 214.582 266.251 219.402 273.103C220.487 274.646 221.252 275.598 223.701 274.968C226.714 274.193 229.918 276.296 230.235 278.714C230.525 280.917 228.444 282.576 224.708 282.576C220.894 282.576 217.068 282.266 213.267 281.915C197.646 280.472 182.232 282.368 166.796 284.053C150.31 285.852 133.815 287.657 117.228 284.94C115.069 284.587 112.867 284.208 110.845 283.485C107.91 282.437 106.45 279.629 107.19 277.167C108.038 274.347 110.507 273.999 113.21 274.092C114.245 274.128 115.346 274.173 116.288 274.505C118.541 275.299 120.068 275.464 121.665 273.137C122.444 272.001 125.281 271.984 127.798 271.293Z" fill="white"/>
</svg>
