<svg width="301" height="302" viewBox="0 0 301 302" fill="none" xmlns="http://www.w3.org/2000/svg">
<g clip-path="url(#clip0_105_1840)">
<path d="M150.309 297.199C231.059 297.199 296.52 231.739 296.52 150.988C296.52 70.2383 231.059 4.77734 150.309 4.77734C69.5588 4.77734 4.0979 70.2383 4.0979 150.988C4.0979 231.739 69.5588 297.199 150.309 297.199Z" fill="#82B3C5"/>
<path d="M292.373 150.989C292.191 192.878 273.699 232.417 241.886 259.62C209.89 286.978 166.006 298.202 124.719 290.769C84.1767 283.471 48.5452 258.038 27.6411 222.691C6.07158 186.218 2.65466 141.11 17.1019 101.457C31.1003 63.0354 62.6017 32.0574 100.779 17.7798C140.438 2.94829 185.485 7.12452 222.013 28.3189C265.414 53.5016 292.156 101.008 292.373 150.989C292.396 156.336 300.69 156.338 300.667 150.989C300.486 109.529 283.313 69.7826 253.158 41.3111C222.927 12.7687 181.365 -1.7191 139.979 0.989179C98.9952 3.67073 60.3882 23.8137 34.2657 55.4017C7.71366 87.5085 -4.2455 130.05 1.34983 171.302C6.87512 212.028 29.2159 248.593 62.2561 272.855C96.0363 297.659 139.657 306.386 180.572 298.29C214.051 291.664 244.665 272.798 266.353 246.574C288.531 219.755 300.515 185.733 300.667 150.989C300.69 145.639 292.396 145.641 292.373 150.989Z" fill="black"/>
</g>
<path fill-rule="evenodd" clip-rule="evenodd" d="M47.3059 130.144C49.2152 128.471 50.2925 126.413 50.1174 124.27C49.8557 121.067 46.8793 118.504 42.6874 117.353C41.1973 114.105 35.3827 93.8906 33.4706 90.1687C30.0831 83.5763 21.8938 87.6337 20.4544 89.0168C20.1439 89.1661 16.9675 97.7084 16.6532 97.8862C-5.57786 130.484 3.92736 196.062 26.7519 227.74C28.0475 232.38 31.1336 235.65 34.7376 235.65C39.5082 235.65 43.3766 229.926 43.3766 222.866C43.3766 217.189 40.8748 212.383 37.4164 210.713C37.5721 210.416 37.7454 210.123 37.9204 209.832C40.6905 208.128 42.4551 205.552 42.4551 202.671C42.4551 198.927 39.4704 195.71 35.179 194.238C32.5352 189.937 29.145 185.561 26.6515 181.615C24.8407 178.749 23.5866 176.043 22.866 173.472C24.9329 171.725 26.1575 169.091 25.9244 166.246C25.7723 164.385 25.0177 162.718 23.8686 161.394C25.1882 158.804 27.2505 156.351 30.0647 154C33.9636 150.741 37.9417 147.489 41.2452 143.85C46.143 142.684 49.652 139.128 49.4631 135.082C49.3802 133.307 48.596 131.69 47.3225 130.375C47.3179 130.298 47.3096 130.221 47.3059 130.144Z" fill="#6C8D6C"/>
<path d="M49.2603 132.099C52.1252 129.219 54.2806 124.783 51.9437 120.843C50.8674 119.028 49.5266 117.77 47.8136 116.56C46.9427 115.945 45.7872 115.449 44.7726 115.122C45.1173 116.058 45.1532 116.161 44.8804 115.43C44.7413 115.049 44.6058 114.668 44.474 114.284C41.8892 106.888 39.8481 99.3083 37.1712 91.9409C34.614 84.9043 28.6704 81.8735 21.574 85.1439C16.2597 87.5923 15.4543 94.4363 12.5764 99.1322C2.47039 115.619 0.577631 136.569 1.45858 155.45C2.41417 175.918 7.28245 196.506 16.0892 215.023C18.6252 220.354 22.4917 225.114 24.8056 230.485C27.0541 235.703 31.5519 239.504 37.4532 237.979C43.2365 236.483 45.4757 229.505 46.083 224.358C46.7953 218.326 44.1644 211.426 38.8115 208.327C39.1423 209.587 39.4722 210.848 39.803 212.11C40.5853 210.742 42.362 209.981 43.2549 208.6C44.1847 207.162 44.9625 205.622 45.1136 203.886C45.4287 200.266 44.0686 197.348 41.5483 194.808C40.3577 193.609 38.7138 192.678 37.1602 192.063C35.8701 191.553 34.0676 187.573 33.2456 186.397C30.2203 182.069 27.1232 177.835 25.5308 172.736C25.294 173.632 25.0572 174.529 24.8204 175.425C29.1753 171.144 29.9632 164.981 26.2551 159.997C26.2551 160.927 26.2551 161.858 26.2551 162.787C28.6068 158.547 32.2771 155.76 35.9161 152.681C39.4279 149.71 42.2256 146.897 46.2903 144.787C49.0308 143.364 50.8407 140.779 51.8783 137.963C52.4579 136.387 52.1713 134.646 51.9372 133.047C51.846 132.421 49.9523 128.368 50.0703 130.144C49.8353 126.606 44.3045 126.583 44.5413 130.144C44.7413 133.153 47.749 134.467 45.9254 137.814C44.8795 139.733 42.455 140.62 40.5098 141.183C39.0427 141.607 38.0143 143.243 36.9961 144.267C31.7546 149.53 25.165 153.356 21.4818 159.998C21.0404 160.794 20.9003 162.007 21.4818 162.788C23.7136 165.79 23.615 168.858 20.9114 171.516C20.2276 172.188 19.9106 173.279 20.2009 174.205C22.4097 181.28 27.0338 186.991 31.1299 193.047C31.8975 194.181 32.5435 195.897 33.7838 196.624C35.484 197.619 37.0394 198.113 38.4714 199.557C42.4025 203.517 36.7151 206.371 35.0296 209.317C34.2842 210.621 34.709 212.341 36.0212 213.1C41.8561 216.477 41.5474 225.411 38.4594 230.51C33.8363 238.14 28.9321 226.175 26.7869 222.888C21.4127 214.653 17.5608 205.485 14.5014 196.172C7.86021 175.955 5.27453 154.034 7.6437 132.865C8.73199 123.141 11.291 113.405 15.7916 104.694C17.2807 101.812 19.1402 99.2815 20.376 96.2774C21.948 92.4542 21.7739 90.7798 25.2525 89.6408C29.6029 88.2162 31.1391 91.4138 32.3554 94.85C33.7994 98.9295 35.0656 103.073 36.3713 107.198C37.3979 110.442 38.3949 113.7 39.5496 116.901C39.9274 117.951 40.2674 119.141 41.2931 119.742C44.7754 121.781 50.2021 123.315 45.3522 128.191C42.8347 130.718 46.7428 134.629 49.2603 132.099Z" fill="black"/>
<mask id="mask0_105_1840" style="mask-type:alpha" maskUnits="userSpaceOnUse" x="9" y="9" width="284" height="284">
<path d="M151 293C229.424 293 293 229.424 293 151C293 72.5756 229.424 9 151 9C72.5756 9 9 72.5756 9 151C9 229.424 72.5756 293 151 293Z" fill="#82B3C5"/>
</mask>
<g mask="url(#mask0_105_1840)">
<g clip-path="url(#clip1_105_1840)">
<path d="M157.838 158.038C158.307 158.596 159.227 159.348 159.825 159.846C158.126 160.756 156.55 161.884 155.131 163.195C155.138 163.154 155.145 163.113 155.152 163.071C155.157 163.052 155.167 163.034 155.171 163.013C154.996 163.209 154.809 163.392 154.599 163.545C154.592 163.554 154.586 163.563 154.58 163.571C154.164 164.011 153.734 164.435 153.296 164.851C153.27 164.962 153.237 165.072 153.211 165.183C149.584 169.42 147.378 175.019 147.378 181.158C147.378 191.27 153.362 199.909 161.817 203.414C164.426 205.55 167.347 207.189 170.875 207.531L170.935 207.535C173.732 216.185 182.469 222.496 192.817 222.496C196.303 222.496 199.607 221.778 202.562 220.497C203.258 222.765 204.223 225.058 205.47 227.306C208.013 231.892 211.335 235.592 214.89 238.129C216.092 240.298 216.245 242.586 214.775 245.061C214.46 245.589 214.363 246.246 214.303 246.924C213.569 248.874 213.069 250.946 212.847 253.108C212.4 254.465 211.966 255.828 212.413 256.756C212.532 257.001 212.659 257.245 212.781 257.491C213.652 269.872 223.504 279.636 235.535 279.636C236.193 279.636 236.841 279.6 237.484 279.543C238.138 279.598 238.79 279.636 239.443 279.636C241.349 279.636 243.271 279.103 245.154 278.667C246.027 278.461 246.799 277.849 247.659 277.542C250.438 276.544 252.956 275.237 255.226 273.642C258.923 272.029 261.764 268.907 263.545 264.89C263.999 264.183 264.438 263.457 264.85 262.707C265.852 260.883 267.013 259.394 268.489 258.196C269.643 258.092 270.791 257.865 271.921 257.492C281.917 254.2 286.666 241.352 282.531 228.799C282.18 227.732 281.771 226.704 281.32 225.714C281.326 225.657 281.335 225.603 281.34 225.549C281.583 223.062 282.64 221.441 284.5 219.883C285.979 218.648 287.313 217.182 288.495 215.63C290.443 213.779 291.893 211.447 292.815 208.813C293.314 207.957 293.818 207.104 294.343 206.268C295.942 203.722 297.858 201.352 299.247 198.702C300.315 196.662 301.088 194.352 301.442 192.078C301.971 188.67 299.454 186.677 296.149 187.588C295.022 187.899 293.937 188.354 292.826 188.723C292.22 188.923 291.623 189.094 291.04 189.216C290.77 188.671 290.488 188.13 290.181 187.595C286.226 180.695 280.042 176.121 273.753 174.708C273.065 171.364 271.491 168.468 269.145 165.871C267.876 164.471 266.861 162.757 266.056 161.034C265.286 159.387 264.604 157.698 263.925 156.007C262.341 144.797 254.548 136.282 245.169 136.282C238.403 136.282 232.467 140.714 229.086 147.389C226.571 144.87 223.119 143.312 219.309 143.312C218.414 143.312 217.543 143.407 216.696 143.57C216.29 143.379 215.889 143.181 215.482 142.994C215.232 142.88 214.999 142.763 214.778 142.642C214.484 135.099 208.383 129.072 200.881 129.072C197.723 129.072 194.82 130.152 192.484 131.951C190.55 126.599 186.783 122.968 182.453 122.968C176.15 122.968 171.041 130.664 171.041 140.155C171.041 140.577 171.062 140.991 171.082 141.406C162.694 142.105 156.193 146.81 156.064 152.549C156.439 154.597 156.683 156.098 157.838 158.038Z" fill="#6C8D6C"/>
<path d="M155.884 159.993C156.501 160.644 157.164 161.247 157.87 161.801C158.057 160.354 158.243 158.906 158.43 157.459C156.532 158.556 154.829 159.807 153.176 161.24C154.716 162.137 156.257 163.033 157.797 163.929C157.801 163.867 157.816 163.806 157.838 163.748C158.77 160.996 155.135 159.276 153.218 161.059C145.463 168.264 142.925 179.69 145.978 189.763C147.505 194.802 150.876 199.516 155.083 202.659C159.514 205.97 165.278 209.878 170.936 210.3C170.048 209.623 169.159 208.946 168.27 208.271C173.378 222.504 189.516 228.666 203.299 223.163C202.166 222.52 201.032 221.877 199.899 221.232C201.459 225.962 203.687 230.484 206.908 234.32C208.578 236.309 210.356 238.156 212.438 239.719C213.792 240.737 211.1 247.799 210.719 249.202C208.53 257.281 210.587 266.434 216.042 272.964C218.758 276.216 222.021 278.716 225.907 280.417C230.102 282.253 234.048 282.073 238.467 282.375C243.207 282.699 247.528 280.665 251.75 278.83C256.124 276.929 261.08 274.006 263.808 269.981C265.084 268.1 266.108 266.072 267.241 264.101C269.184 260.719 271.196 260.953 274.408 259.475C278.458 257.612 281.446 254.6 283.67 250.771C285.827 247.06 286.603 242.678 286.787 238.451C286.897 235.908 286.474 233.335 285.974 230.855C285.505 228.529 283.604 226.044 284.704 223.764C285.623 221.857 288.141 220.314 289.538 218.731C291.224 216.823 292.83 214.95 294.108 212.735C295.572 210.197 296.734 207.603 298.406 205.16C299.938 202.922 301.497 200.712 302.52 198.183C304.152 194.147 305.379 189.788 302.192 186.26C299.047 182.779 293.799 185.696 290.307 186.552C291.348 186.975 292.389 187.399 293.43 187.823C289.529 180.181 282.883 174.194 274.491 172.044C275.135 172.687 275.778 173.33 276.422 173.974C274.553 166.441 267.645 161.611 266.364 153.887C265.318 147.582 261.768 141.554 256.765 137.614C246.066 129.185 232.631 135.047 226.701 145.995C228.148 145.808 229.596 145.622 231.043 145.436C228.967 143.543 226.785 142.244 224.151 141.272C221.573 140.322 218.48 141.409 216.174 140.256C216.632 141.051 217.088 141.847 217.544 142.643C216.461 129.46 202.382 121.768 191.09 129.566C192.444 130.117 193.798 130.667 195.15 131.218C192.445 124.461 186.743 118.29 178.839 120.856C170.779 123.472 168.073 133.986 168.319 141.408C169.241 140.486 170.162 139.565 171.084 138.643C159.995 139.892 149.318 147.471 155.452 159.431C157.08 162.605 161.849 159.807 160.227 156.641C156.231 148.851 164.475 144.917 171.084 144.172C172.54 144.008 173.903 143.039 173.848 141.408C173.685 136.482 174.699 131.48 178.126 127.762C182.739 122.755 187.981 128.096 189.82 132.688C190.432 134.216 192.273 135.45 193.88 134.34C200.964 129.448 209.649 132.595 211.806 140.926C212.569 143.873 212.531 145.293 215.963 146.236C217.631 146.695 219.594 145.989 221.357 146.261C223.597 146.606 225.497 147.855 227.133 149.345C228.407 150.507 230.592 150.414 231.475 148.785C237.324 137.987 249.91 135.671 257.383 146.236C260.321 150.39 260.627 155.393 262.572 159.934C264.936 165.454 269.639 169.594 271.09 175.444C271.317 176.36 272.11 177.142 273.021 177.375C280.105 179.191 285.374 184.186 288.655 190.612C289.225 191.73 290.622 192.167 291.778 191.883C293.518 191.456 295.185 190.812 296.888 190.254C298.483 191.331 298.907 192.603 298.162 194.07C297.738 195.691 296.945 197.162 296.129 198.611C293.941 202.497 291.272 205.903 289.335 209.945C286.988 214.845 276.875 219.966 278.658 226.45C279.945 231.127 281.418 234.794 281.202 239.779C281.021 243.95 279.347 248.084 276.625 251.222C275.511 252.506 274.133 253.408 272.664 254.221C270.771 255.269 268.125 254.803 266.54 256.242C262.944 259.504 261.567 264.001 258.61 267.706C255.986 270.996 250.784 273.397 246.929 274.876C242.995 276.386 239.709 276.764 235.541 276.871C227.358 277.081 220.156 271.353 217.086 264.04C215.899 261.212 214.615 256.793 215.517 253.842C216.134 251.828 216.28 249.693 216.973 247.658C217.524 246.043 218.57 243.956 218.566 242.175C218.551 237.816 216.752 236.339 213.728 233.583C209.685 229.9 206.929 224.901 205.233 219.761C204.801 218.455 203.284 217.251 201.832 217.83C191.056 222.132 177.764 218.388 173.605 206.798C173.161 205.559 172.254 204.867 170.939 204.769C167.035 204.478 163.205 201.259 159.904 199.315C155.789 196.889 152.908 192.704 151.312 188.291C148.319 180.02 151.49 170.206 157.13 164.965C155.59 164.068 154.049 163.172 152.509 162.276C152.486 162.334 152.472 162.395 152.468 162.458C151.988 165.202 154.919 167.028 157.088 165.146C158.418 163.994 159.711 163.104 161.222 162.23C162.671 161.392 163.157 159.051 161.781 157.889C161.075 157.334 160.413 156.732 159.795 156.081C157.246 153.586 153.334 157.494 155.884 159.993Z" fill="black"/>
</g>
<path fill-rule="evenodd" clip-rule="evenodd" d="M246.786 74.8322C244.811 71.7139 242.929 68.5329 241.196 65.28C240.879 64.6865 240.548 64.1263 240.206 63.5807C240.265 63.3946 240.329 63.2094 240.371 63.0168C241.332 58.5807 236.977 53.8737 230.646 52.5034C227.803 51.8879 225.049 52.0556 222.786 52.8223C222.806 49.1906 220.765 46.053 217.66 45.3812C214.339 44.6633 210.96 47.0132 209.63 50.7471C207.725 50.8549 205.61 50.4209 204.013 49.5924C203.018 49.0746 202.026 48.5871 201.028 48.1438C200.602 45.1757 198.671 42.7457 195.938 42.1532C193.006 41.5192 190.044 43.1926 188.497 46.0677C186.281 46.1986 184.062 46.2428 181.842 46.2603C180.329 45.56 178.635 44.9831 176.81 44.5887C169.304 42.9641 162.496 44.9812 161.606 49.093C160.716 53.2056 166.08 57.8555 173.588 59.4801C174.358 59.6478 175.118 59.7667 175.87 59.8579C175.788 60.1021 175.717 60.3509 175.662 60.608C174.876 64.2332 176.941 67.756 180.271 68.4776C181.982 68.8471 183.691 68.4029 185.058 67.3957C186.678 69.8736 189.878 72.5865 193.986 74.6949C197.779 76.6411 201.541 77.6603 204.424 77.7064C204.422 77.7137 204.418 77.7202 204.416 77.7275C203.563 81.6697 209.38 86.2754 217.407 88.0133C220.627 88.71 223.705 88.8316 226.302 88.4824C226.946 92.0974 229.942 95.2249 234.068 96.1179C238.759 97.1333 243.321 94.919 245.041 91.0607C250.199 91.479 254.715 89.0389 255.568 85.1023C256.514 80.7344 252.591 76.1739 246.786 74.8322Z" fill="#6C8D6C"/>
<path d="M249.173 73.437C247.033 70.0229 245.064 66.5313 243.097 63.0168C243.003 63.9963 243.016 63.9963 243.135 63.0168C243.28 62.3367 243.307 61.652 243.213 60.9627C243.135 59.3842 242.446 57.9421 241.696 56.5875C238.065 50.0218 228.644 48.3521 222.049 50.1564C223.217 51.0447 224.382 51.933 225.549 52.8222C224.828 41.7578 211.806 38.8192 207.243 49.3519C208.039 48.8957 208.835 48.4387 209.63 47.9825C207.427 47.9549 205.854 47.4306 203.917 46.4528C203.042 46.0114 203.149 45.1397 202.698 44.3657C201.569 42.4324 200.01 40.5663 197.794 39.8494C192.905 38.2681 188.772 40.547 186.109 44.6716C186.905 44.2155 187.701 43.7584 188.496 43.3022C185.536 43.4497 182.968 43.6616 180.178 42.6434C177.62 41.7099 174.832 41.4076 172.133 41.2648C168.125 41.0538 162.153 42.2333 159.948 46.0667C154.6 55.3628 168.02 61.5138 175.134 62.5219C174.491 61.3884 173.848 60.255 173.203 59.1216C170.939 67.3312 178.867 74.3014 186.454 69.7815C185.192 69.4506 183.931 69.1207 182.671 68.7899C187.555 75.6025 196.125 79.9594 204.425 80.469C203.536 79.3024 202.647 78.1357 201.759 76.97C200.407 81.0246 204.262 84.671 207.119 86.7674C212.365 90.6174 219.976 91.8835 226.302 91.2459C225.413 90.5695 224.524 89.8931 223.636 89.2158C226.444 100.294 241.887 102.699 247.427 92.4549C246.631 92.911 245.835 93.3681 245.04 93.8242C250.691 94.0039 257.489 91.4901 258.331 85.1013C259.218 78.379 253.368 73.8019 247.52 72.1663C244.08 71.2042 242.622 76.5388 246.05 77.4971C248.985 78.3182 251.758 79.764 252.815 82.8234C254.351 87.2724 247.87 88.3856 245.04 88.2952C244.1 88.2648 243.101 88.8362 242.652 89.6646C239.352 95.7677 230.614 94.2527 228.966 87.747C228.688 86.6467 227.489 85.5971 226.3 85.7169C221.998 86.1509 217.957 85.5252 213.887 84.0904C212.488 83.5974 206.316 80.7519 207.087 78.4398C207.686 76.6411 206.122 75.045 204.421 74.9409C198.222 74.5594 191.119 71.1305 187.441 65.9996C186.571 64.7851 185.044 64.1825 183.659 65.0081C180.152 67.0971 177.596 63.9834 178.531 60.5914C178.894 59.281 178.095 57.403 176.601 57.1911C174.148 56.8437 161.005 53.2517 164.893 48.7059C166.796 46.4814 171.079 46.7376 173.648 46.873C176.443 47.0205 179.193 49.0533 181.839 49.0229C184.1 48.9971 187.863 49.6394 189.888 48.4525C190.831 47.9005 191.413 46.6224 192.088 45.876C194.291 43.4377 197.184 45.3148 198.087 47.6416C199.157 50.4024 199.781 50.548 202.615 51.9781C204.831 53.0959 207.171 53.4793 209.627 53.5106C210.507 53.5216 211.644 52.9955 212.015 52.1412C214.056 47.4287 219.61 46.557 220.018 52.8213C220.134 54.598 221.696 55.9848 223.518 55.4872C227.573 54.3787 239.575 55.9037 237.538 62.8463C237.017 64.6202 238.783 66.6299 239.558 68.0656C241.063 70.8486 242.717 73.5495 244.396 76.2282C246.287 79.2406 251.073 76.4678 249.173 73.437Z" fill="black"/>
<path fill-rule="evenodd" clip-rule="evenodd" d="M198.869 244.776C195.175 244.776 191.471 244.904 187.79 244.746C182.321 244.512 178.491 241.607 178.567 237.996C178.641 234.526 182.336 231.565 187.49 231.445C195.396 231.262 203.324 231.261 211.228 231.478C216.34 231.619 220.001 234.703 219.933 238.168C219.863 241.63 216.156 244.489 211.003 244.725C206.971 244.909 202.915 244.762 198.87 244.762C198.869 244.767 198.869 244.771 198.869 244.776Z" fill="white"/>
<path d="M198.869 242.011C194.127 242.03 184.971 243.779 181.718 239.357C177.366 233.441 196.467 234.08 198.446 234.075C202.43 234.064 216.697 232.059 217.168 238.167C217.608 243.867 201.911 242.01 198.869 241.996C197.361 241.99 196.104 243.259 196.104 244.761C196.104 244.765 196.104 244.771 196.104 244.775C196.104 248.341 201.633 248.341 201.633 244.775C201.633 244.771 201.633 244.765 201.633 244.761C200.712 245.682 199.79 246.604 198.869 247.525C205.902 247.556 221.369 249.608 222.589 239.095C223.957 227.317 207.396 228.584 200.272 228.548C192.03 228.507 177.139 226.484 175.802 237.996C175.377 241.651 178.804 244.933 181.848 246.192C187.125 248.373 193.288 247.564 198.869 247.541C202.433 247.525 202.435 241.996 198.869 242.011Z" fill="black"/>
<path fill-rule="evenodd" clip-rule="evenodd" d="M251.539 155.412C257.577 155.412 263.615 155.37 269.654 155.421C278.954 155.498 284.978 159.746 285.766 166.7C286.485 173.035 280.533 179.477 271.805 179.85C258.06 180.439 244.201 180.456 230.47 179.748C221.084 179.265 216.183 173.515 216.893 166.219C217.532 159.665 223.631 155.517 232.911 155.424C239.119 155.362 245.331 155.412 251.539 155.412Z" fill="white"/>
<path d="M251.539 158.176C258.599 158.172 266.066 157.471 273.072 158.429C278.234 159.135 282.754 162.238 283.061 167.755C283.437 174.523 275.17 176.947 270.012 177.158C262.823 177.453 255.628 177.548 248.433 177.507C239.928 177.459 217.641 180.288 219.704 165.938C220.5 160.401 226.756 158.624 231.472 158.235C238.082 157.691 244.907 158.172 251.539 158.176C255.104 158.178 255.104 152.649 251.539 152.647C240.379 152.64 215.157 148.967 214.128 166.219C213.014 184.895 235.952 182.916 248.433 183.037C253.831 183.091 259.23 183.01 264.625 182.869C269.098 182.752 273.618 182.863 277.905 181.436C283.927 179.43 288.225 174.063 288.59 167.756C288.93 161.878 284.414 156.558 279.236 154.466C270.819 151.066 260.407 152.643 251.539 152.648C247.973 152.649 247.973 158.178 251.539 158.176Z" fill="black"/>
<path fill-rule="evenodd" clip-rule="evenodd" d="M230.697 252.295C227.395 256.352 224.871 259.573 222.139 262.7C221.668 263.24 220.323 263.641 219.368 263.655C215.086 263.723 210.762 263.869 206.526 263.522C202.432 263.186 199.831 261.184 199.634 258.162C199.438 255.159 201.651 252.629 205.742 252.413C213.445 252.005 221.217 252.295 230.697 252.295Z" fill="white"/>
<path d="M228.742 250.339C227.397 251.997 226.057 253.66 224.714 255.318C223.587 256.711 221.295 260.64 219.368 260.89C216.773 261.225 213.937 260.985 211.322 260.969C208.77 260.953 205.339 261.236 203.197 259.575C199.734 256.888 205.431 255.191 207.189 255.107C209.631 254.991 212.08 254.973 214.524 254.959C219.915 254.928 225.307 255.048 230.697 255.057C234.263 255.064 234.263 249.535 230.697 249.528C222.033 249.513 213.071 248.767 204.451 249.801C199.041 250.451 195.552 255.557 197.447 260.752C199.84 267.306 209.071 266.531 214.542 266.497C217.319 266.479 221.976 267.103 224.094 264.652C227.032 261.254 229.823 257.735 232.652 254.247C234.876 251.507 230.989 247.57 228.742 250.339Z" fill="black"/>
<path fill-rule="evenodd" clip-rule="evenodd" d="M47.5197 32.8067C54.3719 32.8067 61.2242 32.7634 68.0765 32.8242C72.366 32.862 74.4864 34.6479 74.585 38.0722C74.6864 41.6328 72.5761 43.4786 68.1318 43.7163C67.5798 43.7458 67.0213 43.7246 66.4795 43.8085C64.0541 44.178 62.671 45.5446 62.7733 47.9635C62.8709 50.2866 64.385 51.4366 66.6721 51.5426C71.9615 51.7905 77.2555 52.0817 82.5495 52.1434C91.1682 52.2438 99.7907 52.1296 108.409 52.1941C113.739 52.2328 116.814 54.9392 117.35 59.8407C117.835 64.2731 114.812 68.2235 110.018 69.1487C108.195 69.4998 106.285 69.4316 104.415 69.5459C101.91 69.6998 99.9934 70.7014 100.048 73.3756C100.099 75.8821 101.694 77.2745 104.332 77.3509C106.209 77.4062 108.096 77.3122 109.964 77.4578C116.214 77.9471 121.177 82.8265 121.588 88.7876C121.98 94.4613 117.989 99.6889 112.042 101.133C110.449 101.52 108.774 101.759 107.137 101.77C98.0749 101.829 89.0129 101.818 79.9509 101.789C75.0144 101.773 70.8023 100.206 68.0885 95.956C63.0092 88.0044 68.1889 78.2531 77.8858 77.4412C79.3141 77.3214 81.0364 77.7352 82.1117 77.0929C83.5244 76.2488 85.3259 74.5864 85.3001 73.3065C85.2762 72.0634 83.3198 70.6056 81.8934 69.7329C81.0041 69.1893 79.5261 69.5247 78.3115 69.5228C66.7071 69.5062 55.1008 69.579 43.5001 69.427C41.2692 69.3975 38.8669 68.8713 36.87 67.925C33.6005 66.375 32.1418 63.441 32.5224 59.8997C32.9334 56.0791 35.5366 53.2188 39.2189 52.3314C40.7135 51.9711 42.257 51.749 43.7923 51.608C46.3402 51.373 48.0763 50.2562 48.0579 47.6281C48.0385 44.9106 46.0177 43.9467 43.6089 43.8205C40.743 43.6703 37.8652 43.7486 34.9911 43.7338C32.0082 43.7191 29.0197 43.8011 26.0396 43.6813C22.373 43.5366 20.3761 41.5628 20.3605 38.2989C20.343 35.0183 22.3159 32.9809 25.9714 32.8574C30.0564 32.7183 34.1479 32.8003 38.2375 32.7938C41.3309 32.7883 44.4272 32.792 47.5207 32.792C47.5197 32.7975 47.5197 32.8031 47.5197 32.8067Z" fill="white"/>
<path d="M47.5196 35.5711C54.3718 35.5683 61.2241 35.5361 68.0764 35.5886C71.4398 35.6144 73.6956 39.4663 69.7839 40.7149C67.235 41.5286 64.7082 40.7204 62.4626 42.5579C59.8188 44.7206 59.0318 49.1171 61.3632 51.8549C64.8059 55.8993 72.5465 54.6028 77.2554 54.7797C84.1859 55.0405 91.1313 54.9557 98.0655 54.9428C103.889 54.9317 114.306 52.6861 114.633 61.0357C114.929 68.5809 104.694 65.3935 100.763 67.6254C97.3495 69.5623 96.0106 74.2104 98.6405 77.4577C101.859 81.4321 107.265 79.5643 111.654 80.5466C118.496 82.0772 120.825 90.3808 116.466 95.5006C111.996 100.75 102.347 99.0373 96.2631 99.0475C92.6379 99.053 89.0137 99.0474 85.3885 99.041C81.5845 99.0336 77.5917 99.4455 74.0412 97.8099C68.7278 95.3624 67.4221 88.2245 70.8768 83.8142C74.759 78.8584 81.0455 82.1076 85.1646 78.2825C88.7133 74.9872 88.7667 71.6219 84.9784 68.5321C80.6013 64.9613 72.5696 66.7582 67.318 66.7628C61.8212 66.7665 56.3245 66.7647 50.8278 66.7343C46.0655 66.7085 35.8756 68.0852 35.2296 61.2007C34.6555 55.0782 41.5059 54.764 45.7282 54.083C49.0557 53.5458 50.4905 50.6035 50.8213 47.6307C51.8257 38.5982 36.0986 40.9582 31.4091 40.9821C28.8363 40.9959 23.4418 42.0621 23.1248 38.3024C22.8088 34.563 28.9966 35.5554 31.2266 35.5435C36.657 35.5158 42.0901 35.5582 47.5205 35.5591C46.599 34.6376 45.6775 33.7161 44.756 32.7946C44.756 32.7992 44.756 32.8038 44.756 32.8094C44.756 36.3746 50.285 36.3746 50.285 32.8094C50.285 32.8048 50.285 32.8002 50.285 32.7946C50.285 31.2871 49.0272 30.0301 47.5205 30.0301C40.9226 30.0292 34.3201 29.9537 27.7231 30.0486C23.0345 30.1168 19.05 31.4658 17.7811 36.3968C14.3853 49.5954 35.1549 46.4208 41.8874 46.5222C44.3653 46.56 45.601 48.6453 42.256 49.0167C40.9834 49.1576 39.7348 49.4064 38.4834 49.6691C36.41 50.1031 34.6712 51.302 33.0908 52.6427C29.7909 55.4413 28.8307 61.1279 30.4802 64.9853C32.4126 69.5033 36.7777 71.3685 41.4091 72.019C48.606 73.0299 56.3908 72.2936 63.6522 72.2936C67.317 72.2936 70.9818 72.2881 74.6466 72.2881C76.2943 72.2881 77.9354 72.3102 79.5812 72.2255C85.4484 71.9223 79.8669 74.6794 77.8847 74.6803C73.4192 74.6822 68.9969 77.313 66.3154 80.7355C60.6583 87.9554 63.7094 98.1416 71.2491 102.585C75.9008 105.327 82.0766 104.564 87.2002 104.575C94.8357 104.589 102.852 105.24 110.426 104.235C119.999 102.964 126.647 94.1082 123.487 84.6343C121.749 79.4223 116.564 75.5281 111.196 74.8508C109.375 74.6204 107.574 74.6075 105.741 74.6075C102.259 74.6075 102.461 72.3959 105.823 72.2503C109.1 72.1084 111.998 71.773 114.905 70.1567C119.957 67.348 121.138 60.8579 119.141 55.8505C116.486 49.1917 109.257 49.4221 103.237 49.411C93.987 49.3945 84.7351 49.5336 75.4898 49.1862C73.1372 49.0977 70.7856 48.9761 68.4339 48.8637C66.0362 49.2618 65.9357 48.4683 68.1298 46.4834C68.7988 46.4364 69.4651 46.3637 70.1276 46.2651C72.3383 45.8384 74.771 44.9584 76.0215 42.9265C78.5611 38.8028 77.3761 33.3365 73.0414 31.0558C70.0972 29.5067 66.1108 30.0449 62.9353 30.0338C57.7961 30.0154 52.657 30.0421 47.5178 30.0449C43.9543 30.044 43.9543 35.5729 47.5196 35.5711Z" fill="black"/>
<path fill-rule="evenodd" clip-rule="evenodd" d="M27.0818 200.543C31.4755 194.343 35.7558 188.06 40.3642 182.026C41.1807 180.958 43.3572 180.51 44.9127 180.493C56.5595 180.37 68.2072 180.347 79.8522 180.458C86.1589 180.517 89.9389 183.999 90.759 190.044C91.4898 195.432 88.294 199.916 82.4093 201.456C80.3553 201.994 78.187 202.34 76.0685 202.352C61.3568 202.429 46.6451 202.407 31.9334 202.379C30.6212 202.376 29.3109 202.1 28.0005 201.951C27.6946 201.482 27.3877 201.012 27.0818 200.543Z" fill="white"/>
<path d="M29.4693 201.938C32.5047 197.643 35.507 193.323 38.5783 189.053C40.284 186.682 41.7317 183.504 44.9136 183.258C47.9444 183.025 51.0683 183.201 54.1083 183.182C60.2381 183.143 66.3679 183.143 72.4986 183.17C77.0646 183.189 83.493 182.014 86.5828 186.282C89.7877 190.708 87.7982 196.374 82.9861 198.385C77.6461 200.616 70.6915 199.615 65.0372 199.629C58.9074 199.644 52.7776 199.643 46.6478 199.638C43.5829 199.635 40.5181 199.631 37.4532 199.625C36.1345 199.623 30.329 200.462 29.4711 199.149C27.5305 196.176 22.7415 198.943 24.6969 201.938C26.421 204.578 27.5738 204.665 30.6249 205.065C34.6232 205.59 38.9395 205.157 42.9702 205.161C52.1649 205.175 61.3595 205.173 70.5542 205.141C76.6554 205.121 84.0302 205.488 88.9989 201.213C93.3096 197.505 94.3123 192.405 92.942 187.03C91.8076 182.578 88.3059 179.569 84.067 178.232C81.0242 177.272 77.4654 177.671 74.3379 177.651C69.4346 177.619 64.5304 177.618 59.6271 177.629C55.3357 177.639 51.0452 177.67 46.7538 177.71C44.2611 177.733 41.2884 177.705 39.2482 179.383C36.6247 181.54 34.756 184.939 32.783 187.683C30.0536 191.48 27.3959 195.328 24.6978 199.147C22.6318 202.067 27.4291 204.825 29.4693 201.938Z" fill="black"/>
</g>
<defs>
<clipPath id="clip0_105_1840">
<rect width="300.667" height="300.555" fill="white" transform="translate(0 0.667725)"/>
</clipPath>
<clipPath id="clip1_105_1840">
<rect width="292.422" height="292.422" fill="white" transform="translate(4.09766 4.77734)"/>
</clipPath>
</defs>
</svg>
