<svg width="1335" height="281" viewBox="0 0 1335 281" fill="none" xmlns="http://www.w3.org/2000/svg">
<path d="M348.497 117.993C348.457 133.848 348.417 149.082 348.369 164.475C363.611 163.206 378.988 160.702 393.44 153.906C396.659 152.393 399.79 150.409 402.531 148.073C408.434 143.033 408.354 137.882 401.795 133.748C396.068 130.144 389.877 127.111 383.558 124.842C372.023 120.708 360.008 118.8 348.497 117.993Z" fill="#EB621A" stroke="black" stroke-width="7" stroke-miterlimit="10"/>
<path d="M259.965 41.8698C280.77 18.4017 305.613 7.48921 335.303 11.2035C365.694 15.0188 387.638 32.3292 402.062 60.304C397.277 60.507 392.826 60.6454 388.374 60.9036C371.654 61.8718 356.187 66.9781 342.112 76.5918C340.114 77.9558 338.537 79.3938 335.645 77.3656C313.124 61.5857 288.736 50.0728 262.524 42.9018C261.972 42.7541 261.455 42.4773 259.965 41.8698Z" fill="#154F99"/>
<path d="M90.6413 70.9964C91.1493 70.7389 91.7452 70.6737 91.9204 70.6184C91.885 117.573 91.8591 164.526 91.8325 211.737C75.1737 203.396 59.3032 193.155 45.5532 179.937C34.4501 169.264 24.5654 157.189 14.1189 145.768C11.4904 142.892 10.8768 140.569 13.6103 136.846C34.4071 108.52 60.1889 86.7577 90.6413 70.9964Z" fill="#D9DEF4"/>
<path d="M298.865 67.5032C301.67 68.7941 302.984 70.3145 302.967 73.8911C302.721 118.945 302.642 164.01 302.625 209.064C302.625 211.893 301.889 213.442 299.356 214.594C235.673 243.555 171.473 245.906 106.616 219.083C103.838 217.931 102.664 216.566 102.672 213.193C102.795 165.078 102.76 116.963 102.786 68.8486C102.786 67.41 103.058 65.9721 103.172 64.7837C104.757 64.0371 105.8 63.4928 106.879 63.0603C171.447 37.242 235.445 38.3673 298.865 67.5032ZM265.258 140.496C265.258 99.8105 233.903 66.8298 195.221 66.8298C156.532 66.8298 125.177 99.8098 125.177 140.496C125.177 181.191 156.532 214.17 195.221 214.17C233.903 214.171 265.258 181.191 265.258 140.496Z" fill="#4B7BB9"/>
<path d="M325.857 82.4627C333.113 85.9468 335.277 91.1922 335.102 99.69C334.507 129.158 334.822 158.654 334.971 188.14C334.988 191.615 334.086 193.874 331.247 195.597C325.235 199.247 319.32 203.082 313.019 207.064C313.037 162.599 313.063 118.955 313.09 74.6735C317.286 77.274 321.379 80.3155 325.857 82.4627Z" fill="#23D0F0"/>
<path d="M195.222 66.8298C233.902 66.8298 265.258 99.8098 265.258 140.496C265.258 181.191 233.903 214.17 195.222 214.17C156.532 214.17 125.177 181.19 125.177 140.496C125.177 99.8105 156.532 66.8298 195.222 66.8298Z" fill="#CEF2EE"/>
<path d="M282.697 233.195C275.888 235.629 268.983 237.777 262.016 240.09C275.213 258.479 303.334 273.89 334.023 270.065C364.888 266.23 387.497 249.297 402.964 219.848C380.784 221.738 361.163 216.945 343.268 205.091C340.508 203.275 338.755 203.643 336.363 205.321C319.609 217.019 301.749 226.393 282.697 233.195ZM335.101 99.6906C335.277 91.192 333.113 85.9474 325.856 82.4633C321.379 80.3161 317.286 77.2746 313.088 74.6748C313.062 118.955 313.036 162.6 313.018 207.065C319.319 203.083 325.234 199.249 331.246 195.598C334.085 193.875 334.987 191.616 334.97 188.142C334.821 158.654 334.506 129.159 335.101 99.6906ZM335.303 11.2035C305.613 7.48854 280.77 18.4018 259.965 41.8699C261.455 42.478 261.972 42.7541 262.524 42.9019C288.736 50.0729 313.124 61.5857 335.645 77.3657C338.537 79.3939 340.114 77.9559 342.112 76.5918C356.187 66.9781 371.653 61.8718 388.374 60.9036C392.825 60.6455 397.278 60.507 402.062 60.3041C387.638 32.3293 365.694 15.0189 335.303 11.2035ZM302.967 73.891C302.985 70.3144 301.67 68.794 298.866 67.5031C235.446 38.3672 171.447 37.2426 106.88 63.0609C105.802 63.4941 104.759 64.0377 103.172 64.7843C103.059 65.9726 102.787 67.4106 102.787 68.8493C102.761 116.964 102.796 165.079 102.673 213.194C102.664 216.568 103.839 217.932 106.617 219.084C171.475 245.907 235.674 243.556 299.357 214.595C301.89 213.442 302.626 211.894 302.626 209.065C302.642 164.01 302.722 118.945 302.967 73.891ZM344.321 91.4589C344.488 96.0215 344.137 100.603 344.032 104.243C347.152 104.945 350.236 105.607 353.285 106.253C353.697 130.31 355.669 155.086 348.369 178.158C347.073 178.352 345.758 178.555 344.435 178.766C344.548 183.154 344.496 187.854 344.89 192.519C344.987 193.689 346.284 195.063 347.362 195.791C365.501 208.013 385.262 212.115 406.54 208.769C408.819 208.419 411.71 208.493 413.515 209.7C416.258 211.543 415.373 214.788 414.225 217.59C399.476 253.732 373.572 275.226 336.565 280.102C303.483 284.462 275.336 272.912 253.331 246.155C250.921 243.224 248.695 242.486 245.12 243.15C188.544 253.658 134.29 246.265 82.8236 219.01C50.3557 201.828 23.3473 177.753 2.02539 146.681C-0.699926 142.698 -0.673336 139.583 2.09562 135.592C24.88 102.888 53.7117 77.8261 88.4051 60.3593C138.242 35.2704 190.48 28.818 244.699 39.0858C247.573 39.6301 249.247 39.1876 251.253 36.5972C284.3 -6.00579 344.443 -12.2739 385.192 22.3283C398.293 33.4624 407.635 47.3534 413.848 63.6684C416.433 70.4801 413.848 73.7159 407.013 72.5355C385.972 68.913 366.29 72.6732 348.027 84.4162C345.381 86.1224 344.198 88.1133 344.321 91.4589ZM13.6112 136.845C10.8771 140.569 11.4907 142.892 14.1199 145.768C24.5657 157.188 34.451 169.263 45.5542 179.937C59.3042 193.154 75.174 203.395 91.8334 211.737C91.86 164.525 91.8859 117.572 91.9214 70.6178C91.7462 70.673 91.1502 70.7383 90.6423 70.9957C60.1885 86.7578 34.4067 108.52 13.6112 136.845Z" fill="black"/>
<path d="M343.269 205.091C361.164 216.945 380.785 221.738 402.965 219.849C387.498 249.298 364.889 266.23 334.025 270.065C303.336 273.89 275.214 258.479 262.017 240.09C268.983 237.777 275.889 235.629 282.699 233.196C301.75 226.394 319.61 217.019 336.365 205.322C338.757 203.644 340.509 203.275 343.269 205.091Z" fill="#154F99"/>
<path d="M195.222 66.8298C233.902 66.8298 265.258 99.8098 265.258 140.496C265.258 181.191 233.903 214.17 195.222 214.17C156.532 214.17 125.177 181.19 125.177 140.496C125.177 99.8105 156.532 66.8298 195.222 66.8298Z" stroke="black" stroke-width="15" stroke-miterlimit="10"/>
<path d="M371.189 85.329L371.189 193.48L340.506 172.484L340.506 107.712L371.189 85.329Z" fill="#B9534F"/>
<path d="M367.622 85.3292C367.622 119.971 367.622 154.613 367.622 189.254C367.622 190.663 367.622 192.071 367.622 193.48C369.332 192.448 371.042 191.416 372.751 190.384C362.528 183.386 352.304 176.387 342.08 169.388C342.643 170.42 343.206 171.452 343.769 172.484C343.769 150.894 343.769 129.303 343.769 107.713C343.207 108.745 342.643 109.777 342.08 110.809C352.304 103.348 362.528 95.8867 372.751 88.426C376.337 85.8097 372.934 79.5897 369.31 82.2332C362.649 87.0934 355.989 91.9544 349.328 96.8147C346.031 99.2201 342.735 101.626 339.438 104.032C337.495 105.45 336.95 107.016 336.95 109.375C336.95 128.767 336.95 148.16 336.95 167.553C336.95 170.108 336.277 173.964 338.639 175.58C341.29 177.395 343.94 179.209 346.591 181.024C354.164 186.208 361.737 191.393 369.31 196.576C371.511 198.083 374.44 196.099 374.44 193.48C374.44 158.839 374.44 124.198 374.44 89.5555C374.44 88.1469 374.44 86.7377 374.44 85.3292C374.44 80.7049 367.622 80.7049 367.622 85.3292Z" fill="black"/>
<path d="M802.497 117.993C802.457 133.848 802.418 149.082 802.369 164.475C817.611 163.206 832.989 160.702 847.44 153.906C850.659 152.393 853.79 150.409 856.531 148.073C862.434 143.033 862.354 137.882 855.796 133.748C850.068 130.144 843.878 127.111 837.558 124.842C826.023 120.708 814.008 118.8 802.497 117.993Z" fill="#EB621A" stroke="black" stroke-width="7" stroke-miterlimit="10"/>
<path d="M713.966 41.8699C734.77 18.4018 759.613 7.48927 789.304 11.2035C819.695 15.0189 841.638 32.3293 856.063 60.3041C851.278 60.5071 846.826 60.6455 842.374 60.9037C825.654 61.8718 810.187 66.9781 796.112 76.5918C794.114 77.9559 792.538 79.3939 789.645 77.3657C767.124 61.5857 742.736 50.0729 716.525 42.9019C715.972 42.7541 715.455 42.4773 713.966 41.8699Z" fill="#154F99"/>
<path d="M544.641 70.9964C545.149 70.739 545.745 70.6737 545.92 70.6185C545.885 117.573 545.859 164.526 545.832 211.738C529.174 203.396 513.303 193.155 499.553 179.937C488.45 169.264 478.565 157.189 468.119 145.768C465.49 142.892 464.877 140.569 467.61 136.846C488.407 108.52 514.189 86.7578 544.641 70.9964Z" fill="#D9DEF4"/>
<path d="M752.866 67.5033C755.67 68.7942 756.985 70.3146 756.967 73.8911C756.722 118.945 756.643 164.01 756.626 209.064C756.626 211.893 755.889 213.442 753.357 214.594C689.674 243.555 625.473 245.906 560.617 219.083C557.839 217.931 556.665 216.566 556.673 213.194C556.796 165.078 556.761 116.963 556.787 68.8487C556.787 67.41 557.058 65.9721 557.172 64.7838C558.758 64.0372 559.8 63.4928 560.879 63.0604C625.447 37.2421 689.446 38.3674 752.866 67.5033ZM719.259 140.496C719.259 99.8105 687.903 66.8298 649.222 66.8298C610.532 66.8298 579.177 99.8098 579.177 140.496C579.177 181.191 610.532 214.17 649.222 214.17C687.903 214.171 719.259 181.191 719.259 140.496Z" fill="#4B7BB9"/>
<path d="M779.857 82.4628C787.113 85.9468 789.278 91.1922 789.102 99.69C788.507 129.158 788.822 158.654 788.971 188.14C788.988 191.615 788.086 193.874 785.247 195.597C779.235 199.247 773.32 203.082 767.02 207.064C767.037 162.599 767.063 118.955 767.09 74.6735C771.287 77.274 775.379 80.3156 779.857 82.4628Z" fill="#23D0F0"/>
<path d="M649.222 66.8298C687.903 66.8298 719.259 99.8098 719.259 140.496C719.259 181.191 687.903 214.17 649.222 214.17C610.532 214.17 579.177 181.19 579.177 140.496C579.177 99.8106 610.532 66.8298 649.222 66.8298Z" fill="#CEF2EE"/>
<path d="M736.697 233.195C729.889 235.629 722.983 237.777 716.016 240.09C729.213 258.479 757.335 273.89 788.024 270.065C818.888 266.23 841.497 249.297 856.964 219.848C834.784 221.738 815.163 216.945 797.268 205.091C794.508 203.275 792.756 203.644 790.363 205.321C773.609 217.019 755.749 226.393 736.697 233.195ZM789.102 99.6906C789.278 91.1921 787.113 85.9474 779.857 82.4634C775.379 80.3162 771.286 77.2747 767.088 74.6749C767.062 118.955 767.036 162.6 767.018 207.065C773.319 203.083 779.234 199.249 785.246 195.598C788.085 193.875 788.987 191.617 788.97 188.142C788.821 158.654 788.506 129.159 789.102 99.6906ZM789.304 11.2036C759.613 7.4886 734.77 18.4018 713.966 41.8699C715.455 42.4781 715.972 42.7542 716.524 42.9019C742.736 50.0729 767.124 61.5858 789.645 77.3657C792.537 79.3939 794.115 77.9559 796.112 76.5919C810.187 66.9782 825.653 61.8719 842.374 60.9037C846.826 60.6455 851.278 60.5071 856.063 60.3041C841.638 32.3293 819.695 15.0189 789.304 11.2036ZM756.967 73.891C756.985 70.3145 755.67 68.7941 752.866 67.5032C689.446 38.3673 625.448 37.2427 560.88 63.061C559.802 63.4941 558.759 64.0378 557.173 64.7843C557.059 65.9727 556.787 67.4107 556.787 68.8493C556.761 116.964 556.796 165.079 556.674 213.194C556.665 216.568 557.839 217.932 560.617 219.084C625.475 245.907 689.674 243.556 753.358 214.595C755.89 213.442 756.626 211.894 756.626 209.065C756.643 164.01 756.722 118.945 756.967 73.891ZM798.322 91.4589C798.488 96.0216 798.137 100.603 798.032 104.243C801.152 104.945 804.237 105.607 807.286 106.253C807.698 130.31 809.669 155.087 802.37 178.158C801.073 178.352 799.758 178.555 798.435 178.766C798.549 183.154 798.496 187.854 798.89 192.519C798.987 193.689 800.284 195.063 801.362 195.791C819.502 208.013 839.263 212.116 860.54 208.769C862.819 208.419 865.711 208.493 867.516 209.7C870.258 211.543 869.374 214.788 868.225 217.59C853.476 253.732 827.573 275.226 790.565 280.102C757.483 284.462 729.336 272.913 707.331 246.155C704.921 243.224 702.695 242.486 699.12 243.15C642.544 253.658 588.291 246.265 536.824 219.01C504.356 201.828 477.347 177.753 456.026 146.681C453.3 142.698 453.327 139.583 456.096 135.592C478.88 102.889 507.712 77.8262 542.405 60.3594C592.242 35.2705 644.48 28.8181 698.699 39.0858C701.573 39.6302 703.247 39.1877 705.254 36.5973C738.3 -6.00573 798.443 -12.2738 839.193 22.3284C852.293 33.4625 861.635 47.3534 867.848 63.6684C870.433 70.4802 867.848 73.716 861.013 72.5355C839.973 68.9131 820.29 72.6733 802.027 84.4163C799.381 86.1224 798.198 88.1133 798.322 91.4589ZM467.611 136.845C464.877 140.569 465.491 142.892 468.12 145.768C478.566 157.188 488.451 169.263 499.554 179.937C513.304 193.154 529.174 203.395 545.834 211.737C545.86 164.525 545.886 117.572 545.922 70.6179C545.746 70.6731 545.15 70.7383 544.643 70.9958C514.189 86.7579 488.407 108.52 467.611 136.845Z" fill="black"/>
<path d="M797.27 205.091C815.165 216.945 834.785 221.738 856.966 219.849C841.498 249.298 818.889 266.231 788.025 270.065C757.336 273.89 729.214 258.479 716.017 240.09C722.984 237.777 729.889 235.629 736.699 233.196C755.75 226.394 773.61 217.019 790.365 205.322C792.757 203.644 794.51 203.276 797.27 205.091Z" fill="#154F99"/>
<path d="M649.222 66.8298C687.903 66.8298 719.259 99.8098 719.259 140.496C719.259 181.191 687.903 214.17 649.222 214.17C610.532 214.17 579.177 181.19 579.177 140.496C579.177 99.8106 610.532 66.8298 649.222 66.8298Z" stroke="black" stroke-width="15" stroke-miterlimit="10"/>
<path d="M825.189 85.3291L825.189 193.48L794.506 172.484L794.506 107.712L825.189 85.3291Z" fill="#B9534F"/>
<path d="M821.622 85.3293C821.622 119.971 821.622 154.613 821.622 189.254C821.622 190.663 821.622 192.071 821.622 193.48C823.332 192.448 825.042 191.416 826.752 190.384C816.528 183.386 806.304 176.387 796.08 169.388C796.643 170.421 797.206 171.453 797.769 172.485C797.769 150.894 797.769 129.304 797.769 107.713C797.207 108.745 796.644 109.777 796.08 110.809C806.304 103.348 816.528 95.8868 826.752 88.426C830.338 85.8098 826.934 79.5897 823.31 82.2332C816.65 87.0935 809.989 91.9545 803.328 96.8148C800.032 99.2202 796.735 101.626 793.438 104.032C791.495 105.45 790.95 107.016 790.95 109.375C790.95 128.767 790.95 148.16 790.95 167.553C790.95 170.109 790.277 173.964 792.639 175.581C795.29 177.395 797.94 179.209 800.591 181.024C808.164 186.208 815.737 191.393 823.31 196.577C825.511 198.083 828.44 196.099 828.44 193.48C828.44 158.839 828.44 124.198 828.44 89.5555C828.44 88.147 828.44 86.7378 828.44 85.3293C828.441 80.7049 821.622 80.7049 821.622 85.3293Z" fill="black"/>
<path d="M1267.5 117.993C1267.46 133.848 1267.42 149.082 1267.37 164.475C1282.61 163.206 1297.99 160.702 1312.44 153.906C1315.66 152.393 1318.79 150.409 1321.53 148.073C1327.43 143.033 1327.35 137.882 1320.8 133.748C1315.07 130.144 1308.88 127.111 1302.56 124.842C1291.02 120.708 1279.01 118.8 1267.5 117.993Z" fill="#EB621A" stroke="black" stroke-width="7" stroke-miterlimit="10"/>
<path d="M1178.97 41.8699C1199.77 18.4018 1224.61 7.48927 1254.3 11.2035C1284.69 15.0189 1306.64 32.3293 1321.06 60.3041C1316.28 60.5071 1311.83 60.6455 1307.37 60.9037C1290.65 61.8718 1275.19 66.9781 1261.11 76.5918C1259.11 77.9559 1257.54 79.3939 1254.65 77.3657C1232.12 61.5857 1207.74 50.0729 1181.52 42.9019C1180.97 42.7541 1180.46 42.4773 1178.97 41.8699Z" fill="#154F99"/>
<path d="M1009.64 70.9964C1010.15 70.739 1010.75 70.6737 1010.92 70.6185C1010.88 117.573 1010.86 164.526 1010.83 211.738C994.174 203.396 978.303 193.155 964.553 179.937C953.45 169.264 943.565 157.189 933.119 145.768C930.49 142.892 929.877 140.569 932.61 136.846C953.407 108.52 979.189 86.7578 1009.64 70.9964Z" fill="#D9DEF4"/>
<path d="M1217.87 67.5033C1220.67 68.7942 1221.98 70.3146 1221.97 73.8911C1221.72 118.945 1221.64 164.01 1221.63 209.064C1221.63 211.893 1220.89 213.442 1218.36 214.594C1154.67 243.555 1090.47 245.906 1025.62 219.083C1022.84 217.931 1021.66 216.566 1021.67 213.194C1021.8 165.078 1021.76 116.963 1021.79 68.8487C1021.79 67.41 1022.06 65.9721 1022.17 64.7838C1023.76 64.0372 1024.8 63.4928 1025.88 63.0604C1090.45 37.2421 1154.45 38.3674 1217.87 67.5033ZM1184.26 140.496C1184.26 99.8105 1152.9 66.8298 1114.22 66.8298C1075.53 66.8298 1044.18 99.8098 1044.18 140.496C1044.18 181.191 1075.53 214.17 1114.22 214.17C1152.9 214.171 1184.26 181.191 1184.26 140.496Z" fill="#4B7BB9"/>
<path d="M1244.86 82.4628C1252.11 85.9468 1254.28 91.1922 1254.1 99.69C1253.51 129.158 1253.82 158.654 1253.97 188.14C1253.99 191.615 1253.09 193.874 1250.25 195.597C1244.24 199.247 1238.32 203.082 1232.02 207.064C1232.04 162.599 1232.06 118.955 1232.09 74.6735C1236.29 77.274 1240.38 80.3156 1244.86 82.4628Z" fill="#23D0F0"/>
<path d="M1114.22 66.8298C1152.9 66.8298 1184.26 99.8098 1184.26 140.496C1184.26 181.191 1152.9 214.17 1114.22 214.17C1075.53 214.17 1044.18 181.19 1044.18 140.496C1044.18 99.8106 1075.53 66.8298 1114.22 66.8298Z" fill="#CEF2EE"/>
<path d="M1201.7 233.195C1194.89 235.629 1187.98 237.777 1181.02 240.09C1194.21 258.479 1222.33 273.89 1253.02 270.065C1283.89 266.23 1306.5 249.297 1321.96 219.848C1299.78 221.738 1280.16 216.945 1262.27 205.091C1259.51 203.275 1257.76 203.644 1255.36 205.321C1238.61 217.019 1220.75 226.393 1201.7 233.195ZM1254.1 99.6906C1254.28 91.1921 1252.11 85.9474 1244.86 82.4634C1240.38 80.3162 1236.29 77.2747 1232.09 74.6749C1232.06 118.955 1232.04 162.6 1232.02 207.065C1238.32 203.083 1244.23 199.249 1250.25 195.598C1253.09 193.875 1253.99 191.617 1253.97 188.142C1253.82 158.654 1253.51 129.159 1254.1 99.6906ZM1254.3 11.2036C1224.61 7.4886 1199.77 18.4018 1178.97 41.8699C1180.46 42.4781 1180.97 42.7542 1181.52 42.9019C1207.74 50.0729 1232.12 61.5858 1254.65 77.3657C1257.54 79.3939 1259.11 77.9559 1261.11 76.5919C1275.19 66.9782 1290.65 61.8719 1307.37 60.9037C1311.83 60.6455 1316.28 60.5071 1321.06 60.3041C1306.64 32.3293 1284.69 15.0189 1254.3 11.2036ZM1221.97 73.891C1221.98 70.3145 1220.67 68.7941 1217.87 67.5032C1154.45 38.3673 1090.45 37.2427 1025.88 63.061C1024.8 63.4941 1023.76 64.0378 1022.17 64.7843C1022.06 65.9727 1021.79 67.4107 1021.79 68.8493C1021.76 116.964 1021.8 165.079 1021.67 213.194C1021.66 216.568 1022.84 217.932 1025.62 219.084C1090.47 245.907 1154.67 243.556 1218.36 214.595C1220.89 213.442 1221.63 211.894 1221.63 209.065C1221.64 164.01 1221.72 118.945 1221.97 73.891ZM1263.32 91.4589C1263.49 96.0216 1263.14 100.603 1263.03 104.243C1266.15 104.945 1269.24 105.607 1272.29 106.253C1272.7 130.31 1274.67 155.087 1267.37 178.158C1266.07 178.352 1264.76 178.555 1263.43 178.766C1263.55 183.154 1263.5 187.854 1263.89 192.519C1263.99 193.689 1265.28 195.063 1266.36 195.791C1284.5 208.013 1304.26 212.116 1325.54 208.769C1327.82 208.419 1330.71 208.493 1332.52 209.7C1335.26 211.543 1334.37 214.788 1333.23 217.59C1318.48 253.732 1292.57 275.226 1255.56 280.102C1222.48 284.462 1194.34 272.913 1172.33 246.155C1169.92 243.224 1167.7 242.486 1164.12 243.15C1107.54 253.658 1053.29 246.265 1001.82 219.01C969.356 201.828 942.347 177.753 921.026 146.681C918.3 142.698 918.327 139.583 921.096 135.592C943.88 102.889 972.712 77.8262 1007.41 60.3594C1057.24 35.2705 1109.48 28.8181 1163.7 39.0858C1166.57 39.6302 1168.25 39.1877 1170.25 36.5973C1203.3 -6.00573 1263.44 -12.2738 1304.19 22.3284C1317.29 33.4625 1326.64 47.3534 1332.85 63.6684C1335.43 70.4802 1332.85 73.716 1326.01 72.5355C1304.97 68.9131 1285.29 72.6733 1267.03 84.4163C1264.38 86.1224 1263.2 88.1133 1263.32 91.4589ZM932.611 136.845C929.877 140.569 930.491 142.892 933.12 145.768C943.566 157.188 953.451 169.263 964.554 179.937C978.304 193.154 994.174 203.395 1010.83 211.737C1010.86 164.525 1010.89 117.572 1010.92 70.6179C1010.75 70.6731 1010.15 70.7383 1009.64 70.9958C979.189 86.7579 953.407 108.52 932.611 136.845Z" fill="black"/>
<path d="M1262.27 205.091C1280.16 216.945 1299.79 221.738 1321.97 219.849C1306.5 249.298 1283.89 266.231 1253.03 270.065C1222.34 273.89 1194.21 258.479 1181.02 240.09C1187.98 237.777 1194.89 235.629 1201.7 233.196C1220.75 226.394 1238.61 217.019 1255.37 205.322C1257.76 203.644 1259.51 203.276 1262.27 205.091Z" fill="#154F99"/>
<path d="M1114.22 66.8298C1152.9 66.8298 1184.26 99.8098 1184.26 140.496C1184.26 181.191 1152.9 214.17 1114.22 214.17C1075.53 214.17 1044.18 181.19 1044.18 140.496C1044.18 99.8106 1075.53 66.8298 1114.22 66.8298Z" stroke="black" stroke-width="15" stroke-miterlimit="10"/>
<path d="M1290.19 85.3291L1290.19 193.48L1259.51 172.484L1259.51 107.712L1290.19 85.3291Z" fill="#B9534F"/>
<path d="M1286.62 85.3293C1286.62 119.971 1286.62 154.613 1286.62 189.254C1286.62 190.663 1286.62 192.071 1286.62 193.48C1288.33 192.448 1290.04 191.416 1291.75 190.384C1281.53 183.386 1271.3 176.387 1261.08 169.388C1261.64 170.421 1262.21 171.453 1262.77 172.485C1262.77 150.894 1262.77 129.304 1262.77 107.713C1262.21 108.745 1261.64 109.777 1261.08 110.809C1271.3 103.348 1281.53 95.8868 1291.75 88.426C1295.34 85.8098 1291.93 79.5897 1288.31 82.2332C1281.65 87.0935 1274.99 91.9545 1268.33 96.8148C1265.03 99.2202 1261.74 101.626 1258.44 104.032C1256.5 105.45 1255.95 107.016 1255.95 109.375C1255.95 128.767 1255.95 148.16 1255.95 167.553C1255.95 170.109 1255.28 173.964 1257.64 175.581C1260.29 177.395 1262.94 179.209 1265.59 181.024C1273.16 186.208 1280.74 191.393 1288.31 196.577C1290.51 198.083 1293.44 196.099 1293.44 193.48C1293.44 158.839 1293.44 124.198 1293.44 89.5555C1293.44 88.147 1293.44 86.7378 1293.44 85.3293C1293.44 80.7049 1286.62 80.7049 1286.62 85.3293Z" fill="black"/>
</svg>
