<svg width="1088" height="715" viewBox="0 0 1088 715" fill="none" xmlns="http://www.w3.org/2000/svg">
<g filter="url(#filter0_f_856_3025)">
<path fill-rule="evenodd" clip-rule="evenodd" d="M734.111 225.529C738.923 225.062 743.761 224.045 748.546 224.257C755.434 224.566 758.53 221.393 759.277 214.998C759.894 209.736 760.58 204.48 761.235 199.221C762.033 199.148 762.831 199.073 763.629 199C764.339 202.611 765.224 206.2 765.73 209.841C767.651 223.66 767.712 223.75 781.811 224.494C784.945 224.66 788.074 224.935 791.208 225.158C791.291 225.974 791.373 226.788 791.456 227.604C788.092 228.249 784.746 228.994 781.363 229.52C770.169 231.266 768.613 232.718 767.87 243.914C767.224 253.644 767.052 263.406 766.468 273.142C766.28 276.233 765.438 279.283 764.894 282.353C764.106 282.426 763.319 282.5 762.532 282.574C761.843 280.06 760.762 277.58 760.533 275.024C759.547 263.96 758.511 252.886 758.088 241.791C757.832 235.059 754.89 232.029 748.349 231.455C743.534 231.033 738.781 229.922 734 229.118C734.037 227.922 734.074 226.725 734.111 225.529Z" fill="white"/>
<path fill-rule="evenodd" clip-rule="evenodd" d="M340.897 57C339.999 48.1173 331.522 44.0764 329 41.3245C339.103 40.7666 338.279 33.9903 340.259 30C342.184 33.5702 343.219 42.231 351 40.4287C348.239 42.7362 342.992 46.6244 340.897 57Z" fill="white"/>
<path fill-rule="evenodd" clip-rule="evenodd" d="M130.897 28C129.999 19.1173 121.522 15.0764 119 12.3245C129.103 11.7666 128.279 4.99032 130.259 1C132.184 4.57022 133.219 13.231 141 11.4287C138.239 13.7362 132.992 17.6244 130.897 28Z" fill="white"/>
<path fill-rule="evenodd" clip-rule="evenodd" d="M154.667 454C153.667 443.905 151.25 435.166 141 433.56C152.083 435.251 153.5 420.914 153.5 415C154.75 419.609 156.75 435.59 166 432.98C159.25 435.082 157 442.208 154.667 454Z" fill="white"/>
<path fill-rule="evenodd" clip-rule="evenodd" d="M1.10984 536.316C5.88433 535.958 10.6837 535.179 15.4301 535.342C22.2636 535.578 25.3354 533.148 26.0763 528.251C26.6881 524.221 27.3689 520.197 28.019 516.169C28.8103 516.113 29.6022 516.056 30.3935 516C31.0985 518.766 31.9767 521.514 32.478 524.302C34.3844 534.885 34.4444 534.954 48.4319 535.523C51.5408 535.65 54.6453 535.861 57.7542 536.032C57.8359 536.656 57.9176 537.28 58 537.904C54.6631 538.398 51.3428 538.969 47.9874 539.372C36.8821 540.709 35.3385 541.821 34.6009 550.395C33.9603 557.846 33.7898 565.321 33.2099 572.778C33.0234 575.144 32.1881 577.48 31.6491 579.831C30.8667 579.887 30.0863 579.944 29.3059 580C28.6219 578.075 27.5496 576.176 27.3229 574.218C26.3439 565.746 25.3169 557.265 24.8973 548.769C24.6425 543.614 21.7246 541.293 15.2347 540.854C10.4583 540.531 5.74319 539.68 1 539.064C1.03704 538.148 1.07344 537.232 1.10984 536.316Z" fill="white"/>
<path fill-rule="evenodd" clip-rule="evenodd" d="M184.06 194.38C186.656 194.162 189.267 193.687 191.848 193.786C195.564 193.93 197.235 192.45 197.638 189.465C197.971 187.01 198.341 184.557 198.695 182.103C199.125 182.069 199.556 182.034 199.986 182C200.369 183.685 200.847 185.36 201.12 187.059C202.156 193.508 202.189 193.55 209.796 193.897C211.487 193.974 213.176 194.103 214.866 194.207C214.911 194.587 214.955 194.968 215 195.348C213.185 195.649 211.379 195.997 209.555 196.242C203.515 197.057 202.675 197.735 202.274 202.959C201.926 207.5 201.833 212.055 201.518 216.599C201.416 218.041 200.962 219.464 200.669 220.897C200.243 220.931 199.819 220.966 199.394 221C199.022 219.827 198.439 218.67 198.316 217.477C197.784 212.314 197.225 207.146 196.997 201.968C196.858 198.827 195.271 197.413 191.742 197.145C189.144 196.948 186.58 196.43 184 196.055C184.02 195.496 184.04 194.938 184.06 194.38Z" fill="white"/>
<path fill-rule="evenodd" clip-rule="evenodd" d="M1008.9 714C1008 705.117 999.522 701.076 997 698.324C1007.1 697.767 1006.28 690.99 1008.26 687C1010.18 690.57 1011.22 699.231 1019 697.429C1016.24 699.736 1010.99 703.624 1008.9 714Z" fill="white"/>
<path fill-rule="evenodd" clip-rule="evenodd" d="M351.897 600C350.999 591.117 342.522 587.076 340 584.324C350.103 583.767 349.279 576.99 351.259 573C353.184 576.57 354.219 585.231 362 583.429C359.239 585.736 353.992 589.624 351.897 600Z" fill="white"/>
<path fill-rule="evenodd" clip-rule="evenodd" d="M848.667 154C847.667 143.905 845.25 135.166 835 133.56C846.083 135.251 847.5 120.914 847.5 115C848.75 119.609 850.75 135.59 860 132.98C853.25 135.082 851 142.208 848.667 154Z" fill="white"/>
<path fill-rule="evenodd" clip-rule="evenodd" d="M1068.41 430C1066.77 415.763 1062.81 403.44 1046 401.175C1064.18 403.56 1066.5 383.34 1066.5 375C1068.55 381.5 1071.83 404.038 1087 400.357C1075.93 403.32 1072.24 413.37 1068.41 430Z" fill="white"/>
</g>
<defs>
<filter id="filter0_f_856_3025" x="0" y="0" width="1088" height="715" filterUnits="userSpaceOnUse" color-interpolation-filters="sRGB">
<feFlood flood-opacity="0" result="BackgroundImageFix"/>
<feBlend mode="normal" in="SourceGraphic" in2="BackgroundImageFix" result="shape"/>
<feGaussianBlur stdDeviation="0.5" result="effect1_foregroundBlur_856_3025"/>
</filter>
</defs>
</svg>
