<svg width="36" height="36" viewBox="0 0 36 36" fill="none" xmlns="http://www.w3.org/2000/svg">
<path fill-rule="evenodd" clip-rule="evenodd" d="M21.1896 21.2406C22.1762 21.2406 22.9551 20.38 22.9551 19.3302C22.9551 18.2803 22.1762 17.4198 21.1896 17.4198C20.203 17.4198 19.424 18.2803 19.424 19.3302C19.424 20.38 20.2203 21.2406 21.1896 21.2406ZM13.1062 19.3302C13.1062 18.2803 13.8851 17.4198 14.8717 17.4198C15.8584 17.4198 16.6546 18.2803 16.6373 19.3302C16.6373 20.38 15.8584 21.2406 14.8717 21.2406C13.9024 21.2406 13.1062 20.38 13.1062 19.3302ZM25.7246 12.8073C25.7246 12.8073 28.2171 17.2993 28.2171 22.8412C28.2171 22.8412 26.7458 25.3367 22.9205 25.4572C22.9205 25.4572 22.2974 24.7172 21.7781 24.0631C24.0456 23.4263 24.9111 22.0151 24.9111 22.0151C24.2014 22.4798 23.5263 22.8068 22.9205 23.0305C19.1912 24.5879 15.0412 24.0549 12.1196 22.4281C12.1111 22.4225 12.08 22.4047 12.0341 22.3785C11.8907 22.2966 11.6029 22.1321 11.4099 21.9979C11.4099 21.9979 12.2407 23.3747 14.439 24.0287C13.9197 24.6827 13.2793 25.4572 13.2793 25.4572C9.45397 25.3367 8 22.8412 8 22.8412C8 17.2993 10.4925 12.8073 10.4925 12.8073C12.985 10.9485 15.3564 11.0001 15.3564 11.0001L15.5295 11.2067C12.4138 12.1016 10.9772 13.4613 10.9772 13.4613C10.9772 13.4613 11.358 13.2548 11.9984 12.9622C15.9868 11.2202 20.8167 11.2206 24.9284 13.4613C24.9284 13.4613 23.5609 12.1705 20.6184 11.2755L20.8607 11.0001C20.8607 11.0001 23.2321 10.9485 25.7246 12.8073Z" fill="white"/>
<circle cx="18" cy="18" r="17" stroke="#888888" stroke-width="2"/>
</svg>
