<svg width="36" height="36" viewBox="0 0 36 36" fill="none" xmlns="http://www.w3.org/2000/svg">
<circle cx="18" cy="18" r="17" stroke="#888888" stroke-width="2"/>
<path d="M27.6358 13.4859C27.6504 13.6828 27.6504 13.8797 27.6504 14.0766C27.6504 20.0812 22.9074 27 14.2386 27C11.5679 27 9.08694 26.2547 7 24.961C7.37946 25.0031 7.74427 25.0172 8.13832 25.0172C10.342 25.0172 12.3706 24.3 13.9905 23.0766C11.9182 23.0344 10.1815 21.7266 9.58311 19.9266C9.87501 19.9687 10.1669 19.9969 10.4734 19.9969C10.8966 19.9969 11.3198 19.9406 11.7139 19.8422C9.55395 19.4203 7.93397 17.5922 7.93397 15.3844V15.3281C8.56149 15.6656 9.29125 15.8766 10.0647 15.9047C8.795 15.089 7.96317 13.6969 7.96317 12.1218C7.96317 11.2781 8.19663 10.5047 8.60529 9.82967C10.9257 12.5859 14.4137 14.3859 18.3249 14.5828C18.2519 14.2453 18.2081 13.8938 18.2081 13.5422C18.2081 11.039 20.3096 9 22.9219 9C24.2792 9 25.5051 9.54844 26.3661 10.4344C27.4314 10.2375 28.453 9.8578 29.3579 9.3375C29.0076 10.3922 28.2633 11.2782 27.2855 11.8406C28.2342 11.7422 29.1536 11.489 30 11.1375C29.358 12.0375 28.5553 12.839 27.6358 13.4859Z" fill="white"/>
</svg>
