<svg width="274" height="224" viewBox="0 0 274 224" fill="none" xmlns="http://www.w3.org/2000/svg">
<path d="M187.986 156.78C187.988 159.65 187.995 162.52 187.981 165.39C187.95 170.764 187.945 170.791 182.947 170.798C158.779 170.839 134.614 170.861 110.442 170.893C97.642 170.911 84.8399 170.853 72.0375 171.011C69.2012 171.046 68.2268 170.037 68.366 166.982C68.5484 162.818 68.5867 158.621 68.3516 154.462C68.1619 151.042 69.2323 149.94 72.3999 149.988C84.9574 150.175 97.5223 150.108 110.082 150.1C110.949 150.1 111.853 150.085 112.701 149.905C112.792 149.913 112.881 149.92 112.972 149.925C118.347 150.24 123.919 150.02 129.412 150.02C134.926 150.023 140.516 150.222 145.937 149.96C147.268 150.3 148.749 150.125 150.494 150.128C153.798 150.133 157.1 150.148 160.404 150.155C167.534 150.165 174.659 150.195 181.786 150.212C187.981 150.228 187.981 150.22 187.986 156.78Z" fill="#FFF001"/>
<path d="M173.778 123.407C175.251 130.529 176.261 137.723 177.432 144.902C171.671 146.361 164.94 145.519 159.034 145.554C155.917 145.572 152.799 145.592 149.682 145.609C148.331 145.619 147.165 145.547 146.126 145.749C134.888 145.567 123.612 145.547 112.379 145.749C112.357 145.749 112.333 145.749 112.312 145.752C111.537 145.647 110.74 145.629 109.96 145.632C101.465 145.654 92.9702 145.734 84.4776 145.747C82.9706 145.749 81.4635 145.532 79.4888 145.38C79.9136 143.549 80.3094 142.225 80.5253 140.866C80.871 138.655 81.2236 136.444 81.5765 134.233C82.2172 130.19 82.8555 126.145 83.4651 122.093C83.7508 120.192 84.0026 118.281 84.3026 116.383C84.5666 114.714 85.5456 108.245 85.8936 106.414C89.1261 98.7147 94.2133 93.3542 102.336 91.2084C106.176 90.1943 109.72 88.011 113.512 86.712C115.105 86.165 117.236 85.945 118.702 86.5996C124.361 89.1226 129.847 88.8703 135.529 86.7946C136.983 86.2626 138.912 86.3625 140.403 86.8744C144.91 88.4132 149.186 90.9186 153.779 91.908C161.316 93.5318 165.736 98.4853 169.099 105.055C169.308 105.464 169.425 105.942 169.564 106.396C169.569 106.471 169.6 106.564 169.66 106.681C169.746 106.933 169.85 107.171 169.989 107.373C170.982 109.641 171.184 112.134 171.584 113.458C172.554 116.665 173.087 120.072 173.778 123.407Z" fill="#FFFC55"/>
<path d="M174.912 65.1463C174.387 69.1155 174.181 72.6502 173.418 76.0499C171.421 84.9552 165.686 89.0444 157.088 87.4008C153.08 86.6363 149.228 84.9177 145.329 83.559C143.117 82.7871 142.505 81.5832 143.851 79.1674C147.784 72.1081 148.108 64.9266 144.034 57.6747C143.64 56.9778 144.079 54.9171 144.679 54.5971C150.074 51.7145 155.389 48.4197 161.122 46.5588C166.917 44.6778 171.186 47.6079 172.933 53.6903C174.032 57.5126 174.324 61.5845 174.912 65.1463Z" fill="#8BD6DC"/>
<path d="M173.771 105.244C173.893 105.616 174.013 105.991 174.133 106.365C174.051 107.379 173.284 108.484 172.883 109.538C171.947 108.888 170.874 108.379 170.126 107.547C170.075 107.492 170.03 107.434 169.989 107.372C169.891 107.144 169.783 106.92 169.667 106.697C169.665 106.693 169.66 106.685 169.66 106.68C169.627 106.587 169.595 106.493 169.564 106.395C169.49 105.514 172.636 106.922 173.771 105.244Z" fill="black"/>
<path d="M169.667 106.697C169.783 106.92 169.89 107.144 169.989 107.372C169.85 107.169 169.747 106.932 169.66 106.68C169.66 106.685 169.665 106.692 169.667 106.697Z" fill="black"/>
<path d="M169.564 106.396C169.595 106.493 169.626 106.588 169.66 106.68C169.6 106.562 169.569 106.47 169.564 106.396Z" fill="black"/>
<path d="M147.23 145.767C149.334 145.804 151.312 147.026 153.347 147.698C151.18 148.472 149.207 149.779 146.812 149.916C146.522 149.933 146.229 149.948 145.936 149.96C144.904 149.701 143.962 149.129 143.057 147.922C143.976 146.533 144.974 145.971 146.126 145.749C146.493 145.754 146.863 145.759 147.23 145.767Z" fill="black"/>
<path d="M85.8937 106.413C85.5456 108.244 84.5666 114.714 84.3026 116.382C84.0027 118.281 83.7505 120.192 83.4652 122.093C82.8559 126.144 82.2173 130.189 81.5766 134.233C81.2237 136.444 80.871 138.654 80.5254 140.865C80.3095 142.224 79.9133 143.548 79.4888 145.379C81.4636 145.531 82.9707 145.749 84.4777 145.746C92.9703 145.734 101.465 145.653 109.96 145.631C110.74 145.628 111.537 145.646 112.312 145.751C110.08 145.816 107.99 147.158 105.833 147.902C108.117 148.584 110.246 149.693 112.701 149.905C111.854 150.085 110.949 150.1 110.083 150.1C97.5225 150.108 84.9579 150.175 72.4 149.988C69.2325 149.94 68.1621 151.042 68.3518 154.462C68.5869 158.621 68.5485 162.818 68.3661 166.982C68.227 170.037 69.2014 171.046 72.0377 171.011C84.8401 170.854 97.6422 170.911 110.442 170.894C134.615 170.861 158.779 170.839 182.947 170.798C187.945 170.791 187.95 170.764 187.981 165.39C187.996 162.52 187.988 159.65 187.986 156.78C187.981 150.22 187.981 150.228 181.785 150.213C174.659 150.195 167.534 150.165 160.404 150.155C157.1 150.148 153.798 150.133 150.493 150.128C148.749 150.125 147.268 150.3 145.936 149.96C146.229 149.948 146.522 149.933 146.812 149.915C149.207 149.778 151.18 148.472 153.346 147.697C151.312 147.026 149.334 145.804 147.23 145.766C146.863 145.759 146.493 145.754 146.126 145.749C147.165 145.546 148.331 145.619 149.682 145.609C152.8 145.591 155.917 145.571 159.034 145.554C164.94 145.519 171.671 146.361 177.432 144.902C176.261 137.723 175.251 130.528 173.778 123.407C173.086 120.072 172.554 116.665 171.584 113.457C171.184 112.133 170.982 109.64 169.989 107.372C170.03 107.435 170.075 107.492 170.126 107.547C170.874 108.379 171.947 108.888 172.883 109.538C173.283 108.484 174.051 107.38 174.133 106.366C177.728 117.817 178.783 130.037 181.728 141.682C182.46 144.575 183.981 145.896 186.913 145.836C191.012 145.752 191.991 146.978 192.037 151.374C192.101 156.982 192.082 162.595 192.073 168.206C192.063 174.611 191.43 175.295 185.392 175.305C175.105 175.325 164.812 175.4 154.527 175.245C151.437 175.198 149.941 176.082 149.07 179.661C146.507 190.206 137.943 197.037 128.126 197.035C118.436 197.03 109.742 189.995 107.258 179.509C106.44 176.049 104.983 175.235 102.068 175.267C91.5403 175.38 81.0105 175.315 70.4853 175.295C65.1989 175.285 64.0445 174.004 64.0277 168.123C64.011 162.773 63.9772 157.422 64.071 152.074C64.1599 147.138 65.4078 145.582 69.8637 145.864C74.8359 146.181 76.5302 141.37 77.159 137.086C78.0588 130.956 78.8676 124.761 79.6499 118.608C79.9164 116.52 80.0242 110.297 81.6369 106.623C81.6777 107.227 82.1384 108.037 82.4432 108.774C82.4984 108.909 81.9201 112.353 82.5946 109.171C83.576 108.624 84.5864 108.119 85.5198 107.495C85.7643 107.33 85.7427 106.77 85.8937 106.413ZM144.286 180.226C145.437 176.956 144.924 176.059 141.579 176.037C132.896 175.98 124.212 176.017 115.528 176.017C110.522 175.26 110.003 176.117 112.017 181.108C114.676 187.692 121.464 192.738 127.435 192.561C134.925 192.341 141.792 187.315 144.286 180.226Z" fill="black"/>
<path d="M141.579 176.037C144.923 176.059 145.437 176.956 144.285 180.226C141.792 187.315 134.924 192.341 127.435 192.561C121.465 192.738 114.676 187.692 112.017 181.108C110.003 176.116 110.522 175.26 115.527 176.017C124.212 176.017 132.896 175.979 141.579 176.037Z" fill="#E73827"/>
<path d="M143.057 147.922C143.962 149.129 144.905 149.701 145.937 149.96C140.516 150.223 134.927 150.023 129.412 150.02C123.919 150.02 118.347 150.24 112.972 149.925C112.881 149.92 112.792 149.913 112.701 149.905C113.008 149.84 113.308 149.755 113.596 149.641C114.186 149.406 114.762 148.329 114.819 147.582C114.863 147.075 114.071 146.161 113.512 145.999C113.121 145.883 112.72 145.804 112.312 145.751C112.333 145.748 112.357 145.748 112.379 145.748C123.612 145.546 134.888 145.566 146.126 145.748C144.974 145.971 143.976 146.533 143.057 147.922Z" fill="black"/>
<path d="M141.679 68.0919C141.725 76.7001 135.198 83.6418 127.053 83.6494C119.153 83.6595 112.422 76.7799 112.292 68.5639C112.163 60.1959 119.079 52.3644 126.52 52.4494C134.833 52.5445 141.634 59.5636 141.679 68.0919Z" fill="#8BD6DC"/>
<path d="M113.511 145.998C114.071 146.161 114.863 147.075 114.819 147.582C114.762 148.329 114.186 149.405 113.596 149.64C113.308 149.755 113.007 149.84 112.701 149.905C110.246 149.693 108.117 148.584 105.833 147.902C107.99 147.158 110.08 145.816 112.312 145.751C112.72 145.804 113.12 145.883 113.511 145.998Z" fill="black"/>
<path d="M110.25 79.235C111.443 81.3159 111.189 82.6875 109.024 83.4517C103.99 85.2251 98.9215 86.8989 93.8678 88.6151C86.7766 87.8207 82.8843 85.063 80.8352 78.1234C78.5075 70.2472 78.4308 62.2238 80.5206 54.2729C82.3301 47.3808 86.364 44.5232 92.8383 46.6891C98.336 48.5275 103.452 51.6877 108.583 54.5654C109.341 54.9902 109.864 57.3904 109.43 58.3524C106.168 65.5263 106.378 72.4655 110.25 79.235Z" fill="#88D7DC"/>
<path d="M83.6164 104.14C86.3497 102.668 86.1743 104.952 85.8938 106.413C85.7425 106.77 85.7641 107.33 85.5196 107.495C84.5862 108.119 83.5759 108.624 82.5944 109.171C81.9202 112.353 82.4985 108.908 82.4431 108.773C82.1383 108.037 81.6775 107.227 81.6367 106.623C82.1358 105.483 82.7786 104.589 83.6164 104.14Z" fill="black"/>
<path d="M83.6164 104.14C82.779 104.59 82.1359 105.484 81.6368 106.623C81.6246 106.463 81.6441 106.321 81.6992 106.196C83.2206 102.806 84.9941 99.5309 86.8178 96.3036C87.485 95.1171 88.5337 94.163 89.5752 92.904C88.7497 92.3719 88.2816 91.9423 87.7347 91.7424C81.1788 89.3318 77.7424 84.1885 76.2116 77.4339C74.4286 69.5729 74.2821 61.6741 76.2597 53.8329C78.8751 43.4714 85.8032 39.0375 95.5674 42.3549C101.075 44.2259 106.203 47.4558 111.278 50.4832C113.474 51.7922 114.954 52.3218 117.325 50.818C123.627 46.8214 130.255 46.9137 136.588 50.7181C139.05 52.2021 140.669 52.0022 142.935 50.3884C149.042 46.0343 155.332 41.9277 163.073 41.523C169.965 41.1659 174.455 43.8736 176.811 50.623C180.356 60.7801 180.058 71.109 176.713 81.2684C175.312 85.5201 174.28 86.2493 166.253 92.5243C168.276 95.4419 170.395 98.2995 172.288 101.312C173.169 102.706 173.934 104.355 174.129 105.969C174.145 106.098 174.145 106.231 174.133 106.366C174.013 105.991 173.894 105.616 173.771 105.244C172.636 106.923 169.49 105.514 169.565 106.395C169.425 105.941 169.308 105.464 169.099 105.054C165.737 98.4845 161.317 93.5311 153.779 91.9072C149.186 90.9181 144.91 88.4125 140.404 86.8737C138.913 86.3614 136.984 86.2618 135.53 86.7938C129.847 88.8698 124.361 89.1218 118.703 86.5988C117.237 85.9446 115.106 86.1643 113.512 86.7112C109.721 88.0102 106.176 90.1935 102.337 91.2076C94.2139 93.3534 89.1266 98.7139 85.8942 106.413C86.1744 104.952 86.3494 102.669 83.6164 104.14ZM173.418 76.0502C174.181 72.6505 174.387 69.1158 174.913 65.1466C174.325 61.5845 174.032 57.5129 172.933 53.6909C171.186 47.6085 166.917 44.6784 161.122 46.5594C155.389 48.4202 150.074 51.7151 144.679 54.5977C144.079 54.9174 143.64 56.9785 144.034 57.6753C148.108 64.9269 147.784 72.1087 143.851 79.168C142.505 81.5835 143.117 82.7874 145.329 83.5596C149.229 84.9183 153.08 86.6372 157.088 87.4014C165.686 89.0447 171.421 84.9555 173.418 76.0502ZM127.053 83.6492C135.198 83.6416 141.725 76.6996 141.679 68.0917C141.634 59.5636 134.833 52.5443 126.52 52.4495C119.079 52.3645 112.163 60.1956 112.293 68.564C112.422 76.7797 119.154 83.6589 127.053 83.6492ZM109.024 83.4517C111.189 82.6875 111.443 81.316 110.251 79.2351C106.377 72.4656 106.169 65.5263 109.43 58.3521C109.864 57.3904 109.341 54.9899 108.583 54.5651C103.452 51.6874 98.3364 48.5275 92.8384 46.6889C86.3641 44.5233 82.3302 47.3809 80.5207 54.2726C78.4306 62.2238 78.5076 70.2472 80.8353 78.1232C82.8844 85.0624 86.777 87.8204 93.8679 88.6148C98.9217 86.899 103.99 85.2252 109.024 83.4517Z" fill="black"/>
<path d="M263.696 183.016C262.703 177.516 259.185 175.349 254.5 173.782C259.198 172.215 262.723 170.063 263.45 164.561C265.486 168.967 267.404 172.903 273.03 173.544C268.346 175.375 264.784 177.634 263.696 183.016Z" fill="#FFF0B4"/>
<path d="M213.375 140.105C212.382 134.605 208.865 132.438 204.18 130.87C208.878 129.304 212.403 127.151 213.13 121.649C215.166 126.055 217.083 129.991 222.71 130.633C218.026 132.463 214.463 134.722 213.375 140.105Z" fill="#2BC5F3"/>
<path d="M45.326 90.2406C44.3333 84.7399 40.8152 82.5734 36.1309 81.0053C40.8283 79.4388 44.3537 77.2866 45.0799 71.7847C47.1165 76.1899 49.0338 80.1262 54.66 80.7683C49.9768 82.599 46.4143 84.8581 45.326 90.2406Z" fill="#E1DCA5"/>
<path d="M30.7019 178.511C25.2054 179.505 23.0397 183.025 21.4732 187.713C19.9074 183.012 17.7566 179.484 12.2583 178.758C16.6607 176.72 20.5944 174.801 21.2363 169.171C23.0652 173.857 25.3229 177.422 30.7019 178.511Z" fill="#FFF0B4"/>
<path d="M18.4438 48.4825C12.9471 49.4762 10.7816 52.9962 9.21461 57.6836C7.6491 52.9831 5.49893 49.4551 0 48.7284C4.40237 46.6911 8.33609 44.7726 8.97801 39.1421C10.8072 43.8289 13.0649 47.3937 18.4438 48.4825Z" fill="#2BC5F3"/>
<path d="M78.507 18.4556C77.5136 12.9552 73.9959 10.7884 69.3115 9.22065C74.009 7.65412 77.5343 5.50161 78.2606 0C80.2972 4.40525 82.2147 8.34155 87.8406 8.98359C83.1575 10.814 79.595 13.0732 78.507 18.4556Z" fill="#E1DCA5"/>
<path d="M222.639 52.0287C221.647 46.5286 218.128 44.3615 213.444 42.794C218.141 41.2269 221.666 39.0753 222.393 33.5728C224.429 37.978 226.347 41.9143 231.973 42.5563C227.29 44.3871 223.728 46.6462 222.639 52.0287Z" fill="#E1DCA5"/>
<path d="M236.906 210.455C231.41 211.448 229.244 214.969 227.678 219.656C226.112 214.956 223.961 211.429 218.463 210.702C222.866 208.664 226.799 206.745 227.44 201.115C229.27 205.801 231.527 209.365 236.906 210.455Z" fill="#FFF0B4"/>
<path d="M97.0366 223.92C96.0435 218.42 92.5258 216.252 87.8408 214.685C92.5389 213.118 96.0645 210.966 96.7908 205.464C98.8268 209.87 100.744 213.806 106.371 214.448C101.687 216.279 98.1246 218.537 97.0366 223.92Z" fill="#2BC5F3"/>
</svg>
