<svg width="92" height="146" viewBox="0 0 92 146" fill="none" xmlns="http://www.w3.org/2000/svg">
<path d="M2.75558 50.3183C1.39646 53.194 0.503745 56.334 1.30011 59.5119C2.36084 63.7383 4.91632 67.3711 7.11067 71.0406C8.83092 73.9139 10.6204 76.8475 12.9731 79.2401L15.1897 84.5889L79.0938 78.449C80.2719 77.3371 81.3832 76.1819 82.3841 74.9368C83.3116 73.7836 84.1452 72.5544 84.8452 71.2106C86.2691 68.4874 87.2959 65.5721 88.5384 62.7623C89.5663 60.4292 88.9651 58.2645 87.8671 56.0633C85.7647 51.8458 83.7675 47.573 81.7391 43.3187C81.4181 42.6462 81.1658 41.9413 80.8731 41.2534C79.6209 38.2944 79.6658 35.154 79.4788 32.0141C78.9152 22.6235 75.0694 14.4447 69.9439 6.81582C69.3091 5.86939 68.3091 5.07631 67.3143 4.49891C65.6475 3.5278 64.2269 3.83531 62.9175 5.24302C60.0232 8.35705 57.5467 11.7851 56.2709 15.9018C54.7438 20.8403 53.4001 25.8395 52.0377 30.831C51.7766 31.7855 51.4717 32.2448 50.3701 32.2172C46.8344 32.129 43.2915 32.0963 39.7587 32.2092C38.4566 32.2521 37.9878 31.8559 37.902 30.5987C37.4485 23.8948 35.2566 17.6275 32.9189 11.4379C31.7141 8.24174 30.1849 5.13781 27.7436 2.62871C25.561 0.386249 23.459 0.491459 21.2723 2.74646C19.4553 4.61787 18.5877 6.96998 17.4569 9.22539C14.2548 15.6068 12.3888 22.3722 11.3884 29.4253C11.1172 31.3425 11.0706 33.4101 10.29 35.1124C7.93375 40.2536 5.17341 45.2014 2.75558 50.3183ZM18.2298 33.3514C17.8018 33.209 17.2249 32.4904 17.2694 32.1003C17.7022 28.2082 17.9508 24.2558 18.869 20.4741C19.4593 18.0403 20.81 14.4544 22.8164 12.8735C24.2144 11.7705 25.0185 12.5862 25.4938 13.9296C26.6391 17.1768 26.8205 21.236 26.9242 24.6543C27.0104 27.5454 26.5804 30.3932 26.3327 33.2644C26.1849 34.9708 25.7436 35.362 24.1715 35.0225C22.1642 34.59 20.1828 34.0025 18.2298 33.3514ZM64.1491 32.0918C63.456 26.4594 62.973 20.6857 64.1026 15.0763C64.3135 14.0243 64.8325 13.018 66.0552 12.9435C67.2856 12.8662 67.8293 13.8151 68.2301 14.8348C68.2828 14.9727 68.3402 15.1131 68.3815 15.256C69.1406 17.8812 69.9889 20.4846 70.6265 23.1418C71.1702 25.4106 71.5087 27.7319 71.8686 30.0408C72.2018 32.1991 71.716 32.9658 69.5836 33.4008C68.3965 33.6403 67.1471 33.5776 65.9265 33.6326C64.8734 33.6775 64.2823 33.1795 64.1491 32.0918Z" fill="black"/>
<path d="M11.1048 98.4851C10.1781 104.089 9.34003 109.819 9.91857 115.505C10.3825 120.079 11.8882 124.438 13.5846 128.682C14.5947 131.213 15.8271 133.66 16.7081 136.242C17.1474 137.526 17.5105 138.838 17.7016 140.18C17.8397 141.174 17.6393 142.705 18.3215 143.509C19.6883 145.118 22.1628 144.927 24.0454 144.955C26.8547 144.998 29.6689 144.979 32.4807 144.974C38.1924 144.964 43.9067 144.918 49.6184 144.891C52.8743 144.876 56.1282 144.867 59.3845 144.872C64.0283 144.878 68.6748 144.884 73.3186 144.843C76.7105 144.813 80.1029 144.775 83.4924 144.735C83.8126 144.732 90.5467 144.764 90.5491 144.696C90.6495 141.957 90.494 139.22 90.1693 136.499C89.5803 131.582 87.1815 128.595 84.945 124.322C83.7082 121.959 82.6385 119.497 81.7502 116.983C77.9186 106.139 77.9045 96.5388 77.636 89.2701C77.4555 84.4262 79.3551 83.2868 79.0936 78.4482L15.1895 84.5881C13.3817 89.1887 11.9129 93.5988 11.1048 98.4851Z" fill="black"/>
<path d="M17.27 32.1003C17.2255 32.4903 17.802 33.2094 18.2303 33.3514C20.183 34.0021 22.1644 34.5904 24.1721 35.0225C25.7446 35.3616 26.1859 34.9707 26.3332 33.2644C26.5814 30.3928 27.0114 27.5446 26.9247 24.6543C26.8211 21.236 26.6393 17.1771 25.4944 13.9296C25.0191 12.5858 24.215 11.7705 22.817 12.8735C20.8105 14.454 19.4599 18.0406 18.8696 20.4745C17.9514 24.2557 17.7028 28.2082 17.27 32.1003Z" fill="#767676"/>
<path d="M64.103 15.0767C62.9731 20.6857 63.4565 26.459 64.1496 32.0922C64.2828 33.1799 64.8739 33.6779 65.9273 33.6326C67.148 33.5772 68.3974 33.6403 69.5845 33.4008C71.7169 32.9658 72.2027 32.199 71.8695 30.0407C71.5096 27.7319 71.1711 25.4114 70.6274 23.1418C69.9897 20.4846 69.1419 17.8812 68.3824 15.256C68.3415 15.1131 68.284 14.9727 68.231 14.8347C67.8302 13.8151 67.2865 12.8662 66.0561 12.9435C64.8322 13.018 64.3136 14.0247 64.103 15.0767Z" fill="#767676"/>
<path d="M15.1895 84.5884C13.3822 89.1883 11.9133 93.5991 11.1048 98.4855C10.1781 104.089 9.34003 109.819 9.91857 115.505C10.3825 120.079 11.8882 124.438 13.5846 128.683C14.5947 131.213 15.8271 133.661 16.7081 136.242C17.1474 137.526 17.5105 138.839 17.7016 140.181C17.8397 141.174 17.6393 142.705 18.3215 143.509C19.6883 145.119 22.1628 144.927 24.0454 144.955C26.8547 144.998 29.6689 144.979 32.4807 144.975C38.1924 144.965 43.9067 144.918 49.6184 144.892C52.8743 144.876 56.1282 144.868 59.3845 144.872C64.0283 144.879 68.6748 144.885 73.3186 144.843C76.7105 144.813 80.1029 144.775 83.4924 144.735C83.8126 144.733 90.5467 144.765 90.5491 144.696C90.6495 141.958 90.494 139.22 90.1693 136.499C89.5803 131.582 87.1815 128.596 84.945 124.322C83.7082 121.96 82.6385 119.497 81.7502 116.984C77.9186 106.139 77.9045 96.5392 77.636 89.2704C77.4555 84.4266 79.3551 83.2872 79.0936 78.4486" stroke="#575757" stroke-width="2" stroke-miterlimit="10"/>
<path d="M79.0933 78.449C80.2715 77.3371 81.3828 76.1819 82.3837 74.9368C83.3112 73.7836 84.1448 72.5544 84.8448 71.2106C86.2687 68.4875 87.2954 65.5721 88.5379 62.7623C89.5659 60.4292 88.9647 58.2645 87.8667 56.0633C85.7642 51.8458 83.7671 47.573 81.7387 43.3187C81.4177 42.6462 81.1654 41.9413 80.8727 41.2534C79.6205 38.2944 79.6654 35.154 79.4784 32.0141C78.9148 22.6235 75.069 14.4447 69.9435 6.81582C69.3087 5.86939 68.3087 5.07631 67.3139 4.49891C65.6471 3.5278 64.2264 3.83531 62.9171 5.24302C60.0228 8.35705 57.5462 11.7851 56.2705 15.9018C54.7434 20.8403 53.3996 25.8395 52.0373 30.831C51.7762 31.7855 51.4713 32.2448 50.3697 32.2172C46.834 32.129 43.2911 32.0963 39.7583 32.2092C38.4562 32.2521 37.9874 31.8559 37.9016 30.5987C37.4481 23.8948 35.2562 17.6275 32.9185 11.4379C31.7137 8.24174 30.1845 5.13781 27.7432 2.62871C25.5606 0.386249 23.4586 0.491459 21.2719 2.74646C19.4549 4.61787 18.5873 6.96998 17.4565 9.22539C14.2544 15.6068 12.3884 22.3722 11.388 29.4253C11.1168 31.3425 11.0702 33.4101 10.2896 35.1124C7.93375 40.2536 5.17341 45.2014 2.75558 50.3183C1.39646 53.194 0.503745 56.3336 1.30011 59.5119C2.36084 63.7383 4.91632 67.3711 7.11067 71.0406C8.83092 73.9139 10.6204 76.8475 12.9731 79.2401L15.1897 84.5889" stroke="#575757" stroke-width="2" stroke-miterlimit="10"/>
<path d="M31.8021 59.0377C32.5572 58.4656 32.5928 57.3622 32.5362 56.1697C32.4807 55.0096 32.3305 53.8581 32.2289 52.7012C32.0718 50.9172 31.7645 49.1118 30.9155 47.5131C29.8969 45.5955 28.2572 43.7771 26.2499 42.878C25.2126 42.4139 23.9195 42.1093 22.7778 42.1093C20.6009 42.1093 18.5122 43.0124 16.9543 44.4994C14.2368 47.091 13.5381 50.5539 13.1684 54.1437C13.0174 55.6093 12.0004 58.7581 14.1308 59.3096C14.8551 59.497 15.6777 59.3776 16.4138 59.342C17.5494 59.2866 18.6863 59.3356 19.8223 59.3356C22.5219 59.3356 25.2592 59.1959 27.9543 59.3254C28.7871 59.3655 29.624 59.4788 30.4584 59.4448C31.058 59.4197 31.4916 59.2736 31.8021 59.0377Z" fill="#B0FF27"/>
<path d="M25.4108 55.1084C25.4108 59.1239 24.1857 62.3791 22.674 62.3791C21.163 62.3791 19.9375 59.1239 19.9375 55.1084C19.9375 51.0924 21.1626 49.0001 22.6744 49.0001C24.1861 49.0005 25.4108 51.0924 25.4108 55.1084Z" fill="black"/>
<path d="M76.5194 58.7841C77.2745 58.2119 77.3101 57.1081 77.2534 55.916C77.198 54.7556 77.0478 53.604 76.9461 52.4475C76.7891 50.6631 76.4818 48.8577 75.6328 47.2594C74.6142 45.3414 72.9745 43.5234 70.9672 42.6239C69.9299 42.1598 68.6368 41.8552 67.4951 41.8552C65.3181 41.8552 63.2295 42.7587 61.6716 44.2449C58.9541 46.837 58.2553 50.3002 57.8857 53.8892C57.7347 55.3548 56.7177 58.5045 58.8481 59.056C59.5724 59.2433 60.395 59.1239 61.1311 59.0883C62.2667 59.0329 63.4035 59.0815 64.5396 59.0815C67.2392 59.0815 69.9765 58.9423 72.6716 59.0718C73.5044 59.1114 74.3413 59.2247 75.1757 59.1907C75.7749 59.1652 76.2085 59.0196 76.5194 58.7841Z" fill="#B0FF27"/>
<path d="M70.1281 54.8543C70.1281 58.8702 68.903 62.1255 67.3913 62.1255C65.8803 62.1255 64.6548 58.8702 64.6548 54.8543C64.6548 50.8383 65.8799 48.746 67.3917 48.746C68.9034 48.746 70.1281 50.8383 70.1281 54.8543Z" fill="black"/>
<path d="M47.1784 60.4017L41.9702 60.4106L49.8452 68.6359" stroke="#767676" stroke-width="2" stroke-miterlimit="10"/>
<path d="M42.89 60.4017L48.0986 60.4106L40.2236 68.6359" stroke="#767676" stroke-width="2" stroke-miterlimit="10"/>
<path d="M71.9202 91.6505C62.1813 95.9484 51.3209 97.5447 40.7799 96.587C33.4337 95.9485 23.5312 95.469 18.2607 91.1597C35.9888 94.3526 54.1958 94.9915 71.7903 90.9476C71.9494 90.9472 71.9494 91.4263 71.9202 91.6505Z" fill="#E73827" stroke="black" stroke-miterlimit="10"/>
<path d="M50.2332 92.4844C50.2226 92.6098 50.1235 92.7462 50.072 92.8769C49.951 92.7964 49.8125 92.7332 49.7162 92.6305C49.7097 92.6236 49.7036 92.6167 49.6988 92.6086C49.6984 92.6082 49.698 92.6082 49.698 92.6074C49.6858 92.5799 49.672 92.552 49.6571 92.5253C49.6567 92.5245 49.6567 92.5241 49.6563 92.5232C49.6558 92.5228 49.6558 92.5228 49.6558 92.5224C49.6518 92.5111 49.6473 92.4994 49.6437 92.4876V92.4872C49.6348 92.3788 50.0401 92.5524 50.1862 92.3448C50.202 92.3913 50.2174 92.4375 50.2332 92.4844C50.2332 92.484 50.2332 92.484 50.2332 92.4844Z" fill="black"/>
<path d="M46.3272 89.1155C46.8341 88.2411 46.8762 87.3517 46.3499 86.4538C46.2997 86.3676 46.3563 86.1123 46.4341 86.0738C47.1296 85.7157 47.815 85.3079 48.5555 85.0772C49.3025 84.8442 49.8527 85.2071 50.0786 85.9605C50.2207 86.434 50.2576 86.9389 50.3341 87.3796C50.2665 87.8708 50.2402 88.309 50.141 88.7302C49.8831 89.8329 49.1438 90.3395 48.0345 90.1359C47.5171 90.0412 47.0211 89.8284 46.5179 89.6605C46.2325 89.5638 46.1539 89.4141 46.3272 89.1155Z" fill="#8BD6DC"/>
<path d="M49.6571 92.5253C49.6719 92.5517 49.6851 92.5794 49.6975 92.6066C49.6799 92.5818 49.6671 92.5537 49.6562 92.5233C49.6567 92.5241 49.6567 92.5245 49.6571 92.5253Z" fill="black"/>
<path d="M49.6554 92.5217C49.6479 92.5078 49.6443 92.4968 49.6436 92.4877C49.6471 92.4991 49.6511 92.5106 49.6554 92.5217Z" fill="black"/>
<path d="M47.5512 97.603C47.2711 97.6985 47.0172 97.8608 46.7087 97.8773C46.6711 97.8798 46.633 97.8814 46.595 97.8834C46.4618 97.851 46.3407 97.7798 46.2241 97.6309C46.3423 97.4594 46.4707 97.3894 46.6197 97.3622C46.6674 97.3626 46.7148 97.3635 46.7626 97.3643C47.0346 97.3683 47.2893 97.5192 47.5512 97.603Z" fill="black"/>
<path d="M46.3833 101.631C46.0615 102.509 45.1764 103.132 44.2096 103.158C43.44 103.181 42.5635 102.556 42.2205 101.741C41.9606 101.122 42.0278 101.016 42.6732 101.109C43.7942 101.109 44.9145 101.105 46.0339 101.112C46.4655 101.116 46.5315 101.227 46.3833 101.631Z" fill="#E73827"/>
<path d="M46.0472 87.7438C46.0529 88.81 45.2116 89.6698 44.1606 89.6711C43.1419 89.6723 42.2731 88.8205 42.2561 87.8029C42.2391 86.7658 43.1318 85.7963 44.0921 85.8068C45.1638 85.8186 46.0407 86.6877 46.0472 87.7438Z" fill="#8BD6DC"/>
<path d="M42.3099 97.8765C41.9925 97.8506 41.7184 97.7126 41.4229 97.6281C41.7014 97.5354 41.971 97.3699 42.2589 97.3622C42.3115 97.3687 42.3633 97.3784 42.4144 97.393C42.4856 97.4128 42.588 97.5261 42.5832 97.5892C42.5751 97.6811 42.501 97.8146 42.4249 97.8446C42.3876 97.8583 42.3492 97.8684 42.3099 97.8765Z" fill="black"/>
<path d="M42.5826 97.5892C42.5879 97.5261 42.485 97.4124 42.4138 97.393C42.3632 97.3784 42.3109 97.3683 42.2583 97.3622C42.2611 97.3618 42.264 97.3618 42.2668 97.3618C43.7154 97.3367 45.1705 97.3388 46.6195 97.3622C46.4709 97.3894 46.3421 97.4594 46.2239 97.6309C46.3405 97.7798 46.4616 97.851 46.5948 97.8834C45.896 97.9162 45.1757 97.8915 44.4636 97.8915C43.7551 97.8915 43.0365 97.9182 42.3433 97.8794C42.332 97.8786 42.3202 97.8777 42.3089 97.8769C42.3482 97.8688 42.3866 97.8587 42.4235 97.845C42.5004 97.8142 42.5749 97.6807 42.5826 97.5892Z" fill="black"/>
<path d="M42.2589 97.3618C42.1585 97.3489 42.0561 97.3473 41.9557 97.3477C40.8593 97.3501 39.7646 97.359 38.669 97.3614C38.4743 97.3614 38.2796 97.3343 38.0249 97.3153C38.0796 97.0887 38.131 96.9248 38.1589 96.7569C38.2039 96.4826 38.2492 96.209 38.2945 95.9351C38.3775 95.435 38.4601 94.9332 38.5383 94.4319C38.5755 94.1972 38.6083 93.9597 38.6468 93.7242C38.6804 93.5174 38.8063 92.7171 38.8512 92.4897C39.2686 91.5368 39.9253 90.8724 40.9727 90.6066C41.4682 90.4811 41.9257 90.2104 42.4148 90.0498C42.6193 89.9822 42.8946 89.9555 43.084 90.0356C43.8132 90.348 44.5221 90.3172 45.2541 90.0603C45.4416 89.9947 45.691 90.0065 45.8829 90.07C46.4646 90.2606 47.0157 90.5709 47.6076 90.694C48.58 90.8946 49.1509 91.5081 49.5845 92.321C49.6108 92.3715 49.6266 92.431 49.6444 92.4872V92.4877C49.6448 92.497 49.6489 92.5083 49.6566 92.5225C49.6566 92.5229 49.6566 92.5229 49.657 92.5233C49.6679 92.554 49.6809 92.5823 49.6987 92.6074C49.6987 92.6082 49.6991 92.6083 49.6995 92.6087C49.8274 92.8895 49.8533 93.1982 49.9047 93.3617C50.0303 93.7598 50.0995 94.181 50.1877 94.5942C50.378 95.4763 50.5084 96.3673 50.6598 97.257C49.9161 97.4371 49.0481 97.3327 48.2861 97.3371C47.8845 97.3396 47.4825 97.3416 47.0796 97.3436C46.9055 97.3452 46.7553 97.3363 46.6209 97.3618C45.1715 97.3384 43.7169 97.3363 42.2683 97.3614C42.2646 97.3614 42.2618 97.3614 42.2589 97.3618Z" fill="#FFFC55"/>
<path d="M41.8872 86.538C41.4665 87.4257 41.4932 88.2852 41.9936 89.124C42.1467 89.3821 42.1143 89.5512 41.8345 89.6463C41.1855 89.866 40.5317 90.0728 39.8799 90.2852C38.9657 90.1873 38.4633 89.8454 38.1989 88.9864C37.8985 88.0104 37.8884 87.017 38.1588 86.0326C38.392 85.1788 38.9114 84.8256 39.7471 85.0942C40.4564 85.3212 41.1167 85.7129 41.7783 86.069C41.8754 86.1216 41.943 86.4182 41.8872 86.538Z" fill="#88D7DC"/>
<path d="M42.6733 101.11C42.0279 101.016 41.9607 101.122 42.2207 101.742C42.5636 102.556 43.4401 103.181 44.2097 103.159C45.1765 103.132 46.0616 102.51 46.3834 101.632C46.5316 101.227 46.4656 101.116 46.034 101.113C44.9146 101.105 43.7944 101.11 42.6733 101.11ZM38.0457 94.0002C38.0801 93.7408 38.0939 92.9696 38.3024 92.5148C38.3073 92.59 38.3668 92.6908 38.4065 92.7818C38.4133 92.7984 38.3388 93.2249 38.4259 92.8312C38.5522 92.7632 38.683 92.7013 38.8032 92.6232C38.8356 92.603 38.832 92.5334 38.851 92.4893C38.8061 92.7167 38.6805 93.517 38.6465 93.7238C38.6081 93.9593 38.5753 94.1968 38.538 94.4315C38.4603 94.9328 38.3777 95.4346 38.2943 95.9347C38.249 96.2086 38.2032 96.4826 38.1587 96.7565C38.1312 96.9244 38.0797 97.0883 38.0247 97.3149C38.2793 97.3339 38.4741 97.361 38.6688 97.361C39.7648 97.3586 40.8595 97.3497 41.9555 97.3473C42.0559 97.3469 42.1583 97.3485 42.2587 97.3614C41.9708 97.3695 41.7012 97.535 41.4227 97.6273C41.7182 97.7118 41.9923 97.8498 42.3097 97.8757C42.2004 97.8976 42.083 97.8996 41.9713 97.8996C40.3514 97.9008 38.7303 97.9089 37.1105 97.8858C36.702 97.8798 36.5639 98.0161 36.5886 98.4394C36.6194 98.9553 36.6141 99.4748 36.5902 99.9907C36.5724 100.369 36.6983 100.494 37.0643 100.489C38.7158 100.47 40.3672 100.477 42.0178 100.475C45.1361 100.471 48.2523 100.468 51.3705 100.463C52.0155 100.462 52.0159 100.458 52.0207 99.7932C52.0215 99.4376 52.0207 99.0835 52.0207 98.727C52.0207 97.915 52.0207 97.9154 51.2203 97.9137C50.3013 97.9117 49.3814 97.9081 48.4624 97.9069C48.0361 97.9057 47.6106 97.9036 47.1843 97.9028C46.9587 97.9024 46.7672 97.9243 46.5956 97.8822C46.6336 97.8801 46.6717 97.8785 46.7093 97.8761C47.0179 97.8595 47.2717 97.6977 47.5519 97.6018C47.2899 97.518 47.0353 97.3671 46.7632 97.3626C46.7154 97.3618 46.6681 97.361 46.6203 97.3606C46.7547 97.3351 46.9049 97.344 47.079 97.3424C47.4818 97.3404 47.8839 97.3384 48.2855 97.3359C49.0474 97.3311 49.9154 97.4359 50.6592 97.2558C50.5077 96.366 50.3774 95.475 50.1871 94.5929C50.0988 94.1798 50.0296 93.7586 49.9041 93.3604C49.8527 93.197 49.8272 92.8882 49.6988 92.6074C49.7041 92.6155 49.7098 92.6224 49.7163 92.6293C49.8126 92.732 49.9511 92.7952 50.0721 92.8757C50.1235 92.7454 50.2227 92.6087 50.2333 92.4832C50.6968 93.901 50.8329 95.4139 51.213 96.8564C51.3074 97.2145 51.5029 97.378 51.8814 97.3707C52.4098 97.3606 52.5369 97.5124 52.5422 98.0566C52.5499 98.7517 52.5479 99.4461 52.547 100.14C52.5462 100.934 52.4636 101.019 51.6851 101.02C50.358 101.023 49.0304 101.032 47.7037 101.012C47.3057 101.006 47.113 101.116 47.0004 101.56C46.6693 102.866 45.5652 103.711 44.2984 103.711C43.0486 103.711 41.9279 102.839 41.6069 101.541C41.5012 101.112 41.3142 101.011 40.9381 101.016C39.5793 101.029 38.2214 101.021 36.8631 101.019C36.1817 101.018 36.0332 100.859 36.0303 100.131C36.0283 99.4683 36.0238 98.8055 36.036 98.1432C36.0473 97.5322 36.2085 97.3392 36.7838 97.374C37.4251 97.414 37.6437 96.818 37.7243 96.2867C37.8409 95.5293 37.9445 94.7625 38.0457 94.0002Z" fill="black"/>
<path d="M38.4252 92.8316C38.3382 93.2253 38.4127 92.7988 38.4058 92.7822C38.3661 92.6908 38.3066 92.59 38.3018 92.5152C38.3661 92.3744 38.4491 92.2643 38.5572 92.2085C38.9103 92.0264 38.886 92.3088 38.8499 92.4897C38.8309 92.5338 38.8346 92.6034 38.8022 92.6236C38.6823 92.7013 38.5516 92.7636 38.4252 92.8316Z" fill="black"/>
<path d="M41.8872 86.538C41.9435 86.4182 41.8755 86.1216 41.7783 86.069C41.1168 85.7129 40.4565 85.3209 39.7471 85.0943C38.9115 84.8256 38.3921 85.1788 38.1589 86.0326C37.8888 87.0171 37.8986 88.0104 38.199 88.9864C38.4637 89.8454 38.9658 90.1873 39.8799 90.2853C40.5318 90.0728 41.1856 89.8661 41.8346 89.6463C42.114 89.5513 42.1468 89.3821 41.9937 89.124C41.4933 88.2852 41.4666 87.4257 41.8872 86.538ZM46.35 86.4538C46.8763 87.3517 46.8342 88.2411 46.3274 89.1155C46.1541 89.4141 46.2326 89.5634 46.5184 89.6601C47.0213 89.828 47.5172 90.0405 48.0351 90.1356C49.144 90.3391 49.8836 89.8325 50.1415 88.7299C50.2407 88.3087 50.2666 87.8704 50.3347 87.3792C50.2585 86.9386 50.2213 86.4336 50.0792 85.9602C49.8533 85.2072 49.3031 84.8438 48.5561 85.0769C47.8156 85.3075 47.1306 85.7154 46.4346 86.0735C46.3565 86.1123 46.3002 86.3676 46.35 86.4538ZM44.0921 85.8064C43.1318 85.7959 42.2395 86.7654 42.2561 87.8024C42.2731 88.8205 43.1419 89.6718 44.1605 89.6706C45.2115 89.6694 46.0528 88.8096 46.0472 87.7434C46.0407 86.6877 45.1638 85.8185 44.0921 85.8064ZM50.1865 92.3452C50.0403 92.5528 49.6351 92.3792 49.644 92.4877C49.6262 92.4314 49.6104 92.3719 49.5841 92.3214C49.1505 91.5081 48.58 90.895 47.6071 90.6943C47.0152 90.5713 46.4642 90.261 45.8824 90.0704C45.6905 90.0069 45.4411 89.9947 45.2537 90.0607C44.5213 90.318 43.8128 90.3488 43.0836 90.036C42.8941 89.9559 42.6188 89.9826 42.4144 90.0502C41.9253 90.2108 41.4678 90.4815 40.9722 90.6069C39.9249 90.8728 39.2682 91.5372 38.8508 92.4901C38.8864 92.3092 38.9107 92.0264 38.5581 92.2089C38.45 92.2647 38.367 92.3748 38.3026 92.5156C38.301 92.4962 38.3034 92.4783 38.3107 92.463C38.5067 92.0442 38.7358 91.6383 38.9702 91.2386C39.0569 91.0913 39.1921 90.9735 39.3265 90.8178C39.2204 90.7518 39.1597 90.6976 39.0888 90.6737C38.2435 90.3751 37.8002 89.7382 37.603 88.9014C37.3734 87.9283 37.354 86.9503 37.6095 85.9784C37.9467 84.6957 38.8402 84.1466 40.0998 84.5573C40.8099 84.7884 41.4714 85.1894 42.1261 85.5636C42.4095 85.7255 42.6002 85.7915 42.9059 85.6045C43.7192 85.1105 44.5743 85.1218 45.3909 85.5932C45.7083 85.7769 45.9172 85.7522 46.2103 85.5519C46.9978 85.0121 47.8087 84.5043 48.8075 84.4537C49.697 84.4096 50.276 84.7447 50.5792 85.5806C51.0363 86.8386 50.9982 88.1181 50.5662 89.3765C50.3857 89.9029 50.2533 89.9931 49.2173 90.7708C49.478 91.1325 49.7521 91.4854 49.9958 91.8585C50.1092 92.0312 50.2083 92.2356 50.2326 92.4355C50.2347 92.4516 50.2347 92.4678 50.2334 92.4848C50.2177 92.4375 50.2023 92.3914 50.1865 92.3452Z" fill="black"/>
<path d="M37.0639 100.49C36.6979 100.494 36.572 100.369 36.5898 99.9915C36.6141 99.4756 36.619 98.9561 36.5882 98.4402C36.5635 98.0169 36.7016 97.8806 37.1101 97.8867C38.7299 97.9101 40.351 97.9016 41.9708 97.9004C42.083 97.9004 42.2004 97.8984 42.3093 97.8765C42.3206 97.8773 42.3324 97.8781 42.3437 97.8789C43.0368 97.9182 43.7551 97.8911 44.464 97.8911C45.1757 97.8911 45.8964 97.9162 46.5952 97.883C46.7668 97.9251 46.9583 97.9032 47.1838 97.9036C47.6101 97.9045 48.0357 97.9065 48.462 97.9077C49.381 97.9089 50.3009 97.9125 51.2199 97.9146C52.0203 97.9162 52.0203 97.9158 52.0203 98.7279C52.0203 99.0843 52.0211 99.4384 52.0203 99.7941C52.0154 100.46 52.0146 100.463 51.3701 100.464C48.2519 100.469 45.1356 100.472 42.0174 100.476C40.3668 100.477 38.7153 100.471 37.0639 100.49Z" fill="#FFF001"/>
<path d="M6.22358 63.6449C4.68187 63.5126 3.66446 64.1386 3.05352 64.96C1.56282 66.9641 1.35107 69.2098 1.57132 71.3948C1.80654 73.7222 2.15837 76.1043 3.30251 78.3297C3.89158 79.4752 4.75434 80.5378 5.52965 81.6331C7.20294 83.9986 8.74141 86.4296 9.55033 88.9852C11.0487 93.721 8.27016 98.2476 9.21551 103.439C9.3479 104.162 11.8078 105.149 12.7508 105.364C14.0443 105.659 15.5969 105.63 16.7419 105.102C19.2897 103.93 18.9986 101.099 19.3289 99.3332C19.8431 96.5886 20.5204 93.81 20.0107 91.0432C19.837 90.0955 19.5731 89.1544 19.1941 88.2322C18.2824 86.0136 16.7674 83.9209 15.3382 81.8249C14.1281 80.0502 12.8835 78.284 11.888 76.4538C11.3576 75.4795 10.8945 74.4898 10.5325 73.4835C10.0447 72.1275 9.68272 70.7546 9.43535 69.3716C9.22684 68.2067 9.21227 66.8856 8.66206 65.7631C8.32036 65.0652 8.04504 64.2191 6.98593 63.8157C6.74058 63.7214 6.48471 63.6672 6.22358 63.6449Z" fill="black" stroke="#575757" stroke-width="2" stroke-miterlimit="10"/>
<path d="M82.312 60.74C80.7606 61.7427 82.5298 64.8442 82.5759 66.0459C82.6662 68.3843 82.0367 70.7356 80.5496 72.9254C77.4391 77.5042 71.6556 80.9759 70.1224 85.9306C68.8665 89.9891 69.4718 94.1394 71.3649 98.1019C72.0791 99.5978 72.7585 102.005 75.1694 102.97C79.9148 104.868 81.3986 100.886 81.116 99.1017C80.6245 95.9841 78.0391 93.0812 78.3209 89.9106C79.1439 80.7089 96.0157 71.96 88.7784 62.4819C88.0485 61.5278 84.0343 59.6293 82.312 60.74Z" fill="black" stroke="#575757" stroke-width="2" stroke-miterlimit="10"/>
</svg>
