<svg width="151" height="198" viewBox="0 0 151 198" fill="none" xmlns="http://www.w3.org/2000/svg">
<path fill-rule="evenodd" clip-rule="evenodd" d="M119.647 83.6008C113.87 89.6902 107.429 94.8454 99.2486 97.3648C93.8226 99.0361 88.3716 99.2917 83.0389 96.9802C79.6972 95.5317 77.0916 93.2473 75.6285 89.8212C75.5218 89.572 75.4423 89.3108 75.2886 88.8746C75.1604 88.8782 75.0415 88.8264 74.9551 88.7348C74.8128 88.7323 74.716 88.6606 74.6636 88.5627C74.6801 88.7133 74.6909 88.8412 74.6846 88.9672C74.4266 94.5082 76.9316 98.6798 81.226 101.885C85.745 105.258 90.9585 106.598 96.5141 106.722C103.306 106.874 109.798 105.399 116.052 102.85C118.924 101.679 121.725 100.336 124.561 99.0744C124.887 98.9294 125.223 98.8058 125.555 98.6727V77.0035C123.589 79.2059 121.678 81.4606 119.647 83.6008Z" fill="#75CCF2" stroke="black" stroke-width="2" stroke-miterlimit="10"/>
<path fill-rule="evenodd" clip-rule="evenodd" d="M73.9633 87.0429C73.9809 87.0429 73.9977 87.0448 74.0151 87.047C74.0639 87.0064 74.1169 86.9703 74.1721 86.9383C74.1434 86.9053 74.115 86.8733 74.0868 86.8402C72.0434 84.3958 69.2614 83.1811 66.1537 82.751C59.9998 81.8981 54.7046 84.0442 49.8577 87.5938C44.1769 91.7527 40.2998 97.3582 37.1861 103.56C34.4449 109.021 32.5926 114.816 30.6581 120.588C29.1806 124.997 27.5407 129.352 25.9152 133.709C25.5778 134.615 24.9855 135.426 24.5103 136.281V163.86H45.8298C47.7662 159.597 48.8853 155.164 48.914 150.447C48.9457 145.12 48.314 139.85 47.7149 134.576C47.0159 128.429 46.6176 122.266 46.9616 116.089C47.2962 110.08 48.5734 104.261 51.3903 98.8817C53.9405 94.0102 57.39 89.9894 62.5398 87.6859C66.0348 86.1224 69.6007 85.7993 73.251 87.1187C73.3633 87.1592 73.4756 87.2031 73.5815 87.2563C73.5989 87.2645 73.6143 87.2769 73.632 87.2927C73.6695 87.1567 73.7798 87.0429 73.9633 87.0429Z" fill="#D97595" stroke="black" stroke-width="2" stroke-miterlimit="10"/>
<path fill-rule="evenodd" clip-rule="evenodd" d="M100.112 150.285C97.4708 147.827 94.7261 145.479 91.9933 143.123C87.6114 139.343 83.0414 135.766 78.8419 131.796C73.0121 126.288 68.2593 119.95 65.8539 112.145C64.3921 107.403 64.025 102.581 65.5587 97.7784C66.9068 93.556 69.4087 90.2646 73.6259 88.5018C73.9125 88.3815 74.217 88.303 74.6087 88.1748C74.5574 88.1284 74.5094 88.0763 74.4504 88.0446C74.3743 88.0038 74.2857 87.9906 74.2032 87.9633C74.1434 87.9437 74.0841 87.9134 74.03 87.8759C73.8921 87.8662 73.7997 87.7901 73.7517 87.6914C73.6874 87.642 73.6463 87.5709 73.6286 87.494C73.5384 87.5298 73.4615 87.5599 73.3842 87.5599C68.499 87.5634 64.7455 89.8352 61.7708 93.5053C58.401 97.6626 56.9589 102.554 56.5525 107.822C56.0508 114.318 57.3594 120.527 59.45 126.613C61.4734 132.502 64.3599 138.001 67.1945 143.522C69.5933 148.193 72.1068 152.823 73.5495 157.904C74.0995 159.839 74.3097 161.871 74.6741 163.859H108.535C106.563 158.816 104.141 154.033 100.112 150.285Z" fill="#EEDDA1" stroke="black" stroke-width="2" stroke-miterlimit="10"/>
<path fill-rule="evenodd" clip-rule="evenodd" d="M104.235 12.354C103.556 14.3887 102.776 16.3963 102.222 18.4646C101.223 22.1934 101.142 26.0281 101.447 29.843C101.982 36.5296 102.756 43.198 103.254 49.8874C103.788 57.0654 103.481 64.2115 101.328 71.1515C99.412 77.3291 96.3153 82.786 90.9043 86.5884C86.8951 89.4056 82.4738 90.6211 77.596 89.1677C77.0012 88.9904 76.4531 88.7527 75.9447 88.4477C75.9138 88.5889 75.8071 88.7102 75.6245 88.7171C75.5666 88.7899 75.4818 88.8448 75.3627 88.8671C75.3533 88.869 75.3453 88.869 75.3359 88.8699C76.0504 89.5449 76.5797 90.1088 77.1775 90.5866C80.3897 93.1507 84.1098 93.9539 88.1185 93.5952C94.4098 93.0324 99.4655 89.9378 103.877 85.6644C108.713 80.9785 112.051 75.2826 114.693 69.1469C117.388 62.8854 119.283 56.3449 121.447 49.8971C122.461 46.8769 123.768 43.9552 124.962 40.9968C125.092 40.6748 125.354 40.4056 125.555 40.1123V12.354H104.235Z" fill="#B9D17D" stroke="black" stroke-width="2" stroke-miterlimit="10"/>
<path fill-rule="evenodd" clip-rule="evenodd" d="M74.9436 86.5843C75.1265 86.6143 75.3119 86.6237 75.4807 86.7106C75.524 86.7326 75.5629 86.761 75.5993 86.793C77.9645 81.0745 76.401 75.9717 72.786 71.2977C69.2719 66.7535 64.4581 64.0411 59.0948 62.2524C52.3412 59.9996 45.3716 59.4812 38.3201 59.9753C33.7101 60.2982 29.1136 60.8147 24.5103 61.2448V78.2578C26.615 77.266 28.7084 76.2483 30.8269 75.287C37.0671 72.4569 43.5204 70.3326 50.4122 69.9421C57.3958 69.5462 63.9988 70.7255 69.588 75.3339C72.5018 77.7364 74.3944 80.7764 74.9274 84.5653C75.0214 85.226 74.9516 85.9098 74.9436 86.5843Z" fill="#6288B1" stroke="black" stroke-width="2" stroke-miterlimit="10"/>
<path fill-rule="evenodd" clip-rule="evenodd" d="M80.7668 56.0637C76.9535 49.5306 71.6903 44.2643 65.9468 39.4477C61.557 35.7669 57.0466 32.2278 52.7089 28.4882C49.3788 25.617 46.329 22.438 44.3002 18.4638C43.2845 16.4746 42.4479 14.3933 41.5301 12.3537H24.5103V36.5301C25.8112 37.1908 27.0693 37.9554 28.4196 38.4912C31.9918 39.909 35.5704 41.3285 39.2077 42.5641C46.3536 44.9911 53.6236 47.0796 60.3554 50.5903C66.0475 53.5591 71.1951 57.2226 75.1574 62.3615C78.7299 66.9958 80.8884 72.1224 80.4234 78.1042C80.1434 81.6951 78.816 84.8074 76.0365 87.2077C75.9916 87.2471 75.9438 87.2832 75.8972 87.3196C75.9066 87.356 75.9149 87.3922 75.9229 87.4277C76.0241 87.5358 76.0994 87.6767 76.1471 87.8297C76.4023 87.6439 76.5424 87.5267 76.7002 87.4548C82.3595 84.8545 84.7821 80.0832 85.4041 74.221C86.1039 67.624 84.0373 61.6666 80.7668 56.0637Z" fill="#EEDDA1" stroke="black" stroke-width="2" stroke-miterlimit="10"/>
<path fill-rule="evenodd" clip-rule="evenodd" d="M101.447 29.843C101.142 26.0284 101.223 22.1937 102.222 18.4646C102.776 16.3963 103.556 14.3887 104.235 12.354H75.2119C75.4 15.3347 76.0875 18.2209 77.307 20.9215C79.4412 25.6484 81.6649 30.3396 83.9983 34.9719C87.4411 41.8069 90.7695 48.6767 92.4331 56.2079C93.6433 61.6874 93.9807 67.2063 92.7222 72.7196C91.6406 77.4563 89.4992 81.6436 85.7162 84.8264C83.3649 86.8046 80.6106 87.8789 77.5282 88.057C77.1432 88.0793 76.7528 88.0256 76.1857 87.9828C76.2251 88.1844 76.2235 88.3959 76.1799 88.5795C76.6218 88.8216 77.0916 89.0174 77.5964 89.1674C82.4745 90.6208 86.8955 89.4053 90.9047 86.5881C96.3157 82.7857 99.4124 77.3289 101.329 71.1512C103.481 64.2112 103.789 57.0652 103.254 49.8872C102.756 43.1978 101.982 36.5296 101.447 29.843Z" fill="#D97595" stroke="black" stroke-width="2" stroke-miterlimit="10"/>
<path fill-rule="evenodd" clip-rule="evenodd" d="M74.6352 86.5848C74.1859 85.7841 73.7878 84.9464 73.254 84.2069C70.4255 80.2886 66.4045 78.4588 61.7437 77.9297C54.9079 77.1532 48.7874 79.3065 43.0189 82.7444C37.6771 85.9275 33.242 90.1614 29.1409 94.774C27.5769 96.5329 26.0528 98.3274 24.5103 100.106V136.281C24.9855 135.426 25.5778 134.615 25.9152 133.709C27.541 129.352 29.1806 124.997 30.6581 120.588C32.5926 114.816 34.4452 109.021 37.1861 103.56C40.2996 97.3582 44.1769 91.7527 49.8577 87.5938C54.7046 84.0445 60.0001 81.8981 66.1537 82.751C69.2614 83.1811 72.0434 84.3955 74.0868 86.8402C74.1202 86.8793 74.1536 86.9174 74.1875 86.9551C74.2052 86.8528 74.2631 86.7605 74.3597 86.71C74.4066 86.675 74.4667 86.6521 74.5384 86.6458C74.5668 86.6212 74.5991 86.6003 74.6352 86.5848Z" fill="#75CCF2" stroke="black" stroke-width="2" stroke-miterlimit="10"/>
<path fill-rule="evenodd" clip-rule="evenodd" d="M121.685 136.94C117.745 135.478 113.796 134.027 109.802 132.721C103.592 130.688 97.3156 128.85 91.4053 125.999C84.3648 122.601 78.1152 118.231 73.6936 111.62C71.3241 108.077 69.8295 104.193 69.7184 99.906C69.6141 95.9354 70.5862 92.2714 73.5005 89.3428C73.6478 89.1953 73.7982 89.0499 73.9592 88.9176C73.9962 88.8867 74.0464 88.8688 74.1184 88.8451C74.1176 88.8076 74.1212 88.7695 74.1297 88.734C74.101 88.6126 74.1295 88.4764 74.2142 88.3857C74.213 88.3559 74.2158 88.3264 74.2216 88.2972C74.0031 88.365 73.8106 88.4251 73.6263 88.5026C69.4092 90.2654 66.9072 93.5569 65.5591 97.7793C64.0254 102.582 64.3926 107.404 65.8543 112.146C68.2597 119.951 73.0125 126.288 78.8423 131.797C83.0418 135.767 87.6118 139.344 91.9937 143.124C94.7262 145.48 97.4709 147.828 100.112 150.286C104.142 154.034 106.563 158.816 108.535 163.86H125.555V138.789C124.268 138.166 123.02 137.436 121.685 136.94Z" fill="#B9D17D" stroke="black" stroke-width="2" stroke-miterlimit="10"/>
<path fill-rule="evenodd" clip-rule="evenodd" d="M124.56 99.0746C121.725 100.336 118.923 101.68 116.052 102.85C109.798 105.4 103.305 106.874 96.5138 106.722C90.9582 106.598 85.7446 105.258 81.2256 101.886C76.9696 98.709 74.4735 94.5837 74.6801 89.1175C74.6254 89.1608 74.5529 89.1881 74.4635 89.1881C74.3921 89.1881 74.3319 89.1707 74.2823 89.142C74.2759 89.227 74.2643 89.3047 74.2368 89.3761C72.5017 93.9713 73.2762 98.2905 75.6885 102.416C77.9215 106.236 81.155 109.014 84.9824 111.125C90.9143 114.395 97.3587 115.689 104.058 116.05C110.413 116.392 116.69 115.636 122.974 114.898C123.833 114.798 124.694 114.707 125.555 114.611V98.6726C125.223 98.8061 124.887 98.9293 124.56 99.0746Z" fill="#8583E1" stroke="black" stroke-width="2" stroke-miterlimit="10"/>
<path fill-rule="evenodd" clip-rule="evenodd" d="M75.2121 12.354C75.4003 15.3347 76.0877 18.2208 77.3072 20.9214C79.4415 25.6484 81.6651 30.3395 83.9985 34.9719C87.4413 41.8069 90.7697 48.6766 92.4334 56.2079C93.6435 61.6873 93.9809 67.2062 92.7224 72.7196C91.6408 77.4562 89.4994 81.6436 85.7165 84.8264C83.3651 86.8046 80.6108 87.8788 77.5285 88.057C77.0929 88.0823 76.6512 88.0104 75.9556 87.9676C76.3426 87.6982 76.5073 87.5444 76.7009 87.4553C82.3602 84.8551 84.7827 80.0837 85.4047 74.2215C86.1046 67.624 84.0379 61.6666 80.7675 56.0637C76.9541 49.5306 71.6909 44.2643 65.9475 39.4477C61.5576 35.7669 57.0472 32.2278 52.7095 28.4882C49.3795 25.617 46.3297 22.438 44.3008 18.4638C43.2852 16.4746 42.4485 14.3933 41.5308 12.3537C52.7581 12.354 63.9851 12.354 75.2121 12.354Z" fill="#D86B68" stroke="black" stroke-width="2" stroke-miterlimit="10"/>
<path fill-rule="evenodd" clip-rule="evenodd" d="M45.8296 163.86C47.766 159.598 48.8852 155.164 48.9139 150.447C48.9456 145.12 48.3139 139.85 47.7148 134.577C47.0158 128.429 46.6174 122.266 46.9614 116.089C47.296 110.08 48.5732 104.261 51.3902 98.8817C53.9404 94.0102 57.3899 89.9894 62.5397 87.6859C66.0347 86.1225 69.6006 85.7993 73.2509 87.1187C73.3632 87.1593 73.4754 87.2031 73.5814 87.2563C73.6316 87.2814 73.6682 87.3324 73.7819 87.4375C73.6194 87.4901 73.5016 87.5602 73.3844 87.5602C68.4991 87.5638 64.7456 89.8356 61.7709 93.5056C58.4011 97.6629 56.959 102.555 56.5527 107.822C56.0509 114.318 57.3595 120.527 59.4502 126.613C61.4735 132.503 64.36 138.002 67.1946 143.523C69.5934 148.193 72.1069 152.823 73.5496 157.904C74.0997 159.839 74.3098 161.871 74.6742 163.859C65.0593 163.86 55.4448 163.86 45.8296 163.86Z" fill="#D86B68" stroke="black" stroke-width="2" stroke-miterlimit="10"/>
<path fill-rule="evenodd" clip-rule="evenodd" d="M24.5103 36.5305C25.8112 37.1911 27.0693 37.9557 28.4196 38.4915C31.9918 39.9093 35.5704 41.3288 39.2077 42.5644C46.3536 44.9915 53.6236 47.0799 60.3554 50.5906C66.0475 53.5595 71.1951 57.2229 75.1574 62.3619C78.7299 66.9962 80.8884 72.1227 80.4234 78.1046C80.1434 81.6955 78.816 84.8078 76.0365 87.208C75.9027 87.3233 75.7599 87.4306 75.6115 87.5271C75.5753 87.5502 75.5022 87.5169 75.3982 87.5039C75.4101 87.3928 75.3941 87.2706 75.4368 87.1744C78.0337 81.3009 76.4809 76.076 72.7859 71.2971C69.2719 66.753 64.4581 64.0405 59.0947 62.2518C52.3411 59.9991 45.3716 59.4807 38.32 59.9748C33.7101 60.2977 29.1136 60.8141 24.5103 61.2443C24.5103 53.0063 24.5103 44.7684 24.5103 36.5305Z" fill="#B9D17D" stroke="black" stroke-width="2" stroke-miterlimit="10"/>
<path fill-rule="evenodd" clip-rule="evenodd" d="M125.555 138.788C124.267 138.166 123.02 137.436 121.686 136.94C117.745 135.478 113.796 134.027 109.802 132.721C103.592 130.688 97.3157 128.851 91.4054 125.999C84.3649 122.601 78.1152 118.231 73.6937 111.62C71.3241 108.077 69.8296 104.193 69.7184 99.906C69.6141 95.9354 70.5862 92.2714 73.5006 89.3428C73.6479 89.1953 73.7982 89.0499 73.9593 88.9176C74.0225 88.8658 74.1174 88.8522 74.3069 88.7797C74.281 89.0224 74.2989 89.2146 74.2374 89.3764C72.5023 93.9716 73.2769 98.2908 75.6892 102.416C77.9222 106.236 81.1557 109.015 84.9831 111.126C90.9149 114.396 97.3593 115.69 104.059 116.05C110.414 116.393 116.691 115.636 122.974 114.898C123.834 114.798 124.694 114.707 125.555 114.611C125.555 122.671 125.555 130.729 125.555 138.788Z" fill="#6288B1" stroke="black" stroke-width="2" stroke-miterlimit="10"/>
<path fill-rule="evenodd" clip-rule="evenodd" d="M125.555 77.0038C123.589 79.2058 121.678 81.4605 119.648 83.6008C113.87 89.6902 107.43 94.8454 99.249 97.3648C93.8231 99.0361 88.372 99.2917 83.0393 96.9802C79.6977 95.5317 77.0921 93.2472 75.629 89.8212C75.5162 89.5579 75.4345 89.2824 75.2632 88.8004C76.0146 89.5063 76.5594 90.0925 77.1773 90.5864C80.3895 93.1504 84.1097 93.9537 88.1183 93.5949C94.4096 93.0322 99.4653 89.9376 103.876 85.6642C108.713 80.9783 112.051 75.2824 114.692 69.1466C117.388 62.8852 119.283 56.3447 121.447 49.8968C122.461 46.8767 123.768 43.955 124.962 40.9966C125.092 40.6745 125.354 40.4054 125.555 40.112C125.555 52.4094 125.555 64.7064 125.555 77.0038Z" fill="#EEDDA1" stroke="black" stroke-width="2" stroke-miterlimit="10"/>
<path fill-rule="evenodd" clip-rule="evenodd" d="M24.5105 78.2576C26.6153 77.2657 28.7087 76.248 30.8272 75.2868C37.0674 72.4566 43.5206 70.3323 50.4124 69.9419C57.3961 69.5459 63.9991 70.7252 69.5883 75.3336C72.5021 77.7362 74.3947 80.7762 74.9276 84.5651C75.0258 85.2641 74.9423 85.9887 74.9423 86.702C74.8664 86.7103 74.7906 86.7194 74.7155 86.7282C74.232 85.885 73.8198 84.9905 73.2541 84.2069C70.4255 80.2887 66.4045 78.4589 61.7437 77.9297C54.9079 77.1532 48.7874 79.3065 43.0189 82.7444C37.6771 85.9275 33.242 90.1614 29.1409 94.774C27.5769 96.5329 26.0528 98.3274 24.5103 100.106C24.5105 92.8226 24.5105 85.5398 24.5105 78.2576Z" fill="#8583E1" stroke="black" stroke-width="2" stroke-miterlimit="10"/>
<path d="M147.81 18.2451C150.832 20.6758 150.266 25.8588 148.855 28.6887C147.848 30.7112 146.307 32.1749 144.197 32.9899C143.488 33.2621 143.229 33.6757 143.55 34.3347C146.57 40.5598 145.217 46.8833 144.008 53.2084C143.198 57.4388 141.8 61.4786 140.305 65.5129C137.772 72.3515 139.097 78.8195 143.28 84.5573C144.462 86.1781 144.254 86.9055 143.429 88.3556C140.301 93.8577 139.576 99.5941 141.692 105.727C143.563 111.148 145.06 116.716 144.62 122.552C144.137 128.957 143.573 135.364 140.327 141.144C140.187 141.395 140.101 141.676 139.927 142.091C141.972 142.118 143.879 142.544 144.964 144.202C145.768 145.431 146.263 146.95 146.55 148.408C147.194 151.685 145.751 153.984 142.054 156.03C143.409 159.813 144.454 163.789 141.063 166.89C138.224 169.485 134.77 168.922 131.436 166.978C130.381 171.291 127.862 173.99 123.325 174.066C119.845 174.125 116.77 173.108 115.174 169.586C109.995 171.192 105.084 171.199 100.211 168.902C94.792 166.348 89.304 164.002 83.0888 164.315C80.6048 164.439 78.3015 165.038 76.2393 166.384C75.4479 166.901 74.8793 166.854 74.0932 166.45C70.3896 164.552 66.5057 163.116 62.2868 163.904C59.8058 164.369 57.3555 165.23 55.0251 166.226C51.862 167.578 48.8949 169.396 45.7188 170.711C41.823 172.324 37.0368 171.596 33.7591 169.182C31.9347 173.05 28.6766 173.897 24.8649 173.072C21.2535 172.29 19.1245 169.966 18.7417 166.147C15.3531 167.721 12.1834 167.674 9.52475 165.001C6.44987 161.907 6.00795 158.39 8.59982 154.632C5.5768 152.94 4.00585 150.614 4.68388 147.167C5.30592 144.001 7.35714 141.994 9.91177 140.625C9.01195 137.9 7.83379 135.269 7.29037 132.513C5.58452 123.842 5.46868 115.158 7.6065 106.496C8.49143 102.907 9.4431 99.2718 9.69274 95.6108C9.88501 92.7812 9.10021 89.8661 8.59982 87.015C8.42742 86.0438 7.73752 85.1711 7.41174 84.2107C7.30499 83.8944 7.4854 83.3477 7.72401 83.0661C11.8176 78.2446 12.5875 72.7282 11.0742 66.7885C10.5898 64.8862 9.76639 63.0718 9.11374 61.212C7.01701 55.2351 5.60769 49.1101 6.40958 42.7613C6.79936 39.6835 7.90441 36.6964 8.74271 33.4504C4.68802 32.2989 2.61529 29.0786 2.05753 24.6105C1.56238 20.6482 2.36702 17.5878 7.9993 14.9691C6.97038 11.3724 8.97499 9.11766 11.6882 7.23905C14.4831 5.30337 17.3657 5.1178 20.2806 7.1817C21.9382 4.64436 23.5252 2.18533 26.8911 2.53387C29.742 2.82725 32.5901 3.26098 33.4041 6.74438C34.6921 6.13197 35.9386 5.61303 37.117 4.96752C40.51 3.10767 44.064 3.41595 47.6729 4.0336C54.05 5.12497 60.4337 6.17746 66.8146 7.24071C70.7146 7.89172 73.5053 6.20669 75.5165 3.01034C76.8003 0.97181 77.2593 0.965193 78.47 3.11567C79.9116 5.67976 81.9479 7.07389 85.046 7.06727C88.5054 7.05927 91.6777 5.99741 94.8077 4.82993C100.175 2.8289 105.684 2.87799 111.204 3.51852C116.146 4.09096 117.169 4.6019 120.592 6.74714C122.11 2.53 125.164 0.567577 129.586 1.08128C132.919 1.46814 133.875 4.17643 134.708 7.05128C137.79 5.50908 140.983 4.88729 143.612 7.55698C146.096 10.0786 146.032 13.227 144.504 16.1592C145.765 16.9445 146.872 17.4913 147.81 18.2451ZM145.119 31.126C148.556 28.6846 149.7 23.9259 147.771 20.1703C146.925 18.52 145.546 17.7664 143.683 17.8624C141.676 17.9653 143.747 14.4405 143.973 13.3078C144.291 11.7187 144.285 10.2005 143.244 8.8637C140.403 5.21514 135.965 7.46571 133.469 10.1059C134.079 9.46012 133.218 6.10632 132.867 5.28848C132.248 3.84637 131.184 2.81898 129.672 2.33065C125.804 1.08597 122.498 4.13177 122.1 7.84182C122.1 7.84458 122.1 7.84595 122.1 7.84733C121.776 10.7889 115.618 5.70347 114.382 5.2951C111.136 4.22524 107.29 4.01844 103.901 4.34794C96.86 5.03232 89.3751 10.5355 82.2199 7.83272C80.5223 7.19245 78.3415 3.75428 76.6999 3.84776C76.0473 3.88498 74.34 6.27176 73.6675 6.74548C69.3461 9.78328 63.7351 8.3784 59.0506 7.08436C53.5411 5.56202 47.6379 3.87588 41.8749 4.76431C40.1853 5.02598 38.3956 6.11322 36.8605 6.81497C35.1654 7.58759 33.0555 9.52079 32.1573 7.46213C31.8315 6.71626 31.7032 5.74924 31.151 5.26339C29.3839 3.71181 27.1297 3.43167 25.0065 4.07993C22.9348 4.71109 21.9727 6.61892 21.3683 8.6318C21.2522 9.01618 21.0734 9.38292 20.9211 9.75654C21.4778 8.38778 15.592 7.2112 14.7044 7.44586C12.5621 8.01305 10.0411 9.7979 9.40585 12.0019C9.12421 12.9772 9.73963 14.2486 9.4806 15.0637C8.54106 18.0066 4.3421 17.8894 3.29056 20.9898C2.33889 23.7955 3.31044 27.4898 5.08939 29.7803C6.23995 31.2613 8.50218 31.6162 9.47786 33.2025C9.59123 33.3878 9.68336 33.5748 9.75674 33.7667C10.8259 36.5616 7.79738 39.9917 7.48787 42.6998C7.1221 45.8829 7.42389 49.1981 7.97228 52.3429C9.36421 60.3222 14.0942 68.2935 12.3646 76.5824C11.8162 79.2066 9.51509 81.632 9.23483 84.1095C8.88919 87.1766 10.5694 90.0222 10.8778 93.036C11.2474 96.6674 10.2345 100.216 9.40282 103.718C6.35718 116.538 5.92603 129.365 12.2603 141.234C12.0038 140.754 8.43101 142.972 8.10661 143.267C6.9737 144.298 6.11526 145.777 5.84603 147.293C5.15724 151.171 8.40562 152.025 10.6414 154.123C8.21639 157.417 7.44623 161.16 10.5145 164.399C13.2973 167.337 16.8276 165.268 19.8131 163.902C20.4188 167.093 20.5846 170.209 24.0278 171.613C25.6975 172.295 28.4267 172.463 30.0363 171.483C31.4525 170.618 31.7579 168.087 33.4863 167.702C35.1334 167.337 36.4534 169.295 37.8709 169.771C40.6628 170.706 44.1837 170.04 46.8716 169.058C52.4757 167.011 57.3582 162.971 63.4906 162.527C65.9865 162.347 68.617 162.717 70.9686 163.581C72.5514 164.163 74.0639 165.058 75.8015 164.953C80.0098 164.695 83.4863 162.854 87.8748 163.444C92.2845 164.038 96.4019 165.921 100.474 167.608C103.588 168.897 107.035 170.043 110.448 169.401C112.319 169.049 114.043 166.687 115.942 167.731C117.061 168.345 117.82 170.708 118.872 171.623C120.176 172.759 121.632 173.24 123.362 173.054C128.316 172.521 128.839 168.264 130.741 164.592C134.92 168.274 141.474 168.227 142.042 161.372C142.2 159.426 139.75 157.968 139.979 156.141C140.196 154.416 141.799 154.556 143.076 153.965C144.622 153.251 145.23 152.088 145.482 150.364C146.218 145.338 141.876 143.85 137.934 142.828C138.446 140.736 140.094 138.818 140.863 136.744C142.718 131.735 143.157 126.442 143.347 121.158C143.71 110.992 137.4 102.202 140.836 91.933C141.658 89.4729 142.81 87.401 141.883 84.8036C140.628 81.2909 138.51 78.8788 138.136 75.0127C137.724 70.7354 138.822 66.521 140.102 62.4732C141.958 56.6044 143.196 50.8065 143.959 44.6922C144.377 41.3503 143.889 38.0619 142.499 34.9841C141.633 33.0655 141.53 33.1228 143.337 32.1784C143.948 31.8583 144.559 31.5236 145.119 31.126Z" fill="#404040"/>
<path d="M147.771 20.1698C149.7 23.9253 148.556 28.684 145.119 31.1254C144.559 31.523 143.948 31.8578 143.337 32.1768C141.53 33.1212 141.633 33.0638 142.499 34.9824C143.889 38.0602 144.377 41.3487 143.959 44.6906C143.196 50.8048 141.959 56.603 140.103 62.4716C138.823 66.5194 137.724 70.7338 138.137 75.011C138.51 78.8771 140.628 81.2893 141.883 84.8019C142.81 87.3994 141.659 89.4712 140.837 91.9314C137.4 102.2 143.71 110.991 143.347 121.157C143.158 126.441 142.719 131.733 140.863 136.743C140.095 138.816 138.446 140.735 137.934 142.826C141.876 143.848 146.218 145.337 145.482 150.362C145.23 152.086 144.622 153.25 143.076 153.963C141.799 154.554 140.196 154.414 139.98 156.139C139.75 157.966 142.2 159.424 142.042 161.371C141.474 168.225 134.92 168.272 130.741 164.59C128.839 168.263 128.316 172.52 123.362 173.052C121.632 173.239 120.176 172.757 118.872 171.622C117.82 170.707 117.061 168.344 115.943 167.729C114.043 166.686 112.319 169.047 110.448 169.399C107.035 170.041 103.588 168.895 100.474 167.606C96.4021 165.92 92.2848 164.036 87.8751 163.442C83.4869 162.853 80.0101 164.694 75.8017 164.951C74.0641 165.057 72.5519 164.161 70.9688 163.58C68.6172 162.715 65.9865 162.345 63.4909 162.526C57.3585 162.969 52.476 167.01 46.8718 169.056C44.184 170.039 40.663 170.704 37.8712 169.769C36.4536 169.294 35.1337 167.335 33.4866 167.701C31.7581 168.085 31.4527 170.616 30.0365 171.482C28.4269 172.461 25.6977 172.293 24.028 171.611C20.5849 170.208 20.4191 167.091 19.8133 163.9C16.8278 165.266 13.2975 167.335 10.5147 164.398C7.44646 161.159 8.21663 157.415 10.6416 154.121C8.40614 152.024 5.15748 151.17 5.84627 147.292C6.11578 145.776 6.97393 144.296 8.10684 143.265C8.43124 142.97 12.004 140.752 12.2606 141.232C5.92627 129.364 6.35742 116.536 9.40306 103.717C10.2347 100.215 11.2477 96.6661 10.878 93.0343C10.5696 90.0205 8.88943 87.1749 9.23507 84.1079C9.51533 81.6304 11.8162 79.205 12.3648 76.5808C14.0947 68.2918 9.36443 60.3205 7.9725 52.3412C7.42411 49.1967 7.12234 45.8815 7.48812 42.6981C7.79762 39.9898 10.8262 36.5599 9.75698 33.765C9.6836 33.5729 9.59146 33.3862 9.47808 33.2009C8.50241 31.6146 6.24017 31.2597 5.08961 29.7787C3.31066 27.4882 2.33885 23.7938 3.2908 20.9882C4.34261 17.8878 8.5413 18.0052 9.48084 15.062C9.73959 14.2469 9.12445 12.9755 9.40609 12.0002C10.0414 9.79626 12.5624 8.01141 14.7046 7.44421C15.5923 7.20929 21.478 8.38614 20.9214 9.7549C21.0737 9.38155 21.2524 9.01454 21.3685 8.63017C21.9729 6.617 22.9354 4.70917 25.0067 4.07828C27.1299 3.42975 29.3841 3.71017 31.1512 5.26175C31.7038 5.74733 31.832 6.71461 32.1575 7.46049C33.0557 9.51914 35.1657 7.58595 36.8607 6.81333C38.3956 6.11158 40.1855 5.02434 41.8751 4.76267C47.6381 3.87424 53.5413 5.56065 59.0508 7.08273C63.7353 8.37676 69.3463 9.78165 73.6678 6.74384C74.3403 6.27013 76.0475 3.88334 76.7002 3.84611C78.3417 3.75264 80.5223 7.19081 82.2202 7.83108C89.3751 10.5339 96.86 5.03068 103.902 4.3463C107.29 4.01679 111.137 4.2236 114.383 5.29346C115.618 5.70155 121.777 10.7873 122.101 7.84569C122.101 7.84431 122.101 7.84293 122.101 7.84018C122.498 4.13012 125.804 1.08432 129.672 2.329C131.184 2.81734 132.248 3.84446 132.867 5.28684C133.218 6.10468 134.079 9.45848 133.469 10.1043C135.965 7.46407 140.403 5.2135 143.244 8.86206C144.285 10.1988 144.291 11.717 143.973 13.3061C143.748 14.4389 141.676 17.9636 143.684 17.8608C145.546 17.7659 146.925 18.5198 147.771 20.1698ZM126.038 25.529C126.048 22.258 124.488 20.4207 120.93 20.4301C90.3147 20.5059 59.6991 20.4715 29.0824 20.4715C28.638 20.4715 28.1933 20.4888 27.7475 20.4982C25.9352 20.5382 24.7777 21.5388 24.2109 23.1505C23.9267 23.9604 23.8972 24.8902 23.8972 25.7653C23.8837 67.0483 23.8879 108.332 23.8879 149.615C23.8879 153.173 25.3639 154.679 28.894 154.679C50.9036 154.682 72.9133 154.68 94.923 154.68C103.826 154.68 112.73 154.699 121.632 154.646C122.506 154.64 123.45 154.326 124.237 153.915C126.017 152.988 126.007 151.233 126.007 149.526C126.005 128.909 126.005 108.292 126.005 87.6762C126.004 66.96 125.972 46.2438 126.038 25.529Z" fill="#BFA266"/>
<path d="M120.93 20.43C124.489 20.4207 126.049 22.2576 126.038 25.529C125.973 46.2438 126.005 66.96 126.006 87.6759C126.006 108.292 126.006 128.909 126.008 149.525C126.008 151.233 126.018 152.987 124.238 153.914C123.45 154.325 122.507 154.64 121.633 154.645C112.731 154.699 103.827 154.68 94.9239 154.68C72.9142 154.68 50.9046 154.682 28.8949 154.679C25.3646 154.679 23.8888 153.172 23.8888 149.615C23.8888 108.332 23.8847 67.0479 23.8982 25.765C23.8982 24.8898 23.9274 23.96 24.2118 23.1502C24.7789 21.5385 25.9361 20.5378 27.7484 20.4979C28.1942 20.4885 28.6389 20.4711 29.0833 20.4711C59.6994 20.4714 90.315 20.5061 120.93 20.43ZM124.857 149.636C124.86 108.248 124.857 66.8599 124.85 25.4716C124.85 22.5822 123.901 21.6107 121.052 21.6107C90.3321 21.6041 59.6125 21.6027 28.893 21.608C26.0528 21.6094 25.1919 22.4912 25.1919 25.3302C25.1891 46.0488 25.1905 66.7678 25.1905 87.4864C25.1878 87.4864 25.1853 87.4864 25.1842 87.4864C25.1842 108.156 25.1828 128.825 25.1856 149.495C25.1856 152.758 25.9182 153.478 29.2121 153.478C59.8329 153.478 90.4538 153.477 121.075 153.475C123.968 153.476 124.857 152.591 124.857 149.636Z" fill="#404040"/>
<path d="M115.175 169.585C109.996 171.191 105.085 171.198 100.212 168.901C94.793 166.347 89.305 164.001 83.0898 164.314C80.6058 164.438 78.3025 165.037 76.2402 166.383C75.4488 166.9 74.8803 166.853 74.0941 166.448C70.3906 164.551 66.5067 163.114 62.2878 163.903C59.8068 164.367 57.3565 165.229 55.0261 166.225C51.8629 167.577 48.8959 169.394 45.7198 170.71C41.824 172.323 37.0378 171.595 33.7601 169.181C31.9357 173.048 28.6776 173.896 24.8659 173.071C21.2545 172.289 19.1255 169.965 18.7426 166.146C15.3541 167.72 12.1844 167.673 9.52573 165C6.45084 161.906 6.00893 158.389 8.6008 154.631C5.57777 152.939 4.00682 150.613 4.68486 147.166C5.3069 144 7.3581 141.993 9.91273 140.624C9.01291 137.899 7.83476 135.268 7.29134 132.511C5.5855 123.841 5.46964 115.157 7.60746 106.495C8.49239 102.906 9.44406 99.2707 9.6937 95.6097C9.88597 92.7801 9.10119 89.865 8.6008 87.0139C8.42839 86.0427 7.73849 85.17 7.41272 84.2096C7.30596 83.8933 7.48637 83.3466 7.72498 83.065C11.8186 78.2435 12.5885 72.7271 11.0752 66.7874C10.5908 64.8851 9.76736 63.0707 9.1147 61.2109C7.01797 55.234 5.60867 49.109 6.41056 42.7602C6.80033 39.6824 7.90539 36.6953 8.74369 33.4493C4.68899 32.2978 2.61627 29.0775 2.05851 24.6094C1.56336 20.6471 2.368 17.5867 8.00028 14.968C6.97136 11.3713 8.97595 9.11656 11.6892 7.23796C14.4841 5.30228 17.3667 5.11671 20.2816 7.1806C21.9392 4.64326 23.5261 2.18423 26.892 2.53277C29.7429 2.82615 32.5911 3.25989 33.4051 6.74328C34.693 6.13087 35.9396 5.61193 37.118 4.96643C40.511 3.10658 44.065 3.41485 47.6739 4.0325C54.051 5.12387 60.4347 6.17637 66.8156 7.23961C70.7155 7.89063 73.5063 6.20559 75.5175 3.00924C76.8013 0.970711 77.2603 0.964094 78.471 3.11457C79.9126 5.67866 81.9489 7.07279 85.047 7.06617C88.5064 7.05817 91.6786 5.99631 94.8087 4.82883C100.176 2.8278 105.685 2.87689 111.205 3.51743C116.147 4.08986 117.17 4.6008 120.593 6.74604C122.111 2.52891 125.165 0.566479 129.587 1.08018C132.92 1.46704 133.876 4.17534 134.709 7.05018C137.791 5.50798 140.984 4.88619 143.613 7.55588C146.097 10.0775 146.033 13.2259 144.505 16.1581C145.766 16.9439 146.873 17.4907 147.811 18.2446C150.832 20.6752 150.266 25.8583 148.856 28.6882C147.848 30.7107 146.308 32.1743 144.198 32.9894C143.489 33.2615 143.23 33.6751 143.55 34.3342C146.571 40.5592 145.217 46.8827 144.008 53.2079C143.199 57.4382 141.801 61.4781 140.306 65.5124C137.772 72.351 139.098 78.8189 143.281 84.5568C144.463 86.1776 144.255 86.905 143.43 88.3551C140.302 93.8571 139.577 99.5936 141.692 105.727C143.564 111.147 145.061 116.716 144.621 122.551C144.137 128.956 143.574 135.364 140.328 141.143C140.188 141.394 140.101 141.676 139.928 142.091C141.972 142.118 143.88 142.543 144.965 144.201C145.768 145.43 146.264 146.95 146.55 148.408C147.195 151.684 145.752 153.983 142.055 156.03C143.41 159.812 144.455 163.789 141.064 166.889C138.225 169.484 134.771 168.921 131.437 166.977C130.381 171.291 127.863 173.99 123.326 174.065C119.846 174.124 116.771 173.107 115.175 169.585Z" stroke="#414141" stroke-width="2" stroke-miterlimit="10"/>
<path d="M9.75713 33.7658C10.8263 36.5607 7.79778 39.9909 7.48828 42.6989C7.12251 45.882 7.42428 49.1972 7.97267 52.342C9.3646 60.3213 14.0946 68.2926 12.365 76.5816C11.8166 79.2058 9.51549 81.6312 9.23523 84.1087C8.88959 87.1757 10.5698 90.0213 10.8782 93.0351C11.2478 96.6666 10.2349 100.215 9.40321 103.717C6.35756 116.537 5.92642 129.364 12.2607 141.233C12.0042 140.753 8.4314 142.971 8.107 143.266C6.97409 144.297 6.11565 145.777 5.84642 147.292C5.15763 151.171 8.40603 152.025 10.6418 154.122C8.2168 157.416 7.44662 161.159 10.5149 164.399C13.2976 167.336 16.8279 165.267 19.8135 163.901C20.4192 167.092 20.585 170.209 24.0281 171.612C25.6979 172.294 28.4271 172.462 30.0367 171.483C31.4529 170.617 31.7582 168.086 33.4867 167.702C35.1338 167.336 36.4537 169.295 37.8713 169.77C40.6632 170.705 44.1841 170.039 46.872 169.057C52.4761 167.011 57.3586 162.97 63.491 162.527C65.9869 162.346 68.6174 162.716 70.969 163.58C72.5518 164.162 74.0643 165.057 75.8019 164.952C80.0102 164.694 83.4867 162.854 87.8752 163.443C92.2849 164.037 96.4023 165.92 100.474 167.607C103.588 168.896 107.035 170.042 110.448 169.4C112.319 169.048 114.044 166.686 115.943 167.73C117.061 168.345 117.821 170.707 118.872 171.623C120.177 172.758 121.632 173.239 123.362 173.053C128.316 172.52 128.839 168.263 130.741 164.591C134.92 168.273 141.475 168.226 142.042 161.372C142.201 159.425 139.75 157.967 139.98 156.14C140.196 154.415 141.799 154.555 143.076 153.964C144.622 153.25 145.23 152.087 145.483 150.363C146.218 145.338 141.876 143.849 137.934 142.827C138.446 140.735 140.095 138.817 140.864 136.743C142.719 131.734 143.158 126.442 143.347 121.157C143.71 110.991 137.4 102.201 140.837 91.9322C141.659 89.472 142.81 87.4001 141.883 84.8027C140.629 81.2901 138.51 78.8779 138.137 75.0118C137.724 70.7345 138.823 66.5202 140.103 62.4723C141.959 56.6035 143.196 50.8056 143.96 44.6914C144.378 41.3495 143.889 38.061 142.5 34.9832C141.633 33.0646 141.531 33.122 143.338 32.1776C143.948 31.8585 144.559 31.5238 145.12 31.1262C148.556 28.6848 149.7 23.9261 147.771 20.1706C146.925 18.5203 145.547 17.7667 143.684 17.8627C141.676 17.9655 143.747 14.4407 143.973 13.308C144.291 11.7189 144.285 10.2007 143.244 8.86395C140.403 5.21539 135.965 7.46596 133.469 10.1061C134.079 9.46037 133.218 6.10657 132.867 5.28873C132.248 3.84662 131.184 2.81923 129.672 2.3309C125.804 1.08622 122.498 4.13202 122.101 7.84207C122.101 7.84482 122.101 7.8462 122.101 7.84758C121.776 10.7891 115.618 5.70372 114.383 5.29535C111.136 4.22549 107.29 4.01869 103.901 4.34819C96.8602 5.03257 89.3753 10.5357 82.22 7.83297C80.5225 7.1927 78.3416 3.75453 76.7 3.848C76.0474 3.88523 74.3401 6.27202 73.6676 6.74573C69.3462 9.78354 63.7352 8.37865 59.0507 7.08461C53.5412 5.56226 47.638 3.87613 41.875 4.76455C40.1854 5.02623 38.3957 6.11347 36.8606 6.81522C35.1655 7.58784 33.0556 9.52103 32.1574 7.46238C31.8316 6.71651 31.7034 5.74949 31.1511 5.26364C29.384 3.71207 27.1298 3.43192 25.0066 4.08017C22.935 4.71134 21.9728 6.61917 21.3684 8.63205C21.2523 9.01643 21.0735 9.38317 20.9213 9.75679C21.4779 8.38803 15.5921 7.21145 14.7045 7.44611C12.5622 8.0133 10.0412 9.79815 9.40597 12.0021C9.12433 12.9774 9.73975 14.2488 9.48072 15.0639C8.54118 18.0069 4.34222 17.8897 3.29068 20.9901C2.339 23.7957 3.31056 27.49 5.08951 29.7806C6.24007 31.2616 8.5023 31.6165 9.47798 33.2028C9.59163 33.387 9.68375 33.5736 9.75713 33.7658Z" stroke="#414141" stroke-width="2" stroke-miterlimit="10"/>
<path d="M126.006 87.6758C126.006 108.292 126.006 128.909 126.007 149.525C126.007 151.233 126.018 152.987 124.237 153.914C123.45 154.325 122.506 154.64 121.632 154.645C112.73 154.699 103.827 154.68 94.9234 154.68C72.9137 154.68 50.9041 154.681 28.8944 154.679C25.3641 154.679 23.8883 153.172 23.8883 149.615C23.8883 108.332 23.8842 67.0479 23.8977 25.765C23.8977 24.8898 23.9269 23.96 24.2113 23.1502C24.7785 21.5385 25.9356 20.5378 27.748 20.4978C28.1937 20.4884 28.6384 20.4711 29.0828 20.4711C59.6995 20.4711 90.3151 20.5056 120.93 20.4297C124.489 20.4203 126.049 22.2573 126.038 25.5287C125.972 46.2437 126.005 66.9599 126.006 87.6758Z" stroke="#414141" stroke-width="2" stroke-miterlimit="10"/>
<path d="M25.1908 87.4864C25.188 87.4864 25.1855 87.4864 25.1844 87.4864C25.1844 108.156 25.183 128.825 25.1858 149.495C25.1858 152.758 25.9185 153.478 29.2124 153.478C59.8332 153.478 90.4541 153.477 121.075 153.475C123.968 153.475 124.857 152.591 124.857 149.636C124.86 108.248 124.857 66.8596 124.851 25.4713C124.851 22.5819 123.902 21.6104 121.052 21.6104C90.3327 21.6038 59.6131 21.6025 28.8935 21.6077C26.0533 21.6091 25.1924 22.4909 25.1924 25.3299C25.1894 46.0488 25.1908 66.7678 25.1908 87.4864Z" stroke="#414141" stroke-width="2" stroke-miterlimit="10"/>
<path d="M43.3136 80.2887C42.297 82.4408 41.6293 84.7906 42.2249 87.1689C43.0183 90.3318 44.9297 93.0504 46.5709 95.7966C47.8575 97.9469 49.196 100.142 50.9556 101.933L52.6135 105.936L100.41 101.341C101.291 100.509 102.122 99.6441 102.871 98.7124C103.565 97.8494 104.188 96.9294 104.712 95.9238C105.777 93.8859 106.544 91.7041 107.474 89.6014C108.243 87.8554 107.793 86.2353 106.972 84.5881C105.399 81.4319 103.905 78.2342 102.388 75.0504C102.148 74.5472 101.96 74.0197 101.741 73.5049C100.804 71.2904 100.838 68.9403 100.698 66.5905C100.276 59.5628 97.3999 53.4421 93.5663 47.7329C93.0915 47.0246 92.3435 46.4311 91.5995 45.999C90.3528 45.2723 89.2903 45.5024 88.311 46.5559C86.1462 48.8863 84.2939 51.4517 83.3397 54.5325C82.1975 58.2284 81.1925 61.9696 80.1736 65.7051C79.9782 66.4194 79.7502 66.7631 78.9263 66.7425C76.2818 66.6765 73.6319 66.652 70.9896 66.7364C70.0157 66.7685 69.6651 66.4721 69.6009 65.5312C69.2617 60.5143 67.6223 55.824 65.8739 51.1919C64.9727 48.8 63.829 46.4772 62.0031 44.5994C60.3706 42.9212 58.7984 43 57.1629 44.6875C55.8039 46.088 55.155 47.8483 54.3092 49.5362C51.9143 54.3118 50.5186 59.3748 49.7704 64.6531C49.5675 66.0878 49.5327 67.6352 48.9489 68.9091C47.1865 72.7566 45.1219 76.4594 43.3136 80.2887ZM54.887 67.5913C54.5669 67.4847 54.1354 66.9469 54.1687 66.655C54.4924 63.7422 54.6784 60.7844 55.3651 57.9543C55.8066 56.1329 56.8168 53.4494 58.3175 52.2663C59.3632 51.4408 59.9645 52.0513 60.32 53.0566C61.1767 55.4867 61.3123 58.5245 61.3899 61.0827C61.4544 63.2462 61.1328 65.3774 60.9475 67.5262C60.8369 68.8031 60.5069 69.0959 59.3311 68.8419C57.83 68.5182 56.3481 68.0785 54.887 67.5913ZM89.2321 66.6486C88.7137 62.4335 88.3525 58.1127 89.1973 53.9148C89.3551 53.1275 89.7433 52.3744 90.6578 52.3187C91.578 52.2608 91.9847 52.9709 92.2845 53.734C92.3239 53.8373 92.3669 53.9424 92.3977 54.0493C92.9655 56.0139 93.5999 57.9622 94.0768 59.9507C94.4835 61.6486 94.7367 63.3858 95.0059 65.1137C95.2551 66.7289 94.8917 67.3027 93.2968 67.6282C92.4089 67.8075 91.4745 67.7605 90.5615 67.8017C89.7736 67.8353 89.3315 67.4626 89.2321 66.6486Z" fill="black"/>
<path d="M49.5581 116.335C48.8649 120.529 48.2381 124.817 48.6708 129.072C49.0179 132.495 50.144 135.757 51.4128 138.934C52.1683 140.827 53.0901 142.659 53.749 144.591C54.0775 145.552 54.3491 146.534 54.4921 147.538C54.5953 148.282 54.4454 149.428 54.9557 150.029C55.978 151.234 57.8288 151.091 59.2368 151.111C61.338 151.144 63.4429 151.13 65.5459 151.126C69.818 151.119 74.0918 151.084 78.3639 151.064C80.7991 151.052 83.2328 151.046 85.6683 151.049C89.1415 151.054 92.6169 151.059 96.0901 151.028C98.6271 151.005 101.164 150.977 103.699 150.947C103.939 150.945 108.976 150.969 108.977 150.918C109.053 148.868 108.936 146.82 108.693 144.783C108.253 141.104 106.459 138.869 104.786 135.671C103.861 133.902 103.061 132.059 102.396 130.178C99.5307 122.063 99.5201 114.879 99.3193 109.439C99.1843 105.814 100.605 104.961 100.409 101.34L52.6131 105.935C51.2611 109.378 50.1625 112.678 49.5581 116.335Z" fill="black"/>
<path d="M54.1693 66.655C54.136 66.9469 54.5672 67.4851 54.8876 67.5913C56.348 68.0783 57.83 68.5185 59.3316 68.8419C60.5077 69.0957 60.8378 68.8032 60.948 67.5262C61.1337 65.3772 61.4552 63.2457 61.3904 61.0827C61.3129 58.5246 61.177 55.4871 60.3206 53.0567C59.9651 52.0511 59.3637 51.4409 58.3181 52.2664C56.8174 53.4491 55.8072 56.1333 55.3657 57.9547C54.6786 60.7844 54.493 63.7423 54.1693 66.655Z" fill="#767676"/>
<path d="M89.1972 53.9152C88.3521 58.1127 88.7136 62.4332 89.232 66.649C89.3317 67.4629 89.7738 67.8357 90.5617 67.8018C91.4747 67.7603 92.4091 67.8075 93.297 67.6283C94.8919 67.3027 95.2553 66.7289 95.006 65.1137C94.7368 63.3859 94.4837 61.6493 94.077 59.9508C93.6001 57.9622 92.966 56.0139 92.3979 54.0493C92.3674 53.9424 92.3244 53.8373 92.2847 53.7341C91.9849 52.971 91.5782 52.2609 90.658 52.3187C89.7429 52.3745 89.355 53.1278 89.1972 53.9152Z" fill="#767676"/>
<path d="M52.6131 105.935C51.2614 109.378 50.1628 112.679 49.5581 116.335C48.8649 120.529 48.2381 124.817 48.6708 129.072C49.0179 132.496 50.144 135.757 51.4128 138.934C52.1683 140.828 53.0901 142.659 53.749 144.591C54.0775 145.552 54.3491 146.534 54.4921 147.539C54.5953 148.282 54.4454 149.428 54.9557 150.03C55.978 151.234 57.8288 151.091 59.2368 151.112C61.338 151.144 63.4429 151.13 65.5459 151.126C69.818 151.119 74.0918 151.084 78.3639 151.064C80.7991 151.053 83.2328 151.046 85.6683 151.05C89.1415 151.055 92.6169 151.059 96.0901 151.028C98.6271 151.005 101.164 150.977 103.699 150.947C103.939 150.945 108.976 150.969 108.977 150.918C109.053 148.869 108.936 146.82 108.693 144.784C108.253 141.104 106.459 138.869 104.786 135.671C103.861 133.903 103.061 132.06 102.396 130.179C99.5307 122.063 99.5201 114.879 99.3193 109.439C99.1843 105.814 100.605 104.962 100.409 101.341" stroke="#575757" stroke-width="2" stroke-miterlimit="10"/>
<path d="M100.409 101.341C101.29 100.509 102.121 99.6441 102.87 98.7124C103.564 97.8494 104.187 96.9294 104.711 95.9238C105.776 93.8859 106.544 91.7041 107.473 89.6014C108.242 87.8554 107.792 86.2353 106.971 84.5881C105.398 81.4319 103.905 78.2342 102.388 75.0504C102.147 74.5472 101.959 74.0197 101.74 73.5049C100.803 71.2904 100.837 68.9403 100.697 66.5905C100.275 59.5628 97.3991 53.4421 93.5655 47.7329C93.0907 47.0246 92.3427 46.4311 91.5987 45.999C90.3521 45.2723 89.2895 45.5024 88.3102 46.5559C86.1454 48.8863 84.2931 51.4517 83.3389 54.5325C82.1967 58.2284 81.1917 61.9696 80.1728 65.7051C79.9774 66.4194 79.7494 66.7631 78.9255 66.7425C76.281 66.6765 73.6311 66.652 70.9888 66.7364C70.015 66.7685 69.6643 66.4721 69.6001 65.5312C69.261 60.5143 67.6215 55.824 65.8731 51.1919C64.9719 48.8 63.8282 46.4772 62.0023 44.5994C60.3698 42.9212 58.7976 43 57.1621 44.6875C55.8031 46.088 55.1542 47.8483 54.3084 49.5362C51.9135 54.3118 50.5179 59.3748 49.7696 64.6531C49.5667 66.0878 49.5319 67.6352 48.9481 68.9091C47.186 72.7566 45.1215 76.4594 43.3131 80.2887C42.2965 82.4408 41.6288 84.7903 42.2245 87.1689C43.0178 90.3318 44.9292 93.0504 46.5704 95.7966C47.8571 97.9469 49.1955 100.142 50.9551 101.933L52.613 105.936" stroke="#575757" stroke-width="2" stroke-miterlimit="10"/>
<path d="M45.9073 90.2618C44.7542 90.1628 43.9933 90.6312 43.5363 91.2459C42.4214 92.7457 42.263 94.4263 42.4277 96.0615C42.6037 97.8033 42.8668 99.5859 43.7225 101.251C44.1631 102.109 44.8084 102.904 45.3883 103.724C46.6398 105.494 47.7905 107.313 48.3955 109.226C49.5162 112.77 47.438 116.157 48.1451 120.042C48.2441 120.583 50.084 121.322 50.7893 121.483C51.7567 121.704 52.918 121.682 53.7744 121.287C55.68 120.41 55.4622 118.291 55.7093 116.97C56.0939 114.916 56.6005 112.836 56.2193 110.766C56.0894 110.057 55.8919 109.352 55.6085 108.662C54.9266 107.002 53.7934 105.436 52.7245 103.867C51.8194 102.539 50.8886 101.217 50.144 99.8476C49.7473 99.1184 49.4009 98.3777 49.1301 97.6246C48.7653 96.6099 48.4945 95.5825 48.3095 94.5475C48.1536 93.6757 48.1427 92.687 47.7312 91.847C47.4756 91.3247 47.2697 90.6915 46.4775 90.3896C46.2937 90.319 46.1026 90.2784 45.9073 90.2618Z" fill="black" stroke="#575757" stroke-width="2" stroke-miterlimit="10"/>
<path d="M102.816 88.088C101.656 88.8383 102.979 91.1594 103.014 92.0587C103.081 93.8087 102.61 95.5683 101.498 97.2071C99.1717 100.634 94.8461 103.232 93.6993 106.94C92.76 109.977 93.2127 113.083 94.6287 116.048C95.1628 117.168 95.6709 118.97 97.4742 119.691C101.023 121.112 102.133 118.132 101.922 116.797C101.554 114.463 99.6205 112.291 99.8313 109.918C100.447 103.032 113.066 96.4846 107.653 89.3916C107.107 88.6775 104.104 87.2567 102.816 88.088Z" fill="black" stroke="#575757" stroke-width="2" stroke-miterlimit="10"/>
<path d="M65.0382 86.814C65.603 86.3859 65.6296 85.5601 65.5872 84.6677C65.5458 83.7995 65.4334 82.9378 65.3574 82.072C65.2399 80.7369 65.0101 79.3858 64.3751 78.1894C63.6132 76.7543 62.3868 75.3935 60.8855 74.7207C60.1097 74.3733 59.1425 74.1453 58.2886 74.1453C56.6604 74.1453 55.0982 74.8212 53.933 75.934C51.9005 77.8735 51.3778 80.465 51.1014 83.1515C50.9884 84.2483 50.2278 86.6048 51.8211 87.0175C52.3629 87.1577 52.9782 87.0684 53.5287 87.0417C54.3781 87.0003 55.2284 87.0369 56.0781 87.0369C58.0972 87.0369 60.1445 86.9324 62.1603 87.0293C62.7832 87.0593 63.4091 87.1441 64.0332 87.1187C64.4814 87.0999 64.806 86.9906 65.0382 86.814Z" fill="#B0FF27"/>
<path d="M60.2587 83.8734C60.2587 86.8785 59.3424 89.3146 58.2117 89.3146C57.0816 89.3146 56.165 86.8785 56.165 83.8734C56.165 80.868 57.0813 79.3021 58.212 79.3021C59.3427 79.3024 60.2587 80.868 60.2587 83.8734Z" fill="black"/>
<path d="M98.4841 86.6242C99.0488 86.196 99.0754 85.37 99.033 84.4779C98.9916 83.6094 98.8792 82.7476 98.8032 81.8822C98.6857 80.5468 98.4559 79.1956 97.8209 77.9995C97.059 76.5642 95.8326 75.2037 94.3313 74.5305C93.5555 74.1832 92.5883 73.9552 91.7344 73.9552C90.1062 73.9552 88.544 74.6314 87.3788 75.7436C85.3463 77.6834 84.8236 80.2752 84.5472 82.9611C84.4342 84.0579 83.6736 86.415 85.2669 86.8277C85.8087 86.9679 86.424 86.8786 86.9745 86.8519C87.8239 86.8104 88.6742 86.8468 89.5239 86.8468C91.543 86.8468 93.5903 86.7426 95.6061 86.8395C96.229 86.8692 96.8549 86.954 97.479 86.9285C97.9275 86.9095 98.2515 86.8005 98.4841 86.6242Z" fill="#B0FF27"/>
<path d="M93.7036 83.6834C93.7036 86.6888 92.7873 89.1249 91.6566 89.1249C90.5265 89.1249 89.6099 86.6888 89.6099 83.6834C89.6099 80.678 90.5262 79.1121 91.6569 79.1121C92.7876 79.1121 93.7036 80.678 93.7036 83.6834Z" fill="black"/>
<path d="M76.5389 87.8348L72.6436 87.8415L78.5335 93.997" stroke="#767676" stroke-width="2" stroke-miterlimit="10"/>
<path d="M73.3312 87.8348L77.2269 87.8415L71.3369 93.997" stroke="#767676" stroke-width="2" stroke-miterlimit="10"/>
</svg>
