<svg width="189" height="188" viewBox="0 0 189 188" fill="none" xmlns="http://www.w3.org/2000/svg">
<path d="M132.84 120.162C137.057 130.075 131.772 142.688 121.717 146.732C120.826 147.088 119.826 147.171 117.901 147.602C119.009 146.204 119.972 144.798 120.803 143.381C122.38 141.061 123.53 138.441 124.092 135.885C124.129 135.709 124.167 135.533 124.204 135.36C125.245 131.582 125.601 127.733 125.526 123.808C125.526 123.771 125.526 123.733 125.526 123.696C125.582 119.472 125.148 115.319 124.2 111.256C123.964 109.835 123.71 108.404 123.447 106.964C127.717 111.249 130.791 115.341 132.84 120.162Z" fill="#BE9857"/>
<path d="M125.526 123.696C125.526 123.734 125.526 123.771 125.526 123.808C125.474 127.605 125.028 131.462 124.204 135.36C123.459 138.07 122.358 140.743 120.804 143.381C119.089 145.911 116.868 148.089 114.355 149.449C109.708 151.964 104.06 153.235 98.8279 153.722C96.9103 153.899 94.963 153.947 93.0228 153.887C92.0454 153.857 91.068 153.801 90.1017 153.719C84.2443 153.228 78.1886 151.871 73.1628 148.692C71.0394 147.347 69.077 145.458 67.62 143.404C66.343 141.608 65.2232 139.524 64.4107 137.474C63.9425 136.305 63.6318 135.057 63.4296 133.764C63.426 133.756 63.426 133.749 63.426 133.745C63.0926 129.311 63.231 124.855 63.8679 120.446C64.1639 118.393 64.5869 116.368 65.0138 114.337C65.2458 113.22 65.4744 112.099 65.6655 110.971C65.7142 110.679 65.7479 110.375 65.7777 110.071C67.4666 104.798 69.8074 99.7077 72.2343 94.6178C77.8219 82.9086 83.6642 71.2292 84.9675 57.9495C85.5069 52.4697 88.6976 49.9658 93.9368 49.9435C99.367 49.9209 102.348 52.4474 103.247 57.9571C104.505 65.7009 106.715 73.1261 109.329 80.5474C111.112 85.6187 113.831 89.7753 116.714 94.1119C120.351 99.5879 122.823 105.326 124.201 111.256C124.905 115.484 125.444 119.629 125.526 123.696Z" fill="#DBBA84"/>
<path d="M57.763 118.032C59.7029 114.561 62.3806 110.12 65.9237 108.085C65.8599 108.73 65.8373 109.408 65.7775 110.071C64.362 114.472 63.3993 118.996 63.2158 123.752C63.0885 127.021 62.9198 130.521 63.4255 133.745C63.4255 133.749 63.4255 133.756 63.4291 133.764C63.4929 134.622 63.575 135.484 63.6764 136.342C63.9423 138.588 65.519 140.724 66.6836 142.804C67.6836 144.592 69.4363 145.983 70.2188 147.602C61.7176 147.602 53.1565 135.484 54.4598 126.687C54.9056 123.674 56.2838 120.675 57.763 118.032Z" fill="#BE9857"/>
<path d="M125.526 123.808C125.474 127.605 125.028 131.462 124.204 135.36C124.167 135.532 124.129 135.708 124.092 135.885C123.53 138.441 122.381 141.061 120.804 143.381C119.089 145.911 116.868 148.089 114.355 149.449C109.708 151.964 104.06 153.235 98.828 153.722C96.9104 153.898 94.9631 153.947 93.0229 153.887C92.0455 153.857 91.068 153.801 90.1017 153.719C84.2444 153.228 78.1887 151.87 73.1629 148.692C71.0395 147.347 69.0771 145.458 67.6201 143.403C66.3431 141.608 65.2233 139.524 64.4107 137.474C63.9426 136.305 63.6319 135.056 63.4297 133.763" stroke="black" stroke-width="4" stroke-miterlimit="10"/>
<path d="M63.426 133.744C62.9203 130.521 63.089 127.02 63.2163 123.752C63.3998 118.995 64.3622 114.471 65.7779 110.071C67.4669 104.797 69.8077 99.7072 72.2346 94.6173C77.8221 82.9081 83.6645 71.2287 84.9677 57.9491C85.5071 52.4692 88.6979 49.9653 93.937 49.943C99.3673 49.9204 102.349 52.4469 103.247 57.9566C104.506 65.7004 106.715 73.1256 109.329 80.5469C111.112 85.6182 113.831 89.7748 116.715 94.1114C120.351 99.5874 122.823 105.326 124.201 111.256C125.148 115.319 125.583 119.472 125.527 123.696" stroke="black" stroke-width="4" stroke-miterlimit="10"/>
<path d="M124.2 111.256C123.964 109.835 123.71 108.404 123.448 106.964C127.717 111.249 130.792 115.342 132.84 120.162C137.057 130.076 131.773 142.688 121.718 146.733C120.826 147.088 119.826 147.171 117.901 147.602C119.01 146.204 119.973 144.798 120.804 143.381C122.358 140.743 123.459 138.07 124.204 135.361C125.246 131.582 125.601 127.733 125.526 123.809C125.526 123.771 125.526 123.734 125.526 123.696C125.444 119.629 124.904 115.484 124.2 111.256Z" stroke="black" stroke-width="4" stroke-miterlimit="10"/>
<path d="M63.4296 133.763C63.4934 134.622 63.5755 135.484 63.6769 136.342C63.9428 138.587 65.5195 140.724 66.6841 142.804C67.6841 144.592 69.4368 145.983 70.2193 147.602C61.7181 147.602 53.157 135.484 54.4603 126.687C54.9058 123.673 56.284 120.675 57.7632 118.032C59.7031 114.561 62.3808 110.12 65.9239 108.085C65.8601 108.73 65.8375 109.408 65.7777 110.071C65.7479 110.375 65.7139 110.679 65.6654 110.971C65.4744 112.099 65.2461 113.22 65.0138 114.337C64.5869 116.368 64.1636 118.393 63.8679 120.446C63.231 124.854 63.0926 129.311 63.426 133.745C63.4257 133.748 63.4257 133.756 63.4296 133.763Z" stroke="black" stroke-width="4" stroke-miterlimit="10"/>
<path fill-rule="evenodd" clip-rule="evenodd" d="M45.7147 161.286C45.2998 161.494 44.8988 161.738 44.4686 161.905C40.3385 163.499 38.6401 166.46 39.7515 170.155C40.6719 173.213 44.7902 175.546 48.3112 174.367C51.4568 173.313 54.5682 171.779 57.2694 169.857C62.5868 166.073 67.6004 161.862 72.7549 157.848C79.1448 152.871 87.7406 153.331 92.9751 160.132C93.3808 160.659 93.7902 161.183 94.3268 161.877C95.3365 160.666 96.1293 159.571 97.0664 158.616C101.663 153.938 108.963 153.004 114.362 156.784C118.434 159.635 122.022 163.176 126.061 166.08C129.89 168.833 133.925 171.342 138.068 173.593C140.093 174.694 142.551 175.126 144.936 174.108C147.553 172.992 149 170.95 149.123 168.193C149.242 165.509 147.786 163.596 145.384 162.427C144.613 162.052 143.829 161.708 143.051 161.35C143.047 161.164 143.043 160.977 143.038 160.792C144.194 160.718 145.387 160.424 146.5 160.609C152.55 161.618 155.21 167.907 154.493 172.566C153.694 177.756 150.262 180.451 145.668 182.278C137.033 185.713 128.114 185.796 119.136 184.596C114.644 183.995 110.164 183.008 105.814 181.735C101.609 180.504 97.6556 178.568 95.1377 174.635C94.9442 174.331 94.6546 174.089 94.4062 173.815C94.1667 173.89 93.908 173.891 93.8358 174.007C90.7337 179.015 85.673 180.973 80.4062 182.467C73.225 184.506 65.8786 185.642 58.4 185.186C52.9971 184.857 47.5357 184.474 42.5109 182.178C40.6137 181.311 38.6992 180.21 37.2027 178.784C32.8482 174.633 32.6736 166.05 38.3906 161.957C40.59 160.382 43.0467 160.19 45.5635 160.662C45.615 160.87 45.6646 161.078 45.7147 161.286Z" fill="#4C4339" stroke="black" stroke-width="5" stroke-miterlimit="10"/>
<path fill-rule="evenodd" clip-rule="evenodd" d="M111.704 39.4886C111.923 33.2144 115.242 28.7382 120.937 26.2307C120.769 23.8937 120.413 21.6201 120.06 19.3026C119.884 18.153 119.736 16.9975 119.485 15.8609C119.481 15.8453 119.478 15.8303 119.474 15.8149C119.373 15.864 119.264 15.9041 119.144 15.9314C118.999 16.2308 118.731 16.4732 118.32 16.5881C118.208 16.9337 117.989 17.2372 117.655 17.4125C116.242 18.1549 114.603 18.3628 113.258 19.2201C112.981 19.396 112.717 19.588 112.457 19.7851C112.733 19.8478 113.02 19.9124 113.315 19.9972C110.812 21.7987 108.748 23.9662 106.223 24.9442C102.278 26.4726 98.0404 27.9829 93.8912 28.0879C86.5083 28.2763 80.8607 23.6939 74.7125 19.3996C74.2595 19.2463 73.8047 19.0766 73.3338 18.9069C72.9041 18.7522 72.5538 18.4598 72.3553 18.0892C70.9164 17.8233 69.4795 17.529 68.0434 17.2193C68.0008 17.3774 67.9568 17.5323 67.9097 17.6761C67.5995 18.6131 67.2837 19.5487 66.9769 20.4871C66.526 21.8642 66.0468 23.2499 65.707 24.6632C66.2904 24.8235 66.8727 24.9918 67.4533 25.1777C75.7607 27.8396 79.7067 33.322 79.4296 42.0315C79.1915 49.5085 77.8103 56.7866 74.5162 63.5435C74.6167 63.5524 74.7175 63.5639 74.8186 63.5717C76.8019 63.7185 78.7846 63.7121 80.7721 63.6935C81.8774 63.6831 82.982 63.66 84.0859 63.6321C85.4833 59.5207 86.5317 55.2833 86.9687 50.8304C87.4195 46.2332 90.0962 44.1349 94.4919 44.1165C99.0452 44.0978 101.548 46.214 102.299 50.8371C103.045 55.4204 104.189 59.8694 105.566 64.279C109.156 64.1625 112.737 63.6909 116.222 62.8428C112.773 55.5141 111.42 47.6359 111.704 39.4886ZM84.1296 28.4714C87.9422 28.9798 91.6002 29.9586 95.2117 29.81C98.7611 29.664 102.263 28.3728 105.944 27.5484C100.663 34.9644 87.8486 33.123 84.1296 28.4714Z" fill="black"/>
<path d="M44.7653 89.3321C68.3839 89.3321 87.5305 70.1695 87.5305 46.5313C87.5305 22.893 68.3839 3.73047 44.7653 3.73047C21.1467 3.73047 2 22.893 2 46.5313C2 70.1695 21.1467 89.3321 44.7653 89.3321Z" fill="white" stroke="black" stroke-width="4" stroke-miterlimit="10"/>
<path d="M143.854 87.6016C167.472 87.6016 186.619 68.439 186.619 44.8008C186.619 21.1626 167.472 2 143.854 2C120.235 2 101.088 21.1626 101.088 44.8008C101.088 68.439 120.235 87.6016 143.854 87.6016Z" fill="white" stroke="black" stroke-width="4" stroke-miterlimit="10"/>
<path fill-rule="evenodd" clip-rule="evenodd" d="M45.6918 11.848C33.8685 11.3753 24.494 16.3878 17.5155 25.8501C8.81935 37.6418 8.49409 54.2235 16.6926 66.3365C21.2036 73.0012 27.5945 78.2104 35.1795 80.9685C36.7323 81.5334 38.2619 82.4272 39.9342 82.576C40.6287 82.6376 41.5103 82.6153 41.991 82.0203C44.1956 79.289 39.5089 78.1268 37.7401 77.5034C35.2152 76.6143 32.6521 75.7584 30.3633 74.3395C27.1849 72.3694 24.335 69.8964 22.0298 66.9427C20.3386 64.7752 18.8869 62.4497 17.6661 59.9854C11.2905 47.116 15.2846 30.743 26.6638 21.8298C36.1982 14.3611 49.1811 13.6292 59.4974 19.9775C71.4845 27.3545 75.6588 42.0308 69.2509 54.267C62.6948 66.7855 47.6322 70.8326 36.0784 63.054C25.8577 56.1725 24.479 42.9076 31.6947 34.219C37.6098 27.0976 47.9767 26.1154 55.026 32.1128C61.1691 37.3394 61.4033 46.5854 55.5292 51.9454C51.8349 55.316 46.0149 55.4593 42.319 52.2712C39.0815 49.478 38.6031 44.8594 41.2889 42.0085C42.5407 40.6791 44.0692 40.0866 45.8756 40.7056C46.8096 41.0255 47.5707 41.5902 47.7659 42.8357C47.4805 42.7362 47.3504 42.6818 47.2154 42.6453C46.4582 42.4419 45.7578 42.538 45.2073 43.1331C44.6445 43.7412 44.5323 44.458 44.7996 45.2459C45.3212 46.786 46.8909 47.5764 48.442 47.0692C51.6317 46.028 52.6993 41.9581 50.4743 39.3221C48.0494 36.45 44.0447 35.7168 40.7406 37.5403C35.5042 40.4308 34.0063 47.7896 37.6242 52.8484C41.6543 58.4843 49.4312 60.1797 55.4704 56.7391C62.2676 52.8665 65.3776 44.363 62.8137 36.9277C59.8162 28.235 50.7475 23.2356 41.9742 24.4125C33.27 25.5803 26.1222 32.1488 24.0119 40.746C21.6366 50.4214 25.2587 60.2221 33.3288 65.9544C43.5153 73.1904 56.8962 72.4806 66.3386 64.2036C77.0256 54.8361 79.3594 38.3725 71.5488 26.4947C65.4572 17.2306 56.699 12.2884 45.6918 11.848Z" fill="black"/>
<path fill-rule="evenodd" clip-rule="evenodd" d="M141.626 11.848C153.449 11.3753 162.824 16.3878 169.802 25.8501C178.498 37.6418 178.824 54.2235 170.625 66.3365C166.114 73.0012 159.723 78.2104 152.138 80.9685C150.585 81.5334 149.056 82.4272 147.384 82.576C146.689 82.6376 145.807 82.6153 145.327 82.0203C143.122 79.289 147.809 78.1268 149.578 77.5034C152.103 76.6143 154.666 75.7584 156.954 74.3395C160.133 72.3694 162.983 69.8964 165.288 66.9427C166.979 64.7752 168.431 62.4497 169.652 59.9854C176.027 47.116 172.033 30.743 160.654 21.8298C151.12 14.3611 138.137 13.6292 127.82 19.9775C115.833 27.3545 111.659 42.0308 118.067 54.267C124.623 66.7855 139.686 70.8326 151.239 63.054C161.46 56.1725 162.839 42.9076 155.623 34.219C149.708 27.0976 139.341 26.1154 132.292 32.1128C126.149 37.3394 125.914 46.5854 131.789 51.9454C135.483 55.316 141.303 55.4593 144.999 52.2712C148.236 49.478 148.715 44.8594 146.029 42.0085C144.777 40.6791 143.249 40.0866 141.442 40.7056C140.508 41.0255 139.747 41.5902 139.552 42.8357C139.837 42.7362 139.967 42.6818 140.102 42.6453C140.86 42.4419 141.56 42.538 142.11 43.1331C142.673 43.7412 142.785 44.458 142.518 45.2459C141.997 46.786 140.427 47.5764 138.876 47.0692C135.686 46.028 134.618 41.9581 136.843 39.3221C139.268 36.45 143.273 35.7168 146.577 37.5403C151.814 40.4308 153.311 47.7896 149.694 52.8484C145.663 58.4843 137.887 60.1797 131.847 56.7391C125.05 52.8665 121.94 44.363 124.504 36.9277C127.502 28.235 136.57 23.2356 145.343 24.4125C154.048 25.5803 161.196 32.1488 163.306 40.746C165.681 50.4214 162.059 60.2221 153.989 65.9544C143.802 73.1904 130.422 72.4806 120.979 64.2036C110.292 54.8361 107.958 38.3725 115.769 26.4947C121.861 17.2306 130.619 12.2884 141.626 11.848Z" fill="black"/>
</svg>
