<svg width="262" height="246" viewBox="0 0 262 246" fill="none" xmlns="http://www.w3.org/2000/svg">
<path d="M241.415 181.296C246.813 181.074 251.883 179.264 257.172 178.656C254.009 180.601 250.694 182.335 247.409 184.046L247.399 184.021C242.113 185.212 236.892 186.524 231.446 186.747C221.741 187.148 212.414 184.966 202.947 182.304C198.074 180.934 192.944 179.731 187.965 179.98C184.633 180.145 181.928 181.318 178.909 182.453C177.353 183.04 175.769 183.544 174.148 183.893C168.565 185.091 162.708 184.736 157.47 181.554C151.396 177.865 146.333 172.622 144.023 165.107C141.689 157.518 142.173 149.441 139.942 141.799C136.204 128.995 127.529 115.961 115.355 112.865C111.592 111.908 107.768 110.972 104.305 108.869C96.0728 103.869 91.9596 93.4862 89.4023 83.9488C88.2507 79.6541 87.189 75.2342 86.6162 70.8165C85.6635 63.4601 85.3285 56.6698 81.1349 50.3978C77.6716 45.2194 72.3679 40.9081 67 38.8031C64.3023 37.7464 61.3423 37.0664 58.5278 36.7952C54.5006 36.4055 50.4573 36.3607 46.4642 36.7817C39.066 37.5642 33.3263 38.7047 30.4674 39.5789L30.4597 39.5627C31.3236 39.1172 32.1794 38.6528 33.0388 38.1958C36.0498 36.5919 39.1379 35.1231 42.4221 34.2926C43.4737 34.0269 44.5255 33.7557 45.5771 33.49C49.1519 32.5856 52.7749 31.7171 56.4333 31.3306C60.4262 30.9083 64.4697 30.9544 68.4967 31.3428C71.3115 31.6153 74.2723 32.2938 76.9692 33.352C82.337 35.4571 87.6408 39.7684 91.104 44.9467C95.2976 51.2173 95.6328 58.009 96.5852 65.3641C97.1583 69.7831 98.2198 74.2016 99.3714 78.4977C101.929 88.0351 106.043 98.4161 114.274 103.416C117.738 105.521 121.561 106.457 125.325 107.414C137.5 110.51 146.173 123.543 149.912 136.348C152.143 143.99 151.658 152.067 153.992 159.655C156.303 167.171 161.365 172.412 167.439 176.103C172.677 179.285 178.534 179.64 184.117 178.44C185.738 178.093 187.322 177.588 188.878 177.002C191.897 175.866 194.602 174.694 197.935 174.527C202.914 174.28 208.045 175.482 212.916 176.852C222.383 179.515 231.71 181.696 241.415 181.296Z" fill="#D97595"/>
<path d="M247.399 184.021L247.409 184.046C246.967 184.275 246.525 184.505 246.084 184.735C243.679 185.99 241.184 187.105 238.993 188.793C238.747 188.983 238.509 189.182 238.278 189.389L238.12 189.168C232.834 190.358 227.613 191.67 222.167 191.895C212.462 192.294 203.135 190.112 193.668 187.45C188.797 186.08 183.666 184.877 178.687 185.126C175.354 185.292 172.649 186.464 169.63 187.599C168.075 188.186 166.49 188.69 164.87 189.038C159.287 190.238 153.429 189.883 148.191 186.7C142.118 183.011 137.054 177.768 134.744 170.253C132.41 162.665 132.894 154.587 130.663 146.945C126.925 134.141 118.252 121.109 106.076 118.011C102.314 117.054 98.4893 116.118 95.0269 114.014C86.7949 109.015 82.6805 98.6323 80.1231 89.0948C78.9727 84.7999 77.9101 80.3815 77.3371 75.9625C76.3846 68.6074 76.0505 61.8156 71.8557 55.5438C68.3927 50.3668 63.0887 46.0542 57.7211 43.9505C55.0243 42.8922 52.0643 42.2122 49.2487 41.9412C45.2214 41.5515 41.1781 41.5068 37.1862 41.9275C32.0812 42.4679 27.1462 43.7763 22.2441 45.2755L22.2232 45.2522C23.2771 44.0577 24.425 42.979 25.7294 42.1117C27.1968 41.1356 28.7891 40.4242 30.338 39.6257C30.3781 39.6048 30.4194 39.5836 30.4595 39.5626L30.4672 39.5788C33.3262 38.7046 39.0658 37.5641 46.464 36.7816C50.4571 36.3606 54.5004 36.4054 58.5276 36.7951C61.3421 37.0663 64.3021 37.7463 66.9999 38.803C72.3677 40.9081 77.6715 45.2194 81.1347 50.3977C85.3284 56.6697 85.6633 63.46 86.616 70.8164C87.1888 75.2341 88.2505 79.654 89.4021 83.9487C91.9595 93.4861 96.0728 103.869 104.305 108.869C107.768 110.972 111.592 111.908 115.355 112.865C127.529 115.961 136.204 128.995 139.942 141.799C142.173 149.441 141.689 157.518 144.022 165.107C146.333 172.622 151.396 177.865 157.469 181.554C162.708 184.736 168.565 185.091 174.148 183.893C175.769 183.544 177.353 183.04 178.909 182.453C181.927 181.317 184.633 180.145 187.965 179.98C192.944 179.731 198.074 180.934 202.947 182.304C212.414 184.966 221.741 187.148 231.446 186.747C236.892 186.524 242.113 185.212 247.399 184.021Z" fill="#D86B68"/>
<path d="M238.12 189.168L238.279 189.389C236.301 191.151 234.886 193.45 233.414 195.775C233.294 195.965 233.172 196.154 233.049 196.344C227.82 197.525 222.653 198.811 217.267 199.032C207.56 199.433 198.235 197.251 188.766 194.588C183.895 193.218 178.765 192.016 173.785 192.263C170.454 192.43 167.747 193.603 164.73 194.738C163.174 195.324 161.589 195.829 159.968 196.176C154.386 197.376 148.529 197.021 143.291 193.839C137.217 190.148 132.154 184.907 129.842 177.391C127.51 169.803 127.994 161.726 125.763 154.084C122.025 141.279 113.35 128.246 101.175 125.15C97.4128 124.193 93.589 123.257 90.1253 121.152C81.8933 116.152 77.7792 105.771 75.2229 96.2338C74.0711 91.9377 73.0085 87.5193 72.4366 83.1001C71.4841 75.745 71.1489 68.9534 66.9555 62.6828C63.4923 57.5044 58.1885 53.1931 52.8207 51.0881C50.1227 50.03 47.1629 49.3513 44.3482 49.0788C40.3212 48.6904 36.2777 48.6444 32.2848 49.0667C27.1807 49.6055 22.246 50.9152 17.3425 52.4133L17.1252 52.2145C17.2703 52.0086 17.4151 51.8014 17.5586 51.5931C19.0449 49.4423 20.5096 47.1938 22.2234 45.2521L22.2443 45.2754C27.1465 43.7763 32.0814 42.4679 37.1864 41.9275C41.1784 41.5067 45.2217 41.5515 49.2489 41.9412C52.0645 42.2121 55.0245 42.8921 57.7214 43.9504C63.089 46.0541 68.393 50.3667 71.856 55.5438C76.0508 61.8155 76.3848 68.6074 77.3373 75.9625C77.9103 80.3815 78.973 84.7998 80.1234 89.0948C82.6808 98.6322 86.7952 109.015 95.0272 114.014C98.4895 116.118 102.314 117.054 106.076 118.011C118.252 121.108 126.926 134.141 130.664 146.945C132.894 154.587 132.41 162.665 134.744 170.253C137.054 177.768 142.119 183.011 148.191 186.7C153.429 189.883 159.288 190.238 164.87 189.038C166.49 188.69 168.075 188.186 169.63 187.599C172.649 186.463 175.354 185.292 178.687 185.125C183.666 184.877 188.797 186.08 193.668 187.45C203.135 190.112 212.462 192.294 222.168 191.895C227.614 191.67 232.834 190.358 238.12 189.168Z" fill="#EEDDA1"/>
<path d="M233.048 196.344C231.983 197.986 230.824 199.572 229.466 200.92C228.575 201.802 227.625 202.565 226.784 203.485L226.728 203.421C221.441 204.612 216.22 205.923 210.774 206.148C201.069 206.548 191.742 204.366 182.274 201.703C177.403 200.333 172.273 199.131 167.294 199.38C163.962 199.544 161.256 200.718 158.238 201.853C156.682 202.439 155.097 202.944 153.477 203.293C147.894 204.491 142.036 204.136 136.799 200.954C130.725 197.265 125.661 192.022 123.35 184.506C121.017 176.918 121.501 168.841 119.271 161.199C115.534 148.395 106.859 135.361 94.6834 132.265C90.9212 131.308 87.0976 130.372 83.6341 128.269C75.4021 123.269 71.2877 112.886 68.7314 103.349C67.5799 99.0541 66.517 94.6344 65.9454 90.2165C64.9915 82.8603 64.6577 76.0698 60.4629 69.798C57.0008 64.6195 51.6959 60.3084 46.3292 58.2031C43.6312 57.1451 40.6715 56.4664 37.8567 56.1939C33.8286 55.8057 29.7862 55.7594 25.7933 56.1817C20.7884 56.7105 15.9473 57.9799 11.1404 59.4411C11.2737 59.2876 11.4085 59.1352 11.5444 58.9826C12.8504 57.5178 14.193 56.0897 15.4172 54.5355C16.0083 53.7833 16.5721 53.0049 17.1253 52.2149L17.3426 52.4137C22.2462 50.9157 27.1809 49.606 32.2849 49.0671C36.2778 48.6448 40.3214 48.6909 44.3484 49.0793C47.1631 49.3518 50.1228 50.0305 52.8208 51.0885C58.1887 53.1936 63.4924 57.5048 66.9557 62.6832C71.1491 68.9539 71.4843 75.7455 72.4368 83.1006C73.0087 87.5198 74.0713 91.9381 75.2231 96.2342C77.7793 105.772 81.8935 116.153 90.1255 121.153C93.5892 123.257 97.4129 124.193 101.175 125.15C113.351 128.247 122.025 141.279 125.764 154.084C127.994 161.726 127.51 169.803 129.842 177.391C132.154 184.907 137.217 190.149 143.291 193.839C148.529 197.021 154.386 197.376 159.969 196.177C161.589 195.829 163.174 195.324 164.73 194.739C167.747 193.603 170.454 192.43 173.786 192.264C178.765 192.017 183.895 193.218 188.766 194.588C198.235 197.251 207.561 199.433 217.267 199.033C222.653 198.811 227.82 197.525 233.048 196.344Z" fill="#B9D17D"/>
<path d="M226.728 203.42L226.784 203.485C226.526 203.766 226.28 204.061 226.049 204.379C224.326 206.747 223.043 209.666 220.628 211.26C215.341 212.451 210.12 213.762 204.675 213.986C194.968 214.385 185.643 212.204 176.174 209.542C171.303 208.172 166.173 206.97 161.193 207.217C157.862 207.384 155.155 208.555 152.138 209.692C150.582 210.277 148.997 210.783 147.376 211.13C141.794 212.33 135.937 211.975 130.699 208.793C124.625 205.102 119.561 199.859 117.25 192.345C114.916 184.757 115.402 176.678 113.17 169.038C109.433 156.233 100.759 143.2 88.5831 140.104C84.8208 139.145 80.9973 138.211 77.5336 136.106C69.3016 131.106 65.1872 120.724 62.631 111.186C61.4794 106.892 60.4168 102.473 59.8449 98.054C58.8913 90.6992 58.5572 83.9073 54.3627 77.6369C50.9006 72.4583 45.5966 68.1457 40.229 66.042C37.5309 64.9839 34.571 64.3039 31.7565 64.0327C27.7295 63.6443 23.686 63.5983 19.6931 64.0206C14.5879 64.5597 9.65317 65.8694 4.75077 67.3672C6.8816 64.7217 8.91606 61.9855 11.1403 59.4408C15.9473 57.9796 20.7884 56.7102 25.7933 56.1815C29.7862 55.7592 33.8286 55.8054 37.8567 56.1936C40.6714 56.4661 43.6311 57.1448 46.3292 58.2029C51.6959 60.3081 57.0008 64.6192 60.4629 69.7978C64.6577 76.0695 64.9915 82.8601 65.9453 90.2162C66.517 94.6341 67.5798 99.0538 68.7314 103.349C71.2877 112.886 75.4021 123.268 83.6341 128.268C87.0975 130.371 90.9212 131.308 94.6833 132.265C106.859 135.361 115.534 148.395 119.271 161.199C121.501 168.841 121.017 176.918 123.35 184.506C125.661 192.022 130.726 197.264 136.799 200.954C142.036 204.136 147.894 204.491 153.477 203.292C155.097 202.944 156.682 202.439 158.238 201.853C161.256 200.717 163.962 199.544 167.294 199.379C172.273 199.131 177.403 200.333 182.274 201.703C191.742 204.366 201.069 206.547 210.774 206.147C216.22 205.923 221.441 204.612 226.728 203.42Z" fill="#6288B1"/>
<path d="M247.399 184.02C242.113 185.212 236.892 186.524 231.446 186.747C221.741 187.147 212.414 184.966 202.946 182.304C198.074 180.934 192.944 179.731 187.965 179.98C184.633 180.144 181.927 181.317 178.909 182.453C177.353 183.04 175.769 183.543 174.148 183.892C168.565 185.091 162.708 184.736 157.469 181.554C151.396 177.865 146.333 172.622 144.022 165.107C141.688 157.518 142.173 149.441 139.942 141.798C136.204 128.995 127.529 115.961 115.355 112.864C111.592 111.908 107.768 110.972 104.305 108.868C96.0726 103.869 91.9593 93.486 89.402 83.9486C88.2505 79.6538 87.1888 75.234 86.6159 70.8163C85.6632 63.4599 85.3283 56.6696 81.1346 50.3976C77.6714 45.2192 72.3676 40.9079 66.9998 38.8029C64.302 37.7462 61.3421 37.0661 58.5276 36.795C54.5003 36.4053 50.457 36.3605 46.4639 36.7815C39.0657 37.564 33.3261 38.7045 30.4672 39.5787" stroke="black" stroke-width="2" stroke-miterlimit="10"/>
<path d="M22.2441 45.2755C27.1463 43.7764 32.0812 42.468 37.1862 41.9276C41.1781 41.5068 45.2214 41.5516 49.2487 41.9413C52.0643 42.2123 55.0243 42.8923 57.7211 43.9505C63.0887 46.0543 68.3927 50.3669 71.8557 55.5439C76.0506 61.8157 76.3846 68.6075 77.3371 75.9626C77.9101 80.3816 78.9727 84.8 80.1231 89.0949C82.6806 98.6323 86.7949 109.015 95.0269 114.015C98.4893 116.118 102.314 117.054 106.076 118.011C118.252 121.109 126.925 134.141 130.663 146.945C132.894 154.587 132.41 162.665 134.744 170.253C137.054 177.768 142.118 183.011 148.191 186.7C153.429 189.883 159.287 190.238 164.87 189.039C166.49 188.69 168.075 188.186 169.63 187.6C172.649 186.464 175.354 185.292 178.687 185.126C183.666 184.877 188.797 186.08 193.668 187.45C203.135 190.112 212.462 192.294 222.167 191.895C227.613 191.67 232.834 190.358 238.12 189.168" stroke="black" stroke-width="2" stroke-miterlimit="10"/>
<path d="M17.3421 52.4135C22.2457 50.9155 27.1804 49.6058 32.2844 49.0669C36.2773 48.6446 40.3209 48.6906 44.3478 49.079C47.1626 49.3515 50.1223 50.0302 52.8203 51.0883C58.1881 53.1933 63.4919 57.5046 66.9551 62.683C71.1486 68.9536 71.4838 75.7453 72.4362 83.1003C73.0081 87.5196 74.0707 91.9379 75.2225 96.234C77.7788 105.772 81.893 116.153 90.125 121.152C93.5887 123.257 97.4123 124.193 101.175 125.15C113.35 128.247 122.025 141.279 125.763 154.084C127.994 161.726 127.509 169.803 129.842 177.391C132.154 184.907 137.217 190.149 143.29 193.839C148.528 197.021 154.386 197.376 159.968 196.176C161.588 195.829 163.173 195.324 164.729 194.738C167.747 193.603 170.453 192.43 173.785 192.264C178.764 192.016 183.895 193.218 188.766 194.588C198.235 197.251 207.56 199.433 217.267 199.033C222.653 198.811 227.82 197.525 233.048 196.344C233.105 196.331 233.162 196.319 233.219 196.306" stroke="black" stroke-width="2" stroke-miterlimit="10"/>
<path d="M10.8509 59.528C10.9475 59.498 11.0433 59.4695 11.1402 59.4408C15.9472 57.9796 20.7883 56.7102 25.7932 56.1814C29.7861 55.7591 33.8285 55.8054 37.8566 56.1936C40.6713 56.4661 43.631 57.1448 46.3291 58.2028C51.6957 60.3081 57.0006 64.6192 60.4627 69.7977C64.6576 76.0695 64.9914 82.86 65.9452 90.2162C66.5169 94.6341 67.5797 99.0538 68.7313 103.349C71.2876 112.886 75.402 123.268 83.634 128.268C87.0974 130.371 90.9211 131.308 94.6832 132.265C106.859 135.361 115.533 148.395 119.27 161.199C121.501 168.841 121.017 176.918 123.35 184.505C125.661 192.022 130.725 197.264 136.799 200.953C142.036 204.136 147.894 204.491 153.477 203.292C155.097 202.944 156.682 202.438 158.238 201.853C161.255 200.717 163.962 199.544 167.294 199.379C172.273 199.131 177.403 200.332 182.274 201.703C191.742 204.366 201.069 206.547 210.774 206.147C216.22 205.923 221.441 204.612 226.728 203.42" stroke="black" stroke-width="2" stroke-miterlimit="10"/>
<path d="M4.75045 67.367C6.88127 64.7216 8.91573 61.9853 11.14 59.4407C11.2734 59.2872 11.4081 59.1348 11.544 58.9822C12.8501 57.5174 14.1926 56.0893 15.4168 54.5351C16.008 53.7829 16.5717 53.0045 17.125 52.2145C17.2701 52.0086 17.4149 51.8014 17.5584 51.5931C19.0447 49.4424 20.5094 47.1938 22.2232 45.2522C23.2772 44.0577 24.425 42.979 25.7294 42.1117C27.1968 41.1356 28.7891 40.4241 30.338 39.6257C30.3781 39.6048 30.4194 39.5836 30.4595 39.5626C31.3235 39.1171 32.1792 38.6527 33.0387 38.1957C36.0496 36.5918 39.1377 35.123 42.4219 34.2925C43.4735 34.0268 44.5253 33.7556 45.5769 33.4899C49.1517 32.5855 52.7748 31.717 56.4332 31.3305C60.426 30.9082 64.4696 30.9543 68.4966 31.3427C71.3113 31.6152 74.2722 32.2937 76.969 33.3519C82.3369 35.457 87.6406 39.7683 91.1039 44.9466C95.2974 51.2173 95.6326 58.0089 96.5851 65.364C97.1581 69.783 98.2196 74.2015 99.3713 78.4976C101.929 88.035 106.043 98.416 114.274 103.416C117.738 105.521 121.561 106.457 125.324 107.413C137.5 110.51 146.173 123.543 149.912 136.348C152.142 143.99 151.658 152.067 153.991 159.655C156.302 167.17 161.365 172.412 167.439 176.103C172.677 179.285 178.534 179.64 184.117 178.44C185.738 178.093 187.322 177.588 188.878 177.002C191.897 175.866 194.602 174.693 197.935 174.527C202.913 174.28 208.044 175.482 212.916 176.852C222.383 179.515 231.71 181.697 241.415 181.296C246.813 181.074 251.883 179.264 257.172 178.656C254.009 180.601 250.694 182.335 247.409 184.046C246.967 184.275 246.525 184.505 246.084 184.735C243.679 185.99 241.184 187.105 238.993 188.793C238.747 188.983 238.509 189.182 238.279 189.389C236.301 191.151 234.886 193.45 233.414 195.775C233.293 195.965 233.171 196.154 233.048 196.344C231.983 197.986 230.824 199.571 229.465 200.92C228.575 201.802 227.624 202.564 226.784 203.485C226.527 203.766 226.28 204.061 226.049 204.379C224.326 206.747 223.043 209.666 220.628 211.26" stroke="black" stroke-width="2" stroke-miterlimit="10"/>
<path d="M4.75032 67.3671C9.65272 65.8693 14.5874 64.5596 19.6926 64.0205C23.6855 63.5982 27.7291 63.6443 31.756 64.0326C34.5705 64.3038 37.5305 64.9838 40.2285 66.0419C45.5961 68.1456 50.9001 72.4582 54.3622 77.6368C58.5568 83.9072 58.8908 90.6991 59.8444 98.054C60.4163 102.473 61.4789 106.892 62.6305 111.186C65.1868 120.724 69.3012 131.106 77.5332 136.106C80.9969 138.211 84.8203 139.145 88.5827 140.104C100.758 143.2 109.433 156.233 113.17 169.038C115.402 176.678 114.916 184.757 117.25 192.345C119.56 199.859 124.625 205.102 130.698 208.793C135.936 211.975 141.794 212.33 147.376 211.13C148.996 210.783 150.581 210.277 152.137 209.692C155.155 208.555 157.861 207.383 161.193 207.217C166.172 206.97 171.303 208.172 176.174 209.542C185.642 212.204 194.968 214.385 204.675 213.986C210.12 213.762 215.34 212.451 220.627 211.26" stroke="black" stroke-width="2" stroke-miterlimit="10"/>
</svg>
