<svg width="145" height="232" viewBox="0 0 145 232" fill="none" xmlns="http://www.w3.org/2000/svg">
<path d="M3.80349 79.774C1.63387 84.3672 0.208784 89.3825 1.48005 94.4585C3.17335 101.209 7.25278 107.012 10.7557 112.873C13.5018 117.462 16.3584 122.148 20.1141 125.969L23.6525 134.513L125.665 124.706C127.546 122.93 129.32 121.085 130.918 119.096C132.398 117.254 133.729 115.291 134.847 113.144C137.12 108.795 138.759 104.138 140.742 99.6502C142.383 95.9237 141.423 92.466 139.671 88.9501C136.314 82.2138 133.126 75.3889 129.888 68.5937C129.376 67.5196 128.973 66.3937 128.506 65.295C126.507 60.5687 126.579 55.5527 126.28 50.5375C125.38 35.5382 119.241 22.4746 111.059 10.2894C110.046 8.77766 108.449 7.51091 106.861 6.58865C104.201 5.03754 101.933 5.52872 99.8425 7.77718C95.2222 12.7511 91.2688 18.2265 89.2323 24.8019C86.7945 32.69 84.6494 40.675 82.4746 48.6477C82.0577 50.1723 81.5711 50.9059 79.8125 50.8619C74.1684 50.721 68.5126 50.6687 62.8731 50.849C60.7946 50.9175 60.0462 50.2848 59.9091 48.2767C59.1853 37.5689 55.6862 27.5584 51.9545 17.672C50.0312 12.5669 47.5901 7.60915 43.6929 3.60146C40.2087 0.0196823 36.8532 0.187729 33.3625 3.78954C30.4619 6.77866 29.0769 10.5356 27.2718 14.138C22.1603 24.3308 19.1815 35.1369 17.5845 46.4025C17.1515 49.4646 17.0771 52.7672 15.8311 55.4862C12.0696 63.698 7.66317 71.6009 3.80349 79.774ZM28.5049 52.6735C27.8218 52.446 26.9008 51.2982 26.9719 50.6751C27.6628 44.4584 28.0597 38.1454 29.5255 32.1051C30.4678 28.2176 32.6238 22.4901 35.8268 19.965C38.0585 18.2032 39.342 19.5062 40.1008 21.6519C41.9292 26.8384 42.2187 33.3221 42.3842 38.782C42.5218 43.3998 41.8355 47.9484 41.4399 52.5345C41.204 55.26 40.4996 55.8849 37.99 55.3427C34.7863 54.6518 31.6233 53.7134 28.5049 52.6735ZM101.809 50.6616C100.702 41.6651 99.9311 32.4431 101.734 23.4835C102.071 21.8031 102.9 20.1958 104.851 20.0769C106.815 19.9534 107.683 21.469 108.323 23.0977C108.407 23.318 108.499 23.5423 108.565 23.7704C109.777 27.9636 111.131 32.1219 112.149 36.3661C113.017 39.9899 113.557 43.6977 114.132 47.3855C114.663 50.8329 113.888 52.0576 110.484 52.7523C108.589 53.1349 106.594 53.0348 104.646 53.1227C102.964 53.1944 102.021 52.3988 101.809 50.6616Z" fill="black"/>
<path d="M17.1314 156.709C15.652 165.659 14.3142 174.811 15.2378 183.893C15.9784 191.199 18.382 198.161 21.09 204.941C22.7025 208.983 24.6698 212.892 26.0762 217.016C26.7774 219.067 27.3571 221.163 27.6622 223.306C27.8826 224.893 27.5626 227.338 28.6517 228.623C30.8336 231.194 34.7837 230.888 37.789 230.933C42.2737 231.001 46.7661 230.971 51.2546 230.964C60.3725 230.948 69.4944 230.874 78.6123 230.831C83.8098 230.807 89.0041 230.793 94.2023 230.8C101.615 230.81 109.033 230.82 116.446 230.754C121.861 230.706 127.276 230.646 132.687 230.582C133.198 230.577 143.948 230.628 143.952 230.519C144.112 226.145 143.864 221.773 143.345 217.426C142.405 209.572 138.576 204.802 135.006 197.977C133.031 194.203 131.324 190.269 129.906 186.255C123.789 168.934 123.766 153.6 123.338 141.99C123.05 134.253 126.082 132.433 125.665 124.705L23.6519 134.512C20.7662 141.86 18.4214 148.904 17.1314 156.709Z" fill="black"/>
<path d="M26.9731 50.6747C26.902 51.2977 27.8224 52.4462 28.5061 52.6731C31.6232 53.7123 34.7862 54.652 37.9912 55.3423C40.5014 55.8839 41.2059 55.2596 41.4411 52.5341C41.8373 47.9474 42.5237 43.3981 42.3854 38.7816C42.2199 33.3217 41.9297 26.8387 40.102 21.6515C39.3432 19.5051 38.0597 18.2028 35.828 19.9646C32.625 22.4891 30.4689 28.2179 29.5266 32.1053C28.0602 38.145 27.664 44.458 26.9731 50.6747Z" fill="#767676"/>
<path d="M101.734 23.4842C99.9304 32.4431 100.702 41.6645 101.808 50.6622C102.021 52.3995 102.965 53.195 104.646 53.1227C106.595 53.0341 108.589 53.1349 110.484 52.7523C113.888 52.0576 114.664 50.8329 114.132 47.3855C113.558 43.6977 113.017 39.9912 112.149 36.3661C111.131 32.1219 109.778 27.9636 108.566 23.7705C108.5 23.5423 108.408 23.3181 108.324 23.0977C107.684 21.469 106.816 19.9534 104.852 20.0769C102.899 20.1958 102.071 21.8038 101.734 23.4842Z" fill="#767676"/>
<path d="M23.6519 134.512C20.7668 141.859 18.4221 148.904 17.1314 156.709C15.652 165.66 14.3142 174.812 15.2378 183.894C15.9784 191.2 18.382 198.162 21.09 204.941C22.7025 208.983 24.6698 212.893 26.0762 217.016C26.7774 219.067 27.3571 221.164 27.6622 223.307C27.8826 224.893 27.5626 227.339 28.6517 228.623C30.8336 231.194 34.7837 230.888 37.789 230.933C42.2737 231.001 46.7661 230.972 51.2546 230.964C60.3725 230.948 69.4944 230.874 78.6123 230.832C83.8098 230.807 89.0041 230.793 94.2023 230.801C101.615 230.811 109.033 230.821 116.446 230.754C121.861 230.706 127.276 230.646 132.687 230.582C133.198 230.578 143.948 230.629 143.952 230.519C144.112 226.145 143.864 221.773 143.345 217.427C142.405 209.573 138.576 204.803 135.006 197.977C133.031 194.203 131.324 190.27 129.906 186.255C123.789 168.934 123.766 153.6 123.338 141.99C123.05 134.253 126.082 132.433 125.665 124.705" stroke="#575757" stroke-width="2" stroke-miterlimit="10"/>
<path d="M125.664 124.706C127.544 122.93 129.318 121.085 130.916 119.096C132.397 117.254 133.728 115.291 134.845 113.144C137.118 108.795 138.757 104.138 140.741 99.6502C142.381 95.9237 141.422 92.466 139.669 88.9501C136.313 82.2138 133.125 75.3889 129.887 68.5937C129.374 67.5196 128.971 66.3937 128.504 65.295C126.505 60.5687 126.577 55.5527 126.278 50.5375C125.379 35.5382 119.239 22.4746 111.057 10.2894C110.044 8.77766 108.448 7.51091 106.86 6.58865C104.199 5.03754 101.931 5.52872 99.8409 7.77718C95.2205 12.7511 91.2671 18.2265 89.2307 24.8019C86.7928 32.69 84.6478 40.675 82.473 48.6477C82.0561 50.1723 81.5695 50.9059 79.8109 50.8619C74.1668 50.721 68.511 50.6687 62.8714 50.849C60.7929 50.9175 60.0445 50.2848 59.9075 48.2767C59.1837 37.5689 55.6846 27.5584 51.9529 17.672C50.0295 12.5669 47.5885 7.60915 43.6913 3.60146C40.2071 0.0196823 36.8515 0.187729 33.3609 3.78954C30.4603 6.77866 29.0753 10.5356 27.2702 14.138C22.1586 24.3308 19.1798 35.1369 17.5828 46.4025C17.1498 49.4646 17.0755 52.7672 15.8294 55.4862C12.0686 63.698 7.66219 71.6009 3.80251 79.774C1.63289 84.3672 0.207807 89.3818 1.47907 94.4585C3.17237 101.209 7.2518 107.012 10.7547 112.873C13.5008 117.462 16.3575 122.148 20.1131 125.969L23.6516 134.513" stroke="#575757" stroke-width="2" stroke-miterlimit="10"/>
<path d="M9.33926 101.06C6.87817 100.849 5.25402 101.849 4.27876 103.16C1.89909 106.362 1.56108 109.949 1.91267 113.439C2.28817 117.156 2.8498 120.961 4.67623 124.515C5.61659 126.345 6.99385 128.042 8.23151 129.792C10.9027 133.57 13.3586 137.453 14.6499 141.535C17.0418 149.099 12.6063 156.329 14.1154 164.621C14.3267 165.776 18.2536 167.352 19.7589 167.696C21.8238 168.167 24.3023 168.12 26.1301 167.278C30.1972 165.405 29.7325 160.884 30.2599 158.063C31.0807 153.68 32.1619 149.241 31.3483 144.822C31.071 143.308 30.6496 141.805 30.0447 140.332C28.5892 136.789 26.1708 133.446 23.8893 130.098C21.9576 127.263 19.9708 124.442 18.3816 121.519C17.535 119.963 16.7956 118.382 16.2178 116.775C15.439 114.609 14.8612 112.416 14.4663 110.207C14.1335 108.346 14.1102 106.236 13.2319 104.443C12.6864 103.329 12.247 101.977 10.5562 101.333C10.1639 101.182 9.75613 101.096 9.33926 101.06Z" fill="black" stroke="#575757" stroke-width="2" stroke-miterlimit="10"/>
<path d="M130.802 96.4199C128.325 98.0214 131.149 102.975 131.223 104.895C131.367 108.63 130.362 112.385 127.988 115.883C123.023 123.197 113.79 128.742 111.343 136.656C109.338 143.138 110.304 149.767 113.326 156.096C114.466 158.486 115.551 162.331 119.4 163.872C126.975 166.903 129.344 160.544 128.892 157.693C128.108 152.714 123.981 148.077 124.43 143.013C125.744 128.315 152.677 114.341 141.124 99.2022C139.959 97.6782 133.55 94.6458 130.802 96.4199Z" fill="black" stroke="#575757" stroke-width="2" stroke-miterlimit="10"/>
<path d="M50.1712 93.7007C51.3766 92.7869 51.4334 91.0244 51.343 89.1198C51.2544 87.2668 51.0146 85.4275 50.8524 83.5797C50.6017 80.7302 50.1111 77.8464 48.7558 75.2929C47.1297 72.2301 44.5123 69.3256 41.3079 67.8896C39.6521 67.1483 37.5878 66.6616 35.7653 66.6616C32.2901 66.6616 28.9559 68.1041 26.4689 70.4793C22.131 74.6188 21.0155 80.1498 20.4254 85.8838C20.1843 88.2247 18.5608 93.2541 21.9617 94.135C23.1179 94.4343 24.4312 94.2436 25.6061 94.1867C27.419 94.0982 29.2338 94.1764 31.0473 94.1764C35.3568 94.1764 39.7264 93.9534 44.0288 94.1602C45.3582 94.2242 46.6941 94.4052 48.0262 94.3509C48.9827 94.3109 49.6755 94.0775 50.1712 93.7007Z" fill="#B0FF27"/>
<path d="M39.9697 87.4245C39.9697 93.8383 38.014 99.0378 35.6007 99.0378C33.1888 99.0378 31.2324 93.8383 31.2324 87.4245C31.2324 81.01 33.1881 77.668 35.6014 77.668C38.0147 77.6686 39.9697 81.01 39.9697 87.4245Z" fill="black"/>
<path d="M121.555 93.2956C122.76 92.3818 122.817 90.6187 122.727 88.7147C122.638 86.8611 122.398 85.0217 122.236 83.1746C121.985 80.3244 121.495 77.4406 120.14 74.8878C118.514 71.8243 115.896 68.9205 112.692 67.4838C111.036 66.7425 108.972 66.2559 107.149 66.2559C103.674 66.2559 100.34 67.699 97.8527 70.0729C93.5148 74.2131 92.3993 79.7447 91.8092 85.4774C91.5681 87.8182 89.9446 92.849 93.3454 93.7299C94.5017 94.0292 95.815 93.8385 96.9899 93.7816C98.8028 93.6931 100.618 93.7707 102.431 93.7707C106.741 93.7707 111.11 93.5483 115.413 93.7551C116.742 93.8185 118.078 93.9994 119.41 93.9451C120.367 93.9044 121.059 93.6718 121.555 93.2956Z" fill="#B0FF27"/>
<path d="M111.352 87.0187C111.352 93.4332 109.396 98.6327 106.983 98.6327C104.571 98.6327 102.615 93.4332 102.615 87.0187C102.615 80.6042 104.57 77.2622 106.984 77.2622C109.397 77.2622 111.352 80.6042 111.352 87.0187Z" fill="black"/>
<path d="M74.7173 95.8794L66.4033 95.8936L78.9744 109.032" stroke="#767676" stroke-width="2" stroke-miterlimit="10"/>
<path d="M67.8708 95.8794L76.1854 95.8936L63.6143 109.032" stroke="#767676" stroke-width="2" stroke-miterlimit="10"/>
</svg>
