<svg width="96" height="154" viewBox="0 0 96 154" fill="none" xmlns="http://www.w3.org/2000/svg">
<path d="M2.84271 52.7606C1.41653 55.7787 0.479745 59.0742 1.3154 62.4095C2.42848 66.8452 5.11007 70.6578 7.41269 74.5091C9.21783 77.5247 11.0956 80.6035 13.5643 83.1146L15.8903 88.7283L82.9476 82.2844C84.1838 81.1174 85.35 79.905 86.4002 78.5983C87.3735 77.388 88.2487 76.0978 88.9828 74.6875C90.4774 71.8295 91.5543 68.7698 92.8582 65.8209C93.9368 63.3722 93.3059 61.1003 92.1542 58.7901C89.948 54.3638 87.8519 49.8793 85.7234 45.4143C85.3866 44.7085 85.1219 43.9688 84.8147 43.2468C83.5003 40.1412 83.5479 36.8454 83.3516 33.55C82.7602 23.6943 78.7242 15.1105 73.3462 7.10383C72.6801 6.11053 71.6307 5.27818 70.5869 4.67218C68.8378 3.65298 67.3471 3.97572 65.9736 5.45314C62.936 8.72137 60.3373 12.3192 58.9986 16.6397C57.3965 21.8228 55.9861 27.0696 54.5569 32.3083C54.2825 33.3101 53.963 33.792 52.807 33.7632C49.0969 33.6706 45.3791 33.6362 41.6716 33.7547C40.3053 33.7997 39.8138 33.3839 39.7233 32.0645C39.2479 25.0286 36.9474 18.4509 34.4944 11.9548C33.2301 8.60036 31.6254 5.34272 29.0637 2.70936C26.7734 0.355855 24.5676 0.466275 22.2731 2.83295C20.3664 4.79703 19.456 7.26562 18.2694 9.63272C14.9094 16.3301 12.9513 23.4306 11.9015 30.833C11.6169 32.845 11.568 35.0151 10.7489 36.8017C8.27637 42.1975 5.37984 47.3903 2.84271 52.7606ZM19.08 34.9535C18.6309 34.804 18.0256 34.0498 18.0723 33.6404C18.5264 29.5556 18.7873 25.4074 19.7508 21.4385C20.3702 18.8841 21.7875 15.1207 23.893 13.4615C25.36 12.3039 26.2037 13.16 26.7024 14.5699C27.9043 17.9779 28.0946 22.2381 28.2034 25.8257C28.2939 28.86 27.8427 31.8488 27.5827 34.8622C27.4276 36.653 26.9646 37.0637 25.3149 36.7074C23.209 36.2534 21.1298 35.6368 19.08 34.9535ZM67.2651 33.6315C66.5378 27.7201 66.0313 21.6606 67.2162 15.7734C67.4376 14.6693 67.9822 13.6131 69.2652 13.535C70.5563 13.4539 71.1269 14.4497 71.5474 15.5199C71.6031 15.6647 71.6626 15.812 71.7063 15.962C72.5029 18.7172 73.3929 21.4495 74.0621 24.2383C74.6326 26.6194 74.9878 29.0557 75.3655 31.4789C75.7151 33.7441 75.2053 34.5488 72.9677 35.0053C71.7216 35.2567 70.4106 35.1909 69.1301 35.2486C68.0251 35.2958 67.4049 34.773 67.2651 33.6315Z" fill="black"/>
<path d="M11.6039 103.313C10.6314 109.194 9.75203 115.208 10.3591 121.175C10.846 125.976 12.426 130.55 14.206 135.005C15.266 137.661 16.5592 140.23 17.4837 142.939C17.9446 144.287 18.3257 145.664 18.5262 147.072C18.6711 148.115 18.4608 149.722 19.1766 150.566C20.6109 152.255 23.2075 152.054 25.183 152.084C28.1309 152.129 31.084 152.109 34.0345 152.104C40.0281 152.094 46.0242 152.045 52.0179 152.017C55.4344 152.001 58.8488 151.992 62.2658 151.996C67.1387 152.003 72.0145 152.01 76.8874 151.966C80.4467 151.934 84.0064 151.895 87.5632 151.853C87.8992 151.85 94.9656 151.883 94.9681 151.812C95.0735 148.938 94.9103 146.065 94.5696 143.209C93.9519 138.048 91.4347 134.914 89.0879 130.429C87.7896 127.949 86.668 125.365 85.7351 122.727C81.7149 111.346 81.7 101.27 81.4179 93.6412C81.2288 88.5575 83.2218 87.3617 82.9477 82.2835L15.8905 88.7274C13.9932 93.5559 12.4519 98.1843 11.6039 103.313Z" fill="black"/>
<path d="M18.0729 33.6404C18.0261 34.0498 18.6311 34.8045 19.0806 34.9535C21.1296 35.6364 23.2087 36.2538 25.3155 36.7074C26.9656 37.0632 27.4287 36.653 27.5833 34.8622C27.8437 31.8483 28.2949 28.8591 28.204 25.8257C28.0952 22.2381 27.9045 17.9783 26.703 14.5699C26.2043 13.1596 25.3605 12.3039 23.8936 13.4615C21.7881 15.1203 20.3708 18.8845 19.7514 21.4389C18.7874 25.4074 18.527 29.5556 18.0729 33.6404Z" fill="#767676"/>
<path d="M67.217 15.7738C66.0313 21.6606 66.5381 27.7197 67.2659 33.6319C67.4052 34.7734 68.0255 35.2962 69.1313 35.2486C70.4122 35.1904 71.7233 35.2567 72.9689 35.0053C75.2065 34.5488 75.7163 33.744 75.3667 31.4789C74.9886 29.0557 74.6334 26.6202 74.0637 24.2383C73.3942 21.4495 72.5045 18.7172 71.7075 15.9619C71.6646 15.812 71.6043 15.6647 71.5487 15.5199C71.1281 14.4497 70.5579 13.4539 69.2669 13.535C67.9821 13.6131 67.4379 14.6697 67.217 15.7738Z" fill="#767676"/>
<path d="M15.8906 88.7278C13.9941 93.5554 12.4528 98.1847 11.6044 103.313C10.6319 109.194 9.75252 115.208 10.3596 121.175C10.8465 125.976 12.4264 130.551 14.2065 135.006C15.2665 137.661 16.5597 140.23 17.4841 142.94C17.9451 144.287 18.3262 145.665 18.5267 147.073C18.6716 148.115 18.4613 149.722 19.1771 150.566C20.6114 152.255 23.208 152.055 25.1835 152.084C28.1314 152.129 31.0845 152.109 34.035 152.104C40.0286 152.094 46.0247 152.045 52.0183 152.017C55.4349 152.001 58.8493 151.992 62.2663 151.997C67.1392 152.004 72.015 152.01 76.8879 151.966C80.4472 151.935 84.0069 151.895 87.5637 151.853C87.8997 151.85 94.966 151.884 94.9686 151.812C95.0739 148.938 94.9108 146.065 94.5701 143.209C93.9524 138.049 91.4352 134.914 89.0884 130.429C87.7901 127.95 86.6685 125.365 85.7356 122.727C81.7153 111.346 81.7005 101.27 81.4184 93.6417C81.2293 88.558 83.2223 87.3621 82.9482 82.2839" stroke="#575757" stroke-width="2" stroke-miterlimit="10"/>
<path d="M82.9466 82.2844C84.1829 81.1174 85.3491 79.905 86.3993 78.5983C87.3726 77.388 88.2473 76.0978 88.9819 74.6875C90.476 71.8295 91.5538 68.7698 92.8572 65.8209C93.9359 63.3722 93.3054 61.1003 92.1529 58.7901C89.9467 54.3638 87.851 49.8793 85.7225 45.4143C85.3856 44.7085 85.1209 43.9688 84.8134 43.2468C83.4998 40.1412 83.5469 36.8454 83.3507 33.55C82.7589 23.6943 78.7237 15.1105 73.3453 7.10383C72.6791 6.11053 71.6298 5.27818 70.586 4.67218C68.8369 3.65298 67.3462 3.97572 65.9722 5.45314C62.9355 8.72137 60.3363 12.3192 58.9977 16.6397C57.3952 21.8228 55.9852 27.0696 54.5556 32.3083C54.2816 33.3101 53.9616 33.792 52.8057 33.7632C49.096 33.6706 45.3782 33.6362 41.6711 33.7547C40.3044 33.7997 39.8124 33.3839 39.7228 32.0645C39.2466 25.0286 36.9465 18.4509 34.4935 11.9548C33.2291 8.60036 31.6245 5.34272 29.0628 2.70936C26.7725 0.355855 24.5667 0.466275 22.2722 2.83295C20.3655 4.79703 19.4551 7.26562 18.2685 9.63272C14.9084 16.3301 12.9504 23.4306 11.9006 30.833C11.6159 32.845 11.5671 35.0151 10.748 36.8017C8.27587 42.1975 5.37935 47.3903 2.84222 52.7606C1.41604 55.7787 0.479257 59.0737 1.31491 62.4095C2.42799 66.8452 5.10956 70.6578 7.41218 74.5091C9.21731 77.5247 11.0951 80.6035 13.5638 83.1146L15.8898 88.7283" stroke="#575757" stroke-width="2" stroke-miterlimit="10"/>
<path d="M6.48166 66.747C4.86387 66.6082 3.79628 67.2651 3.1552 68.1272C1.59094 70.2306 1.36875 72.5875 1.59986 74.8807C1.84669 77.3234 2.21588 79.8234 3.41647 82.1591C4.03461 83.3613 4.93993 84.4765 5.75349 85.626C7.50934 88.1087 9.12374 90.66 9.97257 93.3422C11.5449 98.3125 8.62922 103.063 9.62121 108.512C9.76014 109.271 12.3414 110.306 13.3309 110.532C14.6883 110.841 16.3175 110.811 17.519 110.258C20.1925 109.027 19.887 106.056 20.2337 104.203C20.7732 101.322 21.484 98.406 20.9491 95.5021C20.7668 94.5075 20.4898 93.5197 20.0922 92.5519C19.1354 90.2235 17.5457 88.0271 16.046 85.8273C14.7762 83.9647 13.4702 82.1111 12.4256 80.1903C11.869 79.1677 11.383 78.1289 11.0032 77.0728C10.4913 75.6497 10.1115 74.2088 9.85191 72.7573C9.63312 71.5347 9.61781 70.1482 9.04046 68.9702C8.6819 68.2376 8.393 67.3496 7.28162 66.9262C7.02375 66.8273 6.75568 66.7704 6.48166 66.747Z" fill="black" stroke="#575757" stroke-width="2" stroke-miterlimit="10"/>
<path d="M86.3247 63.6984C84.6967 64.7507 86.5533 68.0058 86.6013 69.2671C86.6964 71.7212 86.0354 74.189 84.4754 76.4873C81.2109 81.2928 75.1421 84.9364 73.5333 90.1365C72.2154 94.3959 72.851 98.7517 74.8371 102.91C75.5869 104.48 76.2994 107.007 78.8293 108.02C83.8088 110.011 85.3658 105.833 85.0693 103.96C84.5536 100.688 81.8405 97.6412 82.1362 94.3135C82.9999 84.6562 100.705 75.474 93.1098 65.5266C92.3442 64.5252 88.1315 62.5327 86.3247 63.6984Z" fill="black" stroke="#575757" stroke-width="2" stroke-miterlimit="10"/>
<path d="M56.0561 72.2134C56.9873 74.4026 55.819 77.1888 53.5976 78.0815C53.3996 78.1605 53.1778 78.1779 52.7534 78.2726C52.9981 77.9647 53.211 77.6535 53.3949 77.3417C53.7437 76.8287 53.9978 76.2512 54.1222 75.6868C54.1312 75.6469 54.1397 75.607 54.1477 75.5675C54.3771 74.7347 54.4562 73.8858 54.4396 73.0207C54.4396 73.0122 54.4396 73.0033 54.4396 72.994C54.4519 72.0623 54.3559 71.1458 54.1465 70.2502C54.1465 70.2494 54.1465 70.2494 54.1465 70.2485C54.0946 69.9343 54.0381 69.6183 53.9791 69.3002C54.9231 70.246 55.6028 71.1492 56.0561 72.2134Z" fill="#BE9857"/>
<path d="M54.4391 72.994C54.4391 73.003 54.4391 73.0123 54.4391 73.0208C54.4276 73.8587 54.3282 74.708 54.1472 75.5675C53.9815 76.1667 53.7385 76.7587 53.3948 77.3422C53.0154 77.9006 52.5248 78.3818 51.9686 78.682C50.9418 79.2366 49.6924 79.5182 48.5355 79.6257C48.1115 79.6639 47.6812 79.6753 47.253 79.6613C47.0359 79.6545 46.8196 79.643 46.6068 79.6239C45.3119 79.5165 43.9723 79.2158 42.861 78.5143C42.392 78.2175 41.9578 77.8009 41.6366 77.3473C41.3549 76.9498 41.1056 76.4895 40.9267 76.0372C40.8218 75.7739 40.7521 75.4936 40.7079 75.2019C40.6344 74.2269 40.6658 73.2467 40.8056 72.2768C40.871 71.8232 40.9645 71.3765 41.0593 70.9284C41.1111 70.6809 41.1608 70.4346 41.2033 70.1845C41.2139 70.1199 41.2215 70.0524 41.2283 69.9857C41.6017 68.8213 42.1192 67.6972 42.6553 66.5731C43.8916 63.9885 45.1827 61.4087 45.4716 58.4764C45.5906 57.2669 46.2954 56.7144 47.4539 56.7085C48.6545 56.7034 49.3134 57.2614 49.5131 58.4781C49.7914 60.1878 50.2799 61.8278 50.8568 63.4662C51.2511 64.5865 51.8523 65.5042 52.4899 66.4618C53.295 67.6721 53.8413 68.9389 54.1455 70.249C54.1455 70.2498 54.1455 70.2499 54.1455 70.2507C54.3019 71.1824 54.4208 72.0971 54.4391 72.994Z" fill="#DBBA84"/>
<path d="M41.4285 77.2135C41.6498 77.6093 42.0372 77.9151 42.2101 78.2726C40.3302 78.2726 38.4376 75.5968 38.7261 73.6552C38.8242 72.9898 39.1292 72.3277 39.4581 71.7442C39.8855 70.9768 40.4789 69.9963 41.2606 69.5466C41.2466 69.6888 41.2415 69.8387 41.2284 69.9853C40.9153 70.9569 40.7037 71.957 40.6637 73.0068C40.6348 73.7245 40.5983 74.4927 40.7079 75.201C40.7228 75.3964 40.7419 75.5917 40.7653 75.7862C40.8231 76.2822 41.1706 76.754 41.4285 77.2135Z" fill="#BE9857"/>
<path d="M54.4388 73.0204C54.4273 73.8582 54.3279 74.7076 54.1469 75.5671C54.1388 75.607 54.1308 75.6469 54.1214 75.6864C53.997 76.2508 53.7429 76.8283 53.3941 77.3413C53.0147 77.8998 52.5241 78.3809 51.9679 78.6812C50.9411 79.2358 49.6917 79.5173 48.5348 79.6248C48.1108 79.663 47.6805 79.6745 47.2523 79.6604C47.0352 79.6537 46.8189 79.6422 46.606 79.6231C45.3111 79.5156 43.9716 79.215 42.8603 78.5134C42.3913 78.2166 41.9571 77.8 41.6359 77.3464C41.3542 76.949 41.1048 76.4886 40.926 76.0363C40.821 75.773 40.7514 75.4928 40.7072 75.201C40.5972 74.4927 40.6337 73.7245 40.663 73.0068C40.7029 71.9566 40.9145 70.9569 41.2276 69.9853C41.601 68.8208 42.1185 67.6967 42.6546 66.5726C43.8909 63.9881 45.182 61.4082 45.4709 58.4759C45.5898 57.2665 46.2947 56.714 47.4532 56.708C48.6538 56.7029 49.3127 57.261 49.5124 58.4776C49.7906 60.1873 50.2792 61.8274 50.8561 63.4658C51.2504 64.586 51.8515 65.5037 52.4892 66.4614C53.2943 67.6717 53.8406 68.9385 54.1448 70.2486" stroke="black" stroke-miterlimit="10"/>
<path d="M54.145 70.2502C54.3545 71.1459 54.4509 72.0623 54.4382 72.994" stroke="black" stroke-miterlimit="10"/>
<path d="M53.9782 69.2994V69.3003C54.9231 70.2465 55.6028 71.1493 56.0561 72.2135C56.9873 74.4027 55.819 77.1889 53.5976 78.0816C53.3996 78.1605 53.1778 78.178 52.7534 78.2727C52.9981 77.9648 53.211 77.6535 53.3949 77.3418C53.739 76.7583 53.9821 76.1663 54.1473 75.5671C54.3767 74.7343 54.4558 73.8854 54.4392 73.0204C54.4392 73.0119 54.4392 73.003 54.4392 72.9936C54.4209 72.0967 54.302 71.182 54.146 70.2499C54.146 70.249 54.146 70.249 54.146 70.2481C54.0942 69.9339 54.0377 69.618 53.9786 69.2999" stroke="black" stroke-miterlimit="10"/>
<path d="M40.708 75.2014C40.7229 75.3968 40.742 75.5921 40.7653 75.7866C40.8236 76.2822 41.1711 76.754 41.4289 77.2135C41.6503 77.6093 42.0378 77.9151 42.2107 78.2726C40.3308 78.2726 38.4381 75.5968 38.7265 73.6552C38.8247 72.9898 39.1297 72.3277 39.4586 71.7442C39.8859 70.9768 40.4794 69.9963 41.2611 69.5466C41.2471 69.6888 41.242 69.8387 41.2288 69.9853C41.222 70.0519 41.2148 70.119 41.2038 70.184C41.1613 70.4341 41.1116 70.6804 41.0598 70.928C40.965 71.376 40.872 71.8224 40.8061 72.2763C40.6659 73.2467 40.6345 74.2264 40.708 75.2014Z" stroke="black" stroke-miterlimit="10"/>
<path fill-rule="evenodd" clip-rule="evenodd" d="M36.7922 81.2949C36.7005 81.3408 36.6121 81.3943 36.517 81.4313C35.6044 81.7829 35.2288 82.4373 35.4744 83.2527C35.6779 83.9287 36.5883 84.4434 37.3662 84.1835C38.0617 83.9504 38.7499 83.6111 39.3464 83.1873C40.5228 82.3519 41.6316 81.4219 42.771 80.5352C44.1836 79.4362 46.0843 79.5373 47.2411 81.0393C47.3308 81.1557 47.4217 81.272 47.5407 81.4253C47.7633 81.1574 47.9392 80.9162 48.146 80.7051C49.1627 79.6719 50.7758 79.4659 51.97 80.3004C52.8702 80.9302 53.6638 81.7116 54.5564 82.3528C55.4027 82.9609 56.2949 83.5147 57.2112 84.0124C57.6594 84.2557 58.2024 84.3504 58.73 84.1258C59.3074 83.8795 59.6277 83.4285 59.6549 82.8204C59.6817 82.2275 59.3596 81.8054 58.8286 81.5468C58.6587 81.4644 58.4845 81.3875 58.3133 81.3085C58.312 81.2673 58.3111 81.2262 58.3103 81.1858C58.5656 81.1697 58.8294 81.1038 59.0758 81.1446C60.4137 81.3676 61.0012 82.7567 60.8427 83.7852C60.666 84.9318 59.9068 85.5272 58.891 85.9306C56.9822 86.6887 55.0106 86.7069 53.0249 86.4419C52.032 86.309 51.0413 86.0916 50.0799 85.8096C49.1499 85.5382 48.276 85.111 47.7191 84.2426C47.6758 84.1759 47.612 84.1224 47.5576 84.0612C47.5041 84.0782 47.4476 84.0782 47.4311 84.1041C46.7449 85.2099 45.6263 85.6419 44.4623 85.9722C42.8747 86.422 41.2496 86.6738 39.5966 86.5723C38.4015 86.4992 37.1942 86.4156 36.0832 85.9081C35.6639 85.717 35.2407 85.4741 34.9102 85.1586C33.9471 84.2421 33.9085 82.3464 35.1728 81.4427C35.6592 81.0954 36.2022 81.0525 36.7587 81.1569C36.7702 81.2028 36.7812 81.2487 36.7922 81.2949Z" fill="#4C4339" stroke="black" stroke-width="2" stroke-miterlimit="10"/>
<path fill-rule="evenodd" clip-rule="evenodd" d="M53.9275 54.4033C54.0086 52.0613 55.2487 50.3911 57.3767 49.4551C57.3147 48.5832 57.1817 47.7348 57.0492 46.8697C56.9838 46.4412 56.9281 46.0098 56.8346 45.586C56.8334 45.5796 56.8321 45.5745 56.83 45.5685C56.7926 45.5868 56.7518 45.6017 56.7076 45.6119C56.6528 45.724 56.553 45.8148 56.3988 45.8573C56.3567 45.9864 56.2756 46.0994 56.1507 46.1648C55.6222 46.4421 55.01 46.5198 54.5078 46.8396C54.4041 46.9058 54.3052 46.9767 54.2083 47.0506C54.3115 47.0744 54.4186 47.0982 54.5286 47.13C53.594 47.8027 52.8225 48.6113 51.8785 48.9761C50.4047 49.5468 48.8218 50.1104 47.2711 50.1494C44.5122 50.2203 42.4025 48.5102 40.1041 46.9071C39.9355 46.8498 39.7651 46.7865 39.5892 46.7232C39.429 46.6659 39.2978 46.5559 39.2243 46.4175C38.6864 46.3185 38.1494 46.2094 37.6129 46.0934C37.5967 46.1525 37.5806 46.2098 37.5631 46.2633C37.4472 46.6128 37.3291 46.9623 37.2148 47.3131C37.0461 47.8269 36.8673 48.3442 36.7402 48.8712C36.9582 48.931 37.1757 48.9939 37.3932 49.0631C40.4966 50.0569 41.9713 52.1021 41.8672 55.3533C41.7784 58.1438 41.2622 60.86 40.0319 63.3816C40.0693 63.385 40.1075 63.3897 40.1449 63.3918C40.8858 63.4466 41.6271 63.4441 42.3693 63.4368C42.7827 63.433 43.1948 63.4245 43.6073 63.4139C44.1294 61.88 44.5216 60.2981 44.6843 58.6364C44.853 56.9207 45.853 56.1372 47.4954 56.1313C49.1969 56.1236 50.1324 56.9135 50.4128 58.6394C50.6911 60.3495 51.1189 62.0095 51.6342 63.656C52.9754 63.6122 54.3132 63.4364 55.6158 63.1192C54.3264 60.3843 53.8208 57.4439 53.9275 54.4033ZM43.6235 50.2913C45.0484 50.4811 46.4142 50.8472 47.7648 50.7915C49.0907 50.7363 50.3992 50.2543 51.7744 49.9469C49.8014 52.7148 45.0127 52.0277 43.6235 50.2913Z" fill="#777777"/>
<path d="M28.9139 73.005C37.7394 73.005 44.8938 65.8535 44.8938 57.0316C44.8938 48.2097 37.7394 41.0582 28.9139 41.0582C20.0885 41.0582 12.9341 48.2097 12.9341 57.0316C12.9341 65.8535 20.0885 73.005 28.9139 73.005Z" fill="white" stroke="black" stroke-miterlimit="10"/>
<path d="M65.9403 72.3595C74.7657 72.3595 81.9201 65.208 81.9201 56.3861C81.9201 47.5642 74.7657 40.4127 65.9403 40.4127C57.1148 40.4127 49.9604 47.5642 49.9604 56.3861C49.9604 65.208 57.1148 72.3595 65.9403 72.3595Z" fill="white" stroke="black" stroke-miterlimit="10"/>
<path fill-rule="evenodd" clip-rule="evenodd" d="M29.2612 44.0878C24.8429 43.9111 21.3397 45.7822 18.7324 49.3137C15.4828 53.7141 15.3613 59.9032 18.4248 64.4238C20.111 66.9102 22.4986 68.8556 25.3331 69.8838C25.913 70.0948 26.4844 70.4282 27.1098 70.4838C27.369 70.5071 27.6978 70.4983 27.8779 70.2761C28.7017 69.2569 26.9509 68.8233 26.2895 68.5906C25.3463 68.2585 24.3891 67.9396 23.5339 67.4101C22.3457 66.675 21.2806 65.7517 20.4195 64.6497C19.7873 63.8407 19.2448 62.9731 18.7889 62.0529C16.4069 57.2499 17.8989 51.1389 22.1511 47.8134C25.7142 45.0263 30.565 44.7528 34.4204 47.1216C38.899 49.8751 40.4586 55.3521 38.0643 59.9189C35.6151 64.5911 29.9864 66.1017 25.6692 63.1986C21.8507 60.6298 21.3346 55.6799 24.031 52.4371C26.2415 49.7796 30.1155 49.4127 32.7491 51.6511C35.0449 53.6016 35.1325 57.0524 32.9373 59.0526C31.557 60.3105 29.3819 60.3644 28.0007 59.1745C26.7912 58.1324 26.6119 56.4078 27.6158 55.344C28.084 54.8475 28.655 54.6267 29.3296 54.8573C29.6784 54.9766 29.9634 55.1873 30.0361 55.6523C29.9294 55.6153 29.881 55.5945 29.8309 55.5814C29.5475 55.5054 29.2858 55.541 29.0802 55.7631C28.8699 55.9903 28.8279 56.2579 28.9281 56.5517C29.1227 57.1267 29.7098 57.4219 30.2893 57.2325C31.481 56.8435 31.8799 55.3249 31.0489 54.3409C30.1427 53.2699 28.6456 52.996 27.4114 53.6763C25.4546 54.755 24.8947 57.5013 26.247 59.3889C27.7526 61.4927 30.6585 62.1255 32.9152 60.8417C35.4553 59.3962 36.6173 56.2226 35.6592 53.4479C34.5394 50.203 31.1504 48.3374 27.8724 48.7765C24.6194 49.2122 21.9489 51.6638 21.1599 54.8726C20.2725 58.484 21.6256 62.1412 24.6415 64.2807C28.4476 66.9807 33.448 66.7157 36.9767 63.6271C40.9697 60.1308 41.8415 53.9867 38.9237 49.5536C36.6457 46.0964 33.3732 44.2513 29.2612 44.0878Z" fill="black"/>
<path fill-rule="evenodd" clip-rule="evenodd" d="M65.1075 44.0878C69.5254 43.9111 73.0281 45.7822 75.6367 49.3137C78.8854 53.7141 79.0073 59.9032 75.9438 64.4238C74.258 66.9102 71.8692 68.8556 69.0355 69.8838C68.4556 70.0948 67.8846 70.4282 67.2588 70.4838C66.9997 70.5071 66.6696 70.4983 66.4903 70.2761C65.6666 69.2569 67.4173 68.8233 68.0779 68.5906C69.0224 68.2585 69.9795 67.9396 70.8343 67.4101C72.0226 66.675 73.0876 65.7517 73.9488 64.6497C74.5805 63.8407 75.1235 62.9731 75.5789 62.0529C77.9614 57.2499 76.4693 51.1389 72.2171 47.8134C68.654 45.0263 63.8032 44.7528 59.9482 47.1216C55.4696 49.8751 53.9096 55.3521 56.3036 59.9189C58.7544 64.5911 64.3823 66.1017 68.699 63.1986C72.5188 60.6298 73.0332 55.6799 70.3368 52.4371C68.1272 49.7796 64.254 49.4127 61.6187 51.6511C59.3233 53.6016 59.2362 57.0524 61.4305 59.0526C62.8108 60.3105 64.986 60.3644 66.3671 59.1745C67.577 58.1324 67.7555 56.4078 66.752 55.344C66.2838 54.8475 65.7133 54.6267 65.0386 54.8573C64.6898 54.9766 64.4056 55.1873 64.3321 55.6523C64.4388 55.6153 64.4868 55.5945 64.5369 55.5814C64.8207 55.5054 65.082 55.541 65.288 55.7631C65.4983 55.9903 65.5404 56.2579 65.4401 56.5517C65.2451 57.1267 64.6584 57.4219 64.0789 57.2325C62.8868 56.8435 62.4883 55.3249 63.3193 54.3409C64.2263 53.2699 65.7222 52.996 66.9572 53.6763C68.9132 54.755 69.4731 57.5013 68.1208 59.3889C66.6156 61.4927 63.7093 62.1255 61.453 60.8417C58.9133 59.3962 57.751 56.2226 58.7094 53.4479C59.8297 50.203 63.2174 48.3374 66.4954 48.7765C69.7484 49.2122 72.4189 51.6638 73.2078 54.8726C74.0957 58.484 72.7422 62.1412 69.7271 64.2807C65.921 66.9807 60.9207 66.7157 57.392 63.6271C53.3994 60.1308 52.5276 53.9867 55.4454 49.5536C57.7217 46.0964 60.9946 44.2513 65.1075 44.0878Z" fill="black"/>
</svg>
