<svg width="91" height="146" viewBox="0 0 91 146" fill="none" xmlns="http://www.w3.org/2000/svg">
<path d="M2.74471 50.0271C1.39439 52.8858 0.507446 56.0072 1.29865 59.1664C2.35252 63.3678 4.89146 66.9791 7.0716 70.627C8.78072 73.4833 10.5586 76.3996 12.896 78.778L15.0983 84.0952L78.5887 77.9916C79.7592 76.8863 80.8633 75.7379 81.8577 74.5002C82.7792 73.3538 83.6074 72.1318 84.3029 70.796C85.7176 68.0889 86.7376 65.1907 87.9721 62.3976C88.9934 60.0783 88.3961 57.9263 87.3052 55.7381C85.2164 51.5455 83.2321 47.2979 81.2169 43.0688C80.8979 42.4002 80.6473 41.6995 80.3565 41.0157C79.1124 38.0741 79.157 34.9523 78.9712 31.831C78.4113 22.4958 74.5904 14.3653 69.498 6.78148C68.8673 5.84064 67.8738 5.05224 66.8855 4.47824C65.2295 3.51287 63.818 3.81857 62.5172 5.21796C59.6416 8.3136 57.1811 11.7214 55.9136 15.8138C54.3963 20.7231 53.0613 25.6928 51.7078 30.6548C51.4483 31.6037 51.1454 32.0602 50.0509 32.0329C46.5382 31.9452 43.0182 31.9126 39.5082 32.0249C38.2146 32.0675 37.7488 31.6737 37.6636 30.4239C37.213 23.7596 35.0353 17.5293 32.7128 11.3763C31.5157 8.19897 29.9965 5.11338 27.571 2.61909C25.4025 0.389873 23.3141 0.494462 21.1416 2.73615C19.3363 4.59651 18.4743 6.93472 17.3508 9.17681C14.1695 15.5205 12.3156 22.246 11.3217 29.2574C11.0522 31.1633 11.0059 33.2187 10.2304 34.9109C7.88935 40.0218 5.14688 44.9404 2.74471 50.0271ZM18.1183 33.1604C17.6931 33.0188 17.12 32.3044 17.1642 31.9166C17.5942 28.0475 17.8412 24.1184 18.7535 20.3591C19.3399 17.9396 20.6818 14.375 22.6753 12.8034C24.0642 11.7069 24.8631 12.5178 25.3353 13.8533C26.4732 17.0812 26.6534 21.1165 26.7564 24.5146C26.8421 27.3886 26.4149 30.2196 26.1687 33.0739C26.0219 34.7701 25.5835 35.1591 24.0216 34.8216C22.0277 34.3916 20.0591 33.8076 18.1183 33.1604ZM63.7408 31.9082C63.0521 26.309 62.5723 20.5694 63.6945 14.9932C63.9041 13.9474 64.4198 12.947 65.6345 12.873C66.8569 12.7962 67.3971 13.7394 67.7954 14.7531C67.8477 14.8902 67.9048 15.0298 67.9458 15.1718C68.7 17.7815 69.5427 20.3695 70.1762 23.0111C70.7164 25.2664 71.0527 27.5741 71.4103 29.8692C71.7413 32.0148 71.2586 32.777 69.14 33.2094C67.9607 33.4476 66.7194 33.3852 65.5066 33.4399C64.46 33.4846 63.8727 32.9894 63.7408 31.9082Z" fill="black"/>
<path d="M11.0397 97.9094C10.119 103.48 9.28638 109.176 9.86119 114.828C10.3222 119.376 11.8181 123.709 13.5035 127.928C14.5071 130.444 15.7315 132.877 16.6068 135.443C17.0432 136.719 17.404 138.024 17.5938 139.358C17.731 140.346 17.5319 141.868 18.2097 142.667C19.5676 144.267 22.0261 144.077 23.8965 144.105C26.6877 144.147 29.4837 144.129 32.2772 144.124C37.952 144.114 43.6292 144.068 49.304 144.041C52.5388 144.026 55.7716 144.018 59.0069 144.022C63.6206 144.029 68.2371 144.035 72.8507 143.993C76.2207 143.963 79.5911 143.926 82.9586 143.886C83.2768 143.883 89.9673 143.915 89.9697 143.847C90.0694 141.125 89.915 138.404 89.5924 135.699C89.0071 130.811 86.6239 127.842 84.4019 123.594C83.173 121.245 82.1103 118.797 81.2278 116.298C77.421 105.518 77.4069 95.9746 77.1402 88.7488C76.9608 83.9335 78.8481 82.8008 78.5883 77.9908L15.0979 84.0944C13.3019 88.6679 11.8426 93.0519 11.0397 97.9094Z" fill="black"/>
<path d="M17.165 31.9167C17.1208 32.3044 17.6936 33.0192 18.1191 33.1604C20.0591 33.8072 22.0277 34.3921 24.0224 34.8216C25.5847 35.1587 26.0231 34.7702 26.1696 33.0739C26.4161 30.2192 26.8433 27.3879 26.7572 24.5147C26.6543 21.1165 26.4736 17.0817 25.3361 13.8533C24.8639 12.5175 24.065 11.7069 22.6761 12.8034C20.6826 14.3746 19.3407 17.94 18.7543 20.3595C17.8416 24.1185 17.595 28.0475 17.165 31.9167Z" fill="#767676"/>
<path d="M63.6944 14.9937C62.5717 20.5695 63.052 26.3087 63.7406 31.9087C63.873 32.9899 64.4602 33.485 65.5069 33.44C66.7196 33.3849 67.9609 33.4476 69.1403 33.2095C71.2589 32.7771 71.7416 32.0148 71.4105 29.8693C71.0529 27.5741 70.7167 25.2673 70.1765 23.0111C69.5429 20.3696 68.7007 17.7816 67.9461 15.1718C67.9054 15.0299 67.8483 14.8903 67.7956 14.7531C67.3974 13.7395 66.8572 12.7962 65.6348 12.873C64.4192 12.9471 63.9039 13.9478 63.6944 14.9937Z" fill="#767676"/>
<path d="M15.0979 84.0948C13.3023 88.6674 11.843 93.0523 11.0397 97.9097C10.119 103.48 9.28638 109.176 9.86119 114.829C10.3222 119.376 11.8181 123.709 13.5035 127.928C14.5071 130.444 15.7315 132.877 16.6068 135.444C17.0432 136.72 17.404 138.025 17.5938 139.359C17.731 140.346 17.5319 141.868 18.2097 142.667C19.5676 144.267 22.0261 144.077 23.8965 144.105C26.6877 144.148 29.4837 144.129 32.2772 144.124C37.952 144.115 43.6292 144.068 49.304 144.042C52.5388 144.027 55.7716 144.018 59.0069 144.023C63.6206 144.029 68.2371 144.035 72.8507 143.994C76.2207 143.964 79.5911 143.926 82.9586 143.887C83.2768 143.884 89.9673 143.916 89.9697 143.848C90.0694 141.125 89.915 138.404 89.5924 135.699C89.0071 130.811 86.6239 127.842 84.4019 123.594C83.173 121.245 82.1103 118.797 81.2278 116.299C77.421 105.518 77.4069 95.975 77.1402 88.7491C76.9608 83.9339 78.8481 82.8012 78.5883 77.9912" stroke="#575757" stroke-width="2" stroke-miterlimit="10"/>
<path d="M78.5878 77.9916C79.7583 76.8863 80.8624 75.7379 81.8568 74.5002C82.7783 73.3538 83.6065 72.1318 84.302 70.796C85.7167 68.0889 86.7367 65.1907 87.9712 62.3976C88.9925 60.0783 88.3952 57.9263 87.3043 55.7381C85.2155 51.5455 83.2312 47.2979 81.216 43.0688C80.897 42.4002 80.6464 41.6995 80.3556 41.0157C79.1115 38.0741 79.1561 34.9523 78.9703 31.831C78.4104 22.4958 74.5895 14.3653 69.4971 6.78148C68.8664 5.84064 67.8729 5.05224 66.8846 4.47824C65.2286 3.51287 63.8171 3.81857 62.5163 5.21796C59.6407 8.3136 57.1802 11.7214 55.9127 15.8138C54.3954 20.7231 53.0604 25.6928 51.7069 30.6548C51.4474 31.6037 51.1445 32.0602 50.05 32.0329C46.5373 31.9452 43.0173 31.9126 39.5073 32.0249C38.2137 32.0675 37.7479 31.6737 37.6627 30.4239C37.2122 23.7596 35.0344 17.5293 32.7119 11.3763C31.5148 8.19897 29.9956 5.11338 27.5701 2.61909C25.4016 0.389873 23.3132 0.494462 21.1407 2.73615C19.3354 4.59651 18.4734 6.93472 17.35 9.17681C14.1686 15.5205 12.3147 22.246 11.3208 29.2574C11.0513 31.1633 11.005 33.2187 10.2295 34.9109C7.88887 40.0218 5.14639 44.9404 2.74422 50.0271C1.3939 52.8858 0.506958 56.0068 1.29816 59.1664C2.35203 63.3678 4.89097 66.9791 7.07111 70.627C8.78023 73.4833 10.5581 76.3996 12.8955 78.778L15.0978 84.0952" stroke="#575757" stroke-width="2" stroke-miterlimit="10"/>
<path d="M6.19005 63.2749C4.65832 63.1433 3.64749 63.7656 3.04051 64.5821C1.55946 66.5744 1.34909 68.8069 1.56791 70.979C1.80161 73.2926 2.15116 75.6606 3.28789 77.873C3.87315 79.0117 4.73032 80.068 5.50061 81.1568C7.16307 83.5083 8.69158 85.925 9.49526 88.4655C10.9839 93.1734 8.22337 97.6732 9.1626 102.834C9.29414 103.553 11.7381 104.533 12.675 104.747C13.9601 105.041 15.5027 105.012 16.6402 104.488C19.1715 103.322 18.8823 100.508 19.2106 98.7524C19.7214 96.024 20.3944 93.2618 19.8879 90.5113C19.7154 89.5693 19.4531 88.6337 19.0766 87.717C18.1708 85.5115 16.6656 83.4311 15.2457 81.3475C14.0434 79.5833 12.8069 77.8275 11.8178 76.0082C11.2909 75.0396 10.8307 74.0557 10.4711 73.0553C9.98639 71.7074 9.62679 70.3426 9.38102 68.9678C9.17387 67.8097 9.15939 66.4964 8.61274 65.3806C8.27325 64.6867 7.99973 63.8456 6.94747 63.4446C6.70331 63.3509 6.4495 63.297 6.19005 63.2749Z" fill="black" stroke="#575757" stroke-width="2" stroke-miterlimit="10"/>
<path d="M81.7854 60.3872C80.244 61.3839 82.0018 64.4671 82.0477 65.6617C82.1374 67.9863 81.5119 70.3237 80.0345 72.5006C76.9441 77.0524 71.1981 80.5036 69.6748 85.429C68.427 89.4635 69.0284 93.5893 70.9093 97.5284C71.6188 99.0155 72.2938 101.409 74.6891 102.368C79.4038 104.254 80.878 100.296 80.5972 98.5223C80.1089 95.4231 77.5402 92.5374 77.8201 89.3855C78.6379 80.2381 95.4005 71.5409 88.21 62.1188C87.4848 61.1703 83.4962 59.283 81.7854 60.3872Z" fill="black" stroke="#575757" stroke-width="2" stroke-miterlimit="10"/>
<path d="M31.6029 58.695C32.3531 58.1262 32.3885 57.0293 32.3322 55.8439C32.2771 54.6907 32.1278 53.5459 32.0269 52.3959C31.8708 50.6224 31.5655 48.8276 30.722 47.2384C29.71 45.3321 28.0809 43.5245 26.0866 42.6307C25.0561 42.1693 23.7713 41.8665 22.637 41.8665C20.4741 41.8665 18.399 42.7642 16.8512 44.2425C14.1513 46.8188 13.4571 50.2612 13.0898 53.8299C12.9398 55.2868 11.9294 58.417 14.0459 58.9653C14.7655 59.1515 15.5829 59.0328 16.3142 58.9974C17.4425 58.9423 18.5719 58.991 19.7006 58.991C22.3828 58.991 25.1023 58.8522 27.78 58.981C28.6074 59.0208 29.4389 59.1334 30.2679 59.0996C30.8632 59.0747 31.2944 58.9295 31.6029 58.695Z" fill="#B0FF27"/>
<path d="M25.2538 54.7887C25.2538 58.7805 24.0366 62.0166 22.5347 62.0166C21.0335 62.0166 19.8159 58.7805 19.8159 54.7887C19.8159 50.7965 21.0331 48.7165 22.5351 48.7165C24.037 48.7169 25.2538 50.7965 25.2538 54.7887Z" fill="black"/>
<path d="M76.0306 58.4428C76.7808 57.874 76.8162 56.7767 76.7599 55.5917C76.7048 54.4381 76.5556 53.2933 76.4546 52.1437C76.2985 50.3698 75.9932 48.575 75.1497 46.9862C74.1377 45.0796 72.5086 43.2723 70.5143 42.3781C69.4838 41.9168 68.199 41.6139 67.0647 41.6139C64.9019 41.6139 62.8267 42.5121 61.2789 43.9895C58.5791 46.5663 57.8848 50.009 57.5176 53.5769C57.3675 55.0338 56.3571 58.1649 58.4737 58.7131C59.1933 58.8994 60.0106 58.7807 60.7419 58.7453C61.8702 58.6902 62.9997 58.7385 64.1284 58.7385C66.8105 58.7385 69.53 58.6001 72.2078 58.7288C73.0352 58.7682 73.8666 58.8808 74.6956 58.847C75.2913 58.8217 75.7217 58.6769 76.0306 58.4428Z" fill="#B0FF27"/>
<path d="M69.6806 54.5363C69.6806 58.5285 68.4634 61.7645 66.9614 61.7645C65.4603 61.7645 64.2427 58.5285 64.2427 54.5363C64.2427 50.544 65.4598 48.4641 66.9618 48.4641C68.4638 48.4641 69.6806 50.544 69.6806 54.5363Z" fill="black"/>
<path d="M46.88 60.051L41.7056 60.0598L49.5295 68.2365" stroke="#767676" stroke-width="2" stroke-miterlimit="10"/>
<path d="M42.6189 60.051L47.7937 60.0598L39.9697 68.2365" stroke="#767676" stroke-width="2" stroke-miterlimit="10"/>
</svg>
