<svg width="195" height="247" viewBox="0 0 195 247" fill="none" xmlns="http://www.w3.org/2000/svg">
<path d="M174.356 50.1984C170.343 52.8166 160.709 54.3067 148.735 50.543C136.761 46.7794 131.155 40.3222 128.856 36.0287C122.437 24.0441 141.675 31.1444 153.649 34.908C165.623 38.6717 182.846 44.6583 174.356 50.1984Z" fill="#1587B9" stroke="black" stroke-miterlimit="10"/>
<path d="M150.748 43.8446C170.987 50.2059 188.81 50.8545 190.558 45.2932C192.306 39.732 177.317 30.0669 157.078 23.7056C136.84 17.3443 119.017 16.6958 117.269 22.257C115.521 27.8183 130.51 37.4834 150.748 43.8446Z" fill="#73CBF1" stroke="black" stroke-miterlimit="10"/>
<path d="M125.837 27.4399C127.804 28.0582 129.667 27.7066 129.997 26.6547C130.328 25.6027 129.001 24.2487 127.034 23.6305C125.067 23.0122 123.205 23.3638 122.874 24.4157C122.543 25.4677 123.87 26.8216 125.837 27.4399Z" fill="#42535B" stroke="black" stroke-width="0.5" stroke-miterlimit="10"/>
<path d="M126.072 26.4351C127.861 26.9975 129.511 26.8199 129.757 26.0384C130.002 25.257 128.751 24.1676 126.962 23.6053C125.173 23.0429 123.523 23.2205 123.277 24.0019C123.032 24.7834 124.283 25.8727 126.072 26.4351Z" fill="#83D3EC" stroke="black" stroke-width="0.5" stroke-miterlimit="10"/>
<path d="M137.407 35.1272C139.374 35.7455 141.237 35.394 141.568 34.3422C141.898 33.2903 140.572 31.9364 138.605 31.3182C136.638 30.6999 134.775 31.0514 134.444 32.1032C134.114 33.1551 135.44 34.509 137.407 35.1272Z" fill="#42535B" stroke="black" stroke-width="0.5" stroke-miterlimit="10"/>
<path d="M137.642 34.1226C139.431 34.685 141.081 34.5075 141.326 33.7261C141.572 32.9448 140.321 31.8555 138.532 31.2932C136.742 30.7308 135.093 30.9083 134.847 31.6896C134.602 32.471 135.853 33.5602 137.642 34.1226Z" fill="#83D3EC" stroke="black" stroke-width="0.5" stroke-miterlimit="10"/>
<path d="M151.883 41.2294C153.85 41.8477 155.713 41.4962 156.043 40.4443C156.374 39.3923 155.047 38.0383 153.08 37.42C151.113 36.8016 149.25 37.1531 148.919 38.2051C148.589 39.257 149.915 40.6111 151.883 41.2294Z" fill="#42535B" stroke="black" stroke-width="0.5" stroke-miterlimit="10"/>
<path d="M152.118 40.2249C153.907 40.7873 155.557 40.6097 155.802 39.8283C156.048 39.0469 154.797 37.9575 153.008 37.3951C151.218 36.8328 149.569 37.0104 149.323 37.7918C149.078 38.5732 150.329 39.6626 152.118 40.2249Z" fill="#83D3EC" stroke="black" stroke-width="0.5" stroke-miterlimit="10"/>
<path d="M180.484 43.7746C182.452 44.393 184.314 44.0415 184.645 42.9897C184.976 41.9378 183.649 40.5839 181.682 39.9655C179.714 39.3472 177.852 39.6986 177.521 40.7505C177.19 41.8023 178.517 43.1563 180.484 43.7746Z" fill="#42535B" stroke="black" stroke-width="0.5" stroke-miterlimit="10"/>
<path d="M180.72 42.7699C182.509 43.3322 184.159 43.1546 184.404 42.3732C184.65 41.5918 183.399 40.5024 181.61 39.9401C179.821 39.3777 178.171 39.5553 177.925 40.3367C177.68 41.1181 178.931 42.2075 180.72 42.7699Z" fill="#83D3EC" stroke="black" stroke-width="0.5" stroke-miterlimit="10"/>
<path d="M166.877 43.8471C168.844 44.4654 170.707 44.1139 171.037 43.062C171.368 42.0102 170.041 40.6563 168.074 40.038C166.107 39.4197 164.245 39.7712 163.914 40.8231C163.583 41.8749 164.91 43.2288 166.877 43.8471Z" fill="#42535B" stroke="black" stroke-width="0.5" stroke-miterlimit="10"/>
<path d="M167.112 42.8424C168.902 43.4048 170.551 43.2273 170.797 42.446C171.042 41.6647 169.791 40.5754 168.002 40.013C166.213 39.4506 164.563 39.6282 164.318 40.4095C164.072 41.1908 165.323 42.2801 167.112 42.8424Z" fill="#83D3EC" stroke="black" stroke-width="0.5" stroke-miterlimit="10"/>
<path d="M195.36 41.1746C195.548 39.6857 194.82 38.8471 193.745 38.0681C195.077 38.0453 196.153 37.7785 196.783 36.4274C196.951 37.7203 197.125 38.883 198.517 39.5005C197.168 39.5922 196.073 39.8837 195.36 41.1746Z" fill="#FFF0B4"/>
<path d="M182.375 57.7049C182.563 56.2163 181.835 55.3774 180.76 54.5982C182.091 54.5759 183.169 54.3088 183.798 52.9579C183.965 54.2505 184.14 55.4132 185.531 56.0312C184.183 56.1228 183.088 56.4141 182.375 57.7049Z" fill="#2BC5F3"/>
<path d="M173.324 30.8058C173.357 31.9317 173.343 33.303 172.597 34.2242C171.922 35.0593 170.756 35.1845 169.751 35.2338C168.477 35.2958 167.214 35.101 165.953 34.9455C164.504 34.7669 163.053 34.5808 161.618 34.308C160.066 34.0121 158.541 33.5677 157.005 33.1997C155.259 32.7812 153.502 32.357 151.832 31.6887C148.748 30.455 145.807 28.9142 142.986 27.1653C141.883 26.4821 140.694 25.8533 139.661 25.0657C138.872 24.4628 138.161 23.6368 138.417 22.5714C138.639 21.6553 139.402 20.7957 139.946 20.0511C140.277 19.5981 140.643 19.1681 140.965 18.7098C145.065 12.8731 153.852 10.2112 160.691 12.5622C169.357 15.54 173.098 23.1479 173.324 30.8058Z" fill="#D4DFE3" stroke="black" stroke-miterlimit="10"/>
<path d="M131.705 14.4357C131.893 12.9466 131.165 12.1081 130.09 11.3289C131.42 11.3063 132.498 11.0393 133.127 9.68852C133.295 10.981 133.47 12.1442 134.861 12.7618C133.512 12.8531 132.417 13.1448 131.705 14.4357Z" fill="#E1DCA5"/>
<path d="M120.847 35.8663C119.357 35.6775 118.518 36.4049 117.739 37.4793C117.716 36.1489 117.448 35.0721 116.097 34.4428C117.39 34.2758 118.553 34.1012 119.171 32.7109C119.263 34.0586 119.555 35.1539 120.847 35.8663Z" fill="#FFF0B4"/>
<path d="M122.021 2.59772C120.531 2.40929 119.692 3.13615 118.913 4.21054C118.89 2.88013 118.623 1.8032 117.271 1.17398C118.564 1.00704 119.727 0.832447 120.345 -0.557802C120.437 0.790254 120.729 1.88535 122.021 2.59772Z" fill="#2BC5F3"/>
<path d="M177.118 17.9555C177.307 16.4667 176.578 15.6276 175.504 14.8488C176.834 14.8262 177.912 14.5588 178.541 13.2081C178.709 14.5006 178.884 15.6636 180.274 16.2814C178.926 16.3727 177.831 16.6644 177.118 17.9555Z" fill="#E1DCA5"/>
<path d="M164.962 63.4624C163.473 63.2737 162.634 64.0008 161.855 65.0752C161.832 63.7453 161.564 62.6679 160.212 62.0388C161.505 61.8717 162.668 61.6973 163.286 60.3071C163.378 61.6548 163.67 62.7498 164.962 63.4624Z" fill="#FFF0B4"/>
<path fill-rule="evenodd" clip-rule="evenodd" d="M118.713 132.601C112.936 138.69 106.495 143.845 98.3145 146.365C92.8885 148.036 87.4375 148.292 82.1048 145.98C78.7632 144.532 76.1575 142.247 74.6944 138.821C74.5877 138.572 74.5082 138.311 74.3546 137.875C74.2263 137.878 74.1074 137.826 74.0211 137.735C73.8787 137.732 73.7819 137.661 73.7295 137.563C73.746 137.713 73.7568 137.841 73.7505 137.967C73.4926 143.508 75.9975 147.68 80.2919 150.885C84.8109 154.258 90.0244 155.598 95.58 155.722C102.372 155.874 108.864 154.399 115.118 151.85C117.99 150.679 120.791 149.336 123.627 148.074C123.953 147.929 124.289 147.806 124.621 147.673V126.004C122.655 128.206 120.744 130.461 118.713 132.601Z" fill="#75CCF2" stroke="black" stroke-width="2" stroke-miterlimit="10"/>
<path fill-rule="evenodd" clip-rule="evenodd" d="M73.0292 136.043C73.0468 136.043 73.0637 136.045 73.081 136.047C73.1299 136.006 73.1828 135.97 73.238 135.938C73.2093 135.905 73.1809 135.873 73.1528 135.84C71.1093 133.396 68.3273 132.181 65.2196 131.751C59.0657 130.898 53.7706 133.044 48.9236 136.594C43.2428 140.753 39.3657 146.358 36.252 152.56C33.5109 158.021 31.6585 163.816 29.724 169.588C28.2466 173.997 26.6066 178.352 24.9811 182.709C24.6437 183.615 24.0515 184.426 23.5762 185.281V212.86H44.8957C46.8321 208.597 47.9513 204.164 47.9799 199.447C48.0117 194.12 47.38 188.85 46.7808 183.576C46.0818 177.429 45.6835 171.266 46.0275 165.089C46.3621 159.08 47.6393 153.261 50.4562 147.882C53.0065 143.01 56.4559 138.989 61.6058 136.686C65.1007 135.122 68.6666 134.799 72.3169 136.119C72.4292 136.159 72.5415 136.203 72.6474 136.256C72.6648 136.265 72.6803 136.277 72.6979 136.293C72.7354 136.157 72.8457 136.043 73.0292 136.043Z" fill="#D97595" stroke="black" stroke-width="2" stroke-miterlimit="10"/>
<path fill-rule="evenodd" clip-rule="evenodd" d="M99.1777 199.285C96.5367 196.827 93.792 194.479 91.0592 192.123C86.6773 188.343 82.1073 184.766 77.9078 180.796C72.078 175.288 67.3252 168.95 64.9198 161.145C63.4581 156.403 63.0909 151.581 64.6246 146.778C65.9727 142.556 68.4746 139.265 72.6918 137.502C72.9784 137.382 73.283 137.303 73.6747 137.175C73.6234 137.128 73.5753 137.076 73.5163 137.045C73.4402 137.004 73.3516 136.991 73.2691 136.963C73.2093 136.944 73.15 136.913 73.0959 136.876C72.958 136.866 72.8656 136.79 72.8176 136.691C72.7533 136.642 72.7122 136.571 72.6945 136.494C72.6043 136.53 72.5274 136.56 72.4502 136.56C67.5649 136.563 63.8114 138.835 60.8367 142.505C57.4669 146.663 56.0248 151.554 55.6184 156.822C55.1167 163.318 56.4253 169.527 58.516 175.613C60.5393 181.502 63.4258 187.001 66.2604 192.522C68.6592 197.193 71.1727 201.823 72.6154 206.904C73.1654 208.839 73.3756 210.871 73.74 212.859H107.601C105.629 207.816 103.207 203.033 99.1777 199.285Z" fill="#EEDDA1" stroke="black" stroke-width="2" stroke-miterlimit="10"/>
<path fill-rule="evenodd" clip-rule="evenodd" d="M103.301 61.354C102.622 63.3887 101.842 65.3963 101.288 67.4646C100.289 71.1934 100.208 75.0281 100.513 78.843C101.048 85.5296 101.822 92.198 102.32 98.8874C102.854 106.065 102.547 113.211 100.394 120.152C98.4779 126.329 95.3812 131.786 89.9702 135.588C85.961 138.406 81.5397 139.621 76.6619 138.168C76.0672 137.99 75.519 137.753 75.0106 137.448C74.9797 137.589 74.873 137.71 74.6904 137.717C74.6325 137.79 74.5478 137.845 74.4286 137.867C74.4192 137.869 74.4112 137.869 74.4019 137.87C75.1163 138.545 75.6456 139.109 76.2434 139.587C79.4556 142.151 83.1758 142.954 87.1844 142.595C93.4757 142.032 98.5314 138.938 102.943 134.664C107.779 129.979 111.117 124.283 113.759 118.147C116.454 111.885 118.349 105.345 120.513 98.8971C121.527 95.8769 122.834 92.9552 124.028 89.9968C124.158 89.6748 124.42 89.4056 124.621 89.1123V61.354H103.301Z" fill="#B9D17D" stroke="black" stroke-width="2" stroke-miterlimit="10"/>
<path fill-rule="evenodd" clip-rule="evenodd" d="M74.0095 135.584C74.1924 135.614 74.3778 135.624 74.5466 135.711C74.5899 135.733 74.6288 135.761 74.6652 135.793C77.0304 130.074 75.4669 124.972 71.8519 120.298C68.3378 115.754 63.524 113.041 58.1607 111.252C51.4071 109 44.4375 108.481 37.386 108.975C32.776 109.298 28.1795 109.815 23.5762 110.245V127.258C25.6809 126.266 27.7743 125.248 29.8928 124.287C36.1331 121.457 42.5863 119.333 49.4781 118.942C56.4617 118.546 63.0647 119.726 68.654 124.334C71.5677 126.736 73.4603 129.776 73.9933 133.565C74.0873 134.226 74.0175 134.91 74.0095 135.584Z" fill="#6288B1" stroke="black" stroke-width="2" stroke-miterlimit="10"/>
<path fill-rule="evenodd" clip-rule="evenodd" d="M79.8327 105.064C76.0194 98.5306 70.7562 93.2643 65.0128 88.4477C60.6229 84.7669 56.1125 81.2278 51.7748 77.4882C48.4447 74.617 45.395 71.438 43.3661 67.4638C42.3504 65.4746 41.5138 63.3933 40.596 61.3537H23.5762V85.5301C24.8771 86.1908 26.1352 86.9554 27.4855 87.4912C31.0577 88.909 34.6363 90.3285 38.2736 91.5641C45.4195 93.9911 52.6895 96.0796 59.4213 99.5903C65.1134 102.559 70.261 106.223 74.2233 111.362C77.7958 115.996 79.9544 121.122 79.4893 127.104C79.2093 130.695 77.8819 133.807 75.1024 136.208C75.0575 136.247 75.0098 136.283 74.9631 136.32C74.9725 136.356 74.9808 136.392 74.9888 136.428C75.09 136.536 75.1653 136.677 75.2131 136.83C75.4682 136.644 75.6083 136.527 75.7661 136.455C81.4254 133.855 83.848 129.083 84.47 123.221C85.1698 116.624 83.1032 110.667 79.8327 105.064Z" fill="#EEDDA1" stroke="black" stroke-width="2" stroke-miterlimit="10"/>
<path fill-rule="evenodd" clip-rule="evenodd" d="M100.513 78.843C100.208 75.0284 100.289 71.1937 101.288 67.4646C101.842 65.3963 102.622 63.3887 103.301 61.354H74.2778C74.466 64.3347 75.1534 67.2209 76.3729 69.9215C78.5072 74.6484 80.7308 79.3396 83.0642 83.9719C86.507 90.8069 89.8354 97.6767 91.4991 105.208C92.7092 110.687 93.0466 116.206 91.7881 121.72C90.7065 126.456 88.5651 130.644 84.7822 133.826C82.4308 135.805 79.6765 136.879 76.5942 137.057C76.2091 137.079 75.8187 137.026 75.2516 136.983C75.291 137.184 75.2894 137.396 75.2458 137.58C75.6877 137.822 76.1575 138.017 76.6623 138.167C81.5404 139.621 85.9614 138.405 89.9706 135.588C95.3816 131.786 98.4783 126.329 100.395 120.151C102.547 113.211 102.855 106.065 102.32 98.8872C101.822 92.1978 101.048 85.5296 100.513 78.843Z" fill="#D97595" stroke="black" stroke-width="2" stroke-miterlimit="10"/>
<path fill-rule="evenodd" clip-rule="evenodd" d="M73.7012 135.585C73.2518 134.784 72.8537 133.946 72.32 133.207C69.4914 129.289 65.4704 127.459 60.8097 126.93C53.9739 126.153 47.8533 128.306 42.0848 131.744C36.743 134.927 32.3079 139.161 28.2068 143.774C26.6428 145.533 25.1187 147.327 23.5762 149.106V185.281C24.0515 184.426 24.6437 183.615 24.9811 182.709C26.6069 178.352 28.2466 173.997 29.724 169.588C31.6585 163.816 33.5111 158.021 36.252 152.56C39.3655 146.358 43.2428 140.753 48.9236 136.594C53.7706 133.044 59.066 130.898 65.2196 131.751C68.3273 132.181 71.1093 133.395 73.1528 135.84C73.1861 135.879 73.2195 135.917 73.2534 135.955C73.2711 135.853 73.329 135.76 73.4256 135.71C73.4725 135.675 73.5326 135.652 73.6043 135.646C73.6327 135.621 73.665 135.6 73.7012 135.585Z" fill="#75CCF2" stroke="black" stroke-width="2" stroke-miterlimit="10"/>
<path fill-rule="evenodd" clip-rule="evenodd" d="M120.751 185.94C116.811 184.478 112.862 183.027 108.868 181.721C102.658 179.688 96.3815 177.85 90.4712 174.999C83.4307 171.601 77.1811 167.231 72.7596 160.62C70.39 157.077 68.8955 153.193 68.7843 148.906C68.68 144.935 69.6521 141.271 72.5664 138.343C72.7137 138.195 72.8641 138.05 73.0252 137.918C73.0621 137.887 73.1123 137.869 73.1843 137.845C73.1835 137.808 73.1871 137.77 73.1957 137.734C73.167 137.613 73.1954 137.476 73.2801 137.386C73.279 137.356 73.2817 137.326 73.2875 137.297C73.069 137.365 72.8765 137.425 72.6922 137.503C68.4751 139.265 65.9731 142.557 64.6251 146.779C63.0913 151.582 63.4585 156.404 64.9202 161.146C67.3256 168.951 72.0785 175.288 77.9082 180.797C82.1078 184.767 86.6777 188.344 91.0596 192.124C93.7922 194.48 96.5369 196.828 99.1781 199.286C103.207 203.034 105.629 207.816 107.601 212.86H124.621V187.789C123.334 187.166 122.086 186.436 120.751 185.94Z" fill="#B9D17D" stroke="black" stroke-width="2" stroke-miterlimit="10"/>
<path fill-rule="evenodd" clip-rule="evenodd" d="M123.626 148.075C120.791 149.336 117.989 150.68 115.118 151.85C108.863 154.4 102.371 155.874 95.5797 155.722C90.0241 155.598 84.8105 154.258 80.2916 150.886C76.0355 147.709 73.5394 143.584 73.746 138.117C73.6914 138.161 73.6188 138.188 73.5294 138.188C73.458 138.188 73.3979 138.171 73.3482 138.142C73.3419 138.227 73.3303 138.305 73.3027 138.376C71.5676 142.971 72.3422 147.29 74.7545 151.416C76.9874 155.236 80.2209 158.014 84.0483 160.125C89.9802 163.395 96.4246 164.689 103.124 165.05C109.479 165.392 115.756 164.636 122.04 163.898C122.899 163.798 123.76 163.707 124.62 163.611V147.673C124.289 147.806 123.953 147.929 123.626 148.075Z" fill="#8583E1" stroke="black" stroke-width="2" stroke-miterlimit="10"/>
<path fill-rule="evenodd" clip-rule="evenodd" d="M74.278 61.354C74.4662 64.3347 75.1536 67.2208 76.3731 69.9214C78.5074 74.6484 80.731 79.3395 83.0644 83.9719C86.5073 90.8069 89.8356 97.6766 91.4993 105.208C92.7094 110.687 93.0468 116.206 91.7884 121.72C90.7068 126.456 88.5654 130.644 84.7824 133.826C82.431 135.805 79.6767 136.879 76.5944 137.057C76.1588 137.082 75.7172 137.01 75.0215 136.968C75.4085 136.698 75.5732 136.544 75.7668 136.455C81.4261 133.855 83.8486 129.084 84.4707 123.222C85.1705 116.624 83.1038 110.667 79.8334 105.064C76.02 98.5306 70.7569 93.2643 65.0134 88.4477C60.6236 84.7669 56.1132 81.2278 51.7754 77.4882C48.4454 74.617 45.3956 71.438 43.3667 67.4638C42.3511 65.4746 41.5144 63.3933 40.5967 61.3537C51.824 61.354 63.051 61.354 74.278 61.354Z" fill="#D86B68" stroke="black" stroke-width="2" stroke-miterlimit="10"/>
<path fill-rule="evenodd" clip-rule="evenodd" d="M44.8955 212.86C46.832 208.598 47.9511 204.164 47.9798 199.447C48.0115 194.12 47.3798 188.85 46.7807 183.577C46.0817 177.429 45.6833 171.266 46.0273 165.089C46.3619 159.08 47.6391 153.261 50.4561 147.882C53.0063 143.01 56.4558 138.989 61.6056 136.686C65.1006 135.122 68.6665 134.799 72.3168 136.119C72.4291 136.159 72.5413 136.203 72.6473 136.256C72.6975 136.281 72.7341 136.332 72.8478 136.437C72.6853 136.49 72.5675 136.56 72.4503 136.56C67.565 136.564 63.8116 138.836 60.8368 142.506C57.467 146.663 56.0249 151.555 55.6186 156.823C55.1168 163.318 56.4254 169.527 58.5161 175.613C60.5394 181.503 63.4259 187.002 66.2605 192.523C68.6593 197.193 71.1729 201.823 72.6156 206.904C73.1656 208.839 73.3758 210.871 73.7402 212.859C64.1252 212.86 54.5108 212.86 44.8955 212.86Z" fill="#D86B68" stroke="black" stroke-width="2" stroke-miterlimit="10"/>
<path fill-rule="evenodd" clip-rule="evenodd" d="M23.5762 85.5305C24.8771 86.1911 26.1352 86.9557 27.4855 87.4915C31.0577 88.9093 34.6363 90.3288 38.2736 91.5644C45.4195 93.9915 52.6895 96.0799 59.4213 99.5906C65.1134 102.559 70.261 106.223 74.2233 111.362C77.7958 115.996 79.9544 121.123 79.4893 127.105C79.2093 130.695 77.8819 133.808 75.1024 136.208C74.9687 136.323 74.8258 136.431 74.6774 136.527C74.6413 136.55 74.5681 136.517 74.4641 136.504C74.476 136.393 74.46 136.271 74.5028 136.174C77.0996 130.301 75.5469 125.076 71.8519 120.297C68.3378 115.753 63.524 113.041 58.1607 111.252C51.4071 108.999 44.4375 108.481 37.386 108.975C32.776 109.298 28.1795 109.814 23.5762 110.244C23.5762 102.006 23.5762 93.7684 23.5762 85.5305Z" fill="#B9D17D" stroke="black" stroke-width="2" stroke-miterlimit="10"/>
<path fill-rule="evenodd" clip-rule="evenodd" d="M124.621 187.788C123.333 187.166 122.086 186.436 120.751 185.94C116.811 184.478 112.862 183.027 108.868 181.721C102.658 179.688 96.3816 177.851 90.4713 174.999C83.4308 171.601 77.1812 167.231 72.7596 160.62C70.3901 157.077 68.8955 153.193 68.7843 148.906C68.6801 144.935 69.6521 141.271 72.5665 138.343C72.7138 138.195 72.8641 138.05 73.0252 137.918C73.0884 137.866 73.1833 137.852 73.3728 137.78C73.3469 138.022 73.3648 138.215 73.3033 138.376C71.5682 142.972 72.3428 147.291 74.7551 151.416C76.9881 155.236 80.2216 158.015 84.049 160.126C89.9808 163.396 96.4252 164.69 103.125 165.05C109.48 165.393 115.757 164.636 122.04 163.898C122.899 163.798 123.76 163.707 124.621 163.611C124.621 171.671 124.621 179.729 124.621 187.788Z" fill="#6288B1" stroke="black" stroke-width="2" stroke-miterlimit="10"/>
<path fill-rule="evenodd" clip-rule="evenodd" d="M124.621 126.004C122.655 128.206 120.744 130.461 118.714 132.601C112.936 138.69 106.496 143.845 98.315 146.365C92.889 148.036 87.438 148.292 82.1053 145.98C78.7636 144.532 76.158 142.247 74.6949 138.821C74.5821 138.558 74.5004 138.282 74.3291 137.8C75.0805 138.506 75.6253 139.093 76.2432 139.586C79.4555 142.15 83.1756 142.954 87.1842 142.595C93.4755 142.032 98.5312 138.938 102.942 134.664C107.778 129.978 111.117 124.282 113.758 118.147C116.454 111.885 118.348 105.345 120.513 98.8968C121.527 95.8767 122.834 92.955 124.028 89.9966C124.158 89.6745 124.42 89.4054 124.621 89.112C124.621 101.409 124.621 113.706 124.621 126.004Z" fill="#EEDDA1" stroke="black" stroke-width="2" stroke-miterlimit="10"/>
<path fill-rule="evenodd" clip-rule="evenodd" d="M23.5765 127.258C25.6812 126.266 27.7746 125.248 29.8931 124.287C36.1334 121.457 42.5866 119.332 49.4784 118.942C56.462 118.546 63.065 119.725 68.6542 124.334C71.568 126.736 73.4606 129.776 73.9935 133.565C74.0918 134.264 74.0082 134.989 74.0082 135.702C73.9323 135.71 73.8565 135.719 73.7814 135.728C73.2979 134.885 72.8857 133.991 72.32 133.207C69.4914 129.289 65.4704 127.459 60.8097 126.93C53.9739 126.153 47.8533 128.306 42.0848 131.744C36.743 134.927 32.3079 139.161 28.2068 143.774C26.6428 145.533 25.1187 147.327 23.5762 149.106C23.5764 141.823 23.5765 134.54 23.5765 127.258Z" fill="#8583E1" stroke="black" stroke-width="2" stroke-miterlimit="10"/>
<path d="M146.876 67.2451C149.898 69.6758 149.332 74.8588 147.921 77.6887C146.914 79.7112 145.373 81.1749 143.263 81.9899C142.554 82.2621 142.295 82.6757 142.616 83.3347C145.636 89.5598 144.282 95.8833 143.073 102.208C142.264 106.439 140.866 110.479 139.371 114.513C136.838 121.352 138.163 127.819 142.346 133.557C143.528 135.178 143.32 135.905 142.495 137.356C139.367 142.858 138.642 148.594 140.758 154.727C142.629 160.148 144.126 165.716 143.686 171.552C143.203 177.957 142.639 184.365 139.393 190.144C139.253 190.395 139.167 190.676 138.993 191.091C141.038 191.118 142.945 191.544 144.03 193.202C144.834 194.431 145.329 195.95 145.616 197.408C146.26 200.685 144.817 202.984 141.12 205.03C142.475 208.813 143.52 212.789 140.129 215.89C137.29 218.485 133.836 217.922 130.502 215.978C129.447 220.291 126.928 222.99 122.391 223.066C118.911 223.125 115.836 222.108 114.24 218.586C109.061 220.192 104.15 220.199 99.2767 217.902C93.8579 215.348 88.3699 213.002 82.1548 213.315C79.6707 213.439 77.3674 214.038 75.3052 215.384C74.5138 215.901 73.9452 215.854 73.1591 215.45C69.4555 213.552 65.5716 212.116 61.3527 212.904C58.8718 213.369 56.4214 214.23 54.091 215.226C50.9279 216.578 47.9609 218.396 44.7847 219.711C40.8889 221.324 36.1027 220.596 32.8251 218.182C31.0006 222.05 27.7425 222.897 23.9309 222.072C20.3195 221.29 18.1905 218.966 17.8076 215.147C14.4191 216.721 11.2493 216.674 8.59067 214.001C5.51578 210.907 5.07387 207.39 7.66574 203.632C4.64272 201.94 3.07176 199.614 3.7498 196.167C4.37184 193.001 6.42305 190.994 8.97769 189.625C8.07787 186.9 6.89971 184.269 6.35628 181.513C4.65044 172.842 4.5346 164.158 6.67242 155.496C7.55734 151.907 8.50902 148.272 8.75866 144.611C8.95093 141.781 8.16613 138.866 7.66574 136.015C7.49333 135.044 6.80343 134.171 6.47766 133.211C6.3709 132.894 6.55131 132.348 6.78992 132.066C10.8835 127.245 11.6534 121.728 10.1401 115.788C9.65572 113.886 8.83231 112.072 8.17966 110.212C6.08293 104.235 4.67361 98.1101 5.4755 91.7613C5.86528 88.6835 6.97033 85.6964 7.80863 82.4504C3.75393 81.2989 1.68121 78.0786 1.12345 73.6105C0.628299 69.6482 1.43294 66.5878 7.06522 63.9691C6.0363 60.3724 8.04091 58.1177 10.7542 56.2391C13.549 54.3034 16.4317 54.1178 19.3466 56.1817C21.0041 53.6444 22.5911 51.1853 25.957 51.5339C28.8079 51.8273 31.656 52.261 32.47 55.7444C33.758 55.132 35.0045 54.613 36.183 53.9675C39.5759 52.1077 43.1299 52.4159 46.7388 53.0336C53.1159 54.125 59.4996 55.1775 65.8805 56.2407C69.7805 56.8917 72.5712 55.2067 74.5824 52.0103C75.8662 49.9718 76.3252 49.9652 77.5359 52.1157C78.9775 54.6798 81.0138 56.0739 84.1119 56.0673C87.5713 56.0593 90.7436 54.9974 93.8736 53.8299C99.2414 51.8289 104.75 51.878 110.27 52.5185C115.212 53.091 116.235 53.6019 119.657 55.7471C121.176 51.53 124.23 49.5676 128.651 50.0813C131.985 50.4681 132.941 53.1764 133.774 56.0513C136.856 54.5091 140.049 53.8873 142.678 56.557C145.162 59.0786 145.098 62.227 143.57 65.1592C144.831 65.9445 145.938 66.4913 146.876 67.2451ZM144.185 80.1259C147.622 77.6846 148.766 72.9259 146.837 69.1703C145.991 67.52 144.612 66.7664 142.749 66.8624C140.742 66.9653 142.813 63.4405 143.039 62.3078C143.356 60.7187 143.351 59.2005 142.31 57.8637C139.469 54.2151 135.031 56.4657 132.535 59.1059C133.145 58.4601 132.284 55.1063 131.933 54.2885C131.314 52.8464 130.25 51.819 128.738 51.3306C124.87 50.086 121.564 53.1318 121.166 56.8418C121.166 56.8446 121.166 56.846 121.166 56.8473C120.842 59.7889 114.684 54.7035 113.448 54.2951C110.202 53.2252 106.356 53.0184 102.967 53.3479C95.9259 54.0323 88.4411 59.5355 81.2858 56.8327C79.5883 56.1925 77.4074 52.7543 75.7658 52.8478C75.1132 52.885 73.4059 55.2718 72.7334 55.7455C68.412 58.7833 62.801 57.3784 58.1165 56.0844C52.607 54.562 46.7038 52.8759 40.9408 53.7643C39.2512 54.026 37.4615 55.1132 35.9264 55.815C34.2313 56.5876 32.1214 58.5208 31.2232 56.4621C30.8974 55.7163 30.7692 54.7492 30.2169 54.2634C28.4498 52.7118 26.1956 52.4317 24.0724 53.0799C22.0008 53.7111 21.0386 55.6189 20.4342 57.6318C20.3181 58.0162 20.1393 58.3829 19.9871 58.7565C20.5437 57.3878 14.6579 56.2112 13.7703 56.4459C11.628 57.0131 9.10705 58.7979 8.47177 61.0019C8.19013 61.9772 8.80554 63.2486 8.54652 64.0637C7.60698 67.0066 3.40802 66.8894 2.35648 69.9898C1.4048 72.7955 2.37636 76.4898 4.15531 78.7803C5.30587 80.2613 7.5681 80.6162 8.54378 82.2025C8.65715 82.3878 8.74928 82.5748 8.82266 82.7667C9.89184 85.5616 6.86329 88.9917 6.55379 91.6998C6.18802 94.8829 6.48981 98.1981 7.03819 101.343C8.43013 109.322 13.1601 117.293 11.4305 125.582C10.8821 128.207 8.58101 130.632 8.30074 133.11C7.9551 136.177 9.6353 139.022 9.9437 142.036C10.3133 145.667 9.30042 149.216 8.46874 152.718C5.42309 165.538 4.99195 178.365 11.3263 190.234C11.0697 189.754 7.49693 191.972 7.17253 192.267C6.03962 193.298 5.18118 194.777 4.91195 196.293C4.22316 200.171 7.47154 201.025 9.70729 203.123C7.28231 206.417 6.51215 210.16 9.58041 213.399C12.3632 216.337 15.8935 214.268 18.879 212.902C19.4848 216.093 19.6505 219.209 23.0937 220.613C24.7634 221.295 27.4926 221.463 29.1022 220.483C30.5184 219.618 30.8238 217.087 32.5522 216.702C34.1993 216.337 35.5193 218.295 36.9369 218.771C39.7287 219.706 43.2497 219.04 45.9375 218.058C51.5417 216.011 56.4242 211.971 62.5566 211.527C65.0524 211.347 67.6829 211.717 70.0345 212.581C71.6174 213.163 73.1298 214.058 74.8674 213.953C79.0757 213.695 82.5523 211.854 86.9407 212.444C91.3504 213.038 95.4678 214.921 99.5398 216.608C102.654 217.897 106.101 219.043 109.514 218.401C111.385 218.049 113.109 215.687 115.008 216.731C116.127 217.345 116.886 219.708 117.938 220.623C119.242 221.759 120.698 222.24 122.428 222.054C127.382 221.521 127.905 217.264 129.807 213.592C133.986 217.274 140.54 217.227 141.107 210.372C141.266 208.426 138.816 206.968 139.045 205.141C139.261 203.416 140.864 203.556 142.142 202.965C143.687 202.251 144.296 201.088 144.548 199.364C145.284 194.338 140.942 192.85 137 191.828C137.512 189.736 139.16 187.818 139.929 185.744C141.784 180.735 142.223 175.442 142.413 170.158C142.776 159.992 136.465 151.202 139.902 140.933C140.724 138.473 141.876 136.401 140.949 133.804C139.694 130.291 137.576 127.879 137.202 124.013C136.79 119.735 137.888 115.521 139.168 111.473C141.024 105.604 142.262 99.8065 143.025 93.6922C143.443 90.3503 142.955 87.0619 141.565 83.9841C140.699 82.0655 140.596 82.1228 142.403 81.1784C143.014 80.8583 143.625 80.5236 144.185 80.1259Z" fill="#404040"/>
<path d="M146.837 69.1698C148.766 72.9253 147.622 77.684 144.185 80.1254C143.625 80.523 143.014 80.8578 142.403 81.1768C140.596 82.1212 140.699 82.0638 141.565 83.9824C142.955 87.0602 143.443 90.3487 143.025 93.6906C142.262 99.8048 141.025 105.603 139.168 111.472C137.889 115.519 136.79 119.734 137.202 124.011C137.576 127.877 139.694 130.289 140.949 133.802C141.876 136.399 140.725 138.471 139.903 140.931C136.466 151.2 142.776 159.991 142.413 170.157C142.223 175.441 141.785 180.733 139.929 185.743C139.16 187.816 137.512 189.734 137 191.826C140.942 192.848 145.284 194.337 144.548 199.362C144.296 201.086 143.688 202.25 142.142 202.963C140.865 203.554 139.262 203.414 139.045 205.139C138.816 206.966 141.266 208.424 141.108 210.371C140.54 217.225 133.986 217.272 129.807 213.59C127.905 217.263 127.382 221.52 122.428 222.052C120.698 222.239 119.242 221.757 117.938 220.622C116.886 219.707 116.127 217.344 115.009 216.729C113.109 215.686 111.385 218.047 109.514 218.399C106.101 219.041 102.654 217.895 99.5401 216.606C95.468 214.92 91.3507 213.036 86.941 212.442C82.5528 211.853 79.076 213.694 74.8676 213.951C73.1301 214.057 71.6179 213.161 70.0348 212.58C67.6832 211.715 65.0524 211.345 62.5568 211.526C56.4244 211.969 51.5419 216.01 45.9378 218.056C43.2499 219.039 39.7289 219.704 36.9371 218.769C35.5195 218.294 34.1996 216.335 32.5525 216.701C30.824 217.085 30.5186 219.616 29.1024 220.482C27.4929 221.461 24.7636 221.293 23.0939 220.611C19.6508 219.208 19.485 216.091 18.8792 212.9C15.8937 214.266 12.3634 216.335 9.58064 213.398C6.51238 210.159 7.28255 206.415 9.70753 203.121C7.47206 201.024 4.2234 200.17 4.91219 196.292C5.1817 194.776 6.03985 193.296 7.17276 192.265C7.49715 191.97 11.07 189.752 11.3265 190.232C4.99219 178.364 5.42333 165.536 8.46898 152.717C9.30066 149.215 10.3136 145.666 9.94394 142.034C9.63554 139.021 7.95535 136.175 8.30098 133.108C8.58125 130.63 10.8821 128.205 11.4308 125.581C13.1606 117.292 8.43035 109.321 7.03842 101.341C6.49003 98.1967 6.18826 94.8815 6.55403 91.6981C6.86353 88.9898 9.89209 85.5599 8.8229 82.765C8.74952 82.5729 8.65737 82.3862 8.544 82.2009C7.56833 80.6146 5.30609 80.2597 4.15553 78.7787C2.37658 76.4881 1.40477 72.7938 2.35672 69.9882C3.40853 66.8878 7.60722 67.0052 8.54676 64.062C8.80551 63.2469 8.19037 61.9755 8.47201 61.0002C9.10729 58.7963 11.6283 57.0114 13.7705 56.4442C14.6582 56.2093 20.544 57.3861 19.9873 58.7549C20.1396 58.3816 20.3183 58.0145 20.4345 57.6302C21.0388 55.617 22.0013 53.7092 24.0726 53.0783C26.1958 52.4297 28.4501 52.7102 30.2171 54.2618C30.7697 54.7473 30.8979 55.7146 31.2234 56.4605C32.1216 58.5191 34.2316 56.5859 35.9267 55.8133C37.4615 55.1116 39.2515 54.0243 40.941 53.7627C46.7041 52.8742 52.6072 54.5607 58.1167 56.0827C62.8012 57.3768 68.4122 58.7816 72.7337 55.7438C73.4062 55.2701 75.1134 52.8833 75.7661 52.8461C77.4077 52.7526 79.5882 56.1908 81.2861 56.8311C88.441 59.5339 95.9259 54.0307 102.968 53.3463C106.356 53.0168 110.203 53.2236 113.449 54.2935C114.684 54.7016 120.842 59.7873 121.167 56.8457C121.167 56.8443 121.167 56.8429 121.167 56.8402C121.564 53.1301 124.87 50.0843 128.738 51.329C130.25 51.8173 131.314 52.8445 131.933 54.2868C132.284 55.1047 133.145 58.4585 132.535 59.1043C135.031 56.4641 139.469 54.2135 142.31 57.8621C143.351 59.1988 143.357 60.717 143.039 62.3061C142.814 63.4389 140.742 66.9636 142.75 66.8608C144.612 66.7659 145.991 67.5198 146.837 69.1698ZM125.104 74.529C125.114 71.2579 123.554 69.4207 119.996 69.4301C89.3806 69.5059 58.765 69.4715 28.1483 69.4715C27.7039 69.4715 27.2592 69.4888 26.8135 69.4982C25.0011 69.5382 23.8437 70.5388 23.2768 72.1505C22.9927 72.9604 22.9632 73.8902 22.9632 74.7653C22.9496 116.048 22.9538 157.332 22.9538 198.615C22.9538 202.173 24.4299 203.679 27.9599 203.679C49.9696 203.682 71.9792 203.68 93.9889 203.68C102.892 203.68 111.796 203.699 120.698 203.646C121.572 203.64 122.516 203.326 123.303 202.915C125.083 201.988 125.073 200.233 125.073 198.526C125.071 177.909 125.071 157.292 125.071 136.676C125.07 115.96 125.038 95.2438 125.104 74.529Z" fill="#BFA266"/>
<path d="M119.996 69.43C123.554 69.4207 125.115 71.2576 125.104 74.529C125.039 95.2438 125.071 115.96 125.072 136.676C125.072 157.292 125.072 177.909 125.074 198.525C125.074 200.233 125.084 201.987 123.304 202.914C122.516 203.325 121.573 203.64 120.699 203.645C111.797 203.699 102.893 203.68 93.9898 203.68C71.9802 203.68 49.9705 203.682 27.9608 203.679C24.4305 203.679 22.9547 202.172 22.9547 198.615C22.9547 157.332 22.9506 116.048 22.9641 74.765C22.9641 73.8898 22.9933 72.96 23.2777 72.1502C23.8449 70.5385 25.002 69.5378 26.8144 69.4979C27.2601 69.4885 27.7048 69.4711 28.1492 69.4711C58.7654 69.4714 89.3809 69.5061 119.996 69.43ZM123.923 198.636C123.925 157.248 123.923 115.86 123.916 74.4716C123.916 71.5822 122.967 70.6107 120.118 70.6107C89.398 70.6041 58.6785 70.6027 27.9589 70.608C25.1187 70.6094 24.2578 71.4912 24.2578 74.3302C24.2551 95.0488 24.2564 115.768 24.2564 136.486C24.2537 136.486 24.2512 136.486 24.2501 136.486C24.2501 157.156 24.2487 177.825 24.2515 198.495C24.2515 201.758 24.9841 202.478 28.278 202.478C58.8989 202.478 89.5197 202.477 120.141 202.475C123.034 202.476 123.923 201.591 123.923 198.636Z" fill="#404040"/>
<path d="M114.241 218.585C109.062 220.191 104.151 220.198 99.2777 217.901C93.8589 215.347 88.3709 213.001 82.1557 213.314C79.6717 213.438 77.3684 214.037 75.3062 215.383C74.5147 215.9 73.9462 215.853 73.16 215.448C69.4565 213.551 65.5726 212.114 61.3537 212.903C58.8728 213.367 56.4224 214.229 54.092 215.225C50.9289 216.577 47.9619 218.394 44.7857 219.71C40.8899 221.323 36.1037 220.595 32.826 218.181C31.0016 222.048 27.7435 222.896 23.9318 222.071C20.3204 221.289 18.1914 218.965 17.8086 215.146C14.42 216.72 11.2503 216.673 8.59164 214C5.51676 210.906 5.07484 207.389 7.66672 203.631C4.64369 201.939 3.07274 199.613 3.75078 196.166C4.37281 193 6.42401 190.993 8.97865 189.624C8.07883 186.899 6.90068 184.268 6.35726 181.511C4.65141 172.841 4.53556 164.157 6.67338 155.495C7.5583 151.906 8.50998 148.271 8.75962 144.61C8.95189 141.78 8.16711 138.865 7.66672 136.014C7.49431 135.043 6.80441 134.17 6.47864 133.21C6.37188 132.893 6.55229 132.347 6.7909 132.065C10.8845 127.243 11.6544 121.727 10.1411 115.787C9.6567 113.885 8.83327 112.071 8.18062 110.211C6.08389 104.234 4.67459 98.109 5.47648 91.7602C5.86625 88.6824 6.9713 85.6953 7.80961 82.4493C3.75491 81.2978 1.68219 78.0775 1.12442 73.6094C0.629275 69.6471 1.43392 66.5867 7.06619 63.968C6.03728 60.3713 8.04187 58.1166 10.7551 56.238C13.55 54.3023 16.4326 54.1167 19.3475 56.1806C21.0051 53.6433 22.5921 51.1842 25.958 51.5328C28.8089 51.8262 31.657 52.2599 32.471 55.7433C33.7589 55.1309 35.0055 54.6119 36.1839 53.9664C39.5769 52.1066 43.1309 52.4149 46.7398 53.0325C53.1169 54.1239 59.5006 55.1764 65.8815 56.2396C69.7815 56.8906 72.5722 55.2056 74.5834 52.0092C75.8672 49.9707 76.3263 49.9641 77.5369 52.1146C78.9785 54.6787 81.0148 56.0728 84.1129 56.0662C87.5723 56.0582 90.7446 54.9963 93.8746 53.8288C99.2423 51.8278 104.75 51.8769 110.27 52.5174C115.213 53.0899 116.236 53.6008 119.658 55.746C121.177 51.5289 124.231 49.5665 128.653 50.0802C131.986 50.467 132.942 53.1753 133.775 56.0502C136.857 54.508 140.05 53.8862 142.679 56.5559C145.163 59.0775 145.099 62.2259 143.571 65.1581C144.832 65.9439 145.939 66.4907 146.877 67.2446C149.898 69.6752 149.332 74.8583 147.922 77.6882C146.914 79.7107 145.374 81.1743 143.264 81.9894C142.555 82.2615 142.296 82.6751 142.616 83.3342C145.636 89.5592 144.283 95.8827 143.074 102.208C142.265 106.438 140.867 110.478 139.372 114.512C136.838 121.351 138.164 127.819 142.346 133.557C143.529 135.178 143.321 135.905 142.496 137.355C139.368 142.857 138.643 148.594 140.758 154.727C142.629 160.147 144.127 165.716 143.687 171.551C143.203 177.956 142.64 184.364 139.394 190.143C139.254 190.394 139.167 190.676 138.994 191.091C141.038 191.118 142.946 191.543 144.031 193.201C144.834 194.43 145.329 195.95 145.616 197.408C146.261 200.684 144.818 202.983 141.121 205.03C142.476 208.812 143.521 212.789 140.129 215.889C137.291 218.484 133.837 217.921 130.503 215.977C129.447 220.291 126.929 222.99 122.392 223.065C118.911 223.124 115.837 222.107 114.241 218.585Z" stroke="#414141" stroke-width="2" stroke-miterlimit="10"/>
<path d="M8.82305 82.7658C9.89223 85.5607 6.8637 88.9909 6.5542 91.6989C6.18842 94.882 6.4902 98.1972 7.03858 101.342C8.43051 109.321 13.1605 117.293 11.4309 125.582C10.8825 128.206 8.58141 130.631 8.30115 133.109C7.95551 136.176 9.6357 139.021 9.9441 142.035C10.3137 145.667 9.30081 149.215 8.46913 152.717C5.42348 165.537 4.99233 178.364 11.3266 190.233C11.0701 189.753 7.49732 191.971 7.17292 192.266C6.04001 193.297 5.18157 194.777 4.91234 196.292C4.22355 200.171 7.47195 201.025 9.7077 203.122C7.28272 206.416 6.51254 210.159 9.5808 213.399C12.3636 216.336 15.8939 214.267 18.8794 212.901C19.4851 216.092 19.6509 219.209 23.0941 220.612C24.7638 221.294 27.493 221.462 29.1026 220.483C30.5188 219.617 30.8242 217.086 32.5526 216.702C34.1997 216.336 35.5197 218.295 36.9373 218.77C39.7291 219.705 43.2501 219.039 45.9379 218.057C51.5421 216.011 56.4246 211.97 62.557 211.527C65.0528 211.346 67.6833 211.716 70.0349 212.58C71.6177 213.162 73.1302 214.057 74.8678 213.952C79.0762 213.694 82.5527 211.854 86.9411 212.443C91.3508 213.037 95.4682 214.92 99.5403 216.607C102.654 217.896 106.101 219.042 109.514 218.4C111.385 218.048 113.109 215.686 115.009 216.73C116.127 217.345 116.887 219.707 117.938 220.623C119.242 221.758 120.698 222.239 122.428 222.053C127.382 221.52 127.905 217.263 129.807 213.591C133.986 217.273 140.54 217.226 141.108 210.372C141.266 208.425 138.816 206.967 139.046 205.14C139.262 203.415 140.865 203.555 142.142 202.964C143.688 202.25 144.296 201.087 144.549 199.363C145.284 194.338 140.942 192.849 137 191.827C137.512 189.735 139.161 187.817 139.929 185.743C141.785 180.734 142.224 175.442 142.413 170.157C142.776 159.991 136.466 151.201 139.903 140.932C140.725 138.472 141.876 136.4 140.949 133.803C139.694 130.29 137.576 127.878 137.203 124.012C136.79 119.735 137.889 115.52 139.169 111.472C141.025 105.604 142.262 99.8056 143.026 93.6914C143.443 90.3495 142.955 87.061 141.565 83.9832C140.699 82.0646 140.596 82.122 142.404 81.1776C143.014 80.8585 143.625 80.5238 144.185 80.1262C147.622 77.6848 148.766 72.9261 146.837 69.1706C145.991 67.5203 144.613 66.7667 142.749 66.8627C140.742 66.9655 142.813 63.4407 143.039 62.308C143.357 60.7189 143.351 59.2007 142.31 57.8639C139.469 54.2154 135.031 56.466 132.535 59.1061C133.145 58.4604 132.284 55.1066 131.933 54.2887C131.314 52.8466 130.25 51.8192 128.738 51.3309C124.87 50.0862 121.564 53.132 121.166 56.8421C121.166 56.8448 121.166 56.8462 121.166 56.8476C120.842 59.7891 114.684 54.7037 113.449 54.2954C110.202 53.2255 106.356 53.0187 102.967 53.3482C95.9261 54.0326 88.4412 59.5357 81.286 56.833C79.5884 56.1927 77.4075 52.7545 75.766 52.848C75.1133 52.8852 73.4061 55.272 72.7335 55.7457C68.4121 58.7835 62.8011 57.3787 58.1166 56.0846C52.6071 54.5623 46.704 52.8761 40.9409 53.7646C39.2514 54.0262 37.4616 55.1135 35.9265 55.8152C34.2315 56.5878 32.1215 58.521 31.2233 56.4624C30.8976 55.7165 30.7693 54.7495 30.217 54.2636C28.4499 52.7121 26.1957 52.4319 24.0725 53.0802C22.0009 53.7113 21.0387 55.6192 20.4343 57.6321C20.3182 58.0164 20.1394 58.3832 19.9872 58.7568C20.5438 57.388 14.6581 56.2115 13.7704 56.4461C11.6281 57.0133 9.10717 58.7981 8.47189 61.0021C8.19025 61.9774 8.80566 63.2488 8.54664 64.0639C7.6071 67.0069 3.40813 66.8897 2.3566 69.9901C1.40492 72.7957 2.37648 76.49 4.15542 78.7806C5.30599 80.2616 7.56822 80.6165 8.5439 82.2028C8.65755 82.387 8.74967 82.5736 8.82305 82.7658Z" stroke="#414141" stroke-width="2" stroke-miterlimit="10"/>
<path d="M125.072 136.676C125.072 157.292 125.072 177.909 125.073 198.525C125.073 200.233 125.084 201.987 123.303 202.914C122.516 203.325 121.572 203.64 120.698 203.645C111.796 203.699 102.893 203.68 93.9893 203.68C71.9796 203.68 49.97 203.681 27.9603 203.679C24.43 203.679 22.9542 202.172 22.9542 198.615C22.9542 157.332 22.9501 116.048 22.9636 74.765C22.9636 73.8898 22.9928 72.96 23.2772 72.1502C23.8444 70.5385 25.0016 69.5378 26.8139 69.4978C27.2597 69.4884 27.7043 69.4711 28.1487 69.4711C58.7654 69.4711 89.381 69.5056 119.996 69.4297C123.555 69.4203 125.115 71.2573 125.104 74.5287C125.038 95.2437 125.071 115.96 125.072 136.676Z" stroke="#414141" stroke-width="2" stroke-miterlimit="10"/>
<path d="M24.2567 136.486C24.2539 136.486 24.2514 136.486 24.2503 136.486C24.2503 157.156 24.249 177.825 24.2517 198.495C24.2517 201.758 24.9844 202.478 28.2783 202.478C58.8991 202.478 89.52 202.477 120.141 202.475C123.034 202.475 123.923 201.591 123.923 198.636C123.926 157.248 123.923 115.86 123.917 74.4713C123.917 71.5819 122.968 70.6104 120.118 70.6104C89.3986 70.6038 58.679 70.6025 27.9594 70.6077C25.1193 70.6091 24.2583 71.4909 24.2583 74.3299C24.2553 95.0488 24.2567 115.768 24.2567 136.486Z" stroke="#414141" stroke-width="2" stroke-miterlimit="10"/>
<path d="M43.2935 129.236C42.2921 131.355 41.6344 133.669 42.2211 136.01C43.0026 139.124 44.8854 141.8 46.5022 144.504C47.7696 146.621 49.0881 148.782 50.8215 150.545L52.4546 154.486L99.5376 149.962C100.406 149.143 101.224 148.292 101.962 147.375C102.645 146.525 103.259 145.619 103.775 144.629C104.824 142.623 105.581 140.475 106.496 138.405C107.253 136.686 106.811 135.091 106.002 133.469C104.453 130.362 102.981 127.214 101.487 124.079C101.25 123.584 101.064 123.064 100.849 122.558C99.9259 120.377 99.959 118.064 99.8212 115.75C99.406 108.831 96.5725 102.806 92.7962 97.1848C92.3284 96.4875 91.5917 95.9032 90.8588 95.4778C89.6307 94.7623 88.584 94.9888 87.6193 96.026C85.4868 98.3203 83.6622 100.846 82.7223 103.879C81.5971 107.518 80.6071 111.201 79.6033 114.879C79.4109 115.582 79.1863 115.92 78.3747 115.9C75.7697 115.835 73.1593 115.811 70.5564 115.894C69.5971 115.926 69.2517 115.634 69.1885 114.707C68.8544 109.768 67.2394 105.151 65.5171 100.59C64.6294 98.2354 63.5027 95.9485 61.704 94.0998C60.0959 92.4476 58.5472 92.5252 56.9361 94.1866C55.5974 95.5654 54.9582 97.2984 54.125 98.9601C51.7658 103.662 50.391 108.646 49.6539 113.843C49.4541 115.255 49.4198 116.779 48.8447 118.033C47.1086 121.821 45.0749 125.466 43.2935 129.236ZM54.6945 116.736C54.3792 116.631 53.9541 116.101 53.9869 115.814C54.3058 112.946 54.4889 110.034 55.1655 107.248C55.6004 105.455 56.5955 102.813 58.0738 101.648C59.1038 100.835 59.6962 101.436 60.0464 102.426C60.8903 104.818 61.0239 107.809 61.1003 110.328C61.1638 112.458 60.847 114.556 60.6645 116.671C60.5556 117.929 60.2305 118.217 59.0722 117.967C57.5933 117.648 56.1334 117.215 54.6945 116.736ZM88.5267 115.808C88.016 111.658 87.6602 107.404 88.4924 103.271C88.6478 102.496 89.0302 101.754 89.9311 101.7C90.8376 101.643 91.2382 102.342 91.5335 103.093C91.5723 103.195 91.6146 103.298 91.6451 103.403C92.2043 105.338 92.8293 107.256 93.2991 109.213C93.6997 110.885 93.9491 112.595 94.2142 114.296C94.4597 115.887 94.1018 116.451 92.5307 116.772C91.6561 116.948 90.7356 116.902 89.8362 116.943C89.0604 116.976 88.6249 116.609 88.5267 115.808Z" fill="black"/>
<path d="M49.445 164.724C48.7623 168.853 48.1448 173.075 48.5711 177.264C48.9129 180.634 50.0222 183.846 51.2721 186.973C52.0163 188.837 52.9243 190.641 53.5734 192.543C53.897 193.489 54.1646 194.456 54.3054 195.444C54.4071 196.176 54.2595 197.304 54.7621 197.897C55.7691 199.083 57.5923 198.942 58.9793 198.962C61.0492 198.994 63.1226 198.98 65.1942 198.976C69.4025 198.969 73.6126 198.935 77.8209 198.915C80.2198 198.904 82.6172 198.898 85.0163 198.901C88.4377 198.906 91.8612 198.91 95.2826 198.88C97.7817 198.858 100.281 198.83 102.778 198.8C103.014 198.798 107.976 198.822 107.978 198.771C108.052 196.754 107.937 194.737 107.698 192.732C107.264 189.109 105.496 186.909 103.849 183.76C102.937 182.02 102.149 180.205 101.495 178.353C98.6718 170.364 98.6614 163.29 98.4636 157.935C98.3306 154.366 99.7302 153.527 99.5375 149.962L52.4545 154.485C51.1226 157.875 50.0404 161.124 49.445 164.724Z" fill="black"/>
<path d="M53.9871 115.814C53.9543 116.101 54.3791 116.631 54.6947 116.736C56.1334 117.215 57.5932 117.648 59.0724 117.967C60.231 118.217 60.5561 117.929 60.6647 116.671C60.8476 114.556 61.1643 112.457 61.1005 110.328C61.0241 107.809 60.8902 104.819 60.0466 102.426C59.6965 101.436 59.104 100.835 58.074 101.648C56.5957 102.812 55.6006 105.455 55.1657 107.248C54.4892 110.034 54.306 112.946 53.9871 115.814Z" fill="#767676"/>
<path d="M88.4929 103.271C87.6604 107.404 88.0165 111.657 88.5272 115.808C88.6254 116.609 89.0609 116.976 89.837 116.943C90.7364 116.902 91.6569 116.948 92.5315 116.772C94.1026 116.451 94.4605 115.886 94.215 114.296C93.9499 112.595 93.7005 110.885 93.2999 109.213C92.8301 107.256 92.2055 105.337 91.6459 103.403C91.6157 103.298 91.5734 103.195 91.5343 103.093C91.239 102.342 90.8384 101.643 89.9319 101.699C89.0302 101.754 88.648 102.496 88.4929 103.271Z" fill="#767676"/>
<path d="M52.4545 154.486C51.1229 157.875 50.0407 161.125 49.445 164.725C48.7623 168.853 48.1448 173.075 48.5711 177.264C48.9129 180.635 50.0222 183.846 51.2721 186.973C52.0163 188.838 52.9243 190.641 53.5734 192.543C53.897 193.489 54.1646 194.456 54.3054 195.445C54.4071 196.176 54.2595 197.305 54.7621 197.897C55.7691 199.083 57.5923 198.942 58.9793 198.962C61.0492 198.994 63.1226 198.98 65.1942 198.977C69.4025 198.97 73.6126 198.935 77.8209 198.916C80.2198 198.904 82.6172 198.898 85.0163 198.901C88.4377 198.906 91.8612 198.911 95.2826 198.88C97.7817 198.858 100.281 198.83 102.778 198.801C103.014 198.798 107.976 198.822 107.978 198.772C108.052 196.754 107.937 194.737 107.698 192.732C107.264 189.109 105.496 186.909 103.849 183.761C102.937 182.02 102.149 180.206 101.495 178.354C98.6718 170.364 98.6614 163.291 98.4636 157.935C98.3306 154.366 99.7302 153.527 99.5375 149.962" stroke="#575757" stroke-width="2" stroke-miterlimit="10"/>
<path d="M99.5372 149.962C100.405 149.143 101.224 148.292 101.961 147.375C102.645 146.525 103.259 145.619 103.775 144.629C104.824 142.623 105.58 140.475 106.496 138.405C107.253 136.686 106.81 135.091 106.001 133.469C104.452 130.362 102.981 127.214 101.486 124.079C101.25 123.584 101.064 123.064 100.848 122.558C99.9256 120.377 99.9587 118.064 99.8209 115.75C99.4057 108.831 96.5722 102.806 92.7959 97.1848C92.3281 96.4875 91.5914 95.9032 90.8585 95.4777C89.6304 94.7623 88.5837 94.9888 87.619 96.026C85.4865 98.3203 83.6619 100.846 82.7219 103.879C81.5968 107.518 80.6068 111.201 79.603 114.879C79.4106 115.582 79.186 115.92 78.3744 115.9C75.7694 115.835 73.159 115.811 70.5561 115.894C69.5968 115.926 69.2514 115.634 69.1882 114.707C68.8541 109.768 67.2391 105.151 65.5168 100.59C64.6291 98.2354 63.5024 95.9485 61.7037 94.0998C60.0956 92.4476 58.5469 92.5252 56.9358 94.1866C55.5971 95.5654 54.9579 97.2984 54.1247 98.9601C51.7655 103.662 50.3907 108.646 49.6536 113.843C49.4538 115.255 49.4195 116.779 48.8444 118.033C47.1086 121.821 45.0749 125.466 43.2935 129.236C42.2921 131.355 41.6344 133.668 42.2211 136.01C43.0026 139.124 44.8854 141.8 46.5022 144.504C47.7696 146.621 49.0881 148.782 50.8215 150.545L52.4546 154.486" stroke="#575757" stroke-width="2" stroke-miterlimit="10"/>
<path d="M94.2523 159.689C87.0768 162.855 79.0752 164.032 71.3089 163.326C65.8964 162.856 58.6004 162.502 54.7173 159.327C67.7789 161.68 81.1933 162.15 94.1565 159.171C94.2737 159.171 94.2737 159.524 94.2523 159.689Z" fill="#E73827" stroke="black" stroke-miterlimit="10"/>
<path d="M78.2738 160.303C78.266 160.396 78.1929 160.496 78.1551 160.592C78.0659 160.533 77.9639 160.487 77.8929 160.411C77.8881 160.406 77.8836 160.401 77.88 160.395C77.8797 160.394 77.8794 160.394 77.8794 160.394C77.8705 160.374 77.8603 160.353 77.8493 160.333C77.849 160.333 77.849 160.332 77.8487 160.332C77.8484 160.332 77.8484 160.332 77.8484 160.331C77.8454 160.323 77.8421 160.314 77.8395 160.306V160.305C77.8329 160.225 78.1315 160.353 78.2392 160.2C78.2508 160.235 78.2621 160.269 78.2738 160.303C78.2738 160.303 78.2738 160.303 78.2738 160.303Z" fill="black"/>
<path d="M75.3959 157.821C75.7694 157.177 75.8004 156.522 75.4126 155.86C75.3756 155.797 75.4174 155.608 75.4747 155.58C75.9871 155.316 76.4921 155.016 77.0377 154.846C77.5881 154.674 77.9934 154.942 78.1599 155.497C78.2646 155.845 78.2917 156.218 78.3481 156.542C78.2983 156.904 78.2789 157.227 78.2058 157.537C78.0158 158.35 77.4711 158.723 76.6538 158.573C76.2726 158.503 75.9072 158.346 75.5364 158.223C75.3261 158.151 75.2682 158.041 75.3959 157.821Z" fill="#8BD6DC"/>
<path d="M77.8492 160.333C77.8603 160.353 77.8702 160.374 77.8795 160.394C77.8663 160.376 77.8567 160.355 77.8486 160.332C77.8489 160.333 77.8489 160.333 77.8492 160.333Z" fill="black"/>
<path d="M77.8481 160.331C77.8426 160.321 77.8399 160.312 77.8394 160.306C77.842 160.314 77.8449 160.323 77.8481 160.331Z" fill="black"/>
<path d="M76.2976 164.075C76.0912 164.145 75.9042 164.264 75.6769 164.277C75.6491 164.278 75.6211 164.28 75.5931 164.281C75.4949 164.257 75.4057 164.205 75.3198 164.095C75.4069 163.969 75.5015 163.917 75.6113 163.897C75.6465 163.897 75.6813 163.898 75.7165 163.899C75.917 163.902 76.1046 164.013 76.2976 164.075Z" fill="black"/>
<path d="M75.4372 167.043C75.2001 167.689 74.548 168.148 73.8357 168.167C73.2687 168.184 72.6229 167.724 72.3702 167.123C72.1787 166.667 72.2282 166.589 72.7037 166.658C73.5297 166.658 74.355 166.654 75.1798 166.66C75.4978 166.662 75.5464 166.744 75.4372 167.043Z" fill="#E73827"/>
<path d="M75.1899 156.811C75.194 157.596 74.5742 158.23 73.7998 158.23C73.0493 158.231 72.4092 157.604 72.3967 156.854C72.3841 156.09 73.0419 155.376 73.7494 155.383C74.539 155.392 75.1851 156.032 75.1899 156.811Z" fill="#8BD6DC"/>
<path d="M72.4363 164.276C72.2024 164.257 72.0005 164.155 71.7827 164.093C71.9879 164.025 72.1866 163.903 72.3987 163.897C72.4375 163.902 72.4756 163.909 72.5132 163.92C72.5657 163.934 72.6412 164.018 72.6376 164.064C72.6317 164.132 72.5771 164.23 72.521 164.253C72.4935 164.263 72.4652 164.27 72.4363 164.276Z" fill="black"/>
<path d="M72.6369 164.064C72.6408 164.018 72.565 163.934 72.5125 163.92C72.4752 163.909 72.4367 163.902 72.3979 163.897C72.4 163.897 72.4021 163.897 72.4042 163.897C73.4715 163.878 74.5436 163.88 75.6111 163.897C75.5017 163.917 75.4068 163.969 75.3197 164.095C75.4056 164.205 75.4948 164.257 75.593 164.281C75.0781 164.305 74.5474 164.287 74.0228 164.287C73.5007 164.287 72.9713 164.307 72.4606 164.278C72.4522 164.278 72.4436 164.277 72.4352 164.276C72.4642 164.27 72.4925 164.263 72.5197 164.253C72.5763 164.23 72.6312 164.132 72.6369 164.064Z" fill="black"/>
<path d="M72.3983 163.897C72.3244 163.887 72.2489 163.886 72.1749 163.886C71.3672 163.888 70.5606 163.895 69.7534 163.897C69.6099 163.897 69.4664 163.877 69.2788 163.863C69.3191 163.696 69.357 163.575 69.3776 163.451C69.4107 163.249 69.4441 163.047 69.4775 162.846C69.5386 162.477 69.5995 162.108 69.657 161.738C69.6845 161.565 69.7087 161.39 69.737 161.217C69.7617 161.064 69.8545 160.475 69.8876 160.307C70.1952 159.605 70.679 159.116 71.4507 158.92C71.8158 158.827 72.1529 158.628 72.5132 158.509C72.6638 158.46 72.8667 158.44 73.0063 158.499C73.5435 158.729 74.0658 158.707 74.6051 158.517C74.7432 158.469 74.927 158.478 75.0684 158.524C75.497 158.665 75.903 158.893 76.3391 158.984C77.0556 159.132 77.4762 159.584 77.7956 160.183C77.815 160.22 77.8267 160.264 77.8398 160.305V160.306C77.8401 160.313 77.8431 160.321 77.8487 160.331C77.8487 160.332 77.8487 160.332 77.849 160.332C77.8571 160.355 77.8666 160.375 77.8798 160.394C77.8798 160.395 77.88 160.395 77.8803 160.395C77.9746 160.602 77.9937 160.829 78.0316 160.95C78.1241 161.243 78.1751 161.553 78.2401 161.858C78.3803 162.508 78.4763 163.164 78.5879 163.82C78.0399 163.952 77.4004 163.875 76.839 163.879C76.5431 163.88 76.2469 163.882 75.9501 163.883C75.8218 163.885 75.7112 163.878 75.6121 163.897C74.5443 163.88 73.4725 163.878 72.4052 163.897C72.4025 163.897 72.4004 163.897 72.3983 163.897Z" fill="#FFFC55"/>
<path d="M72.1246 155.922C71.8147 156.576 71.8344 157.209 72.2031 157.827C72.3158 158.018 72.2919 158.142 72.0858 158.212C71.6077 158.374 71.1259 158.526 70.6457 158.683C69.9721 158.611 69.602 158.359 69.4072 157.726C69.1858 157.007 69.1784 156.275 69.3776 155.55C69.5495 154.921 69.9322 154.66 70.5478 154.858C71.0704 155.026 71.557 155.314 72.0444 155.577C72.116 155.615 72.1658 155.834 72.1246 155.922Z" fill="#88D7DC"/>
<path d="M72.7038 166.658C72.2283 166.589 72.1788 166.667 72.3703 167.124C72.623 167.724 73.2688 168.184 73.8358 168.168C74.5482 168.148 75.2002 167.69 75.4374 167.043C75.5465 166.745 75.4979 166.663 75.1799 166.661C74.3552 166.655 73.5298 166.658 72.7038 166.658ZM69.2943 161.42C69.3197 161.229 69.3298 160.661 69.4835 160.326C69.487 160.381 69.5309 160.455 69.5601 160.522C69.5652 160.535 69.5103 160.849 69.5744 160.559C69.6675 160.509 69.7639 160.463 69.8524 160.406C69.8763 160.391 69.8736 160.339 69.8877 160.307C69.8545 160.474 69.7621 161.064 69.737 161.216C69.7087 161.39 69.6845 161.565 69.6571 161.738C69.5998 162.107 69.5389 162.477 69.4775 162.845C69.4441 163.047 69.4104 163.249 69.3776 163.451C69.3573 163.575 69.3194 163.695 69.2788 163.862C69.4665 163.876 69.6099 163.896 69.7534 163.896C70.5609 163.894 71.3675 163.888 72.175 163.886C72.2489 163.886 72.3244 163.887 72.3984 163.897C72.1863 163.902 71.9876 164.024 71.7824 164.092C72.0002 164.155 72.2021 164.256 72.436 164.275C72.3554 164.292 72.2689 164.293 72.1866 164.293C70.9931 164.294 69.7988 164.3 68.6053 164.283C68.3043 164.278 68.2026 164.379 68.2208 164.691C68.2435 165.071 68.2396 165.454 68.222 165.834C68.2089 166.112 68.3016 166.204 68.5713 166.201C69.788 166.187 71.0048 166.192 72.2209 166.191C74.5183 166.188 76.8143 166.185 79.1117 166.182C79.5869 166.181 79.5872 166.178 79.5908 165.688C79.5914 165.426 79.5908 165.165 79.5908 164.903C79.5908 164.304 79.5908 164.305 79.0011 164.303C78.3239 164.302 77.6462 164.299 76.9691 164.298C76.655 164.297 76.3415 164.296 76.0274 164.295C75.8612 164.295 75.7201 164.311 75.5937 164.28C75.6217 164.279 75.6498 164.278 75.6775 164.276C75.9048 164.264 76.0918 164.144 76.2982 164.074C76.1052 164.012 75.9176 163.901 75.7172 163.897C75.682 163.897 75.6471 163.896 75.6119 163.896C75.7109 163.877 75.8216 163.884 75.9498 163.882C76.2466 163.881 76.5428 163.88 76.8387 163.878C77.4001 163.874 78.0397 163.951 78.5876 163.819C78.4761 163.163 78.38 162.507 78.2398 161.857C78.1748 161.552 78.1238 161.242 78.0313 160.949C77.9934 160.828 77.9746 160.601 77.8801 160.394C77.884 160.4 77.8881 160.405 77.8929 160.41C77.9639 160.486 78.0659 160.532 78.1551 160.592C78.193 160.496 78.2661 160.395 78.2738 160.302C78.6154 161.347 78.7156 162.462 78.9957 163.524C79.0652 163.788 79.2093 163.909 79.4882 163.903C79.8774 163.896 79.9711 164.008 79.975 164.409C79.9806 164.921 79.9792 165.432 79.9786 165.944C79.978 166.529 79.9171 166.591 79.3435 166.592C78.3657 166.595 77.3876 166.601 76.4101 166.586C76.1169 166.582 75.9749 166.663 75.892 166.99C75.648 167.952 74.8345 168.575 73.9012 168.575C72.9803 168.575 72.1547 167.932 71.9181 166.976C71.8403 166.66 71.7025 166.586 71.4253 166.589C70.4243 166.599 69.4238 166.593 68.423 166.591C67.921 166.591 67.8115 166.473 67.8095 165.937C67.808 165.449 67.8047 164.961 67.8136 164.472C67.822 164.022 67.9407 163.88 68.3646 163.906C68.8371 163.935 68.9981 163.496 69.0575 163.105C69.1434 162.547 69.2198 161.982 69.2943 161.42Z" fill="black"/>
<path d="M69.5739 160.559C69.5098 160.849 69.5646 160.535 69.5596 160.523C69.5303 160.455 69.4865 160.381 69.4829 160.326C69.5303 160.222 69.5915 160.141 69.6711 160.1C69.9312 159.966 69.9133 160.174 69.8868 160.307C69.8728 160.34 69.8755 160.391 69.8516 160.406C69.7633 160.463 69.667 160.509 69.5739 160.559Z" fill="black"/>
<path d="M72.1246 155.922C72.1661 155.834 72.1159 155.615 72.0444 155.577C71.557 155.314 71.0704 155.025 70.5478 154.858C69.9321 154.66 69.5494 154.921 69.3776 155.55C69.1787 156.275 69.1858 157.007 69.4072 157.726C69.6022 158.359 69.9721 158.611 70.6457 158.683C71.1259 158.527 71.6077 158.374 72.0858 158.212C72.2916 158.142 72.3158 158.018 72.203 157.827C71.8344 157.209 71.8147 156.576 72.1246 155.922ZM75.4127 155.86C75.8004 156.522 75.7694 157.177 75.396 157.821C75.2683 158.041 75.3262 158.151 75.5368 158.222C75.9072 158.346 76.2726 158.503 76.6542 158.573C77.4712 158.723 78.0162 158.349 78.2062 157.537C78.2792 157.227 78.2983 156.904 78.3484 156.542C78.2924 156.217 78.2649 155.845 78.1602 155.496C77.9938 154.942 77.5884 154.674 77.0381 154.846C76.4925 155.016 75.9878 155.316 75.475 155.58C75.4174 155.609 75.376 155.797 75.4127 155.86ZM73.7491 155.383C73.0415 155.375 72.3841 156.09 72.3963 156.854C72.4089 157.604 73.049 158.231 73.7995 158.23C74.5739 158.229 75.1937 157.596 75.1895 156.81C75.1848 156.032 74.5387 155.392 73.7491 155.383ZM78.2393 160.201C78.1316 160.354 77.833 160.226 77.8396 160.306C77.8264 160.264 77.8148 160.22 77.7954 160.183C77.476 159.584 77.0557 159.132 76.3389 158.984C75.9028 158.894 75.4968 158.665 75.0681 158.525C74.9267 158.478 74.743 158.469 74.6049 158.518C74.0653 158.707 73.5433 158.73 73.0061 158.499C72.8665 158.44 72.6636 158.46 72.513 158.51C72.1526 158.628 71.8156 158.828 71.4505 158.92C70.6788 159.116 70.1949 159.605 69.8874 160.307C69.9137 160.174 69.9316 159.966 69.6717 160.1C69.5921 160.141 69.5309 160.223 69.4835 160.326C69.4823 160.312 69.4841 160.299 69.4895 160.288C69.6339 159.979 69.8027 159.68 69.9754 159.385C70.0392 159.277 70.1389 159.19 70.2379 159.075C70.1598 159.027 70.115 158.987 70.0628 158.969C69.44 158.749 69.1133 158.28 68.9681 157.663C68.7989 156.946 68.7846 156.226 68.9728 155.51C69.2213 154.565 69.8796 154.16 70.8076 154.463C71.3308 154.633 71.8182 154.928 72.3006 155.204C72.5094 155.323 72.6499 155.372 72.8751 155.234C73.4744 154.87 74.1044 154.879 74.706 155.226C74.9399 155.361 75.0938 155.343 75.3098 155.196C75.8899 154.798 76.4874 154.424 77.2233 154.386C77.8786 154.354 78.3052 154.601 78.5286 155.217C78.8654 156.144 78.8374 157.086 78.5191 158.013C78.386 158.401 78.2885 158.468 77.5252 159.041C77.7173 159.307 77.9192 159.567 78.0988 159.842C78.1823 159.969 78.2554 160.12 78.2733 160.267C78.2748 160.279 78.2748 160.291 78.2739 160.304C78.2622 160.269 78.2509 160.235 78.2393 160.201Z" fill="black"/>
<path d="M68.5708 166.202C68.3011 166.205 68.2084 166.113 68.2215 165.834C68.2394 165.454 68.243 165.071 68.2203 164.691C68.2021 164.38 68.3038 164.279 68.6048 164.284C69.7983 164.301 70.9926 164.295 72.1861 164.294C72.2687 164.294 72.3552 164.292 72.4355 164.276C72.4438 164.277 72.4525 164.277 72.4608 164.278C72.9715 164.307 73.5006 164.287 74.023 164.287C74.5474 164.287 75.0783 164.305 75.5932 164.281C75.7196 164.312 75.8607 164.296 76.0269 164.296C76.341 164.297 76.6545 164.298 76.9686 164.299C77.6457 164.3 78.3234 164.303 79.0006 164.304C79.5903 164.305 79.5903 164.305 79.5903 164.903C79.5903 165.166 79.5909 165.427 79.5903 165.689C79.5867 166.179 79.5861 166.181 79.1112 166.182C76.8138 166.186 74.5178 166.189 72.2204 166.191C71.0042 166.192 69.7875 166.188 68.5708 166.202Z" fill="#FFF001"/>
<path d="M45.8487 139.055C44.7128 138.958 43.9632 139.419 43.5131 140.024C42.4148 141.501 42.2588 143.155 42.421 144.765C42.5944 146.48 42.8536 148.235 43.6965 149.874C44.1306 150.718 44.7662 151.501 45.3374 152.308C46.5703 154.051 47.7038 155.842 48.2998 157.725C49.4038 161.214 47.3566 164.549 48.0531 168.374C48.1506 168.907 49.9631 169.634 50.6578 169.793C51.6108 170.01 52.7548 169.988 53.5983 169.6C55.4755 168.736 55.261 166.65 55.5044 165.349C55.8832 163.327 56.3823 161.28 56.0067 159.241C55.8788 158.543 55.6843 157.85 55.4051 157.17C54.7333 155.536 53.6171 153.994 52.5642 152.45C51.6726 151.142 50.7556 149.841 50.0221 148.492C49.6313 147.774 49.2901 147.045 49.0234 146.304C48.664 145.305 48.3973 144.293 48.2151 143.274C48.0614 142.416 48.0507 141.443 47.6453 140.616C47.3936 140.101 47.1907 139.478 46.4104 139.181C46.2296 139.111 46.0411 139.071 45.8487 139.055Z" fill="black" stroke="#575757" stroke-width="2" stroke-miterlimit="10"/>
<path d="M101.909 136.915C100.766 137.654 102.069 139.939 102.103 140.824C102.17 142.547 101.706 144.279 100.61 145.893C98.3185 149.266 94.0574 151.824 92.9278 155.475C92.0025 158.465 92.4485 161.523 93.8433 164.442C94.3695 165.544 94.87 167.318 96.6463 168.029C100.143 169.427 101.236 166.493 101.028 165.179C100.666 162.882 98.7606 160.743 98.9682 158.407C99.5746 151.627 112.005 145.181 106.673 138.198C106.135 137.495 103.178 136.096 101.909 136.915Z" fill="black" stroke="#575757" stroke-width="2" stroke-miterlimit="10"/>
<path d="M80.379 141.996C81.0135 143.488 80.2175 145.386 78.704 145.994C78.5691 146.048 78.4181 146.06 78.1289 146.124C78.2956 145.915 78.4406 145.703 78.566 145.49C78.8036 145.141 78.9767 144.747 79.0615 144.363C79.0676 144.335 79.0733 144.308 79.0788 144.281C79.2351 143.714 79.289 143.136 79.2777 142.546C79.2777 142.54 79.2777 142.534 79.2777 142.528C79.2861 141.893 79.2207 141.269 79.078 140.659C79.078 140.658 79.078 140.658 79.078 140.658C79.0427 140.443 79.0042 140.228 78.9639 140.011C79.6071 140.656 80.0702 141.271 80.379 141.996Z" fill="#BE9857"/>
<path d="M79.2772 142.528C79.2772 142.534 79.2772 142.541 79.2772 142.546C79.2694 143.117 79.2017 143.696 79.0784 144.281C78.9655 144.69 78.7999 145.093 78.5658 145.49C78.3073 145.871 77.973 146.199 77.5941 146.403C76.8945 146.781 76.0433 146.973 75.2551 147.046C74.9663 147.072 74.6731 147.08 74.3813 147.07C74.2334 147.066 74.0861 147.058 73.9411 147.045C73.0589 146.972 72.1463 146.767 71.3891 146.289C71.0695 146.087 70.7737 145.803 70.5549 145.494C70.363 145.223 70.1931 144.91 70.0713 144.601C69.9998 144.422 69.9523 144.231 69.9222 144.032C69.8721 143.368 69.8935 142.7 69.9888 142.039C70.0333 141.73 70.097 141.426 70.1616 141.121C70.1969 140.952 70.2308 140.784 70.2597 140.614C70.2669 140.57 70.2721 140.524 70.2768 140.479C70.5312 139.685 70.8837 138.919 71.249 138.153C72.0913 136.393 72.9709 134.635 73.1677 132.637C73.2488 131.813 73.7289 131.437 74.5182 131.433C75.3362 131.429 75.7851 131.809 75.9212 132.638C76.1107 133.803 76.4436 134.921 76.8366 136.037C77.1053 136.8 77.5148 137.425 77.9493 138.078C78.4978 138.902 78.87 139.765 79.0772 140.658C79.0772 140.658 79.0772 140.658 79.0772 140.659C79.1837 141.294 79.2648 141.917 79.2772 142.528Z" fill="#DBBA84"/>
<path d="M70.4133 145.403C70.5641 145.673 70.8281 145.881 70.9459 146.124C69.6651 146.124 68.3757 144.301 68.5722 142.979C68.6391 142.525 68.8469 142.074 69.0709 141.677C69.3621 141.154 69.7664 140.486 70.299 140.179C70.2894 140.276 70.286 140.378 70.277 140.478C70.0637 141.14 69.9195 141.822 69.8923 142.537C69.8726 143.026 69.8478 143.549 69.9224 144.032C69.9326 144.165 69.9456 144.298 69.9615 144.43C70.0009 144.768 70.2376 145.09 70.4133 145.403Z" fill="#BE9857"/>
<path d="M79.2771 142.546C79.2693 143.117 79.2015 143.696 79.0782 144.281C79.0727 144.308 79.0672 144.336 79.0609 144.362C78.9761 144.747 78.803 145.14 78.5653 145.49C78.3069 145.87 77.9726 146.198 77.5937 146.403C76.8941 146.781 76.0429 146.972 75.2547 147.046C74.9659 147.072 74.6727 147.079 74.3809 147.07C74.233 147.065 74.0857 147.057 73.9406 147.044C73.0584 146.971 72.1458 146.766 71.3887 146.288C71.0691 146.086 70.7733 145.802 70.5545 145.493C70.3626 145.223 70.1927 144.909 70.0708 144.601C69.9993 144.421 69.9519 144.231 69.9218 144.032C69.8468 143.549 69.8717 143.026 69.8917 142.537C69.9189 141.821 70.063 141.14 70.2763 140.478C70.5308 139.685 70.8833 138.919 71.2486 138.153C72.0908 136.392 72.9704 134.635 73.1673 132.637C73.2483 131.813 73.7285 131.437 74.5178 131.433C75.3358 131.429 75.7847 131.809 75.9207 132.638C76.1103 133.803 76.4432 134.92 76.8362 136.037C77.1048 136.8 77.5144 137.425 77.9488 138.077C78.4973 138.902 78.8696 139.765 79.0768 140.658" stroke="black" stroke-miterlimit="10"/>
<path d="M79.0767 140.659C79.2194 141.269 79.2851 141.893 79.2764 142.528" stroke="black" stroke-miterlimit="10"/>
<path d="M78.9634 140.011V140.012C79.6071 140.656 80.0702 141.271 80.379 141.996C81.0135 143.488 80.2175 145.386 78.704 145.994C78.5691 146.048 78.4181 146.06 78.1289 146.124C78.2956 145.915 78.4406 145.703 78.566 145.49C78.8004 145.093 78.966 144.689 79.0786 144.281C79.2349 143.714 79.2887 143.135 79.2774 142.546C79.2774 142.54 79.2774 142.534 79.2774 142.528C79.265 141.917 79.1839 141.294 79.0777 140.659C79.0777 140.658 79.0777 140.658 79.0777 140.657C79.0424 140.443 79.0039 140.228 78.9636 140.011" stroke="black" stroke-miterlimit="10"/>
<path d="M69.9221 144.032C69.9323 144.165 69.9453 144.298 69.9612 144.431C70.0009 144.768 70.2376 145.09 70.4133 145.403C70.5641 145.673 70.8281 145.881 70.9459 146.124C69.6651 146.124 68.3757 144.301 68.5722 142.979C68.6391 142.525 68.8469 142.074 69.0709 141.677C69.3621 141.154 69.7664 140.486 70.299 140.179C70.2894 140.276 70.286 140.378 70.277 140.478C70.2724 140.524 70.2675 140.569 70.2599 140.614C70.231 140.784 70.1971 140.952 70.1618 141.121C70.0973 141.426 70.0339 141.73 69.989 142.039C69.8935 142.7 69.8721 143.368 69.9221 144.032Z" stroke="black" stroke-miterlimit="10"/>
<path fill-rule="evenodd" clip-rule="evenodd" d="M67.2545 148.184C67.192 148.215 67.1318 148.251 67.067 148.276C66.4452 148.516 66.1894 148.962 66.3567 149.517C66.4953 149.978 67.1156 150.329 67.6455 150.152C68.1194 149.993 68.5883 149.762 68.9946 149.473C69.7961 148.904 70.5515 148.27 71.3278 147.666C72.2902 146.917 73.5852 146.986 74.3733 148.009C74.4344 148.089 74.4963 148.168 74.5774 148.272C74.729 148.09 74.8489 147.925 74.9898 147.782C75.6825 147.078 76.7815 146.937 77.5951 147.506C78.2084 147.935 78.7491 148.467 79.3572 148.904C79.9338 149.319 80.5416 149.696 81.1659 150.035C81.4713 150.201 81.8412 150.265 82.2007 150.112C82.594 149.944 82.8122 149.637 82.8308 149.223C82.849 148.819 82.6296 148.531 82.2678 148.355C82.152 148.299 82.0334 148.247 81.9167 148.193C81.9159 148.165 81.9153 148.137 81.9147 148.109C82.0886 148.098 82.2684 148.053 82.4363 148.081C83.3477 148.233 83.748 149.179 83.6401 149.88C83.5196 150.661 83.0024 151.067 82.3104 151.342C81.0099 151.858 79.6666 151.871 78.3138 151.69C77.6373 151.6 76.9624 151.451 76.3074 151.259C75.6738 151.074 75.0784 150.783 74.6989 150.192C74.6694 150.146 74.626 150.11 74.5889 150.068C74.5525 150.08 74.514 150.08 74.5027 150.097C74.0353 150.851 73.2731 151.145 72.4801 151.37C71.3984 151.677 70.2913 151.848 69.1651 151.779C68.3509 151.729 67.5283 151.672 66.7714 151.327C66.4858 151.196 66.1975 151.031 65.9723 150.816C65.3161 150.191 65.2898 148.9 66.1512 148.284C66.4826 148.048 66.8525 148.018 67.2316 148.09C67.2395 148.121 67.247 148.152 67.2545 148.184Z" fill="#4C4339" stroke="black" stroke-width="2" stroke-miterlimit="10"/>
<path fill-rule="evenodd" clip-rule="evenodd" d="M78.9289 129.862C78.9841 128.267 79.829 127.129 81.2788 126.491C81.2366 125.897 81.146 125.319 81.0557 124.73C81.0111 124.438 80.9732 124.144 80.9095 123.855C80.9086 123.851 80.9078 123.847 80.9063 123.843C80.8809 123.856 80.8531 123.866 80.823 123.873C80.7856 123.949 80.7176 124.011 80.6125 124.04C80.5839 124.128 80.5286 124.205 80.4435 124.249C80.0834 124.438 79.6664 124.491 79.3242 124.709C79.2536 124.754 79.1862 124.803 79.1202 124.853C79.1905 124.869 79.2635 124.885 79.3384 124.907C78.7017 125.365 78.176 125.916 77.5329 126.165C76.5288 126.554 75.4504 126.938 74.3939 126.964C72.5143 127.012 71.0769 125.847 69.511 124.755C69.3961 124.716 69.2801 124.673 69.1602 124.63C69.0511 124.591 68.9617 124.516 68.9116 124.422C68.5452 124.354 68.1793 124.28 67.8138 124.201C67.8028 124.241 67.7918 124.28 67.7799 124.317C67.7009 124.555 67.6204 124.793 67.5425 125.032C67.4276 125.382 67.3058 125.734 67.2192 126.093C67.3677 126.134 67.5159 126.177 67.6641 126.224C69.7785 126.901 70.7831 128.294 70.7122 130.51C70.6517 132.411 70.3 134.261 69.4618 135.979C69.4873 135.982 69.5134 135.985 69.5388 135.986C70.0436 136.023 70.5487 136.022 71.0543 136.017C71.336 136.014 71.6167 136.008 71.8978 136.001C72.2535 134.956 72.5206 133.878 72.6315 132.746C72.7464 131.577 73.4278 131.044 74.5467 131.04C75.7059 131.034 76.3433 131.573 76.5343 132.748C76.7239 133.913 77.0154 135.044 77.3665 136.166C78.2802 136.136 79.1917 136.017 80.0791 135.8C79.2006 133.937 78.8562 131.934 78.9289 129.862ZM71.9088 127.061C72.8796 127.19 73.8101 127.44 74.7302 127.402C75.6336 127.364 76.5251 127.036 77.462 126.826C76.1178 128.712 72.8552 128.244 71.9088 127.061Z" fill="#777777"/>
<path d="M61.887 142.536C67.8998 142.536 72.7741 137.663 72.7741 131.653C72.7741 125.643 67.8998 120.77 61.887 120.77C55.8743 120.77 51 125.643 51 131.653C51 137.663 55.8743 142.536 61.887 142.536Z" fill="white" stroke="black" stroke-miterlimit="10"/>
<path d="M87.1131 142.096C93.1258 142.096 98.0001 137.224 98.0001 131.213C98.0001 125.203 93.1258 120.331 87.1131 120.331C81.1003 120.331 76.2261 125.203 76.2261 131.213C76.2261 137.224 81.1003 142.096 87.1131 142.096Z" fill="white" stroke="black" stroke-miterlimit="10"/>
<path fill-rule="evenodd" clip-rule="evenodd" d="M62.1237 122.834C59.1135 122.714 56.7268 123.989 54.9505 126.395C52.7366 129.393 52.6538 133.609 54.741 136.689C55.8897 138.383 57.5164 139.709 59.4475 140.409C59.8426 140.553 60.2319 140.78 60.658 140.818C60.8345 140.834 61.0586 140.828 61.1813 140.676C61.7425 139.982 60.5497 139.687 60.0991 139.528C59.4565 139.302 58.8044 139.085 58.2218 138.724C57.4122 138.223 56.6866 137.594 56.0999 136.843C55.6692 136.292 55.2996 135.701 54.989 135.074C53.3661 131.802 54.3826 127.638 57.2796 125.373C59.7072 123.474 63.012 123.287 65.6387 124.901C68.69 126.777 69.7525 130.509 68.1212 133.62C66.4526 136.803 62.6178 137.832 59.6765 135.855C57.075 134.104 56.7233 130.732 58.5604 128.523C60.0664 126.712 62.7058 126.462 64.5 127.987C66.0642 129.316 66.1238 131.667 64.6283 133.03C63.6879 133.887 62.2059 133.924 61.265 133.113C60.4409 132.403 60.3188 131.228 61.0027 130.503C61.3217 130.165 61.7107 130.015 62.1703 130.172C62.408 130.253 62.6022 130.396 62.6517 130.713C62.579 130.688 62.546 130.674 62.5119 130.665C62.3188 130.613 62.1405 130.637 62.0004 130.789C61.8571 130.944 61.8285 131.126 61.8968 131.326C62.0294 131.718 62.4294 131.919 62.8242 131.79C63.636 131.525 63.9078 130.49 63.3417 129.82C62.7243 129.09 61.7043 128.904 60.8635 129.367C59.5303 130.102 59.1488 131.973 60.0701 133.259C61.0959 134.692 63.0757 135.123 64.6132 134.249C66.3438 133.264 67.1354 131.102 66.4827 129.211C65.7197 127.001 63.4109 125.73 61.1775 126.029C58.9613 126.326 57.1419 127.996 56.6044 130.182C55.9997 132.643 56.9216 135.134 58.9763 136.592C61.5694 138.431 64.9762 138.251 67.3803 136.147C70.1007 133.765 70.6947 129.579 68.7068 126.558C67.1548 124.203 64.9252 122.946 62.1237 122.834Z" fill="black"/>
<path fill-rule="evenodd" clip-rule="evenodd" d="M86.5457 122.834C89.5556 122.714 91.942 123.989 93.7192 126.395C95.9326 129.393 96.0156 133.609 93.9285 136.689C92.78 138.383 91.1524 139.709 89.2219 140.409C88.8268 140.553 88.4378 140.78 88.0114 140.818C87.8349 140.834 87.61 140.828 87.4878 140.676C86.9266 139.982 88.1194 139.687 88.5695 139.528C89.2129 139.302 89.865 139.085 90.4474 138.724C91.2569 138.223 91.9826 137.594 92.5693 136.843C92.9997 136.292 93.3696 135.701 93.6799 135.074C95.303 131.802 94.2865 127.638 91.3895 125.373C88.962 123.474 85.6571 123.287 83.0307 124.901C79.9794 126.777 78.9166 130.509 80.5476 133.62C82.2174 136.803 86.0516 137.832 88.9926 135.855C91.595 134.104 91.9455 130.732 90.1084 128.523C88.603 126.712 85.9642 126.462 84.1688 127.987C82.605 129.316 82.5456 131.667 84.0406 133.03C84.981 133.887 86.4629 133.924 87.4039 133.113C88.2282 132.403 88.3498 131.228 87.6661 130.503C87.3472 130.165 86.9584 130.015 86.4988 130.172C86.2612 130.253 86.0676 130.396 86.0175 130.713C86.0901 130.688 86.1228 130.674 86.157 130.665C86.3503 130.613 86.5283 130.637 86.6687 130.789C86.812 130.944 86.8406 131.126 86.7723 131.326C86.6395 131.718 86.2398 131.919 85.845 131.79C85.0328 131.525 84.7613 130.49 85.3274 129.82C85.9454 129.09 86.9645 128.904 87.8059 129.367C89.1385 130.102 89.52 131.973 88.5987 133.259C87.5732 134.692 85.5932 135.123 84.0559 134.249C82.3257 133.264 81.5338 131.102 82.1867 129.211C82.95 127.001 85.258 125.73 87.4913 126.029C89.7076 126.326 91.527 127.996 92.0645 130.182C92.6694 132.643 91.7472 135.134 89.6931 136.592C87.1 138.431 83.6933 138.251 81.2892 136.147C78.569 133.765 77.9751 129.579 79.9629 126.558C81.5138 124.203 83.7436 122.946 86.5457 122.834Z" fill="black"/>
</svg>
