<svg width="154" height="241" viewBox="0 0 154 241" fill="none" xmlns="http://www.w3.org/2000/svg">
<path d="M5.90051 84.5525C3.65504 89.3084 2.18011 94.4999 3.49582 99.755C5.24832 106.744 9.47037 112.751 13.0958 118.819C15.9379 123.57 18.8944 128.421 22.7814 132.377L26.4436 141.222L132.023 131.069C133.969 129.231 135.805 127.32 137.46 125.262C138.992 123.355 140.369 121.322 141.526 119.1C143.878 114.597 145.575 109.777 147.627 105.13C149.325 101.272 148.333 97.6915 146.519 94.0523C143.045 87.0783 139.745 80.0126 136.394 72.9778C135.863 71.865 135.446 70.6995 134.963 69.5627C132.894 64.6696 132.968 59.4767 132.659 54.2846C131.728 38.7562 125.374 25.2318 116.905 12.6166C115.857 11.0516 114.205 9.74017 112.562 8.78537C109.808 7.17954 107.461 7.68806 105.298 10.0158C100.515 15.1652 96.4245 20.8338 94.3168 27.6412C91.7938 35.8075 89.5737 44.0735 87.3229 52.3281C86.8915 53.9072 86.3878 54.666 84.5677 54.6205C78.7263 54.4746 72.8728 54.4204 67.036 54.6071C64.8849 54.6787 64.1103 54.023 63.9685 51.9441C63.2193 40.8585 59.5979 30.4949 55.7357 20.2597C53.7451 14.9745 51.2187 9.84187 47.1853 5.69347C43.5793 1.98534 40.1064 2.15932 36.4937 5.88819C33.4917 8.98276 32.0583 12.8722 30.19 16.6017C24.8998 27.1534 21.8168 38.3413 20.164 50.0044C19.7158 53.1745 19.6389 56.5929 18.3493 59.4078C14.4556 67.9087 9.89581 76.0904 5.90051 84.5525ZM31.4663 56.4959C30.7593 56.2604 29.8061 55.0721 29.8797 54.4271C30.5947 47.9911 31.0054 41.4553 32.5225 35.202C33.4977 31.1773 35.7291 25.2478 39.0442 22.633C41.3539 20.8097 42.6823 22.1579 43.4675 24.38C45.3598 29.7495 45.6595 36.4612 45.8308 42.1144C45.9732 46.8944 45.2629 51.6035 44.8535 56.3521C44.6094 59.1737 43.8803 59.82 41.2829 59.2593C37.9666 58.544 34.693 57.5718 31.4663 56.4959ZM107.332 54.4123C106.187 45.0985 105.389 35.5512 107.256 26.2762C107.604 24.5366 108.461 22.8725 110.482 22.7487C112.514 22.6209 113.413 24.19 114.075 25.8761C114.162 26.1042 114.257 26.3364 114.325 26.5726C115.58 30.9137 116.98 35.2187 118.034 39.6126C118.932 43.3649 119.491 47.2029 120.086 51.0207C120.636 54.5897 119.834 55.8576 116.31 56.5769C114.349 56.973 112.285 56.8686 110.269 56.9603C108.528 57.0352 107.552 56.2109 107.332 54.4123Z" fill="black"/>
<path d="M29.8805 54.4269C29.8069 55.0719 30.7594 56.2608 31.4671 56.4957C34.6932 57.5716 37.9668 58.5438 41.2838 59.2591C43.8818 59.8191 44.6108 59.1734 44.8543 56.3519C45.2644 51.6033 45.9747 46.8935 45.8316 42.1142C45.6603 36.461 45.36 29.7499 43.4684 24.3798C42.6831 22.157 41.3547 20.8095 39.045 22.6328C35.7299 25.2469 33.4985 31.1771 32.5233 35.2017C31.0062 41.4544 30.5955 47.9902 29.8805 54.4269Z" fill="#767676"/>
<path d="M107.256 26.2759C105.389 35.5509 106.187 45.0976 107.332 54.4121C107.552 56.2106 108.528 57.0343 110.269 56.9593C112.286 56.8676 114.35 56.972 116.311 56.5759C119.834 55.8566 120.637 54.5887 120.087 51.0198C119.491 47.2019 118.932 43.3646 118.035 39.6117C116.981 35.2177 115.58 30.9128 114.326 26.5717C114.257 26.3355 114.163 26.1033 114.075 25.8751C113.414 24.189 112.515 22.62 110.483 22.7478C108.461 22.8722 107.604 24.5363 107.256 26.2759Z" fill="#767676"/>
<path d="M139.29 240.679C139.819 240.674 150.945 240.727 150.949 240.615C151.115 236.086 150.858 231.559 150.321 227.06C149.348 218.929 145.385 213.991 141.69 206.924C139.646 203.018 137.88 198.946 136.412 194.789C130.081 176.857 130.058 160.982 129.614 148.963C129.317 140.953 132.455 139.069 132.023 131.068L26.4435 141.221C23.4576 148.827 21.0309 156.12 19.6951 164.2C18.164 173.466 16.7794 182.941 17.7352 192.344C18.5018 199.908 20.9894 207.115 23.792 214.134C25.4609 218.319 27.4971 222.366 28.9526 226.635C29.6783 228.758 30.2783 230.928 30.594 233.147C30.8221 234.79 30.491 237.322 31.6181 238.651C33.8763 241.312 37.9646 240.996 41.0749 241.042C45.7164 241.114 50.3658 241.083 55.0113 241.074C64.448 241.058 73.8888 240.981 83.3256 240.937C88.7048 240.912 94.0807 240.898 99.4606 240.905C107.133 240.916 114.81 240.926 122.482 240.857C128.085 240.808 133.69 240.745 139.29 240.679Z" fill="black"/>
<path d="M26.4435 141.222C23.4576 148.828 21.0309 156.121 19.6951 164.201C18.164 173.467 16.7794 182.943 17.7352 192.345C18.5018 199.909 20.9894 207.116 23.792 214.135C25.4609 218.32 27.4971 222.367 28.9526 226.636C29.6783 228.759 30.2783 230.929 30.594 233.148C30.8221 234.791 30.491 237.323 31.6181 238.652C33.8763 241.313 37.9646 240.997 41.0749 241.043C45.7164 241.115 50.3658 241.084 55.0113 241.076C64.448 241.06 73.8888 240.983 83.3256 240.938C88.7048 240.913 94.0807 240.899 99.4606 240.906C107.133 240.917 114.81 240.927 122.482 240.858C128.087 240.809 133.691 240.746 139.291 240.68C139.82 240.675 150.947 240.728 150.95 240.616C151.116 236.087 150.859 231.56 150.323 227.061C149.349 218.93 145.386 213.992 141.692 206.926C139.648 203.019 137.881 198.947 136.413 194.79C130.083 176.858 130.059 160.983 129.616 148.964C129.318 140.954 132.456 139.07 132.024 131.069" stroke="#575757" stroke-width="6" stroke-miterlimit="10"/>
<path d="M132.022 131.069C133.969 129.23 135.804 127.32 137.459 125.261C138.991 123.355 140.369 121.322 141.525 119.1C143.878 114.597 145.574 109.776 147.626 105.13C149.324 101.272 148.332 97.6913 146.518 94.052C143.044 87.0781 139.744 80.0124 136.393 72.9775C135.862 71.8648 135.446 70.6992 134.962 69.5625C132.893 64.6694 132.967 59.4765 132.658 54.2843C131.727 38.7559 125.373 25.2315 116.904 12.6164C115.856 11.0513 114.204 9.73993 112.561 8.78513C109.807 7.1793 107.46 7.68781 105.297 10.0156C100.515 15.165 96.4237 20.8335 94.316 27.6409C91.7929 35.8072 89.5729 44.0732 87.322 52.3279C86.8906 53.9069 86.3869 54.6657 84.5668 54.6202C78.7254 54.4743 72.8719 54.4201 67.0351 54.6068C64.884 54.6784 64.1094 54.0227 63.9676 51.9438C63.2184 40.8582 59.5971 30.4946 55.7349 20.2594C53.7442 14.9743 51.2178 9.84163 47.1844 5.69324C43.5784 1.98511 40.1055 2.15906 36.4928 5.88794C33.4908 8.9825 32.0574 12.872 30.1892 16.6015C24.8989 27.1531 21.816 38.3411 20.1631 50.0041C19.715 53.1743 19.638 56.5927 18.3484 59.4076C14.4561 67.9091 9.8956 76.0908 5.90097 84.5522C3.65549 89.3081 2.1806 94.4997 3.49631 99.7547C5.24881 106.743 9.47086 112.751 13.0963 118.819C15.9384 123.57 18.8949 128.421 22.7818 132.377L26.444 141.222" stroke="#575757" stroke-width="6" stroke-miterlimit="10"/>
<path d="M11.6304 106.589C9.08322 106.37 7.40228 107.405 6.39292 108.763C3.93005 112.077 3.58026 115.791 3.94413 119.404C4.33276 123.253 4.91403 127.192 6.80432 130.872C7.77756 132.766 9.20296 134.523 10.4839 136.334C13.2484 140.246 15.7902 144.266 17.1266 148.492C19.6022 156.323 15.0116 163.808 16.5735 172.392C16.7922 173.588 20.8564 175.219 22.4143 175.575C24.5514 176.063 27.1166 176.015 29.0082 175.143C33.2175 173.204 32.7366 168.523 33.2824 165.603C34.1319 161.065 35.251 156.47 34.4089 151.895C34.1219 150.328 33.6858 148.771 33.0597 147.246C31.5533 143.577 29.0504 140.117 26.6892 136.651C24.6898 133.717 22.6337 130.796 20.9889 127.769C20.1126 126.158 19.3474 124.521 18.7494 122.857C17.9434 120.616 17.3454 118.345 16.9367 116.058C16.5922 114.132 16.5681 111.948 15.6591 110.091C15.0946 108.937 14.6397 107.538 12.8899 106.871C12.4845 106.716 12.0618 106.626 11.6304 106.589Z" fill="black" stroke="#575757" stroke-width="4" stroke-miterlimit="10"/>
<path d="M137.34 101.785C134.777 103.443 137.7 108.572 137.776 110.559C137.925 114.427 136.885 118.314 134.428 121.935C129.289 129.507 119.734 135.248 117.201 143.441C115.126 150.152 116.126 157.015 119.254 163.567C120.434 166.041 121.556 170.023 125.539 171.617C133.379 174.756 135.831 168.171 135.364 165.221C134.552 160.066 130.281 155.266 130.746 150.023C132.106 134.807 159.981 120.339 148.024 104.667C146.818 103.089 140.185 99.9488 137.34 101.785Z" fill="black" stroke="#575757" stroke-width="4" stroke-miterlimit="10"/>
<path d="M53.8903 98.9707C55.1378 98.0245 55.1967 96.2 55.103 94.2281C55.0114 92.3098 54.7633 90.4056 54.5954 88.4926C54.3358 85.5426 53.8281 82.5571 52.4255 79.9135C50.7425 76.742 48.0335 73.7351 44.7171 72.249C43.0034 71.4809 40.867 70.9771 38.9807 70.9771C35.384 70.9771 31.9332 72.4711 29.3593 74.9294C24.8697 79.2156 23.7152 84.9411 23.1045 90.8773C22.855 93.3008 21.1748 98.5083 24.6945 99.4196C25.8911 99.7294 27.2503 99.532 28.4664 99.4732C30.3426 99.3815 32.2209 99.4625 34.0978 99.4625C38.558 99.4625 43.0803 99.2323 47.5332 99.4457C48.9091 99.512 50.2917 99.6993 51.6703 99.6431C52.6602 99.6023 53.3766 99.3607 53.8903 98.9707Z" fill="#B0FF27"/>
<path d="M43.3304 92.4728C43.3304 99.1129 41.3063 104.496 38.8087 104.496C36.3124 104.496 34.2876 99.1129 34.2876 92.4728C34.2876 85.8321 36.3117 82.3722 38.8093 82.3722C41.307 82.3722 43.3304 85.8327 43.3304 92.4728Z" fill="black"/>
<path d="M127.77 98.5511C129.017 97.605 129.076 95.7803 128.982 93.8085C128.891 91.8895 128.643 89.9853 128.475 88.073C128.215 85.1223 127.708 82.1368 126.305 79.4939C124.622 76.3224 121.913 73.3154 118.597 71.8287C116.883 71.0606 114.746 70.5568 112.86 70.5568C109.263 70.5568 105.813 72.0515 103.239 74.5091C98.7491 78.7953 97.5946 84.5214 96.9839 90.457C96.7344 92.8804 95.0542 98.0887 98.5739 99C99.7705 99.3098 101.13 99.1124 102.346 99.0535C104.222 98.9619 106.1 99.0428 107.977 99.0428C112.437 99.0422 116.96 98.8126 121.413 99.0261C122.788 99.0917 124.171 99.279 125.55 99.2228C126.54 99.182 127.256 98.9405 127.77 98.5511Z" fill="#B0FF27"/>
<path d="M117.21 92.0527C117.21 98.6935 115.186 104.076 112.688 104.076C110.192 104.076 108.167 98.6935 108.167 92.0527C108.167 85.412 110.191 81.9528 112.689 81.9528C115.186 81.9528 117.21 85.4126 117.21 92.0527Z" fill="black"/>
<path d="M79.2938 101.226L70.6885 101.242L83.6991 114.842" stroke="#767676" stroke-width="3" stroke-miterlimit="10"/>
<path d="M72.2086 101.226L80.8139 101.241L67.8032 114.842" stroke="#767676" stroke-width="3" stroke-miterlimit="10"/>
</svg>
