<svg width="25" height="19" viewBox="0 0 25 19" fill="none" xmlns="http://www.w3.org/2000/svg">
<g clip-path="url(#clip0_104_1985)">
<path d="M0 14.6342V16.1101C0 17.3303 4.08827 18.3223 9.1273 18.3223C14.1663 18.3223 18.2546 17.3303 18.2546 16.1101V14.6342C16.2913 15.6401 12.7022 16.1101 9.1273 16.1101C5.55244 16.1101 1.96332 15.6401 0 14.6342ZM15.2122 5.04932C20.2512 5.04932 24.3395 4.05731 24.3395 2.83716C24.3395 1.61702 20.2512 0.625 15.2122 0.625C10.1731 0.625 6.08486 1.61702 6.08486 2.83716C6.08486 4.05731 10.1731 5.04932 15.2122 5.04932ZM0 11.0083V12.7919C0 14.012 4.08827 15.0041 9.1273 15.0041C14.1663 15.0041 18.2546 14.012 18.2546 12.7919V11.0083C16.2913 12.1835 12.6974 12.7919 9.1273 12.7919C5.55719 12.7919 1.96332 12.1835 0 11.0083ZM19.7758 11.3886C22.4997 11.0049 24.3395 10.2928 24.3395 9.47365V7.99772C23.2366 8.56459 21.6155 8.95172 19.7758 9.19022V11.3886ZM9.1273 6.15541C4.08827 6.15541 0 7.39283 0 8.92061C0 10.4484 4.08827 11.6858 9.1273 11.6858C14.1663 11.6858 18.2546 10.4484 18.2546 8.92061C18.2546 7.39283 14.1663 6.15541 9.1273 6.15541ZM19.5524 8.10142C22.4047 7.72812 24.3395 6.99534 24.3395 6.15541V4.67948C22.6519 5.54706 19.752 6.01369 16.7001 6.1243C18.1025 6.61858 19.134 7.28223 19.5524 8.10142Z" fill="white"/>
</g>
<defs>
<clipPath id="clip0_104_1985">
<rect width="24.3395" height="17.6973" fill="white" transform="translate(0 0.625)"/>
</clipPath>
</defs>
</svg>
