<svg width="239" height="273" viewBox="0 0 239 273" fill="none" xmlns="http://www.w3.org/2000/svg">
<path d="M235.417 25.2681C238.752 28.5482 236.404 35.5416 233.639 39.3597C231.66 42.0889 229.135 44.0635 226.04 45.1636C225.001 45.5306 224.525 46.0884 224.756 46.9779C226.931 55.3774 223.174 63.9101 219.612 72.4449C217.231 78.153 214.109 83.6036 210.861 89.0474C205.355 98.275 205.169 107.002 209.061 114.744C210.163 116.932 209.66 117.913 208.104 119.87C202.204 127.293 199.473 135.034 200.455 143.309C201.324 150.623 201.645 158.137 199.271 166.01C196.662 174.653 193.946 183.299 187.802 191.097C187.538 191.436 187.334 191.816 186.975 192.375C189.724 192.412 192.166 192.986 193.124 195.223C193.833 196.881 194.037 198.931 193.979 200.899C193.848 205.32 191.202 208.422 185.59 211.183C186.262 216.287 186.458 221.653 180.935 225.837C176.313 229.338 171.826 228.578 167.922 225.955C165.179 231.775 160.959 235.417 154.814 235.519C150.101 235.599 146.262 234.227 145.184 229.475C137.707 231.642 131.08 231.651 125.209 228.552C118.676 225.106 111.988 221.939 103.508 222.363C100.119 222.53 96.8281 223.339 93.6353 225.155C92.4098 225.851 91.6572 225.788 90.7201 225.243C86.3028 222.683 81.5015 220.744 75.5694 221.808C72.0822 222.435 68.5116 223.598 65.0639 224.941C60.3835 226.766 55.8264 229.218 51.1391 230.992C45.3905 233.169 39.1562 232.186 35.4726 228.929C31.8306 234.148 27.1747 235.292 22.284 234.179C17.6504 233.124 15.488 229.988 16.137 224.835C11.0848 226.958 6.82298 226.895 4.05229 223.288C0.848321 219.114 1.32801 214.368 5.96977 209.297C2.40775 207.015 0.999188 203.875 2.96782 199.224C4.77182 194.952 8.15332 192.245 12.0158 190.398C11.6362 186.72 10.8492 183.17 10.9563 179.451C11.3023 167.752 13.7966 156.035 19.3255 144.347C21.6148 139.504 24.0085 134.599 25.4648 129.659C26.5858 125.841 26.4173 121.908 26.6124 118.061C26.6765 116.751 26.0124 115.573 25.8663 114.277C25.8185 113.85 26.2286 113.113 26.6369 112.733C33.6312 106.227 36.3541 98.7833 36.1259 90.7693C36.0533 88.2021 35.4962 85.754 35.185 83.2448C34.1792 75.1797 34.1474 66.9156 37.1683 58.3485C38.6335 54.1956 41.0363 50.1652 43.158 45.7854C38.0395 44.2324 36.2265 39.8866 36.8377 33.8579C37.3793 28.5117 39.3995 24.382 47.7976 20.8483C47.5074 15.9954 50.9001 12.953 55.1339 10.4184C59.4972 7.80653 63.4413 7.55644 66.7437 10.3411C69.7547 6.91743 72.6461 3.59951 77.0807 4.06963C80.837 4.46541 84.5473 5.0507 84.5821 9.75106C86.5069 8.9247 88.347 8.22423 90.1339 7.35317C95.2789 4.84399 99.9796 5.25954 104.66 6.09321C112.93 7.56589 121.22 8.98571 129.506 10.4206C134.569 11.2989 138.846 9.02524 142.536 4.71249C144.892 1.9618 145.513 1.9528 146.49 4.85475C147.65 8.31449 149.974 10.1958 154.153 10.1868C158.823 10.1761 163.427 8.74292 168.006 7.16797C175.86 4.46756 183.274 4.53415 190.526 5.39834C197.019 6.17056 198.244 6.86027 202.206 9.75492C205.542 4.06446 210.261 1.4165 216.071 2.10965C220.449 2.63177 220.912 6.28616 221.157 10.1653C225.786 8.08414 230.284 7.2453 233.019 10.8473C235.6 14.2494 234.552 18.4977 231.593 22.4547C233.055 23.5131 234.382 24.2514 235.417 25.2681ZM227.853 42.6484C233.237 39.3541 236.231 32.9331 234.776 27.8658C234.138 25.6389 232.508 24.6218 229.965 24.7516C227.226 24.8904 231.096 20.1346 231.747 18.606C232.66 16.4621 233.117 14.4132 232.122 12.6096C229.401 7.68621 222.727 10.7231 218.554 14.2855C219.574 13.4145 219.436 8.88858 219.212 7.78547C218.817 5.83966 217.696 4.45337 215.805 3.79459C210.966 2.11522 205.577 6.2247 203.907 11.231C203.906 11.2345 203.906 11.2366 203.907 11.2383C202.57 15.2077 195.815 8.34585 194.274 7.79494C190.221 6.35105 185.094 6.07216 180.421 6.51693C170.713 7.44041 158.935 14.8657 150.109 11.2186C148.013 10.3544 146.12 5.71548 143.877 5.84139C142.985 5.8921 139.955 9.11248 138.901 9.75148C132.143 13.8507 125.003 11.9547 119.08 10.2087C112.112 8.15462 104.661 5.87963 96.6144 7.07814C94.2551 7.43095 91.5102 8.89806 89.2235 9.84475C86.7008 10.8873 83.266 13.4957 82.681 10.7179C82.4691 9.71153 82.5933 8.40687 81.9946 7.75153C80.0844 5.6579 77.1289 5.28017 74.0659 6.15466C71.0785 7.00595 69.1998 9.58046 67.7697 12.2968C67.4959 12.815 67.1409 13.3101 66.8232 13.8141C67.9902 11.9672 60.4088 10.3793 59.14 10.6965C56.0787 11.4614 52.1307 13.87 50.6009 16.8437C49.9252 18.16 50.3654 19.8755 49.7671 20.9751C47.6007 24.9462 41.9721 24.7877 39.6067 28.9711C37.4666 32.757 37.6492 37.7414 39.3518 40.8324C40.45 42.8302 43.3935 43.3094 44.2257 45.4498C44.3224 45.6999 44.3894 45.9518 44.4315 46.2109C45.0187 49.9822 39.8878 54.6103 38.6417 58.2647C37.1786 62.5599 36.5716 67.0329 36.3516 71.276C35.7954 82.0424 39.7412 92.7981 34.8772 103.982C33.3376 107.523 29.4915 110.796 28.3571 114.139C26.9563 118.278 28.3528 122.117 27.8486 126.183C27.2387 131.083 24.7887 135.872 22.5995 140.597C14.5767 157.895 10.0777 175.203 15.0014 191.217C14.8007 190.569 9.30312 193.562 8.77743 193.96C6.93217 195.352 5.32244 197.348 4.49802 199.393C2.38325 204.627 6.50491 205.778 8.88059 208.608C4.60333 213.053 2.42193 218.104 5.57432 222.474C8.43141 226.439 13.8241 223.647 18.269 221.803C18.1121 226.109 17.3839 230.314 21.6027 232.208C23.6453 233.128 27.2761 233.354 29.7468 232.033C31.923 230.865 33.1081 227.45 35.5555 226.932C37.8891 226.439 39.072 229.081 40.8407 229.722C44.3202 230.984 49.2732 230.086 53.1993 228.761C61.3845 225.999 69.2045 220.547 77.6137 219.949C81.0356 219.706 84.4734 220.205 87.3825 221.371C89.3387 222.156 91.1053 223.364 93.4835 223.222C99.2377 222.875 104.49 220.39 110.23 221.186C115.998 221.987 120.978 224.529 125.956 226.804C129.764 228.543 134.065 230.09 138.865 229.224C141.497 228.749 144.544 225.562 146.788 226.97C148.111 227.8 148.412 230.988 149.552 232.223C150.964 233.755 152.782 234.405 155.172 234.153C162.02 233.434 164.024 227.69 167.712 222.734C172.224 227.703 181.081 227.64 183.939 218.391C184.748 215.765 181.887 213.797 182.754 211.332C183.572 209.005 185.692 209.194 187.596 208.397C189.898 207.434 191.075 205.864 191.941 203.538C194.468 196.757 189.065 194.748 184.058 193.369C185.39 190.547 188.2 187.957 189.869 185.16C193.902 178.401 196.108 171.26 197.977 164.129C201.572 150.412 195.741 138.552 203.512 124.695C205.372 121.376 207.56 118.58 207.102 115.076C206.48 110.336 204.359 107.081 205.035 101.864C205.784 96.0928 208.555 90.4066 211.515 84.9448C215.813 77.0258 219.253 69.2026 222.147 60.9527C223.731 56.4435 224.078 52.0062 223.141 47.8533C222.56 45.2651 222.402 45.342 225.129 44.0674C226.051 43.6368 226.976 43.1847 227.853 42.6484Z" fill="#414141"/>
<path d="M234.776 27.8656C236.232 32.9329 233.237 39.3539 227.854 42.6482C226.976 43.1845 226.051 43.6366 225.129 44.0668C222.403 45.3413 222.56 45.264 223.142 47.8527C224.079 52.0055 223.732 56.4429 222.148 60.9521C219.253 69.202 215.814 77.0252 211.516 84.9442C208.555 90.406 205.785 96.0922 205.036 101.864C204.36 107.081 206.48 110.335 207.103 115.075C207.561 118.579 205.373 121.375 203.512 124.695C195.741 138.551 201.572 150.411 197.977 164.129C196.109 171.259 193.902 178.4 189.87 185.159C188.2 187.957 185.391 190.545 184.059 193.368C189.065 194.747 194.468 196.756 191.942 203.537C191.075 205.863 189.899 207.432 187.596 208.396C185.692 209.193 183.573 209.004 182.755 211.332C181.887 213.796 184.748 215.764 183.94 218.39C181.082 227.639 172.225 227.702 167.713 222.734C164.024 227.689 162.02 233.434 155.173 234.152C152.782 234.404 150.965 233.754 149.552 232.222C148.413 230.988 148.111 227.799 146.788 226.969C144.545 225.562 141.497 228.748 138.865 229.223C134.065 230.089 129.764 228.542 125.957 226.804C120.978 224.528 115.999 221.986 110.231 221.185C104.491 220.39 99.2382 222.874 93.484 223.221C91.1058 223.363 89.3387 222.156 87.383 221.371C84.4743 220.204 81.0365 219.705 77.6142 219.948C69.2054 220.546 61.385 225.998 53.1998 228.76C49.2737 230.085 44.3203 230.983 40.8412 229.721C39.072 229.08 37.8891 226.438 35.556 226.931C33.1086 227.45 31.9235 230.864 29.7473 232.033C27.2766 233.354 23.6458 233.127 21.6032 232.207C17.3844 230.313 18.1126 226.108 18.2695 221.802C13.8246 223.646 8.43191 226.438 5.57481 222.474C2.42243 218.103 4.60426 213.052 8.88109 208.607C6.50541 205.778 2.38374 204.625 4.49852 199.393C5.32293 197.348 6.93265 195.352 8.77792 193.96C9.3036 193.562 14.8012 190.568 15.0019 191.216C10.0777 175.202 14.5772 157.894 22.6 140.596C24.7892 135.871 27.2392 131.083 27.8491 126.183C28.3533 122.116 26.9568 118.277 28.3576 114.138C29.4919 110.795 33.3385 107.522 34.8777 103.982C39.7417 92.7974 35.7959 82.0414 36.3521 71.2754C36.5721 67.0323 37.1791 62.5592 38.6422 58.2641C39.8883 54.6097 45.0192 49.982 44.432 46.2103C44.3899 45.9507 44.3229 45.6993 44.2262 45.4492C43.394 43.3087 40.4505 42.8296 39.3523 40.8318C37.6497 37.7412 37.4666 32.7563 39.6072 28.9704C41.9725 24.787 47.6012 24.9456 49.7675 20.9745C50.3659 19.8744 49.9257 18.1589 50.6014 16.8431C52.1312 13.8694 56.0792 11.4607 59.1405 10.6958C60.4097 10.3791 67.9907 11.967 66.8237 13.8135C67.1413 13.3094 67.4964 12.8144 67.7702 12.2961C69.2002 9.57982 71.079 7.00534 74.0664 6.15404C77.1289 5.27912 80.0844 5.65728 81.9951 7.75091C82.5942 8.40625 82.4696 9.71131 82.6815 10.7173C83.2665 13.4951 86.7017 10.8866 89.224 9.84411C91.5107 8.89742 94.2556 7.43033 96.6149 7.07752C104.661 5.87858 112.112 8.15398 119.08 10.2081C125.003 11.9541 132.144 13.85 138.901 9.75086C139.955 9.11186 142.985 5.89148 143.877 5.84077C146.12 5.71486 148.013 10.3538 150.11 11.218C158.936 14.8651 170.713 7.43977 180.422 6.51629C185.094 6.07152 190.222 6.35044 194.274 7.79432C195.815 8.34523 202.571 15.2071 203.908 11.2377C203.907 11.236 203.907 11.2343 203.908 11.2304C205.577 6.22451 210.967 2.1146 215.805 3.79398C217.696 4.45275 218.817 5.83905 219.213 7.78485C219.437 8.88839 219.574 13.4138 218.554 14.2849C222.727 10.7225 229.401 7.68559 232.122 12.609C233.117 14.4125 232.661 16.4615 231.747 18.6054C231.097 20.1339 227.226 24.8897 229.966 24.7509C232.508 24.6216 234.138 25.6387 234.776 27.8656ZM203.821 35.0966C204.832 30.6829 203.288 28.2042 198.485 28.2167C157.158 28.319 115.866 28.2726 74.5611 28.2726C73.9615 28.2726 73.3567 28.2958 72.7524 28.3082C70.295 28.3624 68.43 29.7126 67.1732 31.887C66.5426 32.9798 66.2172 34.2346 65.9499 35.4155C53.3287 91.1185 40.7308 146.824 28.1272 202.527C27.0411 207.328 28.5725 209.36 33.3351 209.36C63.0274 209.364 92.7211 209.362 122.414 209.362C134.426 209.362 146.434 209.387 158.458 209.316C159.64 209.308 161.008 208.883 162.196 208.329C164.881 207.078 165.402 204.711 165.923 202.407C172.215 174.589 178.51 146.77 184.803 118.952C191.126 90.9999 197.407 63.0474 203.821 35.0966Z" fill="#BFA266"/>
<path d="M198.485 28.2168C203.288 28.2044 204.832 30.6826 203.821 35.0968C197.407 63.0476 191.126 91 184.804 118.953C178.51 146.77 172.215 174.589 165.924 202.407C165.402 204.711 164.881 207.078 162.196 208.329C161.008 208.883 159.641 209.308 158.458 209.316C146.434 209.387 134.426 209.362 122.415 209.362C92.7215 209.362 63.0279 209.364 33.3355 209.36C28.573 209.36 27.0415 207.328 28.1277 202.527C40.7308 146.824 53.3287 91.1186 65.9503 35.4156C66.2177 34.2347 66.5426 32.9799 67.1736 31.8871C68.4309 29.7123 70.2955 28.3625 72.7528 28.3084C73.3572 28.2959 73.9619 28.2727 74.5615 28.2727C115.866 28.2727 157.159 28.3195 198.485 28.2168ZM164.339 202.556C176.976 146.711 189.61 90.8651 202.236 35.0199C203.119 31.1209 202.133 29.8103 198.289 29.8103C156.847 29.8013 115.405 29.7995 73.9585 29.8064C70.1265 29.8085 68.6961 30.998 67.8291 34.829C61.5002 62.7854 55.177 90.7413 48.852 118.697C48.8482 118.697 48.8447 118.697 48.843 118.697C42.5326 146.587 36.221 174.476 29.9145 202.366C28.9181 206.769 29.6867 207.741 34.1324 207.741C75.441 207.741 116.754 207.739 158.063 207.737C161.968 207.737 163.435 206.544 164.339 202.556Z" fill="#414141"/>
<path d="M173.477 271.346C173.209 271.346 172.943 271.346 172.674 271.346" stroke="#414141" stroke-width="3" stroke-miterlimit="10"/>
<path d="M145.184 229.473C137.707 231.641 131.08 231.649 125.209 228.55C118.676 225.104 111.988 221.938 103.508 222.361C100.119 222.529 96.8281 223.337 93.6353 225.153C92.4098 225.85 91.6572 225.787 90.7201 225.241C86.3028 222.682 81.5016 220.743 75.5694 221.807C72.0822 222.433 68.5116 223.596 65.0639 224.939C60.3835 226.764 55.8264 229.216 51.1391 230.991C45.3905 233.167 39.1562 232.184 35.4726 228.928C31.8306 234.147 27.1747 235.29 22.284 234.178C17.6504 233.123 15.488 229.987 16.137 224.833C11.0848 226.957 6.82298 226.894 4.05229 223.286C0.848321 219.112 1.32801 214.367 5.96977 209.296C2.40775 207.013 0.999188 203.874 2.96782 199.222C4.77182 194.951 8.15332 192.243 12.0158 190.396C11.6362 186.718 10.8492 183.169 10.9563 179.45C11.3023 167.75 13.7966 156.034 19.3255 144.345C21.6148 139.503 24.0085 134.598 25.4648 129.658C26.5858 125.84 26.4173 121.906 26.6124 118.06C26.6765 116.749 26.0124 115.572 25.8663 114.276C25.8185 113.849 26.2286 113.111 26.6369 112.731C33.6312 106.225 36.3541 98.7819 36.1259 90.7679C36.0533 88.2007 35.4962 85.7525 35.185 83.2434C34.1792 75.1782 34.1474 66.9141 37.1683 58.3471C38.6336 54.1942 41.0363 50.1638 43.158 45.784C38.0395 44.231 36.2265 39.8851 36.8377 33.8565C37.3793 28.5102 39.3995 24.3806 47.7976 20.8469C47.5074 15.994 50.9001 12.9515 55.1339 10.417C59.4972 7.80509 63.4413 7.555 66.7437 10.3396C69.7547 6.91599 72.6461 3.59807 77.0807 4.06819C80.837 4.46397 84.5473 5.04926 84.5821 9.74962C86.5069 8.92326 88.3471 8.22279 90.1339 7.35173C95.279 4.84255 99.9796 5.2581 104.66 6.09177C112.93 7.56445 121.22 8.98427 129.506 10.4191C134.569 11.2975 138.846 9.0238 142.536 4.71105C144.892 1.96036 145.513 1.95133 146.49 4.85329C147.65 8.31302 149.974 10.1944 154.153 10.1854C158.823 10.1746 163.427 8.74146 168.006 7.16651C175.86 4.4661 183.274 4.53271 190.526 5.3969C197.019 6.16912 198.244 6.85883 202.206 9.75348C205.542 4.06302 210.261 1.41503 216.071 2.10818C220.449 2.6303 220.912 6.28472 221.157 10.1639C225.786 8.0827 230.284 7.24386 233.019 10.8458C235.6 14.248 234.552 18.4963 231.593 22.4532C233.055 23.5134 234.382 24.2516 235.418 25.2684C238.753 28.5485 236.405 35.5419 233.64 39.36C231.661 42.0892 229.136 44.0638 226.041 45.1639C225.001 45.5309 224.526 46.0887 224.757 46.9782C226.931 55.3777 223.175 63.9103 219.613 72.4452C217.232 78.1532 214.109 83.6039 210.862 89.0477C205.356 98.2752 205.17 107.002 209.061 114.745C210.163 116.932 209.661 117.913 208.105 119.87C202.204 127.293 199.474 135.034 200.455 143.309C201.325 150.623 201.645 158.137 199.271 166.011C196.662 174.653 193.946 183.299 187.803 191.097C187.539 191.436 187.334 191.816 186.975 192.376C189.724 192.412 192.167 192.986 193.125 195.224C193.833 196.881 194.038 198.932 193.98 200.899C193.849 205.32 191.203 208.422 185.59 211.184C186.263 216.287 186.459 221.653 180.935 225.837C176.313 229.338 171.827 228.579 167.922 225.956C165.18 231.775 160.96 235.417 154.815 235.52C150.101 235.597 146.262 234.226 145.184 229.473Z" stroke="#414141" stroke-width="3" stroke-miterlimit="10"/>
<path d="M44.432 46.2108C45.0192 49.9821 39.8883 54.6103 38.6422 58.2647C37.1791 62.5598 36.5721 67.0328 36.3521 71.276C35.7959 82.0424 39.7417 92.798 34.8777 103.982C33.3381 107.523 29.4919 110.795 28.3576 114.139C26.9568 118.277 28.3533 122.117 27.8491 126.183C27.2392 131.083 24.7892 135.872 22.6 140.597C14.5772 157.894 10.0782 175.203 15.0019 191.217C14.8012 190.569 9.3036 193.562 8.77792 193.96C6.93265 195.352 5.32293 197.348 4.49852 199.393C2.38374 204.626 6.50541 205.778 8.88109 208.608C4.60383 213.053 2.42243 218.104 5.57481 222.474C8.43191 226.439 13.8246 223.647 18.2695 221.803C18.1126 226.109 17.3844 230.314 21.6032 232.208C23.6458 233.128 27.2766 233.354 29.7473 232.033C31.9235 230.865 33.1086 227.45 35.556 226.932C37.8896 226.439 39.0725 229.081 40.8412 229.722C44.3207 230.984 49.2737 230.086 53.1998 228.761C61.385 225.999 69.205 220.547 77.6142 219.949C81.0361 219.706 84.4739 220.205 87.383 221.371C89.3392 222.156 91.1058 223.364 93.484 223.222C99.2382 222.874 104.49 220.39 110.231 221.186C115.999 221.987 120.978 224.529 125.957 226.804C129.764 228.543 134.065 230.09 138.865 229.224C141.497 228.749 144.544 225.562 146.788 226.97C148.111 227.8 148.413 230.988 149.552 232.223C150.965 233.755 152.782 234.404 155.173 234.153C162.021 233.434 164.024 227.69 167.713 222.734C172.225 227.703 181.082 227.64 183.94 218.391C184.748 215.765 181.888 213.797 182.755 211.332C183.573 209.005 185.692 209.194 187.596 208.396C189.899 207.433 191.075 205.864 191.942 203.538C194.468 196.757 189.065 194.748 184.059 193.369C185.391 190.546 188.2 187.957 189.87 185.16C193.902 178.401 196.109 171.259 197.977 164.129C201.573 150.412 195.741 138.552 203.512 124.695C205.373 121.376 207.561 118.58 207.103 115.076C206.481 110.336 204.36 107.081 205.036 101.864C205.785 96.0927 208.555 90.4066 211.516 84.9447C215.814 77.0257 219.253 69.2025 222.148 60.9526C223.732 56.4435 224.078 52.0061 223.142 47.8532C222.56 45.265 222.403 45.3419 225.129 44.0673C226.051 43.6372 226.976 43.1851 227.854 42.6488C233.237 39.3545 236.232 32.9335 234.776 27.8662C234.138 25.6393 232.508 24.6222 229.966 24.7519C227.226 24.8907 231.097 20.1349 231.747 18.6064C232.661 16.4625 233.117 14.4136 232.122 12.61C229.401 7.68659 222.727 10.7235 218.554 14.2859C219.574 13.4148 219.437 8.88897 219.213 7.78586C218.817 5.84005 217.696 4.45375 215.805 3.79498C210.967 2.1156 205.577 6.22509 203.908 11.2314C203.907 11.2349 203.907 11.237 203.908 11.2387C202.571 15.2081 195.815 8.34621 194.274 7.7953C190.222 6.35141 185.095 6.07252 180.422 6.51729C170.713 7.44077 158.935 14.8661 150.11 11.219C148.013 10.3548 146.12 5.71586 143.877 5.84177C142.985 5.89248 139.955 9.11286 138.901 9.75187C132.144 13.851 125.003 11.9551 119.08 10.2091C112.112 8.15498 104.661 5.88002 96.6149 7.07853C94.2556 7.43133 91.5107 8.89842 89.224 9.84511C86.7013 10.8876 83.2665 13.4961 82.6815 10.7183C82.4696 9.71189 82.5938 8.40723 81.9951 7.75189C80.0849 5.65826 77.1294 5.28055 74.0664 6.15505C71.079 7.00634 69.2003 9.58082 67.7702 12.2971C67.4964 12.8154 67.1413 13.3104 66.8237 13.8145C67.9907 11.9675 60.4093 10.3797 59.1405 10.6968C56.0792 11.4617 52.1312 13.8704 50.6014 16.8441C49.9257 18.1603 50.3659 19.8758 49.7675 20.9755C47.6012 24.9466 41.9725 24.788 39.6072 28.9714C37.467 32.7573 37.6497 37.7417 39.3523 40.8328C40.4505 42.8306 43.394 43.3097 44.2262 45.4502C44.3224 45.6999 44.3899 45.9517 44.432 46.2108Z" stroke="#414141" stroke-width="3" stroke-miterlimit="10"/>
<path d="M184.804 118.953C178.51 146.77 172.215 174.589 165.924 202.407C165.402 204.711 164.881 207.078 162.196 208.329C161.008 208.883 159.641 209.308 158.458 209.316C146.434 209.387 134.426 209.362 122.415 209.362C92.7215 209.362 63.0279 209.364 33.3355 209.36C28.573 209.36 27.0415 207.328 28.1277 202.527C40.7308 146.824 53.3287 91.1186 65.9503 35.4156C66.2177 34.2347 66.5426 32.9799 67.1736 31.8871C68.4309 29.7123 70.2955 28.3625 72.7528 28.3084C73.3572 28.2959 73.9619 28.2727 74.5615 28.2727C115.867 28.2727 157.159 28.3191 198.486 28.2168C203.289 28.2044 204.833 30.6826 203.821 35.0968C197.407 63.0476 191.126 91 184.804 118.953Z" stroke="#414141" stroke-width="3" stroke-miterlimit="10"/>
<path d="M48.8514 118.697C48.8475 118.697 48.8441 118.697 48.8423 118.697C42.532 146.586 36.2203 174.476 29.9138 202.365C28.9175 206.768 29.686 207.741 34.1318 207.741C75.4403 207.741 116.753 207.739 158.062 207.737C161.968 207.737 163.435 206.544 164.339 202.556C176.976 146.71 189.61 90.8647 202.236 35.0194C203.118 31.1205 202.133 29.8098 198.288 29.8098C156.847 29.8008 115.405 29.7991 73.9583 29.806C70.1263 29.8081 68.6958 30.9976 67.8289 34.8286C61.5 62.785 55.1768 90.7409 48.8514 118.697Z" stroke="#414141" stroke-width="3" stroke-miterlimit="10"/>
<path fill-rule="evenodd" clip-rule="evenodd" d="M133.27 12.4402C131.907 13.1656 130.54 13.8807 129.175 14.6C129.131 14.5377 129.087 14.4754 129.043 14.4131C131.235 12.5941 133.427 10.775 135.619 8.95599C135.569 8.88595 135.518 8.81633 135.468 8.74671C135.255 8.90786 135.035 9.06042 134.829 9.23102C132.617 11.0703 130.384 12.8871 128.205 14.7659C127.346 15.5068 126.574 15.6589 125.545 15.0951C123.341 13.8876 121.087 12.7741 118.821 11.3719C120.88 10.6607 122.938 9.94953 124.996 9.23876C124.98 9.16356 124.964 9.08837 124.948 9.01317C124.578 9.09826 124.191 9.14078 123.84 9.27485C119.392 10.9787 114.949 12.7019 110.498 14.4011C110.094 14.5549 109.619 14.7015 109.21 14.6383C106.19 14.1699 103.177 13.6482 100.163 13.1385C99.9662 13.1055 99.7766 13.0298 99.4091 12.9237C99.7745 12.6753 99.9945 12.4896 100.244 12.3612C103.253 10.8103 106.267 9.26842 109.278 7.72097C109.407 7.65436 109.52 7.55596 109.641 7.47217L108.74 7.47217C105.671 9.10169 102.608 10.7437 99.5273 12.3513C98.7914 12.7359 98.016 13.0762 97.2217 13.3122C95.872 13.7144 94.4991 14.0461 93.1245 14.356C89.281 15.2232 85.4043 15.8978 81.4473 15.5369C79.5754 15.3663 77.7215 14.9769 75.8672 14.6426C75.014 14.4892 74.6138 13.9808 74.7308 13.038C74.922 11.4923 75.0226 9.93492 75.1503 8.38146C75.164 8.21214 75.1038 8.03725 75.078 7.86536C75.0007 7.86622 74.9233 7.86751 74.8459 7.86879C74.7325 9.05312 74.625 10.2379 74.5047 11.4209C74.4058 12.399 74.5966 13.5631 74.1311 14.3203C72.1573 17.5312 69.4829 19.9123 65.5057 20.2419C63.6875 20.3928 61.8543 20.4126 60.0288 20.3967C59.553 20.3924 59.041 20.0915 58.6168 19.817C58.1736 19.5303 57.8164 19.1109 57.4214 18.7499C57.3621 18.8131 57.3032 18.8767 57.2439 18.9395C57.4842 19.1926 57.7038 19.468 57.9682 19.6928C58.5291 20.1685 58.7113 20.7164 58.7208 21.483C58.7565 24.3523 57.7485 26.9513 56.8158 29.5782C55.6492 32.8639 53.8353 35.7873 51.7304 38.5354C51.3965 38.9716 50.7887 39.5041 50.327 39.4864C46.8579 39.3524 43.3939 39.095 39.929 38.8681C39.5778 38.8449 39.2305 38.7688 38.881 38.7172C38.869 38.798 38.857 38.8797 38.8449 38.9604C39.1226 39.0369 39.3956 39.1491 39.678 39.1831C41.4029 39.3859 43.1269 39.6115 44.8579 39.7426C45.6543 39.8031 46.2548 40.0455 46.5604 40.7907C47.1385 42.1989 47.9011 43.5762 48.2007 45.0454C48.7625 47.7991 49.0234 50.6142 49.4562 53.3967C50.079 57.3996 50.7595 61.409 50.3597 65.4704C50.1895 67.203 49.9346 69.0581 49.1622 70.5747C47.5331 73.7727 45.5714 76.8057 43.6814 79.8658C42.425 81.9006 41.074 83.8786 39.7295 85.8575C39.1948 86.6448 38.5647 87.3667 37.9775 88.1183L37.9775 88.4784C38.5604 87.7724 39.169 87.0857 39.7214 86.3564C40.7319 85.0225 41.8477 83.7437 42.6765 82.3019C46.1598 76.2402 49.6935 70.2145 53.8134 64.5542C54.0928 64.17 54.3799 63.754 54.7573 63.4841C57.4068 61.5929 62.6017 61.7992 65.1395 63.8473C65.5061 64.1429 65.7709 64.4639 65.9067 64.846C66.0288 64.769 66.1792 64.7218 66.3576 64.7179C66.4384 63.8842 66.6525 63.069 67.228 62.3273C70.1384 58.5762 73.9192 56.0413 78.2713 54.2682C78.6031 54.1333 78.9341 53.82 79.1077 53.5033C79.7194 52.3847 80.1879 51.1836 80.8528 50.1007C81.4774 49.084 82.2816 48.1768 83.0063 47.222C86.3018 42.8796 90.1995 39.2686 95.2789 37.077C95.6683 36.9094 96.0044 36.5733 96.3075 36.2596C96.9294 35.6155 97.4478 34.8587 98.1231 34.2812C100.128 32.5661 102.175 30.8979 104.232 29.2452C106.16 27.6964 108.184 26.3058 110.674 25.7932C110.795 25.7678 110.902 25.6707 111.016 25.6067C111.003 25.5658 110.99 25.5254 110.977 25.4846C110.73 25.5044 110.483 25.5237 109.98 25.5637C110.617 25.1421 111.037 24.8147 111.499 24.5646C118.697 20.6635 125.903 16.7796 133.098 12.8743C135.257 11.702 137.386 10.4751 139.53 9.27315L139.53 9.09309C137.443 10.2091 135.358 11.3281 133.27 12.4402ZM99.2097 13.2554C102.445 13.7848 105.674 14.3585 108.906 14.9172C108.916 14.9829 108.926 15.0491 108.937 15.1144C106.992 16.0878 105.046 17.0598 103.101 18.0349C102.781 18.1956 102.481 18.4444 102.143 18.5123C101.78 18.5858 101.261 18.6455 101.02 18.4504C99.655 17.3499 98.7433 15.9404 98.408 14.1875C98.2791 13.5124 98.5714 13.151 99.2097 13.2554ZM97.9614 13.8695C98.3565 15.9894 99.462 17.6116 101.176 19.0314C100.062 19.6472 98.981 20.1409 98.0139 20.8014C96.2632 21.9969 94.6552 21.4847 93.0807 20.5208C92.6706 20.2695 92.3504 19.8191 92.0818 19.401C91.6519 18.7323 91.7134 18.1384 92.4433 17.6386C94.123 16.49 95.7714 15.2962 97.4366 14.1265C97.5742 14.0298 97.7409 13.9761 97.9614 13.8695ZM56.6292 39.697C57.4911 39.6248 58.2153 39.5719 58.9379 39.5023C60.0713 39.3927 61.2091 39.3111 62.334 39.1439C63.2684 39.0056 63.9372 39.3812 64.3924 40.1138C66.0726 42.8198 66.5055 45.7386 65.7597 48.8313C65.7189 49.0006 65.6325 49.1742 65.5216 49.3083C64.116 51.016 62.7023 52.7165 61.1309 54.612C61.7322 48.8962 61.0784 43.8121 56.6292 39.697ZM63.51 25.2319C65.8986 26.3243 67.2934 28.5181 67.1717 31.1171C67.0711 33.2657 66.3572 35.2184 65.1562 36.9914C64.4143 38.086 63.4515 38.7692 62.0434 38.829C60.5325 38.8939 59.029 39.1203 57.4872 39.2797C61.6716 35.4552 63.6368 30.787 63.51 25.2319ZM67.3905 28.7179C69.7455 30.1055 70.2416 31.2705 69.617 34.4887C69.0527 37.3988 67.5753 38.3855 64.3112 38.4813C66.8609 35.7268 67.8612 32.4986 67.3905 28.7179ZM87.4306 36.8978C87.0949 36.9261 86.8911 36.9549 86.6874 36.9596C85.002 36.9936 84.7321 36.6571 85.2062 35.0332C85.5505 33.8536 86.2081 32.9413 87.4529 32.5519C88.1247 32.3422 88.7794 32.0766 89.4916 31.8957C88.2116 33.3065 86.9552 34.6924 87.4306 36.8978ZM76.6701 45.4923C74.8012 45.2298 73.1025 45.6354 71.5818 46.8563C71.6415 46.684 71.6785 46.4996 71.7636 46.3415C72.8709 44.2869 73.9622 42.2234 75.1219 40.1985C75.2985 39.8904 75.8002 39.596 76.1496 39.5977C76.7759 39.6012 76.6727 40.1843 76.6719 40.6304C76.6676 42.1834 76.6701 43.7364 76.6701 45.4923ZM69.908 30.7376C70.8412 31.4828 71.5745 32.0517 72.2854 32.6465C72.4836 32.8123 72.6693 33.0341 72.7686 33.2691C73.3295 34.5991 72.0477 37.1887 70.6448 37.5424C69.8358 37.7469 69.0088 37.8801 68.0641 37.982C70.0568 35.9717 70.3568 33.5192 69.908 30.7376ZM78.08 35.9158C78.944 35.624 79.685 35.3739 80.4449 35.1178C80.4776 36.6923 79.997 36.6171 78.08 35.9158ZM78.8292 36.5819C78.2764 36.8995 77.896 37.1182 77.3686 37.4216C77.4241 36.9648 77.4606 36.664 77.5079 36.2777C77.9313 36.3752 78.2657 36.4521 78.8292 36.5819ZM78.065 35.523C78.0155 35.4603 77.9657 35.3984 77.9162 35.3357C78.6328 34.5514 79.3497 33.7676 80.1733 32.866C80.3448 33.539 80.4673 34.0186 80.6298 34.6563C79.7327 34.9597 78.8988 35.2416 78.065 35.523ZM68.0744 38.4516C69.2714 38.2084 70.3116 37.976 71.3613 37.8019C71.5496 37.771 71.8173 37.9377 71.9807 38.0873C72.8936 38.9231 72.9659 40.6192 72.1509 41.5711C71.3407 42.5182 70.5296 43.4644 69.6222 44.3939C69.8113 42.2517 69.7425 40.2049 68.0744 38.4516ZM72.248 37.566C72.5949 37.474 72.9646 37.3163 73.342 37.2935C73.7069 37.2716 74.3546 37.3107 74.3976 37.4607C74.5309 37.9257 74.5777 38.5183 74.3907 38.9441C74.1754 39.4362 73.6751 39.8027 73.2706 40.2556C72.9302 39.3614 72.6104 38.5204 72.248 37.566ZM75.8311 38.141C75.2913 39.0877 74.861 39.8423 74.4286 40.6007C73.7701 40.1624 74.1862 39.41 75.8311 38.141ZM75.0591 38.2518C74.8958 37.691 74.7991 37.3593 74.6727 36.9266C75.2633 36.7534 75.7791 36.6017 76.2949 36.4504C76.3314 36.5123 76.3684 36.5737 76.4054 36.6352C75.9988 37.1229 75.5926 37.6111 75.0591 38.2518ZM73.6665 36.8011C73.1864 36.9274 72.7011 37.0348 72.2248 37.15C72.6512 35.9369 73.0505 34.7998 73.5203 33.4638C73.936 33.9412 74.4337 34.319 74.665 34.8196C75.1468 35.8604 74.7733 36.5093 73.6665 36.8011ZM74.147 33.5592C74.812 32.9408 75.4335 32.3615 76.0422 31.7952C76.6482 32.8282 76.6233 33.5699 75.8952 34.1191C75.0033 34.7921 74.6929 33.8274 74.147 33.5592ZM77.544 30.7071C76.4612 30.5507 76.0516 30.0174 75.9562 28.8288C77.4873 28.8962 78.9749 28.9624 80.4075 29.0256C79.9502 30.286 78.9607 30.9121 77.544 30.7071ZM80.42 29.8571C80.775 29.2391 81.2384 28.6818 81.6871 28.1223C81.7791 28.0071 81.9936 27.9147 82.138 27.9306C83.1593 28.0449 84.1772 28.1902 85.2453 28.3324C84.2188 29.1115 83.2204 29.9585 82.1239 30.6512C81.7735 30.8725 81.1494 30.7522 80.6835 30.6452C80.5322 30.6109 80.3216 30.0277 80.42 29.8571ZM76.441 30.8472C77.3037 30.9327 78.1754 31.0195 79.0355 31.1055C78.7437 32.1901 78.2175 32.729 77.4817 32.6486C76.7432 32.5683 76.4707 32.0796 76.441 30.8472ZM79.4765 33.0216C79.0467 33.4995 78.622 33.973 78.1969 34.4457C78.7364 32.4961 78.7406 32.4922 79.4765 33.0216ZM80.1049 32.3955C79.9094 32.5163 79.5221 32.4608 79.299 32.3422C79.1976 32.2876 79.2122 31.8553 79.296 31.643C79.6669 30.7028 79.6962 30.7058 81.4985 31.2529C80.9672 31.7015 80.5722 32.1067 80.1049 32.3955ZM81.0583 32.2266C81.449 31.6018 82.1673 31.1815 82.7123 30.7024C83.039 31.6873 83.3411 32.6001 83.6751 33.6065C82.9835 33.8428 82.2343 34.1307 81.4632 34.3383C81.2883 34.3856 80.8537 34.1535 80.8541 34.0508C80.8554 33.4333 80.763 32.6998 81.0583 32.2266ZM83.6317 30.0505C84.4866 29.3238 85.4374 28.7101 86.3465 28.0475C86.4192 28.0759 86.4927 28.1051 86.5657 28.1339C85.9726 29.5636 85.8995 30.9881 86.5679 32.5003C85.8728 32.7668 85.2453 33.0173 84.6087 33.2425C84.4836 33.2868 84.3053 33.2734 84.1827 33.218C83.3063 32.8201 82.8941 30.6766 83.6317 30.0505ZM82.2429 27.3943C83.0278 26.4949 83.7667 25.6488 84.4011 24.9225C85.2805 25.1851 85.9975 25.4889 86.7433 25.5976C87.4925 25.7068 88.2696 25.6217 89.1718 25.6217C86.9582 27.6749 84.0014 28.6139 82.2429 27.3943ZM78.4883 28.7557C75.8728 28.6341 75.4743 28.0561 75.4163 25.5654C78.1853 26.5525 80.8301 26.2431 83.4757 25.2762C82.1312 26.8915 81.0884 28.8765 78.4883 28.7557ZM75.4339 29.2546C76.1879 30.6465 75.9072 31.8377 74.6826 32.7255C73.7722 33.3856 73.3445 33.2378 71.749 31.6259C73.4193 31.4179 74.7273 30.8068 75.4339 29.2546ZM68.3271 39.2638C69.7262 40.9793 69.6935 44.3454 68.2987 46.0591C67.7047 46.7888 67.069 47.4854 66.5214 48.1175C66.3757 46.5155 66.3168 44.9161 66.0636 43.348C65.8036 41.7399 65.0982 40.2866 63.8633 38.9837C65.0419 38.8264 66.0984 38.6098 67.1601 38.5832C67.5487 38.5737 68.0537 38.9295 68.3271 39.2638ZM69.8233 44.9513C70.0477 44.7411 70.7367 44.7605 71.0191 44.9556C71.2947 45.1451 71.5173 45.7544 71.4189 46.0737C71.1868 46.8249 70.7496 47.5125 70.4904 48.0346C69.5311 47.754 68.6852 47.5064 67.7842 47.243C68.383 46.5494 69.0411 45.6844 69.8233 44.9513ZM70.429 44.1662C71.4576 42.9745 72.493 41.7747 73.6132 40.4765C74.0817 41.3076 73.1984 43.4142 71.8586 45.1262C71.4232 44.8335 70.9865 44.54 70.429 44.1662ZM75.9158 39.364C75.8376 39.2316 75.7593 39.0993 75.6811 38.9669C75.9721 38.7391 76.2631 38.511 76.5545 38.2832C76.6336 38.5075 76.8352 38.8767 76.7703 38.9312C76.533 39.1319 76.2081 39.2282 75.9158 39.364ZM75.1808 36.3838L75.1808 34.8553C75.7065 35.184 76.1582 35.4655 76.7965 35.8643C76.1419 36.0744 75.7013 36.2167 75.1808 36.3838ZM75.7357 34.7014C76.0796 34.4139 76.2949 34.2343 76.6371 33.949C76.7505 34.4719 76.8365 34.8664 76.974 35.5011C76.4638 35.1715 76.1604 34.9756 75.7357 34.7014ZM76.8184 32.9804L78.2029 32.9804C77.9343 33.6602 77.6914 34.2743 77.4486 34.8879C77.3884 34.8982 77.3286 34.909 77.2693 34.9193C77.1236 34.2958 76.9788 33.6714 76.8184 32.9804ZM80.867 37.0207C79.6983 37.6764 78.423 38.3928 77.2212 39.0675C77.2126 37.3571 78.8928 36.4019 80.867 37.0207ZM80.6912 36.2085C81.017 35.7044 81.2831 35.1423 81.6923 34.7186C81.927 34.4754 82.3942 34.4565 82.8447 34.3069C82.5765 35.1294 82.3431 35.8449 82.0817 36.6476C82.0688 36.6519 82.0353 36.6765 82.0125 36.6692C81.5711 36.5179 81.1309 36.3627 80.6912 36.2085ZM83.1533 34.8316C83.6192 34.05 84.3968 33.5996 85.2909 33.4251C85.0987 34.505 84.9418 35.4865 84.7329 36.4564C84.6981 36.618 84.4234 36.8565 84.2799 36.8432C83.7409 36.7933 83.2109 36.6541 82.6771 36.548C82.8266 35.9704 82.8597 35.3232 83.1533 34.8316ZM87.327 32.1669C87.1555 32.2184 86.6917 31.8231 86.6061 31.5562C85.8694 29.2692 87.0987 27.017 89.5505 26.1876C88.6887 28.0363 88.846 29.6427 90.7695 30.9211C89.4998 31.3959 88.4295 31.8356 87.327 32.1669ZM86.5301 25.2835C86.3237 25.2672 86.1174 25.2143 85.9175 25.1554C84.8425 24.84 84.7381 24.5134 85.5569 23.7451C87.2358 22.1701 88.9483 20.6304 90.653 19.083C90.8464 18.9068 91.0798 18.7744 91.3854 18.5574C92.0177 20.7675 93.7414 21.4804 95.8811 21.8547C95.5561 22.0786 95.385 22.2148 95.1972 22.3222C94.1591 22.9174 93.0437 23.4073 92.0921 24.1177C90.3904 25.3866 88.4957 25.4391 86.5301 25.2835ZM82.8258 25.097C80.8232 25.9419 78.7467 26.0454 76.6474 25.6277C75.4748 25.3939 75.1778 24.9552 75.0763 23.7777C74.974 22.596 74.8558 21.4155 74.7234 20.0116C79.9433 22.3347 84.8013 21.1714 89.6678 19.2914C87.2027 21.067 85.6936 23.8865 82.8258 25.097ZM72.2304 31.2262C71.55 31.353 70.9508 31.1987 70.429 30.6762C69.9106 30.1575 69.3144 29.717 68.6245 29.1339C71.2457 28.671 73.3695 27.705 74.7217 25.4489C75.9076 28.332 75.3609 30.6435 72.2304 31.2262ZM64.5936 51.0191C65.2839 50.1935 65.9617 49.356 66.6882 48.5631C67.3707 47.8184 68.239 47.5726 69.2207 47.8644C69.8272 48.0445 70.1741 48.5228 69.9845 49.099C69.1201 51.732 68.19 54.3434 67.2426 57.0812C65.6398 55.5045 64.0619 54.1874 61.4532 54.8015C62.6267 53.3881 63.6058 52.2004 64.5936 51.0191ZM70.4948 49.0513C71.4365 46.8301 73.9446 45.4433 76.0667 45.7553C76.5825 45.8309 76.8696 45.9968 76.9242 46.5671C77.0265 47.6384 77.2259 48.7015 77.3153 49.7733C77.3329 49.9842 77.0493 50.4067 76.8803 50.4196C73.2878 50.6989 70.6357 52.6043 68.2235 55.1779C68.9731 53.1324 69.6454 51.0543 70.4948 49.0513ZM77.0733 44.4025C77.0733 43.0738 76.9225 41.7206 77.1365 40.4275C77.2453 39.7713 77.9098 39.0833 78.5008 38.6528C80.2657 37.3662 82.4475 36.948 84.7385 37.3524C81.2762 38.8672 78.5872 40.957 77.0733 44.4025ZM79.8307 40.9342C82.6998 38.0752 86.0409 36.8097 90.2713 37.4921C84.0465 39.5836 80.2734 43.9599 77.8479 49.8235C76.7565 46.347 77.3029 43.4528 79.8307 40.9342ZM88.6173 36.9846C87.8875 37.0292 87.5814 36.6223 87.6764 36.0108C87.7877 35.2919 87.9188 34.5007 88.3048 33.9137C89.2363 32.496 90.4652 31.3693 92.1334 30.8072C93.5686 30.3238 94.99 29.7978 96.5103 29.2581C95.2836 30.4862 94.1398 31.5356 93.1134 32.6886C92.209 33.704 91.5896 34.9111 91.4366 36.2974C91.3833 36.7809 91.1572 36.976 90.6809 36.967C89.9928 36.9536 89.3029 36.942 88.6173 36.9846ZM94.8967 29.4454C94.0482 29.7402 93.2023 30.0432 92.356 30.3453C90.7042 30.9353 89.0373 29.6272 89.3721 27.8834C89.5273 27.0742 89.8944 26.0807 90.5047 25.6282C92.1209 24.4297 93.9215 23.4812 95.7366 22.3794C95.7203 26.5331 95.8234 26.9582 97.2599 28.6427C96.4458 28.9186 95.6691 29.1769 94.8967 29.4454ZM96.6784 27.3187C96.3165 25.9569 96.169 24.5298 96.0465 23.1185C96.016 22.7705 96.3014 22.2367 96.604 22.0464C97.9073 21.2273 99.2707 20.5036 100.705 19.8032C99.7697 22.6652 100.257 25.1112 102.655 27.225C101.016 27.6332 99.5651 28.0969 98.0784 28.3006C97.6447 28.3595 96.7957 27.76 96.6784 27.3187ZM74.7136 14.6151C82.3873 17.0993 89.7847 15.6447 97.2698 13.6143C92.2081 17.8441 86.8645 21.0928 80.1462 20.9467C78.5958 20.9132 77.0531 20.3502 75.5152 19.9961C74.9598 19.8681 74.6942 19.4792 74.7058 18.8698C74.7316 17.4741 74.7136 16.077 74.7136 14.6151ZM74.6916 24.3923C74.6529 25.6256 73.7004 26.4717 72.7789 27.2048C72.3159 27.5727 71.7546 27.8236 71.2207 28.0948C69.4812 28.9787 67.911 28.9452 66.5463 27.3282C65.9772 26.6535 65.2478 26.1133 64.4479 25.3806C69.1868 26.0862 72.2137 24.0429 74.1062 19.9798C74.187 20.0241 74.2674 20.0679 74.3482 20.1122C74.4763 21.5388 74.7368 22.9703 74.6916 24.3923ZM60.6009 20.7628C62.0069 20.7159 63.4133 20.6927 64.818 20.6253C68.4062 20.4521 71.1997 18.7946 73.3703 15.9962C73.6179 15.677 73.8633 15.3559 74.1101 15.0358C74.1771 15.0568 74.2437 15.0783 74.3104 15.099C74.3104 16.4595 74.7037 17.9854 74.2175 19.1427C73.501 20.8513 72.5665 22.5973 70.9087 23.7262C69.3811 24.7661 67.7266 25.4782 65.862 25.2277C64.977 25.109 64.0163 24.7726 63.3148 24.2393C62.0438 23.2728 60.9417 22.0842 59.6011 20.8311C60.0988 20.7963 60.3494 20.7709 60.6009 20.7628ZM59.1919 20.9312C60.0937 21.8006 60.8996 22.7258 61.8534 23.4585C62.965 24.3123 63.2306 25.3845 63.1923 26.6849C63.0685 30.8915 61.3797 34.4664 58.7505 37.6334C57.7863 38.795 56.4921 39.492 54.8949 39.4559C53.7906 39.431 52.6851 39.4512 51.4141 39.4512C55.7722 33.9756 58.5261 27.9684 59.1919 20.9312ZM53.0642 65.0015C52.0158 66.2164 51.2116 67.6418 50.3021 68.9675C50.4637 67.2838 50.692 65.6199 50.7702 63.9483C50.9559 59.9978 50.1628 56.1341 49.5998 52.2541C49.2005 49.5008 48.8304 46.7355 48.2466 44.0192C47.9509 42.6419 47.212 41.36 46.6215 39.9076C47.8538 39.9076 49.102 39.8814 50.3472 39.9308C50.5875 39.9398 50.9082 40.1942 51.0345 40.4224C51.6247 41.4907 52.346 42.5349 52.6821 43.687C54.107 48.5662 54.7934 53.5815 55.0376 58.6506C55.1502 60.9754 54.6731 63.1369 53.0642 65.0015ZM54.5037 50.7187C53.9552 47.0226 53.4618 43.2887 51.2013 39.9531C52.7749 39.874 54.1779 39.7808 55.5822 39.7516C55.8736 39.7456 56.2089 39.9252 56.4573 40.1091C58.6679 41.746 59.7769 44.0725 60.4681 46.641C61.1317 49.1098 61.1983 51.6215 60.7977 54.1316C60.6954 54.7736 60.3795 55.4414 59.9867 55.9665C58.6391 57.7653 57.2151 59.5062 55.8186 61.268C55.6367 61.4975 55.4455 61.7197 55.1639 61.9303C55.8061 58.1267 55.0535 54.4225 54.5037 50.7187ZM66.0391 64.1219C62.6813 61.4803 59.1541 61.3587 55.3384 62.5246C55.7717 61.9449 56.1917 61.3549 56.6413 60.788C57.85 59.2629 59.0681 57.7456 60.288 56.2299C61.3239 54.9425 62.885 54.5733 64.3847 55.2708C64.7354 55.4345 65.0621 55.6541 65.3892 55.8634C66.665 56.679 67.5203 57.627 66.833 59.3197C66.5356 60.0519 66.5154 60.8989 66.3873 61.6969C66.2656 62.4584 66.1672 63.2242 66.0391 64.1219ZM66.6649 62.2676C66.8274 61.3579 66.974 60.4447 67.1558 59.5384C68.0778 54.9394 71.3819 51.6834 76.0134 50.7956C77.3635 50.5365 77.4666 50.6069 77.8715 51.8703C78.0705 52.4921 78.3203 53.0981 78.5687 53.7684C73.4189 55.9244 69.7434 58.5986 66.6649 62.2676ZM78.6585 52.9236C78.3396 51.9863 77.7194 51.1033 78.1952 49.9082C80.4686 44.1971 84.1432 39.8887 90.1363 37.9042C91.4469 37.4702 92.8211 37.2274 94.1656 36.896C94.1862 37.0069 94.2073 37.1178 94.2279 37.2282C87.1946 40.6119 82.7394 46.5228 78.6585 52.9236ZM104.868 28.3788C102.483 30.2894 100.122 32.2309 97.7599 34.1711C97.4143 34.4552 97.1112 34.7925 96.7966 35.1131C96.3431 35.5755 95.9696 36.3077 95.4319 36.4569C94.3027 36.7697 93.0889 36.777 91.9103 36.9098C91.8093 36.8084 91.7082 36.7065 91.6077 36.6055C91.9154 35.7525 92.0886 34.8162 92.5554 34.0611C94.3857 31.0977 96.9066 28.9852 100.374 28.1653C102.643 27.6285 104.914 27.1043 107.243 26.7094C106.449 27.2637 105.622 27.7755 104.868 28.3788ZM103.398 27.0269C103.163 27.072 102.837 26.8542 102.607 26.684C100.589 25.1963 99.9576 21.8663 101.284 19.6988C101.434 19.4551 101.665 19.2153 101.916 19.0877C104.266 17.8922 106.626 16.7208 108.987 15.5476C109.081 15.5012 109.2 15.5055 109.438 15.4638C107.361 18.8462 106.655 22.238 108.76 25.8929C106.893 26.2955 105.152 26.6917 103.398 27.0269ZM109.093 25.6462C108.299 24.6565 107.911 23.4554 107.84 22.1405C107.706 19.6463 108.354 17.4088 109.975 15.4625C110.559 14.7608 111.158 14.7083 111.843 15.2025C112.547 15.7092 113.25 16.2236 113.9 16.7947C115.242 17.9747 116.549 19.1951 117.922 20.4461C114.953 22.1951 112.053 23.9028 109.093 25.6462ZM111.472 14.374C113.459 13.5502 115.507 12.7007 117.641 11.8158C117.809 14.6164 117.965 17.2257 118.139 20.1289C115.794 18.1053 113.667 16.2695 111.472 14.374ZM118.485 20.2015C118.317 17.312 118.16 14.6138 118.003 11.9155C118.133 11.8545 118.264 11.7939 118.395 11.7329C121.056 13.1132 123.717 14.4935 126.535 15.955C123.86 17.3662 121.307 18.713 118.485 20.2015Z" stroke="#383838" stroke-miterlimit="10"/>
</svg>
