<svg width="12" height="512" viewBox="0 0 12 512" fill="none" xmlns="http://www.w3.org/2000/svg">
<path d="M5.99983 0.666667C3.05431 0.666666 0.666493 3.05448 0.666492 6C0.666492 8.94552 3.05431 11.3333 5.99983 11.3333C8.94534 11.3333 11.3332 8.94552 11.3332 6C11.3332 3.05448 8.94534 0.666667 5.99983 0.666667ZM6 501.167C3.05448 501.167 0.666667 503.554 0.666667 506.5C0.666666 509.446 3.05448 511.833 6 511.833C8.94552 511.833 11.3333 509.446 11.3333 506.5C11.3333 503.554 8.94552 501.167 6 501.167ZM4.99983 6L5 506.5L7 506.5L6.99983 6L4.99983 6Z" fill="white"/>
<path d="M5.99996 0.666667C3.05444 0.666667 0.666628 3.05448 0.666628 6C0.666627 8.94552 3.05444 11.3333 5.99996 11.3333C8.94548 11.3333 11.3333 8.94552 11.3333 6C11.3333 3.05448 8.94548 0.666667 5.99996 0.666667ZM5.99999 130L6.99999 130L6.99999 130L5.99999 130ZM5.99996 255L4.99996 255L4.99996 255L5.99996 255ZM6.00002 378.667C3.0545 378.667 0.666689 381.054 0.666689 384C0.666689 386.946 3.0545 389.333 6.00002 389.333C8.94554 389.333 11.3334 386.946 11.3334 384C11.3334 381.054 8.94554 378.667 6.00002 378.667ZM4.99996 6L4.99999 130L6.99999 130L6.99996 6L4.99996 6ZM4.99999 130L4.99996 255L6.99996 255L6.99999 130L4.99999 130ZM4.99996 255L5.00002 384L7.00002 384L6.99996 255L4.99996 255Z" fill="white"/>
</svg>
