<svg width="1209" height="832" viewBox="0 0 1209 832" fill="none" xmlns="http://www.w3.org/2000/svg">
<path d="M1205.25 59.4309C1203.41 44.6036 1197.7 28.991 1188.73 17.1213C1184.35 11.3186 1178.71 6.40925 1171.57 4.47327C1165.63 2.86054 1158.55 2.36688 1152.53 4.03847C1145.48 5.99992 1135.56 11.8685 1130.89 17.2012C1123.23 25.9377 1123.06 37.9348 1125.89 49.5253C1127.41 55.7592 1140 73.4273 1147.53 63.3995C1155.46 52.8412 1136.77 43.1358 1144.21 32.979C1148.59 27.0041 1157.43 29.9872 1162.55 32.4001C1188.91 44.8391 1178.58 81.5867 1164.8 100.314C1147.16 124.306 1116.13 147.161 1085.08 151.17C1080.75 148.86 1074.84 147.456 1068.23 147.456H281.805C281.592 147.32 281.38 147.181 281.174 147.028C275.85 143.057 277.493 135.973 278.393 130.392C279.58 123.045 279.323 115.796 279.415 108.371C279.544 98.0671 279.803 87.7644 280.238 77.4688C280.584 69.2496 281.982 60.1424 277.925 52.5759C273.061 43.5013 259.936 43.7287 254.637 51.8469C249.156 60.2452 251.783 71.1865 251.609 80.5862C251.451 89.061 250.384 97.5471 249.887 106.01C249.28 116.361 249.562 126.811 246.881 136.939C245.455 142.331 242.922 145.597 238.899 147.457H215.128C206.185 139.088 195.211 129.898 185.665 124.554C166.381 113.761 152.581 97.2256 138.519 80.6099C132.806 73.8586 129.061 65.6166 122.722 59.3668C117.229 53.9471 109.424 48.538 101.519 47.7606C91.8545 46.8093 93.661 87.9753 93.661 87.9753C63.8217 98.7031 54.4921 124.135 54.4921 124.136C54.3287 125.468 40.5771 125.765 39.0674 125.948C28.4318 127.24 18.2635 133.403 20.9711 145.167C23.569 156.459 32.1372 160.104 42.2546 163.075C52.6416 166.126 60.7224 172.501 68.2832 180.008C71.6566 183.357 75.1406 186.454 78.4015 189.726C85.1658 196.512 90.8436 204.568 96.2282 212.46C99.0869 216.651 101.174 220.732 103.792 225.023C106.118 228.836 107.128 232.406 107.551 237.101C108.362 246.126 104.035 250.321 96.2571 251.9C76.6626 255.874 56.6798 257.369 36.8586 259.645C31.5716 260.251 26.2916 261.09 21.1714 262.568C9.9702 265.802 -2.19002 279.541 5.32251 291.531C16.5492 309.443 49.2665 299.796 65.3499 297.436C75.8247 295.898 86.4945 295.477 96.9176 293.658C102.6 292.668 108.931 289.822 115.058 288.986V511.241V636.818V758.619C115.058 766.177 125.697 772.098 139.279 772.098H867.921C867.69 773.008 867.469 773.919 867.231 774.827C863.586 788.615 841.158 810.857 848.153 824.364C852.465 832.692 874.313 828.166 881.165 824.685C890.246 820.071 896.055 811.806 900.632 802.951C903.618 797.172 905.812 791.128 908.093 785.054C908.596 783.716 911.994 772.098 913.113 772.098H969.895C978.242 789.494 989.938 805.571 1005.99 815.869C1016.35 822.515 1034.07 825.495 1040.78 808.759C1046.65 794.091 1039.46 782.229 1031.15 772.098H1068.23C1081.82 772.098 1092.45 766.178 1092.45 758.619V636.818V511.241V209.118C1094.54 207.906 1096.62 206.686 1098.68 205.451C1107.89 199.951 1117.04 194.333 1126.01 188.452C1141.75 178.135 1157.08 166.747 1169.42 152.351C1181.81 137.907 1190.72 120.568 1197.99 103.081C1203.64 89.4702 1207.09 74.1748 1205.25 59.4309Z" fill="black" stroke="white" stroke-width="5" stroke-miterlimit="10"/>
<path d="M33.7277 138.978C31.4267 144.266 36.1877 149.981 40.3532 152.188C42.8668 153.52 45.938 154.329 48.6474 155.11C50.5734 155.669 53.6455 156.832 55.5021 155.497C56.9029 154.485 57.1787 152.244 57.3886 150.63C57.8532 147.056 57.5704 142.588 55.8569 139.344C54.8048 137.352 52.4739 136.754 50.5023 136.296C49.386 136.04 47.5303 135.686 45.4444 135.482C41.7295 135.116 35.5931 134.686 33.7277 138.978Z" fill="#767676"/>
<path d="M105.059 85.98C106.717 89.6921 111.901 87.0877 115.35 85.9177C115.968 85.7077 116.548 85.4565 117.066 85.1807C124.337 81.2815 125.086 80.3662 113.8 66.4788C112.311 64.6377 108.988 59.8662 106.198 61.1478C104.947 61.717 104.648 63.8462 104.438 65.0549C103.517 70.3806 102.828 80.9714 105.059 85.98Z" fill="#767676"/>
<path d="M103.669 129.365L97.9761 136.304L117.128 135.201" stroke="#767676" stroke-width="3" stroke-miterlimit="10"/>
<path d="M103.793 127.737L105.761 147.573" stroke="#767676" stroke-width="3" stroke-miterlimit="10"/>
<path d="M72.1092 145.244C77.7835 137.567 84.2105 132.801 86.4624 134.6C88.7133 136.4 85.9381 144.082 80.2628 151.759C74.5876 159.436 68.1614 164.201 65.9087 162.403C63.6578 160.604 66.4331 152.922 72.1092 145.244Z" fill="#FFD476"/>
<path d="M83.2472 149.373C84.2379 150.164 84.2353 151.899 83.2385 153.243C82.2434 154.59 80.6327 155.041 79.6429 154.248L70.0744 146.606C69.0838 145.816 69.0864 144.082 70.0832 142.736C71.0774 141.39 72.689 140.938 73.6779 141.73L83.2472 149.373Z" fill="#2D0827"/>
<path d="M112.733 101.541C120.304 95.9006 127.782 93.2743 129.437 95.6741C131.091 98.0738 126.293 104.59 118.722 110.23C111.15 115.87 103.672 118.495 102.018 116.097C100.364 113.697 105.16 107.181 112.733 101.541Z" fill="#FFD476"/>
<path d="M122.177 108.747C122.904 109.802 122.417 111.459 121.09 112.448C119.763 113.438 118.096 113.383 117.368 112.326L110.34 102.132C109.612 101.076 110.1 99.4171 111.428 98.428C112.754 97.439 114.422 97.4943 115.149 98.5493L122.177 108.747Z" fill="#2D0827"/>
</svg>
