<svg width="48" height="48" viewBox="0 0 48 48" fill="none" xmlns="http://www.w3.org/2000/svg">
<path fill-rule="evenodd" clip-rule="evenodd" d="M10 33.4C13.096 38.008 18.4 41.08 24.4 41.08C30.4 41.08 35.704 38.008 38.8 33.4C38.728 28.6 29.2 25.96 24.4 25.96C19.6 25.96 10.072 28.6 10 33.4ZM29.4912 9.10883C28.1409 7.75857 26.3096 7 24.4 7C22.4904 7 20.6591 7.75857 19.3088 9.10883C17.9586 10.4591 17.2 12.2904 17.2 14.2C17.2 16.1096 17.9586 17.9409 19.3088 19.2912C20.6591 20.6414 22.4904 21.4 24.4 21.4C26.3096 21.4 28.1409 20.6414 29.4912 19.2912C30.8414 17.9409 31.6 16.1096 31.6 14.2C31.6 12.2904 30.8414 10.4591 29.4912 9.10883Z" fill="white"/>
<circle cx="24" cy="24" r="23" stroke="#888888" stroke-width="2"/>
</svg>
