<svg width="706" height="182" viewBox="0 0 706 182" fill="none" xmlns="http://www.w3.org/2000/svg">
<g clip-path="url(#clip0_107_6887)">
<path d="M0.82513 205.591C-1.79725 169.953 153.743 130.678 348.236 117.867C542.729 105.056 702.522 123.564 705.144 159.197C707.766 194.836 552.221 234.11 357.733 246.921C163.24 259.732 3.44745 241.225 0.82513 205.591ZM349.097 129.513C189.698 140.01 62.2224 172.197 64.3659 201.406C66.5156 230.609 197.479 245.777 356.873 235.275C516.272 224.778 643.747 192.592 641.598 163.383C639.454 134.179 508.49 119.011 349.097 129.513Z" fill="#FFFDD7"/>
<path d="M64.3666 201.406C62.2231 172.197 189.699 140.01 349.097 129.513C508.491 119.011 639.455 134.179 641.598 163.383C643.747 192.592 516.272 224.778 356.873 235.275C197.48 245.777 66.5157 230.609 64.3666 201.406ZM350.58 149.66C207.827 159.062 93.1777 181.339 94.5117 199.421C95.84 217.496 212.644 224.53 355.39 215.128C498.143 205.726 612.792 183.449 611.458 165.368C610.13 147.292 493.327 140.258 350.58 149.66Z" fill="#F2EC60"/>
<path d="M0.825103 205.591C-1.79726 169.953 153.743 130.678 348.236 117.867C542.729 105.056 702.522 123.564 705.144 159.197C707.766 194.836 552.221 234.11 357.733 246.921C163.24 259.732 3.44746 241.225 0.825103 205.591Z" stroke="black" stroke-width="11" stroke-miterlimit="10"/>
<path d="M64.3666 201.406C62.2231 172.197 189.699 140.01 349.097 129.513C508.491 119.011 639.455 134.179 641.598 163.383C643.747 192.592 516.272 224.778 356.873 235.275C197.48 245.777 66.5158 230.609 64.3666 201.406Z" stroke="black" stroke-width="11" stroke-miterlimit="10"/>
<path d="M94.5116 199.421C93.1777 181.34 207.826 159.062 350.579 149.66C493.327 140.258 610.13 147.292 611.458 165.368C612.792 183.449 498.144 205.726 355.391 215.128C212.643 224.53 95.8399 217.496 94.5116 199.421Z" stroke="black" stroke-width="11" stroke-miterlimit="10"/>
<path d="M14.9346 197.797C17.1755 195.861 14.4728 191.917 11.4976 193.525C9.94122 194.366 8.33935 195.445 6.91418 196.707C5.08997 197.624 3.62994 199.361 2.94641 201.26L2.5354 201.276L1.35596 200.974C11.6624 166.619 162.111 130.128 348.236 117.867C542.729 105.056 702.522 123.564 705.144 159.197L701.872 159.413C701.929 157.681 701.444 156.008 700.042 154.704C699.631 154.326 699.187 154.094 698.736 153.992C698.035 153.22 697.169 152.557 696.182 151.99C694.649 151.111 693.184 151.764 692.443 152.88C692.414 152.875 692.386 152.875 692.357 152.869C690.898 152.238 688.846 152.897 688.327 154.499C687.141 153.204 685.072 153.285 683.943 154.66C683.903 154.391 683.863 154.132 683.812 153.873C683.498 152.211 682.022 151.71 680.665 152.023C679.399 150.901 676.965 150.885 676.178 152.557C675.09 154.876 674.673 157.751 673.864 160.362C673.225 158.318 672.889 156.155 672.553 154.143C672.313 152.719 670.409 151.866 669.047 152.26C667.188 152.799 666.082 154.041 665.353 155.604C664.566 156.29 663.888 157.082 663.26 157.93C663.112 157.093 662.987 156.274 662.861 155.491C662.548 153.517 659.812 153.042 658.324 154.11C658.141 153.846 657.942 153.586 657.731 153.333C657.668 152.632 657.605 151.926 657.548 151.219C657.354 148.829 653.495 147.179 652.235 149.86C651.409 151.618 651.129 153.489 651.112 155.389C649.898 154.784 648.37 154.892 647.623 156.057C647.201 156.17 646.791 156.397 646.409 156.726C646.078 157.012 645.793 157.346 645.56 157.708C645.554 157.713 645.548 157.723 645.542 157.729C645.377 157.934 645.252 158.166 645.161 158.425C644.511 159.806 644.311 161.521 644.38 163.199L641.598 163.382C639.454 134.178 508.49 119.01 349.097 129.513C194.959 139.664 70.6767 170.092 64.5712 198.503L62.2167 198.611C62.308 197.122 62.2624 195.623 62.2453 194.102C62.2054 190.8 57.6334 190.709 56.6927 193.443C56.0884 191.631 53.3863 191.016 51.9953 192.181C51.1573 192.073 50.2509 192.284 49.5382 192.866C48.934 193.373 48.4101 193.924 47.9478 194.506C47.9648 194.323 47.9763 194.145 47.9933 193.967C48.2442 190.892 43.1762 190.347 42.3952 193.249C42.1957 193.988 42.0024 194.733 41.8086 195.472C40.6228 195.143 39.2313 195.455 38.5472 196.653C38.4674 196.793 38.3818 196.944 38.3021 197.101C38.9291 195.11 39.636 193.136 40.0521 191.178C40.6507 188.362 36.1979 186.14 34.8411 189.101C34.1119 190.703 33.3703 192.305 32.6007 193.886C31.7798 193.271 30.6111 193.093 29.4539 193.659C28.7698 193.999 28.1826 194.458 27.6524 195.002C26.6776 193.098 23.1768 192.802 22.2988 195.407C22.2247 195.617 22.1683 195.828 22.0993 196.038C21.1131 195.234 19.6822 195.062 18.4679 196.238C17.4822 197.203 16.7007 198.298 15.9596 199.42C15.7549 199.194 15.5154 198.999 15.2532 198.843C15.2367 198.45 15.117 198.099 14.9346 197.797Z" fill="#FFFDD7"/>
<path d="M624.667 158.053C623.971 155.087 618.915 155.734 619.069 158.771C619.086 159.116 619.131 159.709 619.171 160.427C618.88 159.854 618.567 159.299 618.253 158.76C617.946 158.226 617.535 157.865 617.085 157.654C616.777 156.936 616.452 156.23 616.116 155.524C614.599 152.357 609.685 155.103 611.19 158.242C612.216 160.388 612.963 162.611 613.613 164.882C613.647 164.996 613.67 165.109 613.698 165.222L611.458 165.368C610.13 147.292 493.327 140.258 350.579 149.661C213.754 158.668 102.75 179.512 94.9453 197.15L94.8256 197.156C95.053 195.796 95.3152 194.437 95.4121 193.056C95.4925 192.889 95.5666 192.711 95.635 192.528C96.1424 191.136 95.0706 189.582 93.6454 189.21C92.9271 189.021 92.243 189.113 91.6616 189.394C90.2883 189.431 89.33 190.413 89.0449 191.535C88.8226 191.713 88.6117 191.934 88.4293 192.204C88.3039 192.393 88.179 192.582 88.053 192.77C88.0365 192.781 88.0137 192.797 87.996 192.808C87.0953 193.418 86.2402 194.027 85.4933 194.739C85.1963 193.833 84.8776 192.927 84.5185 192.037C83.3898 189.232 79.0737 189.599 78.9203 192.754C78.909 193.018 78.9033 193.288 78.8975 193.553C78.3275 192.911 77.5237 192.555 76.7084 192.555C76.0871 192.01 75.2149 191.708 74.1716 191.907C70.9108 192.522 67.4789 195.241 65.9402 198.445L64.5721 198.504C70.6777 170.094 194.96 139.665 349.098 129.514C508.491 119.011 639.455 134.18 641.599 163.383L639.05 163.551C639.062 163.389 639.067 163.222 639.067 163.06C639.05 161.712 638.372 160.465 637.169 159.732C635.938 158.977 634.513 159.063 633.133 159.273C632.426 159.381 631.862 159.818 631.503 160.39C631.497 160.39 631.497 160.39 631.491 160.39C629.239 160.373 627.255 160.853 625.711 162.051C625.18 160.518 624.872 158.927 624.667 158.053Z" fill="#F2EC60"/>
<path d="M64.3663 201.406C64.2979 200.44 64.3663 199.475 64.5715 198.504C70.677 170.093 194.96 139.665 349.097 129.513C508.491 119.011 639.454 134.179 641.598 163.383" stroke="black" stroke-width="11" stroke-miterlimit="10"/>
<path d="M701.872 159.413L705.144 159.197C702.522 123.563 542.729 105.056 348.236 117.867C162.111 130.128 11.6624 166.619 1.35593 200.974C0.893599 202.517 0.711157 204.06 0.825172 205.592" stroke="black" stroke-width="11" stroke-miterlimit="10"/>
<path d="M639.05 163.55L641.598 163.383L644.38 163.199" stroke="black" stroke-width="11" stroke-miterlimit="10"/>
<path d="M94.7399 197.673C94.7969 197.5 94.8653 197.322 94.9451 197.15C102.749 179.511 213.754 158.668 350.579 149.66C493.326 140.258 610.13 147.292 611.458 165.368L613.698 165.222" stroke="black" stroke-width="11" stroke-miterlimit="10"/>
<path d="M149.291 187.99C149.154 84.0403 237.601 0.571987 346.68 0.259142C457.149 -0.0537337 545.312 84.5359 545.323 187.434C545.5 291.076 456.471 375.478 346.258 374.998C237.972 374.523 149.427 291.406 149.291 187.99ZM154.467 185.902C153.572 288.321 240.988 370.095 347.182 370.111C453.604 370.181 539.788 288.687 540.165 188.427C540.547 86.7103 453.65 5.77729 348.653 5.18395C241.449 4.57983 155.345 86.2411 154.467 185.902Z" fill="black"/>
<path d="M347.181 370.111C240.987 370.095 153.572 288.32 154.467 185.902C155.345 86.2411 241.449 4.57989 348.652 5.18456C453.649 5.7779 540.546 86.7109 540.163 188.427C539.788 288.687 453.603 370.181 347.181 370.111ZM257.936 121.454C228.263 122.036 203.391 146.126 203.807 174.186C204.252 204.188 229.13 227.313 260.695 226.811C291.366 226.32 316.324 202.338 315.246 172.218C314.254 144.389 289.877 120.833 257.936 121.454ZM207.991 84.6876C207.963 88.7008 211.224 91.8887 215.367 91.8995C219.683 91.9103 222.927 88.9327 222.973 84.9195C223.018 80.9549 219.723 77.7082 215.607 77.6807C211.435 77.6483 208.02 80.7931 207.991 84.6876ZM211.475 256.425C211.423 260.745 215.032 264.23 219.536 264.208C223.896 264.192 227.459 260.789 227.488 256.624C227.517 252.487 223.954 249.078 219.576 249.046C215.146 249.013 211.526 252.309 211.475 256.425ZM213.276 300.112C211.839 301.703 211.931 304.033 213.613 306.471C214.747 308.1 215.893 309.821 217.409 311.105C223.133 315.943 228.828 320.846 234.882 325.307C243.068 331.343 251.904 336.495 261.271 340.761C265.056 342.482 268.881 344.208 272.524 344.435C276.383 344.489 278.709 342.876 278.607 340.33C278.544 338.954 278.031 337.379 277.159 336.301C274.85 333.452 272.467 330.588 269.696 328.15C258.716 318.489 246.431 310.495 233.211 303.855C229.004 301.741 224.404 300.295 219.905 298.763C217.551 297.959 215.094 298.1 213.276 300.112ZM278.607 37.9316C278.549 44.1504 284.051 49.4372 290.527 49.3778C297.025 49.3185 302.316 44.2588 302.333 38.0826C302.356 31.9657 296.969 26.9012 290.447 26.906C284.057 26.9114 278.664 31.9333 278.607 37.9316ZM304.961 99.9313C300.093 104.608 302.174 113.363 309.716 119.97C316.825 126.206 326.619 127.652 331.299 123.158C336.082 118.562 334.075 109.759 326.79 103.319C319.538 96.916 309.693 95.3895 304.961 99.9313ZM367.009 333.604C361.188 333.62 356.565 338.016 356.57 343.523C356.582 349.025 361.262 353.443 367.066 353.438C372.795 353.432 377.544 348.912 377.538 343.469C377.538 338.032 372.795 333.593 367.009 333.604ZM402.211 34.6196C395.832 35.5366 392.041 39.9597 392.274 46.0712C392.434 50.1492 394.03 53.7902 396.225 57.1777C401.914 65.9647 409.895 72.3782 419.61 76.899C424.501 79.1753 429.62 80.5827 435.139 80.4262C442.926 80.2056 447.749 75.2808 446.968 67.9713C446.7 65.49 445.964 62.9278 444.83 60.6784C440.281 51.7021 432.904 45.165 424.016 40.0892C418.521 36.9498 412.683 34.6681 406.144 34.3277C404.833 34.4205 403.511 34.4362 402.211 34.6196ZM414.941 269.198C409.365 274.921 405.745 281.475 406.144 289.496C406.355 293.714 408.071 297.388 411.543 300.171C415.727 303.521 420.738 304.502 425.903 303.515C439.403 300.926 448.21 293.115 452.423 280.779C453.98 276.227 453.883 271.507 451.488 267.181C448.421 261.652 443.239 259.343 436.786 259.338C429.17 259.338 421.035 262.957 414.941 269.198ZM419.661 171.435C419.558 176.56 424.136 180.994 429.614 181.075C435.076 181.155 439.813 176.867 439.921 171.748C440.03 166.36 435.56 161.969 429.865 161.871C424.307 161.78 419.764 166.036 419.661 171.435ZM457.982 175.783C447.264 175.783 438.65 183.944 438.673 194.085C438.696 204.059 447.469 212.425 457.993 212.193C469.07 211.956 477.148 204.118 477.176 193.977C477.205 183.869 468.636 175.788 457.982 175.783ZM492.574 101.835C488.218 101.819 484.598 105.244 484.616 109.371C484.638 113.438 488.196 116.847 492.448 116.874C496.935 116.901 500.447 113.546 500.441 109.247C500.435 105.153 496.929 101.852 492.574 101.835ZM503.987 118.6C499.626 118.584 496.011 122.009 496.028 126.13C496.051 130.203 499.609 133.612 503.861 133.639C508.342 133.666 511.86 130.311 511.854 126.006C511.848 121.918 508.342 118.617 503.987 118.6Z" fill="#BFE4FF"/>
<path d="M203.807 174.186C203.391 146.126 228.263 122.036 257.936 121.454C289.876 120.833 314.253 144.389 315.245 172.218C316.323 202.338 291.364 226.32 260.695 226.811C229.13 227.313 204.251 204.188 203.807 174.186ZM260.051 126.896C232.453 126.767 209.644 147.81 209.696 174.062C209.576 200.261 231.934 221.023 258.739 221.384C286.485 221.762 309.156 200.924 309.43 174.698C309.704 148.451 287.34 127.031 260.051 126.896Z" fill="black"/>
<path d="M215.368 91.8994C211.224 91.8881 207.963 88.7008 207.992 84.6875C208.02 80.793 211.435 77.6483 215.608 77.6806C219.724 77.7081 223.019 80.9548 222.973 84.9195C222.927 88.9327 219.683 91.9102 215.368 91.8994ZM213.196 84.6929C213.122 85.9228 214.188 86.9854 215.493 86.9914C216.741 86.9968 217.767 86.0582 217.808 84.8763C217.854 83.647 216.941 82.7516 215.596 82.6976C214.279 82.6486 213.27 83.4901 213.196 84.6929Z" fill="black"/>
<path d="M209.696 174.063C209.644 147.81 232.453 126.767 260.051 126.897C287.34 127.032 309.704 148.452 309.43 174.699C309.157 200.925 286.485 221.763 258.739 221.385C231.934 221.023 209.576 200.261 209.696 174.063Z" fill="#64AFF2"/>
<path d="M215.493 86.9913C214.188 86.9854 213.122 85.9233 213.196 84.6929C213.27 83.4906 214.279 82.6485 215.596 82.6976C216.941 82.7515 217.854 83.647 217.808 84.8763C217.768 86.0576 216.742 86.9962 215.493 86.9913Z" fill="#F5DAED"/>
<path d="M290.527 49.3778C284.051 49.4371 278.549 44.1509 278.607 37.9315C278.664 31.9333 284.057 26.9109 290.447 26.906C296.969 26.9006 302.357 31.9657 302.334 38.0826C302.316 44.2588 297.026 49.3185 290.527 49.3778ZM285.698 38.0286C285.641 40.3481 287.859 42.5435 290.345 42.6406C292.887 42.7323 295.321 40.4889 295.304 38.0718C295.287 35.7685 292.933 33.5569 290.516 33.5677C287.996 33.5785 285.75 35.6552 285.698 38.0286Z" fill="black"/>
<path d="M290.344 42.6407C287.859 42.5436 285.641 40.3482 285.698 38.0287C285.75 35.6553 287.996 33.5786 290.515 33.5678C292.933 33.5565 295.287 35.7686 295.304 38.0719C295.321 40.489 292.887 42.7324 290.344 42.6407Z" fill="#F5DAED"/>
<path d="M309.716 119.97C302.174 113.363 300.093 104.608 304.961 99.9313C309.693 95.3895 319.538 96.916 326.789 103.319C334.075 109.759 336.082 118.563 331.299 123.158C326.618 127.652 316.824 126.206 309.716 119.97ZM308.444 103.545C305.309 106.944 307.076 113.288 312.384 117.699C317.708 122.133 324.543 122.996 327.741 119.636C330.962 116.248 329.224 109.819 323.887 105.39C318.507 100.924 311.62 100.104 308.444 103.545Z" fill="black"/>
<path d="M312.384 117.699C307.076 113.287 305.309 106.944 308.445 103.545C311.62 100.104 318.506 100.924 323.888 105.39C329.224 109.819 330.963 116.248 327.742 119.636C324.544 122.997 317.708 122.133 312.384 117.699Z" fill="#64AFF2"/>
<path d="M392.275 46.0712C392.041 39.9597 395.832 35.5366 402.211 34.6196C403.511 34.4362 404.833 34.4205 406.145 34.3283C412.683 34.6687 418.521 36.9498 424.016 40.0897C432.904 45.1656 440.281 51.7027 444.83 60.679C445.964 62.9283 446.7 65.4905 446.968 67.9718C447.749 75.2813 442.926 80.2062 435.139 80.4268C429.62 80.5832 424.501 79.1759 419.61 76.8996C409.896 72.3788 401.915 65.9652 396.225 57.1782C394.03 53.7902 392.434 50.1492 392.275 46.0712ZM403.636 39.3772C399.195 39.8518 396.864 42.4194 397.576 46.5783C397.975 48.8869 398.756 51.2555 399.942 53.2939C405.238 62.3776 413.253 68.7157 423.144 72.9986C427.46 74.8649 431.946 76.084 436.78 75.3018C439.967 74.784 441.814 72.751 441.883 69.7028C441.997 64.7995 439.443 60.8672 436.57 57.1345C432.619 51.9993 427.614 47.889 421.879 44.6046C416.993 41.7996 411.834 39.6798 405.825 39.259C405.232 39.2909 404.429 39.2963 403.636 39.3772Z" fill="black"/>
<path d="M397.576 46.5782C396.863 42.4194 399.195 39.8518 403.636 39.3771C404.428 39.2962 405.232 39.2909 405.825 39.2585C411.834 39.6792 416.993 41.7991 421.878 44.604C427.613 47.889 432.619 51.9993 436.569 57.134C439.442 60.8667 441.996 64.799 441.882 69.7022C441.814 72.7499 439.967 74.7834 436.78 75.3013C431.946 76.0834 427.459 74.8643 423.144 72.998C413.253 68.7151 405.238 62.377 399.942 53.2934C398.756 51.2555 397.975 48.8869 397.576 46.5782Z" fill="#64AFF2"/>
<path d="M429.614 181.075C424.136 180.994 419.558 176.56 419.661 171.436C419.763 166.036 424.307 161.781 429.865 161.872C435.56 161.97 440.03 166.36 439.921 171.749C439.813 176.867 435.076 181.156 429.614 181.075ZM424.9 171.458C424.888 174.079 426.998 176.075 429.768 176.064C432.653 176.053 434.642 174.182 434.642 171.484C434.642 168.836 432.59 166.873 429.797 166.851C427.083 166.824 424.911 168.868 424.9 171.458Z" fill="black"/>
<path d="M429.769 176.064C426.998 176.075 424.889 174.079 424.9 171.458C424.912 168.868 427.084 166.824 429.797 166.851C432.591 166.873 434.643 168.836 434.643 171.484C434.643 174.181 432.653 176.053 429.769 176.064Z" fill="#F5DAED"/>
<path d="M438.673 194.085C438.65 183.944 447.264 175.783 457.981 175.783C468.636 175.788 477.204 183.869 477.176 193.977C477.147 204.118 469.069 211.956 457.993 212.193C447.469 212.425 438.696 204.059 438.673 194.085ZM457.856 180.686C450.103 180.724 443.792 186.792 443.872 194.139C443.952 201.427 450.422 207.425 458.135 207.355C465.757 207.29 472 201.254 471.988 193.961C471.977 186.566 465.678 180.654 457.856 180.686Z" fill="black"/>
<path d="M443.872 194.139C443.792 186.792 450.103 180.724 457.856 180.686C465.678 180.654 471.977 186.566 471.988 193.961C472 201.254 465.757 207.29 458.135 207.355C450.422 207.425 443.952 201.427 443.872 194.139Z" fill="#64AFF2"/>
<path d="M484.615 109.371C484.598 105.245 488.218 101.819 492.574 101.835C496.929 101.852 500.435 105.153 500.441 109.247C500.446 113.546 496.935 116.901 492.448 116.874C488.195 116.847 484.638 113.438 484.615 109.371ZM489.826 109.279C489.797 110.655 491.046 111.858 492.528 111.868C494.067 111.885 495.287 110.784 495.293 109.377C495.304 107.964 494.101 106.787 492.619 106.76C491.148 106.739 489.854 107.904 489.826 109.279Z" fill="black"/>
<path d="M496.029 126.13C496.012 122.009 499.626 118.584 503.987 118.6C508.342 118.616 511.848 121.918 511.854 126.006C511.86 130.31 508.342 133.665 503.862 133.639C499.609 133.612 496.051 130.203 496.029 126.13ZM501.233 126.039C501.205 127.42 502.459 128.617 503.936 128.633C505.481 128.645 506.7 127.549 506.706 126.141C506.712 124.723 505.515 123.547 504.033 123.525C502.562 123.498 501.262 124.669 501.233 126.039Z" fill="black"/>
</g>
<defs>
<clipPath id="clip0_107_6887">
<rect width="704.385" height="374.742" fill="white" transform="translate(705.177 375) rotate(180)"/>
</clipPath>
</defs>
</svg>
