<svg width="16" height="18" viewBox="0 0 16 18" fill="none" xmlns="http://www.w3.org/2000/svg">
<path d="M5.94286 0.70166C7.519 0.70166 9.03059 1.36073 10.1451 2.53389C11.2596 3.70705 11.8857 5.2982 11.8857 6.9573C11.8857 8.50677 11.3463 9.93113 10.4594 11.0283L10.7063 11.2881H11.4286L16 16.1002L14.6286 17.5438L10.0571 12.7317V11.9714L9.81029 11.7116C8.768 12.6451 7.41486 13.2129 5.94286 13.2129C4.36671 13.2129 2.85512 12.5539 1.74062 11.3807C0.62612 10.2075 0 8.6164 0 6.9573C0 5.2982 0.62612 3.70705 1.74062 2.53389C2.85512 1.36073 4.36671 0.70166 5.94286 0.70166ZM5.94286 2.62647C3.65714 2.62647 1.82857 4.55128 1.82857 6.9573C1.82857 9.36331 3.65714 11.2881 5.94286 11.2881C8.22857 11.2881 10.0571 9.36331 10.0571 6.9573C10.0571 4.55128 8.22857 2.62647 5.94286 2.62647Z" fill="#FEFEF4"/>
</svg>
