<svg width="540" height="638" viewBox="0 0 540 638" fill="none" xmlns="http://www.w3.org/2000/svg">
<path fill-rule="evenodd" clip-rule="evenodd" d="M107.672 147.174C106.053 138.203 100.314 134.669 92.6729 132.113C100.335 129.558 106.086 126.048 107.27 117.075C110.592 124.259 113.72 130.679 122.897 131.726C115.258 134.711 109.447 138.395 107.672 147.174Z" fill="#E1DCA5"/>
<path fill-rule="evenodd" clip-rule="evenodd" d="M83.8163 291.135C74.8506 292.755 71.3179 298.497 68.7633 306.142C66.2092 298.475 62.7009 292.722 53.7322 291.537C60.9132 288.214 67.3298 285.084 68.3769 275.902C71.3597 283.545 75.0423 289.359 83.8163 291.135Z" fill="#FFF0B4"/>
<path fill-rule="evenodd" clip-rule="evenodd" d="M30.0842 96.2144C21.1179 97.835 17.5858 103.577 15.0307 111.222C12.477 103.556 8.96922 97.8022 0 96.6169C7.18104 93.2943 13.5976 90.1644 14.6452 80.9825C17.6275 88.6248 21.3102 94.4388 30.0842 96.2144Z" fill="#2BC5F3"/>
<path fill-rule="evenodd" clip-rule="evenodd" d="M161.796 30.0984C160.176 21.1288 154.437 17.5939 146.796 15.038C154.458 12.4832 160.209 8.97263 161.394 0C164.715 7.18456 167.844 13.6043 177.02 14.6514C169.382 17.6357 163.571 21.3201 161.796 30.0984Z" fill="#E1DCA5"/>
<path fill-rule="evenodd" clip-rule="evenodd" d="M376.942 84.8526C375.323 75.8825 369.584 72.3481 361.943 69.7917C369.605 67.2368 375.355 63.7268 376.54 54.7537C379.862 61.9382 382.99 68.358 392.167 69.4051C384.528 72.3898 378.718 76.0743 376.942 84.8526Z" fill="#E1DCA5"/>
<path fill-rule="evenodd" clip-rule="evenodd" d="M389.37 370.694C380.404 372.314 376.871 378.056 374.317 385.701C371.763 378.035 368.254 372.282 359.286 371.097C366.467 367.773 372.884 364.643 373.93 355.462C376.913 363.105 380.596 368.918 389.37 370.694Z" fill="#FFF0B4"/>
<path fill-rule="evenodd" clip-rule="evenodd" d="M524.775 186.176C523.156 177.206 517.417 173.672 509.776 171.116C517.438 168.561 523.189 165.05 524.373 156.077C527.695 163.262 530.823 169.681 540 170.729C532.361 173.713 526.55 177.398 524.775 186.176Z" fill="#FFF0B4"/>
<path fill-rule="evenodd" clip-rule="evenodd" d="M479.688 305.617C478.068 296.646 472.329 293.112 464.688 290.556C472.35 288.001 478.101 284.491 479.286 275.518C482.607 282.702 485.735 289.122 494.912 290.17C487.274 293.154 481.462 296.838 479.688 305.617Z" fill="#2BC5F3"/>
<path fill-rule="evenodd" clip-rule="evenodd" d="M364.527 608.672C373.497 607.053 377.031 601.314 379.588 593.673C382.143 601.335 385.653 607.086 394.626 608.27C387.441 611.592 381.021 614.72 379.974 623.897C376.99 616.258 373.305 610.447 364.527 608.672Z" fill="#E1DCA5"/>
<path fill-rule="evenodd" clip-rule="evenodd" d="M220.565 584.816C218.945 575.851 213.204 572.318 205.559 569.763C213.225 567.209 218.978 563.701 220.163 554.732C223.487 561.913 226.616 568.33 235.798 569.377C228.156 572.36 222.342 576.042 220.565 584.816Z" fill="#FFF0B4"/>
<path fill-rule="evenodd" clip-rule="evenodd" d="M415.486 531.084C413.865 522.118 408.123 518.586 400.478 516.031C408.144 513.477 413.898 509.969 415.083 501C418.406 508.181 421.536 514.598 430.718 515.645C423.076 518.627 417.262 522.31 415.486 531.084Z" fill="#2BC5F3"/>
</svg>
