<svg width="483" height="561" viewBox="0 0 483 561" fill="none" xmlns="http://www.w3.org/2000/svg">
<path d="M347.101 581.364L293.734 231.533H317.492L402.301 581.364H347.101Z" fill="#D97595"/>
<path d="M318.143 229.545V231.533H317.492L317.01 229.545H318.143Z" fill="black"/>
<path d="M317.01 229.545L317.492 231.533H293.734L293.431 229.545H317.01Z" fill="black"/>
<path d="M293.734 231.533L347.102 581.364H289.13L266.961 231.533H293.734Z" fill="#D86B68"/>
<path d="M293.431 229.545L293.734 231.533H266.961L266.837 229.545H293.431Z" fill="black"/>
<path d="M289.13 581.364H240.014V231.533H266.961L289.13 581.364Z" fill="#EEDDA1"/>
<path d="M266.837 229.545L266.961 231.533H240.014V229.545H266.837Z" fill="black"/>
<path d="M240.015 231.533V581.364H192.613L214.776 231.533H240.015Z" fill="#E7EB8A"/>
<path d="M240.014 229.545V231.533H214.776L214.9 229.545H240.014Z" fill="black"/>
<path d="M214.9 229.545L214.776 231.533H188.008L188.311 229.545H214.9Z" fill="black"/>
<path d="M214.776 231.533L192.612 581.364H134.64L188.008 231.533H214.776Z" fill="#B9D17D"/>
<path d="M188.311 229.545L188.008 231.533H162.536L163.018 229.545H188.311Z" fill="black"/>
<path d="M188.008 231.533L134.641 581.364H77.7268L162.536 231.533H188.008Z" fill="#6288B1"/>
<path d="M163.018 229.545L162.536 231.533H162.407V229.545H163.018Z" fill="black"/>
<path d="M163.018 229.545L162.536 231.533L77.7268 581.364L77.4834 582.358" stroke="black" stroke-width="4" stroke-miterlimit="10"/>
<path d="M317.01 229.545L317.492 231.533L402.302 581.364L402.545 582.358" stroke="black" stroke-width="4" stroke-miterlimit="10"/>
<path d="M240.014 229.545V231.533V581.364V582.358" stroke="black" stroke-width="4" stroke-miterlimit="10"/>
<path d="M214.901 229.545L214.776 231.533L192.613 581.364L192.548 582.358" stroke="black" stroke-width="4" stroke-miterlimit="10"/>
<path d="M188.311 229.545L188.008 231.533L134.641 581.364L134.487 582.358" stroke="black" stroke-width="4" stroke-miterlimit="10"/>
<path d="M266.837 229.545L266.961 231.533L289.13 581.364L289.194 582.358" stroke="black" stroke-width="4" stroke-miterlimit="10"/>
<path d="M293.431 229.545L293.734 231.533L347.101 581.364L347.255 582.358" stroke="black" stroke-width="4" stroke-miterlimit="10"/>
<path fill-rule="evenodd" clip-rule="evenodd" d="M389.612 199.725C371.15 222.205 318.096 248.387 241.941 248.387C165.786 248.387 121.59 221.18 100.469 200.489C41.5124 142.731 165.786 148.836 241.941 148.836C318.096 148.836 428.677 152.157 389.612 199.725Z" fill="#1587B9" stroke="black" stroke-width="16" stroke-miterlimit="10"/>
<path d="M241.411 205.902C370.128 205.902 474.474 177.197 474.474 141.788C474.474 106.379 370.128 77.6741 241.411 77.6741C112.694 77.6741 8.34766 106.379 8.34766 141.788C8.34766 177.197 112.694 205.902 241.411 205.902Z" fill="#73CBF1" stroke="black" stroke-width="16" stroke-miterlimit="10"/>
<path d="M67.3705 156.215C79.8811 156.215 90.0228 150.785 90.0228 144.088C90.0228 137.39 79.8811 131.961 67.3705 131.961C54.86 131.961 44.7183 137.39 44.7183 144.088C44.7183 150.785 54.86 156.215 67.3705 156.215Z" fill="#42535B" stroke="black" stroke-width="5" stroke-miterlimit="10"/>
<path d="M66.9058 149.965C78.2847 149.965 87.5091 145.931 87.5091 140.956C87.5091 135.98 78.2847 131.947 66.9058 131.947C55.5269 131.947 46.3025 135.98 46.3025 140.956C46.3025 145.931 55.5269 149.965 66.9058 149.965Z" fill="#83D3EC" stroke="black" stroke-width="5" stroke-miterlimit="10"/>
<path d="M148.327 179.689C160.838 179.689 170.98 174.26 170.98 167.562C170.98 160.865 160.838 155.435 148.327 155.435C135.817 155.435 125.675 160.865 125.675 167.562C125.675 174.26 135.817 179.689 148.327 179.689Z" fill="#42535B" stroke="black" stroke-width="5" stroke-miterlimit="10"/>
<path d="M147.862 173.44C159.241 173.44 168.465 169.406 168.465 164.431C168.465 159.455 159.241 155.422 147.862 155.422C136.483 155.422 127.259 159.455 127.259 164.431C127.259 169.406 136.483 173.44 147.862 173.44Z" fill="#83D3EC" stroke="black" stroke-width="5" stroke-miterlimit="10"/>
<path d="M243.219 188.683C255.729 188.683 265.871 183.253 265.871 176.556C265.871 169.858 255.729 164.429 243.219 164.429C230.708 164.429 220.567 169.858 220.567 176.556C220.567 183.253 230.708 188.683 243.219 188.683Z" fill="#42535B" stroke="black" stroke-width="5" stroke-miterlimit="10"/>
<path d="M242.754 182.433C254.133 182.433 263.357 178.4 263.357 173.424C263.357 168.449 254.133 164.415 242.754 164.415C231.375 164.415 222.15 168.449 222.15 173.424C222.15 178.4 231.375 182.433 242.754 182.433Z" fill="#83D3EC" stroke="black" stroke-width="5" stroke-miterlimit="10"/>
<path d="M413.402 151.336C425.913 151.336 436.054 145.906 436.054 139.209C436.054 132.511 425.913 127.082 413.402 127.082C400.892 127.082 390.75 132.511 390.75 139.209C390.75 145.906 400.892 151.336 413.402 151.336Z" fill="#42535B" stroke="black" stroke-width="5" stroke-miterlimit="10"/>
<path d="M412.937 145.086C424.315 145.086 433.54 141.052 433.54 136.077C433.54 131.101 424.315 127.068 412.937 127.068C401.558 127.068 392.333 131.101 392.333 136.077C392.333 141.052 401.558 145.086 412.937 145.086Z" fill="#83D3EC" stroke="black" stroke-width="5" stroke-miterlimit="10"/>
<path d="M334.768 176.542C347.278 176.542 357.42 171.113 357.42 164.416C357.42 157.718 347.278 152.289 334.768 152.289C322.257 152.289 312.115 157.718 312.115 164.416C312.115 171.113 322.257 176.542 334.768 176.542Z" fill="#42535B" stroke="black" stroke-width="5" stroke-miterlimit="10"/>
<path d="M334.303 170.293C345.681 170.293 354.906 166.259 354.906 161.284C354.906 156.308 345.681 152.275 334.303 152.275C322.924 152.275 313.699 156.308 313.699 161.284C313.699 166.259 322.924 170.293 334.303 170.293Z" fill="#83D3EC" stroke="black" stroke-width="5" stroke-miterlimit="10"/>
<path d="M348.966 90.1622C333.729 46.1996 298.232 8.92802 242.659 7.45552C198.793 6.29015 152.774 37.7194 139.664 79.0089C138.634 82.2496 137.294 85.4098 136.201 88.6381C134.411 93.9411 131.559 100.314 131.946 106.025C132.396 112.665 138.012 116.157 143.68 118.212C151.091 120.897 159.112 122.374 166.742 124.325C186.254 129.321 206.081 132.892 226.175 134.425C237.063 135.255 248 134.513 258.869 133.759C268.426 133.096 278.065 132.893 287.582 131.78C296.385 130.746 305.128 129.182 313.835 127.577C321.417 126.18 329.083 125.012 336.346 122.33C342.07 120.215 348.591 117.366 350.984 111.296C353.624 104.6 351.207 96.6272 348.966 90.1622ZM348.14 63.8293C351.774 70.9885 353.92 79.4165 356.034 87.1298C358.16 94.8873 360.505 103.036 361.187 111.073C361.725 117.414 359.38 121.42 353.433 123.775C311.399 140.431 267.808 146.225 222.905 143.392C191.89 141.437 161.881 135.004 132.912 123.52C129.685 122.243 125.549 118.44 125.114 115.092C123.906 105.762 124.991 97.2941 127.16 89.8283C129.753 80.9014 133.953 72.5574 138.164 64.3088C140.837 59.0853 143.82 54.0173 147.075 49.1331C155.251 36.8582 166.455 26.9021 178.644 18.7177C184.782 14.5874 191.303 11.1315 198.228 8.5061C202.28 6.96999 206.412 5.68088 210.58 4.51153C214.712 3.34616 218.836 2.06151 223.056 1.25942C226.199 0.665051 229.374 0.389736 232.557 0.221763C245.041 -0.432735 257.597 0.469249 269.873 2.77564C279.589 4.59552 288.878 7.95944 297.538 12.7159C305.479 17.0812 312.949 22.3808 319.838 28.2548C326.77 34.1647 333.043 40.817 338.297 48.2709C341.826 53.2783 345.364 58.3503 348.14 63.8293Z" fill="black"/>
<path d="M313.835 127.577C305.128 129.182 296.385 130.745 287.582 131.78C278.066 132.893 268.426 133.097 258.869 133.759C248 134.513 237.064 135.255 226.175 134.425C206.081 132.893 186.254 129.321 166.742 124.325C159.112 122.374 151.091 120.897 143.68 118.212C138.012 116.157 132.397 112.665 131.946 106.025C131.559 100.314 134.41 93.9416 136.201 88.638C137.294 85.4097 138.634 82.2496 139.664 79.0089C152.774 37.7194 198.794 6.29008 242.659 7.45545C298.232 8.92795 333.729 46.199 348.966 90.1622C351.207 96.6266 353.624 104.6 350.984 111.296C348.591 117.365 342.069 120.214 336.346 122.329C329.083 125.011 321.417 126.18 313.835 127.577ZM233.319 26.3862C235.309 25.9513 236.94 23.8522 238.739 22.5074C236.757 21.4061 234.807 20.2249 232.764 19.2468C232.142 18.9477 231.257 19.1991 231.56 19.1991C209.934 20.7352 191.894 28.2215 176.797 42.2959C175.21 43.7724 175.086 46.8292 174.288 49.1515C176.654 48.6565 179.692 48.9239 181.288 47.5354C192.476 37.7626 205.068 30.8787 219.686 28.058C224.169 27.1923 228.863 27.3642 233.319 26.3862Z" fill="#D4DFE3"/>
<path d="M238.739 22.5081C236.94 23.8528 235.309 25.952 233.318 26.3869C228.863 27.3644 224.169 27.1929 219.685 28.0591C205.067 30.8804 192.476 37.7638 181.288 47.5365C179.692 48.925 176.653 48.6577 174.288 49.1526C175.086 46.8303 175.209 43.7735 176.797 42.2971C191.893 28.2226 209.933 20.7364 231.559 19.2003C231.256 19.2003 232.141 18.9488 232.764 19.248C234.806 20.225 236.756 21.4063 238.739 22.5081Z" fill="white"/>
</svg>
