<svg width="25" height="19" viewBox="0 0 25 19" fill="none" xmlns="http://www.w3.org/2000/svg">
<path d="M21.9245 4.44657H3.80304C3.3828 4.44657 3.04243 4.16373 3.04243 3.81453C3.04243 3.46532 3.3828 3.18248 3.80304 3.18248H22.0576C22.4779 3.18248 22.8182 2.89964 22.8182 2.55044C22.8182 1.50321 21.7966 0.654297 20.5364 0.654297H3.04243C1.36196 0.654297 0 1.78605 0 3.18248V15.8234C0 17.2198 1.36196 18.3516 3.04243 18.3516H21.9245C23.2565 18.3516 24.3395 17.5011 24.3395 16.4555V6.34271C24.3395 5.29707 23.2565 4.44657 21.9245 4.44657ZM19.7758 12.6632C18.9358 12.6632 18.2546 12.0971 18.2546 11.3991C18.2546 10.7011 18.9358 10.135 19.7758 10.135C20.6158 10.135 21.297 10.7011 21.297 11.3991C21.297 12.0971 20.6158 12.6632 19.7758 12.6632Z" fill="white"/>
</svg>
