<svg width="185" height="168" viewBox="0 0 185 168" fill="none" xmlns="http://www.w3.org/2000/svg">
<path d="M91.8297 30.9025C103.636 31.172 113.838 41.532 113.788 53.2025C113.739 65.1119 103.75 74.8893 91.5715 74.9465C79.521 75.0017 69.3885 65.2114 69.2006 53.3281C69.0132 41.4367 79.918 30.631 91.8297 30.9025Z" fill="#6277A6"/>
<path d="M154.902 161.794C155.028 166.105 153.18 167.549 148.935 167.538C110.448 167.439 71.9597 167.439 33.4698 167.564C28.9711 167.58 27.6863 165.631 27.7987 161.569C27.9577 155.82 27.7788 150.066 27.8671 144.315C28.0394 133.238 33.982 127.152 44.9599 126.792C48.2558 126.684 51.5605 126.774 54.7039 126.774C55.1057 126.169 55.5253 125.825 55.5517 125.452C56.2735 115.152 56.2669 115.167 66.8233 115.216C71.2426 115.236 75.6623 115.183 80.0817 115.123C80.4877 115.119 80.8894 114.834 82.1389 114.353C82.1389 102.402 82.2338 90.1169 81.9888 77.8385C81.9643 76.6555 79.9887 75.2781 78.6533 74.3883C68.8058 67.8301 64.6377 56.7152 67.9557 45.523C70.9027 35.5741 80.6685 28.2097 91.1786 28.0067C101.631 27.808 112.152 35.5387 115.068 45.5631C118.324 56.7506 114.11 67.8254 104.285 74.4416C102.85 75.406 100.991 77.1502 100.96 78.5716C100.693 90.47 100.808 102.38 100.808 115.276C107.329 115.276 113.304 115.721 119.185 115.156C125.651 114.534 128.275 116.759 127.262 123.205C127.132 124.035 127.399 124.927 127.58 126.827C131.24 126.827 134.891 126.688 138.532 126.856C148.62 127.315 154.443 133.138 154.772 143.218C154.973 149.405 154.723 155.606 154.902 161.794ZM31.5122 164.182C71.5008 164.182 111.159 164.182 151.841 164.182C151.704 160.047 151.591 156.655 151.476 153.27C111.147 153.27 71.3488 153.27 31.5122 153.27C31.5122 157.432 31.5122 160.493 31.5122 164.182ZM151.439 149.988C151.838 135.485 148.571 130.611 139.123 130.52C134.22 130.473 129.32 130.706 124.419 130.694C97.5272 130.639 70.6379 130.475 43.7501 130.505C34.1496 130.515 30.2401 137.098 32.1721 149.988C71.759 149.988 111.419 149.988 151.439 149.988ZM125.575 126.076C126.403 126.05 125.71 122.178 125.626 121.765C125.58 121.536 125.531 121.315 125.479 121.101C125.015 119.187 124.271 118.013 121.812 118.169C119.569 118.313 117.437 118.295 115.192 118.211C110.695 118.043 106.128 118.138 101.625 118.171C92.4857 118.237 83.3378 117.858 74.1943 117.866C71.7065 117.869 69.2208 117.825 66.7327 117.811C64.9379 117.8 63.1323 117.686 61.3376 117.639C60.4194 117.617 59.9493 117.471 59.3399 118.233C58.0663 119.825 56.6355 126.409 59.7198 126.833C61.9073 127.135 64.2519 126.637 66.4612 126.665C71.2053 126.727 75.947 126.654 80.693 126.711C90.7481 126.831 100.827 126.574 110.885 126.416C115.781 126.337 120.68 126.228 125.575 126.076ZM113.787 53.2024C113.838 41.5315 103.635 31.1718 91.8296 30.9023C79.9179 30.6309 69.0131 41.4366 69.2005 53.3284C69.3884 65.2117 79.5209 75.0016 91.5714 74.9467C103.75 74.8892 113.739 65.1117 113.787 53.2024ZM98.1584 83.0014C98.1759 81.4629 99.227 77.0257 97.1123 77.6242C97.057 77.6394 97.0372 77.5379 96.9975 77.4982C96.0658 76.5886 94.0747 77.2598 92.9337 77.3349C91.7682 77.41 90.6159 77.4605 89.4547 77.2995C87.8762 77.081 86.1277 76.6127 85.6995 78.6439C85.1236 81.3634 85.6155 84.4383 85.5273 87.2068C85.3328 93.2821 85.4102 99.3791 85.4853 105.456C85.5051 107.077 85.5098 108.688 85.4479 110.309C85.395 111.757 84.8782 114.026 86.2646 115.046C87.4919 115.951 89.3419 115.284 90.6863 115.108C92.9399 114.812 96.4589 116.152 97.9974 113.746C99.2865 111.735 98.1584 108.189 98.1121 105.944C98.0016 100.671 97.9686 99.6575 97.7944 94.3834C97.717 92.0434 98.1323 85.3437 98.1584 83.0014Z" fill="black"/>
<path d="M43.7503 130.505C70.6377 130.476 97.527 130.639 124.419 130.694C129.32 130.706 134.22 130.474 139.123 130.52C148.571 130.611 151.838 135.485 151.439 149.988C111.419 149.988 71.7592 149.988 32.1723 149.988C30.2403 137.098 34.1498 130.516 43.7503 130.505Z" fill="#AFBCC4"/>
<path d="M31.5122 164.182C31.5122 160.493 31.5122 157.432 31.5122 153.27C71.3488 153.27 111.147 153.27 151.476 153.27C151.591 156.654 151.704 160.047 151.841 164.182C111.159 164.182 71.5009 164.182 31.5122 164.182Z" fill="#778D9B"/>
<path d="M59.7194 126.833C56.6355 126.409 58.0658 119.825 59.3394 118.233C59.9488 117.472 60.419 117.617 61.3372 117.639C63.1319 117.686 64.9375 117.801 66.7322 117.812C69.22 117.825 71.7057 117.869 74.1938 117.867C83.3374 117.858 92.4852 118.238 101.624 118.171C106.127 118.138 110.695 118.043 115.191 118.211C117.436 118.295 119.569 118.313 121.811 118.169C124.271 118.013 125.015 119.187 125.478 121.101C125.531 121.315 125.58 121.536 125.626 121.765C125.71 122.178 126.403 126.051 125.575 126.077C120.679 126.229 115.78 126.337 110.884 126.417C100.827 126.576 90.7477 126.831 80.6926 126.712C75.9462 126.655 71.2048 126.728 66.4608 126.666C64.2515 126.637 61.9069 127.136 59.7194 126.833Z" fill="#8DD1E6"/>
<path d="M98.1585 83.0012C98.1321 85.343 97.7171 92.0432 97.7941 94.3832C97.9684 99.6573 98.0018 100.67 98.1119 105.944C98.1581 108.189 99.2863 111.735 97.9972 113.746C96.4583 116.152 92.9396 114.811 90.686 115.107C89.3416 115.284 87.4917 115.951 86.2644 115.046C84.878 114.026 85.3948 111.757 85.4477 110.309C85.5095 108.688 85.5049 107.076 85.485 105.456C85.41 99.3788 85.3326 93.2818 85.527 87.2066C85.6153 84.4385 85.123 81.3636 85.6993 78.6437C86.1275 76.6125 87.8759 77.0807 89.4544 77.2993C90.6156 77.4603 91.7679 77.4097 92.9334 77.3347C94.0748 77.2596 96.0659 76.5884 96.9973 77.498C97.0374 77.538 97.0568 77.6392 97.112 77.624C99.2272 77.0255 98.1764 81.4627 98.1585 83.0012Z" fill="#8DD1E6"/>
<path fill-rule="evenodd" clip-rule="evenodd" d="M184.733 41.6743C184.733 44.0695 184.751 46.4643 184.728 48.8594C184.712 50.4263 184.583 51.9935 184.598 53.5599C184.646 58.393 183.862 63.1029 182.865 67.7719C180.71 77.8577 176.853 87.0433 170.842 95.0688C169.052 97.4597 166.506 98.4171 164.087 97.35C160.24 95.6533 158.887 90.8252 161.706 87.102C165.017 82.7297 167.599 77.9184 169.225 72.5004C170.41 68.5547 171.839 64.6821 172.332 60.5218C172.64 57.9233 172.926 55.3197 173.13 52.7102C173.449 48.6179 173.253 44.5299 172.797 40.4618C172.373 36.681 171.834 32.9294 170.567 29.3407C169.725 26.9576 169.177 24.4427 168.27 22.0938C166.604 17.7755 164.394 13.803 161.633 10.2015C159.389 7.27476 159.938 3.15215 162.752 0.919927C163.942 -0.0239068 165.307 0.0410406 166.67 0.00176286C168.681 -0.0561816 169.949 1.32321 171.092 2.82821C174.469 7.27671 177.064 12.2518 179.175 17.5613C181.843 24.2708 183.388 31.3042 184.324 38.5239C184.459 39.5662 184.507 40.622 184.595 41.6716C184.642 41.6724 184.687 41.6735 184.733 41.6743Z" fill="#64AFF2"/>
<path fill-rule="evenodd" clip-rule="evenodd" d="M161.584 48.867C161.656 55.5384 160.579 61.9932 158.467 68.222C156.818 73.082 154.612 77.6246 151.376 81.4423C148.607 84.7093 144.258 84.1486 142.105 80.3643C140.925 78.2899 141.151 74.9618 142.638 73.0742C145.878 68.9586 147.706 64.0807 148.9 58.8782C149.816 54.8843 150.103 50.8009 149.932 46.6947C149.625 39.2856 147.814 32.3886 143.968 26.229C143.525 25.5197 142.972 24.8951 142.51 24.199C141.005 21.9337 140.934 19.0388 142.306 16.8447C143.726 14.5756 146.266 13.4983 148.546 14.1563C149.995 14.5744 151.063 15.5665 151.981 16.7996C156.704 23.1401 159.442 30.4792 160.716 38.4899C161.26 41.9082 161.463 45.3923 161.82 48.8468C161.741 48.8534 161.662 48.86 161.584 48.867Z" fill="#F0DCF7"/>
<path fill-rule="evenodd" clip-rule="evenodd" d="M139.198 48.7112C138.991 54.4543 137.804 59.8357 134.972 64.6685C133.924 66.4573 132.768 68.2209 130.793 68.9808C128.35 69.9208 125.774 69.0652 124.197 66.7529C122.69 64.5444 122.597 61.5581 124.118 59.3259C125.665 57.054 126.816 54.6161 127.156 51.783C127.74 46.9137 127.085 42.3808 124.264 38.3671C122.301 35.5737 122.711 32.1492 125.071 29.7283C127.184 27.563 130.665 27.6606 132.744 29.9239C135.624 33.0588 137.264 36.9624 138.141 41.2422C138.644 43.6945 138.855 46.2196 139.198 48.7112Z" fill="#89D0E6"/>
<path fill-rule="evenodd" clip-rule="evenodd" d="M0.00621903 41.6743C0.00621903 44.0695 -0.0112844 46.4643 0.0124378 48.8594C0.0279934 50.4263 0.157105 51.9935 0.141549 53.5599C0.0941048 58.393 0.876936 63.1029 1.87444 67.7719C4.02966 77.8577 7.88704 87.0433 13.8977 95.0688C15.6885 97.4597 18.2338 98.4171 20.6531 97.35C24.5 95.6533 25.8529 90.8252 23.0339 87.102C19.7233 82.7297 17.1411 77.9184 15.5151 72.5004C14.3306 68.5547 12.9006 64.6821 12.4079 60.5218C12.0999 57.9233 11.8148 55.3197 11.6107 52.7102C11.2914 48.6179 11.4874 44.5299 11.9435 40.4618C12.3674 36.681 12.9061 32.9294 14.1738 29.3407C15.0158 26.9576 15.5637 24.4427 16.4702 22.0938C18.137 17.7755 20.3459 13.803 23.1074 10.2015C25.3517 7.27476 24.8029 3.15215 21.9889 0.919927C20.7989 -0.0239068 19.4339 0.0410406 18.0709 0.00176286C16.0599 -0.0561816 14.7914 1.32321 13.6484 2.82821C10.2713 7.27671 7.67589 12.2518 5.56461 17.5613C2.89722 24.2708 1.35177 31.3042 0.416494 38.5239C0.281161 39.5662 0.232936 40.622 0.144659 41.6716C0.0983808 41.6724 0.0524968 41.6735 0.00621903 41.6743Z" fill="#64AFF2"/>
<path fill-rule="evenodd" clip-rule="evenodd" d="M23.1572 48.867C23.0844 55.5384 24.1613 61.9932 26.2737 68.222C27.9222 73.082 30.1288 77.6246 33.3643 81.4423C36.1332 84.7093 40.4822 84.1486 42.635 80.3643C43.8153 78.2899 43.5898 74.9618 42.1026 73.0742C38.862 68.9586 37.0339 64.0807 35.8404 58.8782C34.9238 54.8843 34.6375 50.8009 34.8079 46.6947C35.1159 39.2856 36.9265 32.3886 40.7723 26.229C41.2152 25.5197 41.7682 24.8951 42.2306 24.199C43.7352 21.9337 43.806 19.0388 42.4336 16.8447C41.0145 14.5756 38.4743 13.4983 36.1935 14.1563C34.7449 14.5744 33.677 15.5665 32.7588 16.7996C28.0361 23.1401 25.298 30.4792 24.0244 38.4899C23.4807 41.9082 23.2777 45.3923 22.9199 48.8468C22.9993 48.8534 23.0782 48.86 23.1572 48.867Z" fill="#F0DCF7"/>
<path fill-rule="evenodd" clip-rule="evenodd" d="M45.5425 48.7112C45.749 54.4543 46.9363 59.8357 49.7678 64.6685C50.8158 66.4573 51.9716 68.2209 53.9464 68.9808C56.3894 69.9208 58.9661 69.0652 60.5427 66.7529C62.0493 64.5444 62.143 61.5581 60.6224 59.3259C59.0743 57.054 57.9243 54.6161 57.584 51.783C56.9999 46.9137 57.6548 42.3808 60.4758 38.3671C62.4389 35.5737 62.0294 32.1492 59.6689 29.7283C57.5568 27.563 54.0755 27.6606 51.9961 29.9239C49.1164 33.0588 47.476 36.9624 46.5991 41.2422C46.0959 43.6945 45.8851 46.2196 45.5425 48.7112Z" fill="#89D0E6"/>
</svg>
